<svg width="80" height="50" viewBox="0 0 80 50" fill="none" xmlns="http://www.w3.org/2000/svg">
<rect width="80" height="50" rx="8" fill="white"/>
<path d="M22.561 18C18.7094 18 15.6461 21.1687 15.6461 25.0516C15.6461 28.9794 18.7533 32.1033 22.561 32.1033C26.3684 32.1033 29.476 28.9346 29.476 25.0516C29.476 21.1687 26.3684 18 22.561 18ZM22.561 27.6403C21.1604 27.6403 19.9783 26.4352 19.9783 25.0069C19.9783 23.5789 21.1604 22.3738 22.561 22.3738C23.9613 22.3738 25.143 23.5789 25.143 25.0069C25.0991 26.4799 23.9616 27.6403 22.561 27.6403ZM15.6021 20.0083V30.2734H13.1508L10 20.0083H15.6021Z" fill="#8B3FFD"/>
<g clip-path="url(#clip0_2355_58091)">
<path d="M34.8132 28.124H33.2383V22.4231H34.7931C34.8048 22.5675 34.8165 22.7112 34.8308 22.8955C36.1139 21.9167 37.2935 22.0653 38.4613 23.2475C38.5457 23.1229 38.6059 22.9943 38.7004 22.8988C39.3741 22.2155 40.1984 22.0694 41.0778 22.3608C41.9405 22.6464 42.4914 23.2674 42.5231 24.1864C42.5674 25.4599 42.534 26.7368 42.534 28.0443H40.9139C40.9139 27.4574 40.9139 26.8854 40.9139 26.3134C40.9139 25.7779 40.9198 25.2416 40.9123 24.7061C40.9031 24.0345 40.4717 23.5746 39.8598 23.5663C39.2011 23.5571 38.743 23.9805 38.7271 24.6729C38.7045 25.6891 38.7179 26.7052 38.7162 27.7222C38.7162 27.8302 38.7162 27.9373 38.7162 28.0759H37.0744C37.0744 27.7754 37.0744 27.4782 37.0744 27.1801C37.0728 26.3424 37.082 25.5039 37.0661 24.6663C37.0544 24.0478 36.6573 23.6659 36.0161 23.6094C35.4293 23.558 34.962 23.8942 34.87 24.5027C34.8065 24.9203 34.8191 25.3504 34.8149 25.7754C34.8074 26.5434 34.8124 27.3113 34.8124 28.124H34.8132Z" fill="black"/>
<path d="M62.5343 26.3568C62.882 26.6117 63.2139 26.855 63.5851 27.1273C62.5125 28.033 61.3556 28.4672 59.9846 28.1675C58.8678 27.9234 58.087 27.2875 57.7359 26.19C57.3665 25.036 57.7251 23.7351 58.6078 22.9954C59.5901 22.1726 60.946 21.9983 62.0377 22.5554C63.1579 23.1265 63.7798 24.2357 63.6971 25.4644C63.6745 25.8064 63.5633 25.9309 63.1947 25.9251C61.9015 25.9044 60.6074 25.921 59.3142 25.9251C59.2883 25.9251 59.2616 25.9409 59.1938 25.9625C59.3075 26.4423 59.6335 26.7288 60.0632 26.9122C60.8156 27.2327 61.6398 27.0476 62.5326 26.3577L62.5343 26.3568ZM62.0461 24.6101C61.7034 23.8829 61.0195 23.5267 60.3257 23.6703C59.728 23.794 59.3109 24.1809 59.31 24.6101H62.0461Z" fill="black"/>
<path d="M64.0896 22.3698C64.1874 22.3557 64.2283 22.3441 64.2693 22.3449C64.7834 22.3491 65.4062 22.1805 65.7798 22.4097C66.1284 22.6239 66.2196 23.2565 66.4102 23.7106C66.7077 24.4179 66.9945 25.1302 67.3138 25.9089C67.7602 24.828 68.2016 23.8169 68.5911 22.7866C68.7282 22.4238 68.9105 22.3009 69.2875 22.335C69.6595 22.369 70.0365 22.3424 70.4762 22.3424C70.3776 22.5931 70.2973 22.8057 70.2104 23.0149C69.2607 25.312 68.3052 27.6067 67.3673 29.9088C67.2444 30.2094 67.0973 30.3372 66.7596 30.3106C66.3366 30.2774 65.9086 30.3023 65.4145 30.3023C65.7071 29.6548 65.9604 29.0662 66.2396 28.49C66.37 28.2219 66.37 27.9894 66.2547 27.7121C65.5801 26.0874 64.923 24.4553 64.2601 22.8256C64.2041 22.6886 64.1556 22.5483 64.0879 22.369L64.0896 22.3698Z" fill="black"/>
<path d="M56.4126 28.0753C55.9219 28.0753 55.4797 28.0686 55.0375 28.0777C54.7482 28.0836 54.7842 27.8901 54.7842 27.7133C54.7842 26.7245 54.7934 25.7366 54.78 24.7478C54.7691 23.9434 54.2249 23.4834 53.4249 23.5731C52.8531 23.6379 52.4452 24.0081 52.4176 24.5976C52.375 25.5432 52.3892 26.4904 52.38 27.4377C52.3783 27.6278 52.38 27.8179 52.38 28.0412H50.7725V22.3452H52.3399C52.3633 22.498 52.3883 22.6541 52.3967 22.713C52.9752 22.552 53.542 22.2888 54.1229 22.2539C55.4671 22.1726 56.3323 22.9413 56.3984 24.2705C56.4602 25.5158 56.4118 26.766 56.4118 28.0761L56.4126 28.0753Z" fill="black"/>
<path d="M46.6248 22.2211C48.3979 22.2469 49.6719 23.5063 49.6526 25.214C49.6326 26.9607 48.3335 28.2326 46.5789 28.2235C44.8016 28.2143 43.5134 26.9059 43.5486 25.1459C43.5828 23.3917 44.8418 22.1946 46.6248 22.2211ZM45.0507 25.1858C45.0583 26.1978 45.6526 26.8628 46.5438 26.8569C47.531 26.8503 48.1663 26.1737 48.1471 25.1484C48.1312 24.29 47.4382 23.6399 46.5471 23.6482C45.6877 23.6557 45.0441 24.3166 45.0507 25.1866V25.1858Z" fill="black"/>
</g>
<defs>
<clipPath id="clip0_2355_58091">
<rect width="37.2381" height="8.09524" fill="white" transform="translate(33.2383 22.2188)"/>
</clipPath>
</defs>
</svg>
