<svg width="80" height="50" viewBox="0 0 80 50" fill="none" xmlns="http://www.w3.org/2000/svg">
<rect width="80" height="50" rx="8" fill="white"/>
<g clip-path="url(#clip0_2355_58078)">
<path d="M68.9981 29.5138C68.8942 29.5113 68.7904 29.5071 68.6865 29.5071C68.1092 29.5064 67.5319 29.5071 66.9546 29.5064C66.7527 29.5064 66.6603 29.4142 66.6603 29.2121C66.6601 25.9647 66.6601 22.7173 66.6603 19.4699C66.6603 19.2717 66.7471 19.1754 66.9427 19.175C67.6094 19.1732 68.2759 19.1761 68.9427 19.177C68.961 19.177 68.9796 19.175 68.9979 19.1738V29.5138H68.9981Z" fill="#F59C00"/>
<path d="M25.2984 25.0652C25.6396 24.9969 25.9872 25.0044 26.3329 25.0082C26.6812 25.012 27.0296 25.0361 27.3943 25.0519C27.5054 24.1032 27.4016 23.1743 27.0815 22.2723C26.6077 20.9365 25.7726 19.885 24.5916 19.1153C22.2894 17.615 19.1788 17.8786 17.1587 19.7217C15.0398 21.655 14.5242 24.7254 15.8087 27.2004C16.4587 28.4529 17.4288 29.378 18.7015 29.9729C19.607 30.3961 20.5615 30.5777 21.5716 30.5305C21.5491 30.3386 21.5169 30.1585 21.509 29.9774C21.4903 29.5545 21.4829 29.1312 21.4726 28.708C21.4719 28.6789 21.484 28.6493 21.4911 28.6202C21.5115 28.5361 21.5569 28.5321 21.6058 28.5927C21.6526 28.6507 21.6915 28.7154 21.7295 28.7797C22.0924 29.3955 22.5089 29.9688 23.0265 30.464C23.7453 31.1518 24.5854 31.6297 25.5334 31.9051C26.1679 32.0893 26.8156 32.2266 27.4535 32.4003C28.9962 32.82 30.2964 33.6462 31.3846 34.8176C31.6312 35.083 31.8599 35.3655 32.0965 35.6407C32.111 35.6576 32.1244 35.6759 32.1365 35.6948C32.2002 35.7947 32.1966 35.8833 32.1267 35.9499C32.0609 36.0123 31.9397 36.0191 31.8588 35.9548C31.7506 35.8689 31.6489 35.7751 31.5431 35.686C30.6839 34.9623 29.7571 34.3498 28.7096 33.936C28.0802 33.6873 27.4296 33.5227 26.7575 33.4523C26.1303 33.3867 25.5014 33.4067 24.8733 33.4449C24.4948 33.4679 24.1163 33.4877 23.7382 33.5168C23.3308 33.5481 22.9246 33.5946 22.517 33.6237C21.8972 33.6679 21.2772 33.6956 20.6549 33.6559C19.7923 33.6007 18.9555 33.4277 18.1436 33.1325C16.5188 32.5419 15.1597 31.5699 14.0677 30.2216C13.1136 29.0435 12.4831 27.7067 12.1844 26.2172C12.0979 25.786 12.0482 25.3442 12.0207 24.9049C11.9939 24.4757 11.9917 24.0416 12.0225 23.6127C12.1015 22.5124 12.3691 21.4561 12.833 20.4551C13.7754 18.4207 15.2509 16.9093 17.2504 15.9218C18.0938 15.5053 18.9827 15.2236 19.9153 15.1059C20.3902 15.0459 20.8709 14.9938 21.3481 15.0006C23.5452 15.0315 25.5097 15.7373 27.2017 17.1567C28.8451 18.5353 29.8944 20.2873 30.3518 22.3961C30.522 23.1809 30.5837 23.9758 30.5452 24.7752C30.4721 26.3026 30.0547 27.7313 29.2851 29.0519C29.265 29.0866 29.2268 29.1105 29.1968 29.1394C29.1829 29.1035 29.1624 29.0685 29.1563 29.0313C29.032 28.2759 28.7999 27.5623 28.357 26.93C27.7951 26.1279 27.0247 25.6247 26.1048 25.3401C25.8889 25.2734 25.6653 25.2323 25.4459 25.1766C25.3925 25.1631 25.3415 25.1383 25.2896 25.1187C25.2926 25.1009 25.2955 25.0828 25.2984 25.065V25.0652Z" fill="#F59C00"/>
<path d="M61.3093 25.1455C61.4077 24.8243 61.5065 24.5034 61.6042 24.1821C62.0865 22.596 62.5681 21.01 63.0504 19.424C63.1125 19.2194 63.1693 19.1741 63.3764 19.1739C64.0804 19.1727 64.7843 19.1725 65.4884 19.1739C65.7491 19.1743 65.8465 19.3135 65.7638 19.5618C64.6846 22.7999 63.6053 26.0378 62.5258 29.2757C62.4635 29.4627 62.4022 29.5071 62.2079 29.5073C61.6677 29.5078 61.1278 29.5076 60.5876 29.5073C60.3452 29.5073 60.2998 29.4742 60.2236 29.2464C59.606 27.401 58.9883 25.5557 58.3703 23.7103C58.3587 23.6758 58.345 23.6417 58.3202 23.5757C58.2929 23.6406 58.2744 23.6776 58.2614 23.7164C57.6432 25.5615 57.0254 27.4069 56.4077 29.2523C56.3348 29.4701 56.2847 29.5073 56.0622 29.5073C55.522 29.5073 54.9821 29.5076 54.4419 29.5073C54.2232 29.5073 54.1731 29.4685 54.0996 29.248C53.1679 26.4539 52.2364 23.6598 51.3045 20.8657C51.1579 20.4257 51.0101 19.9862 50.8639 19.546C50.7894 19.322 50.8911 19.175 51.1272 19.1743C51.8425 19.1721 52.5575 19.1727 53.2728 19.1741C53.4588 19.1745 53.5203 19.223 53.5766 19.4075C54.147 21.2795 54.7169 23.1515 55.287 25.0235C55.2987 25.062 55.3119 25.1001 55.3508 25.1434C55.3666 25.106 55.3852 25.0692 55.3982 25.0309C56.0226 23.1639 56.6469 21.2969 57.2709 19.4298C57.3443 19.2106 57.3921 19.1739 57.6164 19.1736C58.0857 19.173 58.555 19.173 59.0243 19.1736C59.2374 19.1741 59.2903 19.2129 59.3581 19.4149C59.9832 21.2851 60.6079 23.1555 61.2329 25.0259C61.2465 25.067 61.2617 25.1073 61.2762 25.1479C61.2874 25.147 61.2984 25.1464 61.3095 25.1455H61.3093Z" fill="#F59C00"/>
<path d="M44.9129 29.5056C44.5254 29.5056 44.1382 29.5024 43.7507 29.5074C43.6163 29.5092 43.5141 29.4643 43.4312 29.3592C43.3292 29.23 43.219 29.1073 43.1184 28.977C43.0638 28.9064 43.0211 28.8881 42.9366 28.9418C42.3083 29.3407 41.6242 29.6005 40.8897 29.7004C39.3888 29.9048 38.0204 29.5579 36.8162 28.6247C35.7533 27.8009 35.0736 26.7162 34.8225 25.3902C34.5126 23.7543 34.8714 22.2603 35.9053 20.9535C36.7674 19.8638 37.8952 19.1891 39.2611 18.9895C41.2036 18.7056 42.8512 19.3178 44.1661 20.792C44.863 21.5734 45.2807 22.5005 45.4289 23.5383C45.6134 24.8303 45.3728 26.0444 44.6938 27.1623C44.6421 27.2475 44.6432 27.299 44.7096 27.3745C45.2035 27.9365 45.6927 28.5025 46.1833 29.0677C46.2202 29.11 46.2705 29.1479 46.2884 29.1975C46.3116 29.2627 46.3342 29.3489 46.3094 29.4043C46.2875 29.4535 46.201 29.5002 46.1419 29.5013C45.7323 29.5097 45.3225 29.5056 44.9129 29.5058V29.5056ZM41.4697 26.9997C41.4384 26.9566 41.4147 26.9201 41.3872 26.8867C41.0686 26.5 40.7499 26.113 40.4298 25.7274C40.3685 25.6534 40.3292 25.5783 40.3743 25.482C40.4202 25.3843 40.5042 25.3737 40.5992 25.374C41.2843 25.3758 41.9694 25.3726 42.6544 25.3771C42.7611 25.3778 42.8103 25.3483 42.8407 25.24C42.9858 24.7256 43.0099 24.2087 42.9035 23.6847C42.6254 22.316 41.4735 21.2548 40.0304 21.3014C39.3474 21.3235 38.7428 21.5461 38.2471 22.0141C37.3573 22.8539 37.0585 23.898 37.3273 25.0853C37.6841 26.6614 39.1506 27.6372 40.7242 27.2902C40.9827 27.2331 41.2289 27.1429 41.469 26.9997H41.4697Z" fill="#F59C00"/>
<path d="M47.4806 24.3327C47.4806 22.7226 47.4797 21.1122 47.483 19.502C47.483 19.4206 47.5011 19.3268 47.5447 19.2616C47.5769 19.2134 47.6639 19.1793 47.727 19.1786C48.3897 19.1728 49.0526 19.1728 49.7155 19.1759C49.885 19.1768 49.9702 19.2745 49.9704 19.4499C49.9713 20.0543 49.9709 20.6585 49.9709 21.2628C49.9709 23.8977 49.9709 26.5326 49.9709 29.1675C49.9709 29.4345 49.8991 29.5065 49.6333 29.5065C49.0188 29.5065 48.4044 29.5067 47.79 29.5065C47.5588 29.5065 47.4812 29.4291 47.4812 29.1968C47.4808 27.5754 47.4812 25.954 47.4812 24.3323L47.4806 24.3327Z" fill="#F59C00"/>
<path d="M25.4454 30.3587C25.4413 29.9197 25.7584 29.6835 26.2004 29.8053C26.5657 29.9059 26.8323 30.1402 26.9977 30.4778C27.2068 30.9045 26.9402 31.3226 26.4665 31.3296C25.9102 31.3379 25.4503 30.9006 25.4454 30.3587Z" fill="#FF5C00"/>
<path d="M28.578 29.3089C28.5601 29.3998 28.5538 29.4949 28.5218 29.5802C28.4773 29.6992 28.3821 29.727 28.2699 29.6713C28.2564 29.6647 28.2424 29.6582 28.2314 29.6485C27.89 29.3456 27.6487 28.9871 27.6407 28.5115C27.6369 28.2844 27.8173 28.1657 28.0297 28.2397C28.1829 28.2929 28.2839 28.4064 28.3593 28.5444C28.4885 28.7812 28.5574 29.0353 28.5782 29.3086L28.578 29.3089Z" fill="#FF5C00"/>
</g>
<defs>
<clipPath id="clip0_2355_58078">
<rect width="57" height="21" fill="white" transform="translate(12 15)"/>
</clipPath>
</defs>
</svg>
