<svg width="80" height="50" viewBox="0 0 80 50" fill="none" xmlns="http://www.w3.org/2000/svg">
<rect width="80" height="50" rx="8" fill="white"/>
<rect x="7" y="18" width="14" height="14" rx="3.57807" fill="#1C83FF"/>
<path d="M15.142 26.5581C14.9418 26.4353 14.8786 26.1731 15.0035 25.9739C15.1269 25.7747 15.3903 25.7117 15.5905 25.8361C15.6838 25.8945 15.7877 25.9394 15.8961 25.9694C16.0014 25.9994 16.1128 26.0158 16.2272 26.0158C16.5599 26.0158 16.8609 25.881 17.0792 25.6653C17.2974 25.4481 17.4314 25.1485 17.4314 24.8174C17.4314 24.4864 17.2959 24.1868 17.0792 23.9696C16.8609 23.7524 16.5599 23.619 16.2272 23.619C15.9819 23.619 15.7486 23.6924 15.5529 23.8243C15.3572 23.9561 15.2007 24.1433 15.1089 24.368C15.1073 24.371 15.1058 24.3755 15.1043 24.3785L15.0035 24.6467C14.999 24.6631 14.9929 24.6796 14.9854 24.6946L14.132 26.9596C14.0974 27.051 14.0326 27.1304 13.9408 27.1813C13.7361 27.2966 13.4757 27.2247 13.3598 27.0195L12.6629 25.7926L11.9389 27.0225C11.8922 27.1019 11.82 27.1663 11.7282 27.2023C11.5084 27.2891 11.2615 27.1813 11.1742 26.9641L9.7443 23.3883C9.657 23.1696 9.76387 22.924 9.98363 22.8371C10.2034 22.7502 10.4502 22.858 10.5375 23.0753L11.6439 25.8421L12.3031 24.7231C12.4221 24.5208 12.684 24.4519 12.8872 24.5718C12.9609 24.6152 13.0166 24.6766 13.0527 24.747L13.6548 25.8061L14.1862 24.3935C14.1937 24.3635 14.2012 24.3336 14.2042 24.3051C14.2087 24.2767 14.2102 24.2437 14.2102 24.2062C14.2102 24.0804 14.1771 23.9591 14.1184 23.8557C14.0582 23.7494 13.9724 23.6595 13.8656 23.5951C13.6623 23.4752 13.5976 23.2131 13.718 23.0123C13.84 22.8101 14.1019 22.7457 14.3036 22.8655C14.5053 22.9854 14.6723 23.1472 14.7988 23.3344C14.8846 23.2535 14.9764 23.1786 15.0727 23.1142C15.4069 22.8895 15.8058 22.7637 16.2257 22.7637C16.7947 22.7637 17.311 22.9929 17.6828 23.3644C18.056 23.7359 18.2863 24.2482 18.2863 24.8144C18.2863 25.3807 18.056 25.8945 17.6828 26.2645C17.3095 26.636 16.7947 26.8652 16.2257 26.8652C16.0346 26.8652 15.8449 26.8382 15.6613 26.7858C15.4821 26.7364 15.3075 26.66 15.142 26.5581ZM11.7598 23.4213C11.6544 23.2116 11.7402 22.9569 11.9509 22.8521C12.1617 22.7472 12.4175 22.8326 12.5229 23.0423L12.8089 23.6115C12.9143 23.8213 12.8285 24.0759 12.6177 24.1823C12.407 24.2871 12.1511 24.2018 12.0458 23.992L11.7598 23.4213Z" fill="white"/>
<path d="M28.8527 24.7503L29.8427 21.1631H31.4383L29.5865 26.9864H28.1539L27.0824 23.4575L26.0109 26.9864H24.5784L22.7266 21.1631H24.3222L25.3121 24.7386L26.372 21.1631H27.7929L28.8527 24.7503Z" fill="black"/>
<path d="M36.8657 26.2643C36.2756 26.8544 35.5457 27.1495 34.6761 27.1495C33.8065 27.1495 33.0766 26.8544 32.4865 26.2643C31.8964 25.6742 31.6014 24.9444 31.6014 24.0747C31.6014 23.2129 31.8964 22.4869 32.4865 21.8968C33.0844 21.2989 33.8143 21 34.6761 21C35.538 21 36.2678 21.2989 36.8657 21.8968C37.4636 22.4947 37.7625 23.2206 37.7625 24.0747C37.7625 24.9366 37.4636 25.6665 36.8657 26.2643ZM33.5464 25.2278C33.8492 25.5306 34.2258 25.682 34.6761 25.682C35.1265 25.682 35.503 25.5306 35.8059 25.2278C36.1087 24.925 36.2601 24.5406 36.2601 24.0747C36.2601 23.6089 36.1087 23.2245 35.8059 22.9217C35.503 22.6189 35.1265 22.4675 34.6761 22.4675C34.2258 22.4675 33.8492 22.6189 33.5464 22.9217C33.2513 23.2323 33.1038 23.6166 33.1038 24.0747C33.1038 24.5328 33.2513 24.9172 33.5464 25.2278Z" fill="black"/>
<path d="M43.6645 26.2643C43.0744 26.8544 42.3445 27.1495 41.4749 27.1495C40.6053 27.1495 39.8754 26.8544 39.2853 26.2643C38.6952 25.6742 38.4002 24.9444 38.4002 24.0747C38.4002 23.2129 38.6952 22.4869 39.2853 21.8968C39.8832 21.2989 40.613 21 41.4749 21C42.3368 21 43.0666 21.2989 43.6645 21.8968C44.2624 22.4947 44.5613 23.2206 44.5613 24.0747C44.5613 24.9366 44.2624 25.6665 43.6645 26.2643ZM40.3452 25.2278C40.648 25.5306 41.0246 25.682 41.4749 25.682C41.9252 25.682 42.3018 25.5306 42.6046 25.2278C42.9075 24.925 43.0589 24.5406 43.0589 24.0747C43.0589 23.6089 42.9075 23.2245 42.6046 22.9217C42.3018 22.6189 41.9252 22.4675 41.4749 22.4675C41.0246 22.4675 40.648 22.6189 40.3452 22.9217C40.0501 23.2323 39.9026 23.6166 39.9026 24.0747C39.9026 24.5328 40.0501 24.9172 40.3452 25.2278Z" fill="black"/>
<path d="M48.891 21C49.6752 21 50.3429 21.2989 50.8942 21.8968C51.4533 22.4947 51.7328 23.2206 51.7328 24.0747C51.7328 24.9444 51.4533 25.6742 50.8942 26.2643C50.3507 26.8544 49.6829 27.1495 48.891 27.1495C48.0757 27.1495 47.4468 26.8661 47.0042 26.2993V29.3158H45.5018V21.1631H47.0042V21.8502C47.4468 21.2834 48.0757 21 48.891 21ZM47.4584 25.2627C47.7612 25.5655 48.1456 25.7169 48.6114 25.7169C49.0773 25.7169 49.4617 25.5655 49.7645 25.2627C50.0751 24.9521 50.2303 24.5561 50.2303 24.0747C50.2303 23.5933 50.0751 23.2012 49.7645 22.8984C49.4617 22.5878 49.0773 22.4325 48.6114 22.4325C48.1456 22.4325 47.7612 22.5878 47.4584 22.8984C47.1556 23.2012 47.0042 23.5933 47.0042 24.0747C47.0042 24.5561 47.1556 24.9521 47.4584 25.2627Z" fill="black"/>
<path d="M56.0651 21C56.8493 21 57.517 21.2989 58.0683 21.8968C58.6274 22.4947 58.9069 23.2206 58.9069 24.0747C58.9069 24.9444 58.6274 25.6742 58.0683 26.2643C57.5248 26.8544 56.8571 27.1495 56.0651 27.1495C55.2498 27.1495 54.6209 26.8661 54.1783 26.2993V29.3158H52.6759V21.1631H54.1783V21.8502C54.6209 21.2834 55.2498 21 56.0651 21ZM54.6325 25.2627C54.9354 25.5655 55.3197 25.7169 55.7856 25.7169C56.2514 25.7169 56.6358 25.5655 56.9386 25.2627C57.2492 24.9521 57.4045 24.5561 57.4045 24.0747C57.4045 23.5933 57.2492 23.2012 56.9386 22.8984C56.6358 22.5878 56.2514 22.4325 55.7856 22.4325C55.3197 22.4325 54.9354 22.5878 54.6325 22.8984C54.3297 23.2012 54.1783 23.5933 54.1783 24.0747C54.1783 24.5561 54.3297 24.9521 54.6325 25.2627Z" fill="black"/>
<path d="M64.2758 21.8502V21.1631H65.7782V26.9864H64.2758V26.2993C63.8254 26.8661 63.1926 27.1495 62.3773 27.1495C61.6009 27.1495 60.9332 26.8544 60.3741 26.2643C59.8228 25.6665 59.5472 24.9366 59.5472 24.0747C59.5472 23.2206 59.8228 22.4947 60.3741 21.8968C60.9332 21.2989 61.6009 21 62.3773 21C63.1926 21 63.8254 21.2834 64.2758 21.8502ZM61.5038 25.2627C61.8067 25.5655 62.191 25.7169 62.6569 25.7169C63.1227 25.7169 63.5071 25.5655 63.8099 25.2627C64.1205 24.9521 64.2758 24.5561 64.2758 24.0747C64.2758 23.5933 64.1205 23.2012 63.8099 22.8984C63.5071 22.5878 63.1227 22.4325 62.6569 22.4325C62.191 22.4325 61.8067 22.5878 61.5038 22.8984C61.201 23.2012 61.0496 23.5933 61.0496 24.0747C61.0496 24.5561 61.201 24.9521 61.5038 25.2627Z" fill="black"/>
<path d="M69.5282 25.0764L70.821 21.1631H72.4282L70.3085 26.9864C70.0057 27.825 69.6019 28.4306 69.0972 28.8033C68.6003 29.1838 67.9792 29.3546 67.2338 29.3158V27.9182C67.6298 27.9259 67.9481 27.8405 68.1888 27.6619C68.4295 27.4834 68.6197 27.1961 68.7595 26.8001L66.3719 21.1631H68.0141L69.5282 25.0764Z" fill="black"/>
</svg>
