<svg width="80" height="50" viewBox="0 0 80 50" fill="none" xmlns="http://www.w3.org/2000/svg">
<rect width="80" height="50" rx="8" fill="white"/>
<path fill-rule="evenodd" clip-rule="evenodd" d="M25.1515 11.0017C25.476 10.9997 26.4403 10.9129 26.8487 12.2914C27.1239 13.2201 27.5621 14.7412 28.1636 16.8547H28.4085C29.0535 14.6264 29.4966 13.1053 29.7377 12.2914C30.1504 10.8985 31.1822 11.0017 31.5949 11.0017L34.7791 11.0017V20.9068H31.5337V15.0696H31.3161L29.5069 20.9068H27.0652L25.256 15.0653H25.0384V20.9068H21.793V11.0017L25.1515 11.0017ZM39.4394 11.0017V16.8433H39.6984L41.899 12.0398C42.3262 11.0839 43.2367 11.0017 43.2367 11.0017H46.3773V20.9068H43.0641V15.0653H42.8052L40.6477 19.8688C40.2205 20.8203 39.2668 20.9068 39.2668 20.9068H36.1263V11.0017H39.4394ZM57.8291 15.7087C57.367 17.0183 55.9156 17.9563 54.3088 17.9563H50.8342V20.9068H47.6836V15.7087H57.8291Z" fill="#0F754E"/>
<path fill-rule="evenodd" clip-rule="evenodd" d="M54.459 11.002H47.5166C47.6818 13.2072 49.5809 15.095 51.5468 15.095H58.0463C58.4213 13.2622 57.1302 11.002 54.459 11.002Z" fill="url(#paint0_linear_2355_58051)"/>
<path fill-rule="evenodd" clip-rule="evenodd" d="M24.5584 28.205L23.1159 36.6329H25.4228L26.8653 28.205H24.5584ZM33.7891 28.4116C33.7891 28.4117 33.7892 28.4117 33.7893 28.4117V28.4101L33.7891 28.4116ZM33.7891 28.4116C33.1293 28.1743 32.4286 28.0545 31.7225 28.0582C29.4417 28.0582 27.8366 29.2017 27.8235 30.8399C27.8087 32.0514 28.9687 32.7266 29.8434 33.1293C30.7425 33.5395 31.0442 33.8061 31.0407 34.1752C31.0347 34.7396 30.3234 34.9955 29.6599 34.9955C28.7365 34.9955 28.2461 34.8684 27.4861 34.5534L27.1896 34.4189L26.867 36.3056C27.4053 36.5402 28.4017 36.7444 29.4373 36.7551C31.8607 36.7551 33.4372 35.6255 33.4545 33.8766C33.4624 32.916 32.8459 32.1876 31.5172 31.5863C30.7112 31.1959 30.213 30.9366 30.2225 30.5413C30.2225 30.191 30.6408 29.8161 31.5442 29.8161C32.1377 29.8036 32.7269 29.9142 33.2702 30.1401L33.4772 30.2369L33.7891 28.4116ZM37.9248 28.2132H39.7073L41.5759 36.6353H39.4351C39.4351 36.6353 39.223 35.6674 39.1543 35.3729L36.1979 35.3688C36.1083 35.5968 35.7127 36.6361 35.7127 36.6361H33.2902L36.7161 28.9121C36.9579 28.3625 37.3718 28.2132 37.9248 28.2132ZM37.7804 31.2886C37.7804 31.2886 37.0526 33.1597 36.8613 33.6445H38.776C38.6847 33.2261 38.243 31.2115 38.243 31.2115L38.0874 30.4847C38.0301 30.6379 37.9518 30.8402 37.8885 31.0036C37.8231 31.1725 37.7738 31.2998 37.7804 31.2886ZM18.9196 33.9546L21.1803 28.2124H23.6246L19.9917 36.6255H17.5501L15.5119 29.3503C14.7754 28.932 13.9347 28.5984 13 28.3841L13.0304 28.2183H16.7414C17.2411 28.2331 17.6462 28.3887 17.7842 28.8923L18.6653 32.7423C18.6705 32.7581 18.6755 32.7739 18.6805 32.7897L18.9196 33.9546Z" fill="#084CB3"/>
<path d="M59.1232 27.2969H53.3564V37.5163H59.1232V27.2969Z" fill="#FF5F00"/>
<path d="M53.7228 32.4067C53.7228 30.3303 54.7114 28.4887 56.2309 27.297C55.1141 26.4303 53.7045 25.9067 52.1667 25.9067C48.5236 25.9067 45.5762 28.8137 45.5762 32.4067C45.5762 35.9998 48.5236 38.9067 52.1667 38.9067C53.7045 38.9067 55.1141 38.3831 56.2309 37.5165C54.7114 36.3428 53.7228 34.4831 53.7228 32.4067Z" fill="#EB001B"/>
<path d="M66.9037 32.4067C66.9037 35.9998 63.9563 38.9067 60.3132 38.9067C58.7754 38.9067 57.3658 38.3831 56.249 37.5165C57.7868 36.3248 58.7571 34.4831 58.7571 32.4067C58.7571 30.3303 57.7685 28.4887 56.249 27.297C57.3658 26.4303 58.7754 25.9067 60.3132 25.9067C63.9563 25.9067 66.9037 28.8317 66.9037 32.4067Z" fill="#F79E1B"/>
<defs>
<linearGradient id="paint0_linear_2355_58051" x1="58.11" y1="13.5766" x2="47.5166" y2="13.5766" gradientUnits="userSpaceOnUse">
<stop stop-color="#1F5CD7"/>
<stop offset="1" stop-color="#02AEFF"/>
</linearGradient>
</defs>
</svg>
