<svg width="24" height="24" viewBox="0 0 24 24" fill="none" xmlns="http://www.w3.org/2000/svg">
<rect width="24" height="24" rx="3" fill="white"/>
<path d="M18.1666 15.88C18.1666 17.112 17.8366 18.0653 17.1766 18.74C16.5313 19.4147 15.6 19.752 14.3826 19.752C13.1653 19.752 12.2266 19.4147 11.5666 18.74C10.9213 18.0653 10.5986 17.112 10.5986 15.88V14.67C10.5986 13.086 11.0973 12.0153 12.0946 11.458C11.0973 10.9153 10.5986 9.88133 10.5986 8.356V7.872C10.5986 6.64 10.9213 5.68667 11.5666 5.012C12.2266 4.33733 13.1653 4 14.3826 4C15.6 4 16.5313 4.33733 17.1766 5.012C17.8366 5.68667 18.1666 6.64 18.1666 7.872V8.356C18.1666 9.86667 17.668 10.9007 16.6706 11.458C17.668 12.0153 18.1666 13.086 18.1666 14.67V15.88ZM13.0186 8.818C13.0186 9.90333 13.4733 10.446 14.3826 10.446C15.292 10.446 15.7466 9.90333 15.7466 8.818V7.96C15.7466 7.31467 15.622 6.86 15.3726 6.596C15.138 6.332 14.808 6.2 14.3826 6.2C13.9573 6.2 13.62 6.332 13.3706 6.596C13.136 6.86 13.0186 7.31467 13.0186 7.96V8.818ZM13.0186 15.814C13.0186 16.4447 13.136 16.892 13.3706 17.156C13.62 17.42 13.9573 17.552 14.3826 17.552C14.808 17.552 15.138 17.4273 15.3726 17.178C15.6073 16.914 15.732 16.4593 15.7466 15.814V14.384C15.7466 13.2253 15.292 12.646 14.3826 12.646C13.4733 12.646 13.0186 13.2253 13.0186 14.384V15.814Z" fill="black"/>
<path d="M5 6.11178C5.58667 6.11178 6.04867 6.03111 6.386 5.86978C6.738 5.69378 6.99467 5.47378 7.156 5.20978C7.332 4.94578 7.50067 4.60112 7.662 4.17578H9.29V19.5758H6.87V7.82778H5V6.11178Z" fill="black"/>
</svg>
