<svg width="190" height="190" viewBox="0 0 190 190" fill="none" xmlns="http://www.w3.org/2000/svg">
<g clip-path="url(#clip0_2355_59069)">
<rect width="190" height="190" rx="40" fill="#F5CE1B"/>
<mask id="mask0_2355_59069" style="mask-type:luminance" maskUnits="userSpaceOnUse" x="38" y="59" width="115" height="70">
<path d="M152.722 59.5H38V128.5H152.722V59.5Z" fill="white"/>
</mask>
<g mask="url(#mask0_2355_59069)">
<path d="M152.355 115.371C151.162 115.752 150.152 115.181 149.235 115.847C149.143 115.847 149.051 115.847 148.959 115.752C147.583 115.276 147.583 115.276 147.583 116.703C147.583 119.178 147.583 121.652 147.583 124.127C147.583 126.316 146.114 127.838 144.003 127.838C142.902 127.838 141.801 127.743 140.699 127.838C139.965 127.933 139.506 127.172 138.772 127.362C136.661 128.029 134.55 127.743 132.348 127.743C126.474 127.743 120.6 127.743 114.634 127.743C114.451 127.743 113.533 128.219 113.992 127.172C114.176 126.887 113.625 126.982 113.441 126.982C113.258 126.982 112.891 126.982 113.074 127.267C113.533 128.124 112.891 127.838 112.524 127.838C104.631 127.838 96.8295 127.838 88.9367 127.838C87.9271 127.838 86.9175 127.838 85.908 127.838C85.3573 127.838 84.8984 127.838 84.8984 126.982C83.9807 127.838 81.5944 128.124 80.5849 127.553C79.7589 126.982 78.8411 126.887 78.1069 127.553C77.8315 128.029 77.4644 128.029 77.0973 128.029C75.2618 128.029 73.4262 127.743 71.6824 128.124C69.8469 128.504 68.0113 128.314 66.2675 128.41C64.1566 128.504 62.0457 128.695 59.9348 128.41C55.4377 127.743 51.0324 128.41 46.5353 127.933C44.8833 127.743 43.0477 126.601 43.1395 124.317C43.2313 121.842 43.1395 119.368 43.1395 116.893C43.1395 116.037 42.8642 116.037 42.2217 115.942C41.2122 115.847 40.1109 116.322 39.1013 115.656C38.1835 115.085 37.6329 114.133 38.0917 113.182C38.4589 112.421 38.3671 111.754 38.3671 110.993C38.3671 109.851 39.0095 109.184 40.1109 109.09C40.2027 109.09 40.2944 109.09 40.2944 109.09C41.2122 108.994 42.3135 109.47 42.8642 108.899C43.3231 108.328 43.0477 107.186 43.0477 106.329C43.0477 101.476 43.0477 96.7168 43.0477 91.8632C43.0477 87.866 43.0477 83.8687 43.0477 79.9666C43.0477 79.1101 42.7724 78.9197 42.0382 79.0149C41.4875 79.1101 40.8451 78.9197 40.2944 79.0149C39.0095 79.3956 38.6424 78.2535 38 77.5873C37.8164 77.397 37.8164 76.9211 38 76.826C38.5506 76.2549 38.4589 75.4935 38.3671 74.8273C38.2753 74.066 39.1013 73.4949 38.6424 72.7335C38.6424 72.7335 38.7342 72.6383 38.826 72.6383C39.8355 72.5432 40.8451 72.3529 41.7629 72.5432C42.8642 72.7335 43.1395 72.6383 43.1395 71.5915C43.1395 68.6411 43.1395 65.5956 43.1395 62.6453C43.1395 61.5032 44.1491 60.2659 45.1586 60.0756C48.0955 59.5046 51.1242 59.5046 54.0611 59.7901C60.1184 60.3611 66.2675 59.8853 72.3249 60.1708C73.6098 60.2659 74.8029 60.0756 76.0878 60.0756C80.0342 60.1708 84.0724 60.0756 88.0189 60.0756C88.2942 60.0756 89.212 59.6949 88.6613 60.7418C88.5695 60.837 88.9366 61.3128 89.212 61.2177C89.3955 61.1225 89.7627 60.9322 89.5791 60.5515C89.212 59.8853 89.6709 60.0756 89.9462 60.0756C95.1775 60.0756 100.409 60.0756 105.64 60.0756C107.109 61.0273 108.485 60.4563 109.954 60.1708C111.514 59.8853 113.074 60.1708 114.726 60.0756C116.103 60.0756 117.48 59.6949 118.856 59.6949C119.774 59.6949 120.416 60.0756 121.334 60.0756C122.894 60.0756 124.455 59.9804 126.015 60.0756C127.024 60.1708 128.218 59.6949 129.044 60.0756C130.237 60.6466 131.522 59.3142 132.623 60.3611C132.623 60.3611 132.715 60.3611 132.806 60.3611C134.091 59.1239 135.376 59.7901 136.753 60.0756C137.854 60.3611 139.139 59.9804 140.24 60.1708C141.801 60.4563 143.269 60.4563 144.829 60.5515C145.564 60.5515 146.114 61.3128 146.298 61.8839C146.481 62.5501 146.94 63.2163 146.848 64.0729C146.481 66.7377 147.307 69.3073 147.307 72.0673C147.307 73.2094 148.317 72.6383 148.868 72.5432C149.877 72.2577 150.887 72.8287 151.896 72.6383C151.988 72.6383 152.08 72.7335 152.172 72.7335C151.621 73.3997 152.355 73.8756 152.355 74.4466C152.355 75.3032 152.263 76.0646 152.722 76.9211C153.089 77.6825 152.08 79.0149 151.254 79.0149C150.152 79.0149 149.143 79.0149 148.042 79.0149C147.491 79.0149 147.307 79.2052 147.307 79.7763C147.307 80.8232 147.399 81.7749 147.307 82.8218C147.216 83.3929 147.95 83.6783 147.674 84.2494C146.848 85.9625 147.491 87.7708 147.307 89.4839C147.216 90.1501 147.95 90.626 147.674 91.2922C147.032 93.1955 147.491 95.1942 147.307 97.0976C147.216 97.764 147.583 98.335 147.583 99.001C147.583 101.095 147.032 103.189 147.307 105.282C147.399 106.234 147.583 107.186 147.307 108.138C147.124 108.899 147.583 109.28 148.317 109.28C148.959 109.28 149.694 109.375 150.244 109.28C151.437 108.899 151.988 109.851 152.539 110.612C152.63 110.707 152.722 110.993 152.63 111.088C151.988 112.135 152.447 113.372 152.172 114.419C151.988 114.704 151.713 114.99 152.355 115.371ZM74.4358 122.033C74.8029 121.272 75.3535 121.176 75.996 121.176C77.2809 121.176 78.5658 121.176 79.8507 121.176C81.2273 121.176 82.5122 121.272 83.8889 121.557C84.6231 121.747 85.3573 121.272 86.1833 121.462C87.1011 121.747 88.2024 121.747 89.212 121.462C90.1298 121.176 91.0475 122.604 91.7818 121.367C92.9749 121.842 94.168 121.272 95.3611 121.176C97.9309 121.081 100.501 121.176 103.07 121.176C107.384 121.081 111.606 121.272 115.919 121.557C117.296 121.652 118.581 121.367 119.958 121.176C121.518 120.986 123.17 121.081 124.73 121.176C127.116 121.367 129.502 120.701 131.797 121.557C131.889 121.557 132.072 121.557 132.072 121.462C132.439 120.986 132.898 121.176 133.265 121.176C135.56 121.081 137.854 121.081 140.057 121.557C140.883 121.747 141.066 121.367 141.066 120.51C140.791 114.038 141.434 107.567 140.699 101.095C140.424 98.6206 140.516 96.1461 140.699 93.6716C140.791 92.91 139.873 91.6728 141.342 91.2922C141.342 91.2922 141.434 91.1018 141.342 91.1018C140.332 90.0549 142.076 88.3418 140.699 87.2949C140.608 87.1997 140.699 86.9142 140.699 86.8191C140.424 85.4866 141.25 84.3446 141.066 83.1073C140.975 82.1556 140.608 81.2991 140.608 80.3473C140.699 76.1597 140.608 71.9721 140.608 67.8797C140.608 67.4991 140.883 66.928 140.149 66.928C138.497 66.8329 136.845 66.8329 135.193 66.5473C134 66.357 132.806 66.5473 131.613 66.5473C128.218 66.5473 124.73 66.0715 121.334 66.8329C119.774 67.2135 118.03 66.4521 116.378 66.8329C115.552 67.0232 114.818 66.357 113.9 66.8329C113.625 66.928 113.258 66.7377 113.074 66.357C112.982 66.1666 113.717 65.5956 112.891 65.6908C112.524 65.6908 111.789 65.3101 111.789 66.1666C111.789 66.357 111.606 66.4521 111.422 66.4521C111.239 66.4521 111.055 66.357 111.055 66.1666C111.055 65.9763 111.055 65.6908 110.688 65.6908C110.413 65.8811 110.688 66.5473 110.229 66.4521C109.128 66.1666 108.21 66.928 107.109 66.8329C102.979 66.6425 98.8487 66.6425 94.7187 66.5473C86.8258 66.357 78.9329 65.9763 71.04 66.8329C69.0209 67.0232 67.0017 66.8329 64.9826 66.928C63.0553 67.0232 61.0362 66.6425 59.1088 66.928C56.5391 67.3087 54.0611 66.5473 51.4913 66.5473C49.564 66.5473 49.6557 66.5473 49.564 68.546C49.4722 69.8783 49.4722 71.306 49.1968 72.6383C49.1051 72.9239 49.1051 73.3046 49.1968 73.4949C49.7475 74.637 49.4722 75.7791 49.564 76.9211C49.6557 77.6825 49.564 78.3487 48.4626 78.4439C49.8393 78.2535 49.564 79.1101 49.564 79.7763C49.564 82.8218 49.564 85.7721 49.564 88.8177C49.564 89.1983 49.564 89.5791 49.2886 89.9597C48.9215 90.4356 49.0133 91.197 49.1968 91.5777C49.564 92.1487 49.4722 92.7197 49.4722 93.2908C49.4722 100.904 49.4722 108.423 49.4722 116.037C49.4722 116.227 49.9311 117.084 49.0133 116.513C48.6462 116.322 48.738 116.798 48.738 116.989C48.738 117.179 48.6462 117.655 49.0133 117.464C49.9311 116.989 49.564 117.75 49.564 118.036C49.564 118.797 49.564 119.653 49.564 120.415C49.564 121.081 49.6557 121.367 50.39 121.272C52.042 121.081 53.694 121.842 55.346 121.747C55.8966 121.747 56.5391 122.509 56.8144 121.367C56.8144 121.272 57.4568 121.176 57.5486 121.367C57.9157 121.842 58.4664 121.747 58.9253 121.652C61.4033 121.462 63.9731 121.938 66.4511 121.367C68.1031 120.986 69.8469 121.557 71.4989 121.367C72.1413 121.272 72.8755 121.462 73.6098 121.272C74.344 121.176 74.5275 121.272 74.4358 122.033Z" fill="black"/>
<path d="M114.084 75.0149C114.084 77.5846 114.176 80.2494 113.993 82.8191C113.901 83.866 113.717 84.9129 113.717 86.0549C113.717 86.626 113.717 87.1019 113.993 87.6729C114.543 88.8149 113.35 91.8605 111.974 92.5267C113.993 93.5735 114.176 95.2867 113.993 97.2854C113.901 97.8564 114.084 98.5225 114.084 99.0935C113.901 102.139 114.635 105.185 114.268 108.23C114.084 109.943 114.635 111.847 113.35 113.369C112.708 114.131 112.065 114.702 111.148 114.702C107.293 114.797 103.346 114.702 99.4917 114.702C98.8493 114.702 98.6657 114.416 99.1246 113.845C99.4917 113.465 99.4 112.799 99.2164 112.513C98.6657 111.847 98.8493 111.18 98.8493 110.419C98.8493 107.754 98.8493 104.994 98.8493 102.329C98.8493 101.759 98.9411 101.282 99.1246 100.711C99.3082 100.236 99.0328 99.4743 98.9411 98.808C98.9411 98.6177 98.8493 98.4275 98.8493 98.2369C98.8493 97.1901 99.0328 96.2386 98.1151 95.382C97.6562 95.0012 97.748 94.1446 97.6562 93.4786C97.5644 93.0025 98.1151 92.2412 97.2891 91.9557C98.1151 91.7653 97.3808 90.8136 97.9315 90.4329C98.7575 89.8619 98.7575 89.1957 98.9411 88.0536C99.2164 86.5308 98.7575 85.0081 98.8493 83.4853C98.9411 80.1543 98.8493 76.9184 98.8493 73.5874C98.8493 73.1115 98.7575 72.7308 99.4917 72.7308C102.704 72.7308 105.824 72.6357 109.037 72.826C109.863 72.826 110.597 73.2067 111.423 72.826C112.341 72.5405 112.8 73.3019 113.442 73.8729C113.626 73.9681 113.626 74.1584 113.534 74.3488C113.35 74.5391 113.167 74.7295 113.35 75.0149C113.717 75.4908 113.901 74.7295 114.084 75.0149ZM106.65 109.468C107.293 109.562 108.027 109.562 108.211 108.611C108.302 108.135 107.935 107.849 107.935 107.374C107.935 106.041 108.211 104.804 108.027 103.471C107.844 102.234 107.935 100.997 108.027 99.6646C108.119 98.6177 107.66 97.5709 108.027 96.4288C108.119 96.048 108.027 95.6675 107.476 95.6675C106.926 95.6675 106.467 95.6675 105.916 95.6675C104.998 95.6675 104.723 96.1433 104.815 97.0948C105.09 100.14 104.907 103.186 104.907 106.231C104.907 106.517 104.815 106.802 104.631 107.088C104.172 107.945 104.631 109.182 105.549 109.372C105.824 109.562 106.192 109.468 106.65 109.468ZM106.467 78.5363C106.1 78.5363 105.733 78.5363 105.457 78.5363C105.09 78.5363 104.907 78.6315 104.907 79.1074C104.815 81.106 104.815 83.1998 104.723 85.1984C104.631 86.4357 104.815 87.8632 104.907 89.1957C104.907 89.4812 104.907 89.7667 105.274 89.8619C105.916 89.957 106.65 90.1474 107.293 89.957C107.752 89.8619 108.027 89.6715 108.027 89.0053C108.027 87.9584 107.752 86.8163 108.302 85.7695C108.486 85.5791 108.486 85.1032 108.302 84.8177C107.66 83.7708 108.027 82.6288 108.027 81.4867C108.027 80.9157 107.752 80.2495 108.119 79.6784C108.67 78.8219 108.027 78.6315 107.476 78.4412C107.201 78.4412 106.834 78.5363 106.467 78.5363Z" fill="black"/>
<path d="M86.9171 97.5736C87.5595 97.0978 88.6608 97.9541 88.5691 96.717C88.4773 95.2894 87.2842 96.1459 86.5499 95.7651C87.1924 95.4796 88.3855 96.1459 88.2937 94.7183C88.2019 93.5762 87.2842 94.3378 86.6417 93.8617C88.2937 94.3378 88.2019 93.3859 88.2019 92.4341C88.2019 86.7239 88.2019 80.9184 88.2019 75.208C88.2019 73.9708 89.4868 73.1142 90.5882 73.6853C90.9553 73.8756 91.2306 73.7804 91.5977 73.7804C93.8922 73.7804 95.0853 75.3984 93.984 77.6825C93.6168 78.4439 93.2497 79.2053 94.1675 79.8715C94.4428 80.0618 94.3511 80.4425 94.3511 80.8232C94.3511 82.5363 94.3511 84.1542 94.3511 85.8673C94.3511 86.9142 94.8099 87.8659 94.7182 88.9129C94.6264 90.4356 94.7182 91.8632 94.6264 93.3859C94.6264 93.8617 94.8099 93.957 95.1771 93.957C95.4524 93.957 95.7277 93.957 96.0031 94.1472C95.6359 94.1472 95.3606 94.1472 94.9935 94.1472C94.8099 94.1472 94.5346 94.1472 94.6264 94.5281C94.8099 96.4315 94.5346 98.2396 94.3511 100.143C94.1675 103.189 94.3511 106.139 94.2593 109.185C94.2593 110.422 93.8004 111.564 93.8004 112.801C93.8004 113.563 91.9648 114.8 91.0471 114.8C87.2842 114.8 83.5213 114.705 79.7584 114.8C78.6571 114.8 78.0146 114.038 77.7393 113.372C77.464 112.706 77.1886 111.945 77.1886 111.088C77.2804 109.089 77.2804 107.091 77.1886 105.092C77.1886 103.95 77.4639 102.998 77.5557 101.856C77.7393 100.334 76.8215 98.8107 77.2804 97.3833C77.8311 95.3846 77.1886 93.1957 77.9228 91.2922C77.9228 91.197 78.0146 91.1018 77.9228 91.0067C77.0968 89.3887 77.7393 87.6756 77.5557 86.0577C77.4639 85.2963 78.1064 84.6301 77.7393 83.7736C77.2804 82.6315 78.3817 81.5846 78.0146 80.4425C77.9228 80.2522 78.1982 80.157 78.2899 80.0618C78.7488 79.4908 79.1159 79.0149 78.0146 79.0149C77.5557 79.0149 77.5557 78.6342 77.5557 78.3487C77.5557 76.9211 77.5557 75.4936 77.5557 74.066C77.5557 73.5901 77.7393 73.3046 78.1982 73.3998C79.1159 73.5901 80.1255 73.019 80.9515 73.7804C81.0433 73.8756 81.4104 73.8756 81.5939 73.7804C81.9611 73.6853 82.1446 73.0191 82.6035 73.5901C82.9706 74.066 83.4295 74.4467 83.4295 75.208C83.3377 76.9211 83.3377 78.6342 83.4295 80.3473C83.5213 84.8204 84.0719 89.2936 83.7966 93.7668C83.7048 95.0038 84.0719 96.2412 83.4295 97.3833C83.2459 97.7638 83.7966 98.0494 83.7966 98.5251C83.7966 100.143 84.0719 101.856 83.7048 103.379C83.3377 105.092 83.5213 106.71 83.4295 108.328C83.3377 109.185 83.7966 109.47 84.5308 109.089C85.1733 108.709 85.8157 108.899 86.4582 108.804C86.55 108.804 86.8253 108.899 86.7335 108.994C86.3664 109.565 86.6417 109.756 87.1924 109.66C87.7431 109.565 88.0184 109.28 88.0184 108.614C88.0184 106.9 88.0184 105.092 88.0184 103.379C88.0184 102.903 87.8348 102.332 88.2937 101.856L88.3855 101.666C87.7431 100.524 88.6608 99.3817 88.4773 98.1446C88.4773 97.7638 88.2937 97.6689 88.0184 97.6689C87.8348 97.5736 87.4677 97.5736 86.9171 97.5736Z" fill="black"/>
<path d="M133.724 112.041C133.357 112.136 133.54 112.517 133.632 112.707C134.275 113.754 133.449 114.039 132.806 114.325C131.521 114.991 130.328 114.991 128.86 114.801C126.474 114.515 124.087 114.705 121.701 114.705C121.15 114.705 120.6 114.705 120.049 114.325C119.131 113.659 118.489 112.897 118.489 111.755C118.397 105.664 118.397 99.5731 118.489 93.4821C118.489 91.6737 118.397 89.8655 118.397 88.1524C118.489 86.2489 118.397 84.4406 118.397 82.5372C118.397 82.2517 118.397 81.871 118.122 81.6806C117.938 81.4903 117.938 81.1096 118.03 81.0145C118.764 79.3965 118.305 77.6834 118.397 75.9703C118.489 74.5427 119.866 72.9248 121.334 72.9248C124.638 72.9248 127.942 72.9248 131.338 72.9248C132.99 72.9248 133.999 73.8765 133.999 75.3993C133.999 76.2558 133.724 76.0655 133.357 75.6848C133.265 76.351 133.265 76.351 133.816 76.6365C133.999 76.7317 133.999 76.922 133.999 77.1124C133.999 78.8255 133.999 80.6337 133.999 82.3469C133.999 82.8227 133.908 83.0131 133.449 83.0131C132.164 83.0131 130.787 83.0131 129.502 83.0131C129.227 83.0131 129.227 82.9179 129.135 82.5372C128.952 81.3 129.043 80.1579 128.952 78.9206C128.952 78.54 128.676 78.54 128.401 78.54C127.3 78.54 126.29 78.54 125.189 78.54C124.454 78.54 123.996 79.3965 124.363 79.9676C124.638 80.4434 124.638 80.8241 124.638 81.3C124.638 89.9606 124.638 98.6213 124.638 107.282C124.638 107.568 124.73 107.948 124.546 108.139C123.72 109.281 124.546 109.185 125.189 109.185C125.556 109.185 125.923 109.185 126.198 109.185C126.657 109.09 126.932 109.281 126.841 109.852C126.841 110.137 126.841 110.423 127.208 110.423C127.483 110.423 127.85 110.518 128.034 110.042C128.309 109.185 128.584 108.234 129.41 107.568C129.961 107.092 129.594 106.33 128.952 106.14C128.309 105.95 128.401 105.664 128.401 105.188C128.401 102.714 128.401 100.239 128.401 97.7647C128.401 96.8131 128.401 95.8613 127.3 95.3855C127.024 95.2902 126.841 94.9097 126.841 94.5289C126.841 93.2918 126.841 92.0545 126.841 90.9124C126.841 90.2462 127.024 89.9606 127.667 89.9606C129.502 89.9606 131.338 89.9606 133.173 89.9606C133.999 89.9606 134.275 90.5317 134.275 91.1979C134.275 96.3374 134.275 101.477 134.275 106.616C134.275 108.329 134.275 110.042 134.275 111.755C134.366 112.136 134.458 112.707 133.724 112.041C133.54 112.041 133.449 111.85 133.265 112.041L133.357 112.231C133.632 112.421 133.724 112.231 133.724 112.041Z" fill="black"/>
<path d="M57.0903 102.05C57.4574 101.765 57.6409 102.621 57.9163 101.955C58.0081 101.67 57.9163 101.194 57.5492 101.194C56.8149 101.194 56.9985 100.528 57.0903 100.338C57.4574 99.8614 57.0903 99.2904 57.3656 98.8146C57.6409 98.4341 57.1821 98.1486 56.9067 97.958C56.3561 97.4823 56.1725 96.9112 56.1725 96.2449C56.2643 95.2933 56.1725 94.3414 56.1725 93.4849C56.1725 93.0091 55.8054 92.2478 56.8149 92.2478C57.0903 92.2478 56.9985 91.7719 56.9985 91.4864C56.9985 89.7733 56.9985 87.965 56.9985 86.2519C56.9985 85.4905 56.9067 84.8243 57.6409 84.2533C57.9163 83.9678 58.0998 83.3016 57.3656 83.1112C56.9067 83.016 56.9985 82.7305 56.9985 82.445C56.9985 79.7802 56.9985 77.1154 56.9985 74.4505C56.9985 73.4988 57.8245 73.4036 58.467 73.4036C62.3216 73.3085 66.2681 73.4036 70.1229 73.4036C72.6926 73.4036 72.968 73.7843 72.968 76.4491C72.968 82.6354 72.968 88.7264 72.968 94.9125C72.968 95.7691 72.6926 96.4354 72.4173 97.1014C72.0502 97.8631 71.0406 97.958 70.2146 97.958C68.2872 98.0533 66.3598 98.0533 64.4325 97.958C63.3312 97.8631 63.2394 98.3388 63.2394 99.1954C63.2394 103.764 63.2394 108.427 63.3312 112.995C63.3312 114.518 62.597 115.565 61.0367 115.28C60.3943 115.184 59.7518 115.28 59.2012 115.28C57.5492 115.28 57.0903 114.804 57.0903 113.09C57.0903 109.284 57.0903 105.667 57.0903 102.05ZM64.1572 92.6286C64.4325 92.1526 65.1667 92.5333 65.2585 92.2478C65.3503 91.3912 65.9927 91.7719 66.2681 91.7719C66.7269 91.7719 67.6447 91.296 67.6447 90.725C67.6447 90.4395 67.8283 89.8685 67.4612 89.7733C66.6352 89.6781 66.9105 89.1071 66.9105 88.6312C66.9105 86.1567 66.9105 83.7774 66.9105 81.3029C66.9105 78.8285 66.9105 78.9236 64.6161 78.7333C63.6983 78.6381 63.4229 78.9236 63.4229 79.8754C63.5147 83.1112 63.4229 86.3471 63.4229 89.5829C63.4229 90.2491 63.5147 90.9154 62.5052 90.5347C62.2298 90.4395 62.1381 90.725 62.2298 90.9154C62.4134 91.2009 62.4134 91.7719 63.0558 91.3912C63.3312 91.2009 63.9736 91.4864 64.2489 91.7719C64.6161 92.1526 63.8818 92.1526 64.1572 92.6286Z" fill="black"/>
</g>
</g>
<rect x="0.5" y="0.5" width="189" height="189" rx="39.5" stroke="#4B4B4B"/>
<defs>
<clipPath id="clip0_2355_59069">
<rect width="190" height="190" rx="40" fill="white"/>
</clipPath>
</defs>
</svg>
