<svg width="32" height="19" viewBox="0 0 32 19" fill="none" xmlns="http://www.w3.org/2000/svg">
<path d="M20.123 2.01361H11.7695V16.8171H20.123V2.01361Z" fill="#FF5F00"/>
<path d="M12.3009 9.41565C12.3009 6.40787 13.7329 3.74011 15.934 2.0139C14.3163 0.758483 12.2744 0 10.0468 0C4.76953 0 0.5 4.21089 0.5 9.41565C0.5 14.6204 4.76953 18.8313 10.0468 18.8313C12.2744 18.8313 14.3163 18.0728 15.934 16.8174C13.7329 15.1174 12.3009 12.4234 12.3009 9.41565Z" fill="#EB001B"/>
<path d="M31.3949 9.41565C31.3949 14.6204 27.1254 18.8313 21.8481 18.8313C19.6205 18.8313 17.5786 18.0728 15.9609 16.8174C18.1885 15.0912 19.594 12.4234 19.594 9.41565C19.594 6.40787 18.162 3.74011 15.9609 2.0139C17.5786 0.758483 19.6205 0 21.8481 0C27.1254 0 31.3949 4.23704 31.3949 9.41565Z" fill="#F79E1B"/>
</svg>
