<svg width="40" height="12" viewBox="0 0 40 12" fill="none" xmlns="http://www.w3.org/2000/svg">
<path fill-rule="evenodd" clip-rule="evenodd" d="M16.0194 0.202716L14.029 11.8314H17.2119L19.2023 0.202716H16.0194ZM28.7556 0.487812C28.7558 0.487855 28.7559 0.487899 28.756 0.487943V0.485679L28.7556 0.487812ZM28.7556 0.487812C27.8453 0.160369 26.8785 -0.00499172 25.9042 0.000114754C22.7572 0.000114754 20.5425 1.57792 20.5245 3.83822C20.5041 5.50997 22.1045 6.44148 23.3115 6.99722C24.552 7.56314 24.9684 7.931 24.9636 8.44033C24.9552 9.21904 23.9738 9.57218 23.0583 9.57218C21.7842 9.57218 21.1075 9.39674 20.0589 8.96211L19.6498 8.77649L19.2047 11.3797C19.9474 11.7035 21.3223 11.9853 22.7512 12C26.0949 12 28.2701 10.4414 28.2941 8.02833C28.3049 6.70294 27.4543 5.69785 25.621 4.86821C24.5089 4.32945 23.8214 3.97178 23.8346 3.42623C23.8346 2.94293 24.4117 2.42567 25.6582 2.42567C26.4772 2.40845 27.2902 2.56107 28.0398 2.87275L28.3253 3.00631L28.7556 0.487812ZM34.4621 0.214035H36.9216L39.4999 11.8347H36.5461C36.5461 11.8347 36.2533 10.4992 36.1585 10.0928L32.0793 10.0872C31.9558 10.4018 31.4099 11.8359 31.4099 11.8359H28.0673L32.7944 1.17837C33.1279 0.420031 33.699 0.214035 34.4621 0.214035ZM34.2629 4.45734C34.2629 4.45734 33.2587 7.0391 32.9948 7.70802H35.6366C35.5107 7.13078 34.9012 4.35095 34.9012 4.35095L34.6864 3.34813C34.6074 3.55963 34.4993 3.83872 34.412 4.06416C34.3218 4.29718 34.2538 4.47288 34.2629 4.45734ZM8.23891 8.13586L11.3583 0.212903H14.7308L9.71822 11.8212H6.34929L3.53697 1.7828C2.52082 1.20573 1.36092 0.745516 0.0712891 0.449727L0.113182 0.220982H5.2337C5.92313 0.241387 6.48211 0.456171 6.67242 1.151L7.88853 6.46472C7.89551 6.48604 7.90232 6.50735 7.90898 6.52863L8.23891 8.13586Z" fill="#005AE1"/>
</svg>
