<svg width="25" height="24" viewBox="0 0 25 24" fill="none" xmlns="http://www.w3.org/2000/svg">
<path d="M20.2088 16.1483C20.2729 16.6137 20.1286 16.8153 19.9682 16.8153C19.8079 16.8153 19.5834 16.6292 19.3428 16.2569C19.1023 15.8846 19.006 15.4657 19.1343 15.2486C19.2145 15.109 19.3749 15.0469 19.5994 15.1245C20.0003 15.2486 20.1607 15.8691 20.2088 16.1483ZM17.9476 17.1566C18.4448 17.5599 18.5891 18.0408 18.3325 18.3665C18.1882 18.5527 17.9476 18.6458 17.675 18.6458C17.4024 18.6458 17.1137 18.5527 16.9213 18.3821C16.4723 18.0098 16.344 17.3893 16.6327 17.048C16.7449 16.9084 16.9373 16.8308 17.1458 16.8308C17.4184 16.8463 17.6911 16.9704 17.9476 17.1566ZM17.1137 21.0347C19.2306 21.0347 21.5238 21.7327 24.0575 23.9199C24.3141 24.1371 24.6509 23.8734 24.4264 23.5942C21.9247 20.5383 19.6154 19.9643 17.3222 19.4679C14.4998 18.8629 13.0565 17.3272 12.0462 15.6519C11.8378 15.3106 11.7576 15.3727 11.7415 15.807C11.7255 16.3344 11.7576 17.0325 11.8859 17.715C11.7736 17.715 11.6614 17.715 11.5491 17.715C7.52396 17.715 4.25253 14.5505 4.25253 10.6569C4.25253 6.76336 7.52396 3.59885 11.5491 3.59885C15.5742 3.59885 18.8457 6.76336 18.8457 10.6569C18.8457 10.9362 18.8296 11.2154 18.7976 11.4791C18.2684 11.386 17.21 11.3705 16.4723 11.4326C16.1997 11.4481 16.2317 11.5877 16.4402 11.6187C18.8457 12.0375 20.5135 13.4802 20.8823 16.1173C20.8983 16.1793 20.9785 16.1948 21.0106 16.1483C22.0049 14.5505 22.5661 12.6735 22.5661 10.6725C22.5661 4.77778 17.6269 0 11.5331 0C5.43922 0 0.5 4.77778 0.5 10.6725C0.5 16.5671 5.43922 21.3449 11.5331 21.3449C13.1527 21.3449 14.7564 21.0347 17.1137 21.0347Z" fill="#F7851B"/>
</svg>
