<svg width="27" height="18" viewBox="0 0 27 18" fill="none" xmlns="http://www.w3.org/2000/svg">
<path d="M17.2687 0C12.1268 0 8.03737 4.04415 8.03737 9C8.03737 14.013 12.1855 18 17.2687 18C22.3514 18 26.5 13.9559 26.5 9C26.5 4.04415 22.3514 0 17.2687 0ZM17.2687 12.3039C15.3989 12.3039 13.8208 10.7658 13.8208 8.94285C13.8208 7.12035 15.3989 5.58225 17.2687 5.58225C19.138 5.58225 20.7157 7.12035 20.7157 8.94285C20.657 10.823 19.1385 12.3039 17.2687 12.3039ZM7.97875 2.5632V15.6645H4.70625L0.5 2.5632H7.97875Z" fill="#8B3FFD"/>
</svg>
