<svg width="33" height="10" viewBox="0 0 33 10" fill="none" xmlns="http://www.w3.org/2000/svg">
<path fill-rule="evenodd" clip-rule="evenodd" d="M3.07412 0.507881C3.36847 0.50612 4.24326 0.427332 4.61381 1.67792C4.86341 2.52033 5.26101 3.90024 5.80662 5.81765H6.02882C6.61393 3.79619 7.01587 2.41628 7.23464 1.67792C7.60905 0.414305 8.54506 0.507906 8.91947 0.507906L11.8081 0.50791V9.49361H8.86393V4.19819H8.6665L7.02527 9.49361H4.81016L3.16894 4.19426H2.97151V9.49361H0.0273438V0.50791L3.07412 0.507881ZM16.0359 0.50791V5.80728H16.2707L18.2671 1.44964C18.6547 0.582464 19.4806 0.50791 19.4806 0.50791H22.3297V9.49363H19.324V4.19426H19.0892L17.1319 8.5519C16.7444 9.41515 15.8793 9.49363 15.8793 9.49363H13.0302V0.50791H16.0359ZM32.7186 4.77798C32.2993 5.96606 30.9827 6.81693 29.525 6.81693H26.373V9.49363H23.5148V4.77798H32.7186Z" fill="#049B62"/>
<path fill-rule="evenodd" clip-rule="evenodd" d="M29.6612 0.508301H23.3633C23.5132 2.50883 25.236 4.22141 27.0194 4.22141H32.9156C33.2558 2.55874 32.0845 0.508301 29.6612 0.508301Z" fill="url(#paint0_linear_2597_3970)"/>
<defs>
<linearGradient id="paint0_linear_2597_3970" x1="41.5004" y1="4.5" x2="23.3633" y2="2.84401" gradientUnits="userSpaceOnUse">
<stop stop-color="#1F5CD7"/>
<stop offset="1" stop-color="#02AEFF"/>
</linearGradient>
</defs>
</svg>
