<svg width="98" height="98" viewBox="0 0 98 98" fill="none" xmlns="http://www.w3.org/2000/svg">
<g clip-path="url(#clip0_2355_49629)">
<rect width="98" height="98" rx="20" fill="black"/>
<rect x="-4" y="-4.7168" width="106" height="107" rx="20" fill="white"/>
<path d="M31.6488 44.6735C31.058 45.3727 30.1126 45.9241 29.1673 45.8453C29.0491 44.9 29.512 43.8956 30.0536 43.2752C30.6444 42.5563 31.6784 42.0443 32.5154 42.0049C32.6139 42.9896 32.2298 43.9547 31.6488 44.6735ZM32.5056 46.0324C31.1368 45.9537 29.9649 46.8104 29.315 46.8104C28.6552 46.8104 27.6607 46.0718 26.5775 46.0915C25.1693 46.1112 23.8596 46.9089 23.1407 48.1792C21.6636 50.7198 22.7567 54.4815 24.1846 56.5494C24.8837 57.5735 25.7207 58.6961 26.8236 58.6567C27.8675 58.6173 28.281 57.9773 29.5415 57.9773C30.8118 57.9773 31.1762 58.6567 32.2791 58.637C33.4214 58.6173 34.1402 57.6129 34.8394 56.5888C35.637 55.4268 35.962 54.2944 35.9817 54.2353C35.962 54.2156 33.7759 53.3786 33.7562 50.8576C33.7365 48.7503 35.4794 47.7459 35.5582 47.6868C34.5735 46.2294 33.0373 46.0718 32.5056 46.0324Z" fill="black"/>
<path d="M44.6267 57.5571C42.9198 57.5571 41.5694 57.0196 40.5755 55.9447C39.587 54.8643 39.0928 53.3843 39.0928 51.5045C39.0928 49.6302 39.5897 48.1555 40.5836 47.0806C41.5775 46.0003 42.9252 45.4601 44.6267 45.4601C45.5558 45.4601 46.3985 45.6438 47.1547 46.0111C47.9163 46.3784 48.5267 46.897 48.9859 47.5668C49.445 48.2366 49.7043 49.0009 49.7637 49.8597H47.3816C47.2681 49.1413 46.9575 48.5661 46.4498 48.1339C45.9474 47.7018 45.3398 47.4857 44.6267 47.4857C43.7031 47.4857 42.9657 47.8476 42.4148 48.5715C41.8638 49.2953 41.5883 50.2703 41.5883 51.4964C41.5883 52.7442 41.8611 53.73 42.4067 54.4538C42.9522 55.1722 43.695 55.5314 44.6348 55.5314C45.3587 55.5314 45.9663 55.3316 46.4579 54.9319C46.9494 54.5321 47.26 53.9866 47.3897 53.2952H49.7718C49.6367 54.597 49.1047 55.6341 48.1756 56.4065C47.2465 57.1735 46.0636 57.5571 44.6267 57.5571ZM54.4793 55.734C55.0357 55.734 55.5029 55.5801 55.881 55.2722C56.2591 54.9589 56.4482 54.5619 56.4482 54.0811V53.4248L54.5765 53.5545C54.085 53.5869 53.7096 53.6976 53.4503 53.8867C53.191 54.0757 53.0614 54.335 53.0614 54.6645C53.0614 54.994 53.1883 55.256 53.4422 55.4504C53.7015 55.6395 54.0472 55.734 54.4793 55.734ZM53.7096 57.4598C52.8399 57.4598 52.1215 57.2113 51.5543 56.7144C50.9871 56.2175 50.7036 55.5747 50.7036 54.786C50.7036 53.9812 51.0034 53.3519 51.6029 52.8982C52.2025 52.4444 53.0749 52.1824 54.22 52.1122L56.4482 51.9745V51.383C56.4482 50.9563 56.3104 50.6295 56.035 50.4026C55.7595 50.1703 55.376 50.0542 54.8844 50.0542C54.4631 50.0542 54.1093 50.1568 53.823 50.3621C53.5421 50.562 53.372 50.8266 53.3125 51.1561H51.1492C51.1816 50.3027 51.5489 49.6113 52.2511 49.0819C52.9587 48.5472 53.8689 48.2798 54.9816 48.2798C56.1268 48.2798 57.0451 48.5499 57.7365 49.09C58.4279 49.6302 58.7736 50.3459 58.7736 51.2372V57.3545H56.4887V55.9771H56.4401C56.2024 56.4362 55.8324 56.7981 55.33 57.0628C54.8331 57.3275 54.2929 57.4598 53.7096 57.4598ZM60.3698 57.3545V48.4337H62.6546V50.0299H62.7033C62.8545 49.4843 63.1138 49.0657 63.4811 48.774C63.8484 48.4769 64.2967 48.3284 64.8261 48.3284C65.0908 48.3284 65.3122 48.3581 65.4905 48.4175V50.516C65.2798 50.4188 64.9962 50.3702 64.6397 50.3702C64.0402 50.3702 63.5729 50.5458 63.238 50.8969C62.9031 51.248 62.7357 51.7368 62.7357 52.3634V57.3545H60.3698ZM69.5579 57.4598C68.4452 57.4598 67.5566 57.0493 66.8922 56.2283C66.2332 55.4018 65.9037 54.2864 65.9037 52.882C65.9037 51.4883 66.2359 50.381 66.9003 49.56C67.5647 48.7389 68.4533 48.3284 69.566 48.3284C70.2034 48.3284 70.7598 48.4742 71.2351 48.7659C71.7159 49.0576 72.0697 49.4546 72.2965 49.957H72.3451V45.1036H74.7111V57.3545H72.3776V55.8312H72.337C72.1156 56.3282 71.7591 56.7252 71.2675 57.0223C70.776 57.314 70.2061 57.4598 69.5579 57.4598ZM70.3438 50.2406C69.7281 50.2406 69.2365 50.4809 68.8692 50.9617C68.5073 51.437 68.3263 52.0798 68.3263 52.8901C68.3263 53.7057 68.5073 54.3539 68.8692 54.8346C69.2365 55.31 69.7281 55.5477 70.3438 55.5477C70.9542 55.5477 71.4431 55.3073 71.8104 54.8265C72.1777 54.3458 72.3613 53.703 72.3613 52.8982C72.3613 52.0933 72.1777 51.4505 71.8104 50.9698C71.4431 50.4836 70.9542 50.2406 70.3438 50.2406Z" fill="black"/>
</g>
<defs>
<clipPath id="clip0_2355_49629">
<rect width="98" height="98" rx="20" fill="white"/>
</clipPath>
</defs>
</svg>
