<svg width="98" height="98" viewBox="0 0 98 98" fill="none" xmlns="http://www.w3.org/2000/svg">
<g clip-path="url(#clip0_2355_49587)">
<rect width="98" height="98" rx="20" fill="#F96232"/>
<g clip-path="url(#clip1_2355_49587)">
<path d="M49.0029 47.6674C44.4227 47.6674 39.8425 47.6628 35.2628 47.675C34.8718 47.676 34.7426 47.6032 34.7715 47.1904C35.0563 43.1132 35.3201 39.0345 35.5855 34.9558C35.7384 32.6112 35.9013 30.2666 36.0179 27.9199C36.0432 27.4175 36.195 27.2937 36.7021 27.3018C38.6155 27.3329 40.5304 27.2957 42.4437 27.3268C42.9345 27.3349 43.0312 27.1805 43.0186 26.7474C42.9991 26.0885 42.9634 25.4265 43.0864 24.7671C43.4253 22.9535 45.0501 21.5608 46.9467 21.5216C48.2961 21.4936 49.6472 21.492 50.9966 21.5216C53.0913 21.5664 54.8201 23.2297 54.9105 25.2579C54.9331 25.77 54.9494 26.2857 54.9153 26.7963C54.8879 27.2045 55.013 27.3293 55.446 27.3247C57.4108 27.3023 59.3767 27.3278 61.3415 27.3054C61.7908 27.3003 61.948 27.4017 61.9763 27.8654C62.2937 32.9852 62.6385 38.1035 62.9732 43.2223C63.0594 44.5431 63.1203 45.866 63.2275 47.1853C63.2596 47.5848 63.1461 47.6781 62.7425 47.6765C58.1623 47.6628 53.5826 47.6679 49.0024 47.6679L49.0029 47.6674ZM48.9935 45.6795C52.839 45.6795 56.6846 45.6723 60.5302 45.6892C60.9626 45.6912 61.0625 45.5939 61.032 45.1709C60.7829 41.6879 60.5606 38.2034 60.3315 34.7188C60.2217 33.051 60.1082 31.3831 60.0136 29.7142C59.9952 29.3896 59.9075 29.2571 59.5386 29.2627C58.1544 29.2841 56.7697 29.2877 55.3856 29.2612C54.9778 29.2535 54.9026 29.3916 54.9174 29.7437C54.9442 30.3884 54.9352 31.035 54.9216 31.6802C54.9116 32.1566 55.1323 32.7742 54.838 33.0724C54.5175 33.3975 53.8658 33.1294 53.364 33.1885C52.9305 33.2395 52.8527 33.0443 52.8611 32.6734C52.8837 31.697 52.8459 30.7196 52.8795 29.7437C52.8937 29.3346 52.7481 29.2602 52.3624 29.2627C50.0891 29.279 47.8158 29.279 45.5431 29.2627C45.1726 29.2602 45.0402 29.332 45.0522 29.7203C45.0832 30.7293 45.0475 31.7398 45.0706 32.7493C45.0785 33.1034 44.9582 33.2145 44.605 33.1901C44.2309 33.1646 43.8515 33.16 43.4779 33.1911C43.0759 33.2242 42.9918 33.0601 42.9997 32.7034C43.0217 31.6939 42.9939 30.6839 43.0154 29.6744C43.0223 29.3458 42.9193 29.2596 42.5871 29.2637C41.1857 29.281 39.7842 29.2831 38.3827 29.2627C38.0353 29.2576 37.9675 29.3763 37.9528 29.6816C37.8961 30.8383 37.8088 31.9941 37.7326 33.1498C37.4699 37.1297 37.2145 41.1095 36.9339 45.0879C36.9008 45.5557 36.9906 45.6953 37.5082 45.6922C41.3365 45.6683 45.1652 45.679 48.9935 45.679V45.6795ZM48.9808 27.2789C50.1422 27.2789 51.3035 27.2697 52.4643 27.285C52.7702 27.2891 52.8916 27.2142 52.8753 26.9008C52.8506 26.4223 52.8763 25.9417 52.8664 25.4622C52.8417 24.2948 52.0035 23.459 50.8022 23.4392C49.5899 23.4193 48.377 23.4218 47.1647 23.4381C45.9477 23.4545 45.0896 24.3044 45.0643 25.4918C45.0543 25.9545 45.0848 26.4192 45.0554 26.8804C45.0333 27.2239 45.1763 27.2896 45.4968 27.285C46.6576 27.2687 47.819 27.2784 48.9803 27.2784L48.9808 27.2789Z" fill="white"/>
<path d="M80.5007 57.0762C80.4072 57.2408 80.4072 57.4298 80.3562 57.6056C79.8244 59.4432 78.064 60.6234 76.0629 60.4776C74.1827 60.3406 72.6005 58.8551 72.3729 57.013C72.1075 54.8686 73.6803 52.9404 75.9815 52.6769C78.2942 52.4119 80.1749 54.0329 80.454 56.0009C80.4598 56.0412 80.4529 56.0871 80.5013 56.11V57.0762H80.5007ZM76.4581 54.5634C75.3709 54.541 74.4339 55.4088 74.4076 56.4631C74.3793 57.5898 75.2574 58.504 76.3956 58.532C77.4865 58.5591 78.4224 57.68 78.4497 56.6028C78.4781 55.5005 77.5858 54.5868 76.4586 54.5634H76.4581Z" fill="white"/>
<path d="M19.9005 53.8947V54.1648C19.9005 56.1053 19.8973 58.0458 19.9052 59.9863C19.9062 60.1998 19.8658 60.2818 19.6214 60.2747C18.9835 60.2563 18.3439 60.2635 17.7055 60.2721C17.5436 60.2742 17.5 60.2268 17.5 60.0719C17.5047 57.0215 17.4974 53.9706 17.5079 50.9202C17.511 49.9816 18.5273 49.4618 19.3818 49.9413C19.6829 50.11 19.912 50.3546 20.1191 50.6191C21.5058 52.3858 22.8916 54.1531 24.2778 55.9198C24.3504 56.012 24.425 56.1022 24.5453 56.2505V55.9228C24.5453 53.9823 24.5506 52.0418 24.539 50.1013C24.5374 49.8588 24.6147 49.8083 24.8464 49.8139C25.467 49.8287 26.0887 49.8246 26.7098 49.8155C26.8848 49.8129 26.9516 49.8486 26.951 50.0361C26.9447 53.0529 26.9479 56.0696 26.9452 59.0863C26.9452 59.5455 26.8007 59.9491 26.3467 60.1651C25.8748 60.3899 25.4019 60.3792 24.9557 60.0795C24.7009 59.9083 24.4991 59.6871 24.3136 59.4497C22.9158 57.6595 21.5169 55.8698 20.118 54.0807C20.066 54.0139 20.0119 53.9487 19.9583 53.883C19.9388 53.8876 19.9194 53.8916 19.8999 53.8962L19.9005 53.8947Z" fill="white"/>
<path d="M69.3576 53.3748C69.3576 52.2669 69.3649 51.2014 69.3518 50.1364C69.3486 49.8923 69.3923 49.797 69.6745 49.8097C70.242 49.8352 70.8111 49.8225 71.3797 49.8138C71.541 49.8112 71.5867 49.8591 71.5867 50.0146C71.5825 53.3605 71.5825 56.7069 71.5867 60.0529C71.5867 60.2007 71.5379 60.2373 71.3928 60.2353C70.8069 60.2282 70.2204 60.2195 69.635 60.2389C69.3954 60.247 69.3213 60.1742 69.356 59.9576C69.3665 59.8924 69.3576 59.8246 69.3576 59.7171C69.2194 59.8185 69.1111 59.9082 68.9934 59.9826C68.0643 60.5711 67.0669 60.5849 66.0485 60.2751C64.2524 59.7283 63.0721 58.0074 63.2382 56.2096C63.4032 54.4225 64.8688 52.9187 66.6986 52.6608C67.6912 52.5207 68.4842 52.7281 69.3581 53.3748H69.3576ZM65.3097 56.5678C65.3244 57.7022 66.222 58.5618 67.3822 58.5527C68.5257 58.5435 69.3896 57.6522 69.3744 56.4975C69.3592 55.3749 68.4611 54.5193 67.3124 54.5346C66.1909 54.5494 65.2955 55.458 65.3102 56.5683L65.3097 56.5678Z" fill="white"/>
<path d="M50.7137 57.2306C49.7852 57.2306 49.0153 57.2367 48.246 57.2265C48.0447 57.224 48.0337 57.2826 48.0899 57.4456C48.3411 58.1779 49.1304 58.7058 49.9507 58.6849C50.6107 58.6681 51.1851 58.4674 51.6202 57.968C51.71 57.8645 51.7936 57.8569 51.9134 57.8987C52.3816 58.0612 52.8488 58.2279 53.3228 58.3726C53.5225 58.4337 53.5456 58.4954 53.43 58.6625C52.6512 59.7887 51.5555 60.3895 50.1714 60.4792C47.6832 60.6407 45.7683 58.4949 45.9075 56.3251C46.0384 54.2847 47.8939 52.466 50.2166 52.6316C52.2592 52.7773 53.7038 54.3453 53.9755 56.0927C54.0805 56.7699 53.8315 57.1052 53.1226 57.1888C52.2697 57.2897 51.4105 57.2021 50.7137 57.2301V57.2306ZM49.9486 55.7543C50.5256 55.7543 51.1031 55.7518 51.6801 55.7564C51.8257 55.7574 51.8624 55.7329 51.7999 55.5862C51.5077 54.9043 50.7599 54.4549 49.9029 54.4605C49.0763 54.4661 48.3795 54.9059 48.0967 55.5867C48.0368 55.7309 48.0699 55.7579 48.2171 55.7564C48.7941 55.7513 49.3716 55.7543 49.9486 55.7543Z" fill="white"/>
<path d="M56.9384 53.4611C56.9904 53.455 57.0119 53.4591 57.0224 53.4504C58.8065 51.9456 61.5012 52.6606 62.2816 54.8462C62.4492 55.3155 62.5133 55.7996 62.5128 56.2944C62.5118 57.5398 62.5086 58.7853 62.5175 60.0307C62.5186 60.2203 62.4671 60.2773 62.2685 60.2733C61.6825 60.2605 61.0961 60.261 60.5102 60.2733C60.3194 60.2773 60.2805 60.2131 60.2816 60.0419C60.2884 58.8811 60.2842 57.7207 60.2858 56.5599C60.2858 56.2878 60.2653 56.0187 60.1922 55.7553C60.0036 55.0745 59.4828 54.6367 58.8065 54.5893C58.0508 54.5364 57.4234 54.9083 57.1396 55.5769C56.9841 55.9433 56.9399 56.3291 56.9389 56.7209C56.9368 57.814 56.9305 58.9071 56.9447 59.9996C56.9478 60.232 56.8753 60.2804 56.6509 60.2743C56.0829 60.2585 55.5138 60.2631 54.9452 60.2727C54.7702 60.2758 54.7266 60.2218 54.7266 60.0567C54.7318 57.7269 54.7318 55.397 54.7266 53.0672C54.7266 52.9052 54.7654 52.8491 54.942 52.8522C55.5369 52.8629 56.1317 52.8629 56.7266 52.8522C56.9037 52.8491 56.9562 52.9047 56.9405 53.0672C56.9279 53.1972 56.9378 53.3291 56.9378 53.4627L56.9384 53.4611Z" fill="white"/>
<path d="M34.5673 53.4861C35.5436 52.5393 36.6582 52.4343 37.8469 52.8415C39.0739 53.2614 39.7592 54.1542 40.0235 55.368C40.0939 55.6921 40.1202 56.0213 40.1202 56.3525C40.1207 57.5725 40.117 58.7919 40.1244 60.0118C40.1254 60.1983 40.0944 60.2809 39.8716 60.2743C39.2952 60.2575 38.7171 60.2615 38.1401 60.2727C37.952 60.2763 37.9073 60.2152 37.9084 60.0419C37.9152 58.8897 37.9126 57.7381 37.9115 56.5859C37.9115 56.3061 37.8926 56.0269 37.8175 55.7553C37.6341 55.0898 37.0923 54.6372 36.4265 54.5888C35.6966 54.5358 35.0712 54.8931 34.7827 55.5336C34.6193 55.8964 34.5668 56.2807 34.5668 56.6741C34.5673 57.7921 34.5625 58.9101 34.571 60.0286C34.5725 60.2101 34.5384 60.2794 34.3303 60.2743C33.7449 60.2595 33.1584 60.2625 32.5725 60.2727C32.3954 60.2758 32.356 60.2197 32.3565 60.0567C32.3618 57.7274 32.3623 55.3975 32.3555 53.0682C32.3549 52.8807 32.4191 52.8486 32.5935 52.8517C33.1705 52.8618 33.748 52.8639 34.325 52.8506C34.5179 52.8466 34.5972 52.8904 34.5699 53.0856C34.5536 53.2007 34.5668 53.3195 34.5668 53.4866L34.5673 53.4861Z" fill="white"/>
<path d="M44.2204 57.4321C44.2204 58.2958 44.213 59.1601 44.2257 60.0233C44.2288 60.2312 44.161 60.2766 43.9603 60.2725C43.3922 60.2603 42.8236 60.2597 42.2556 60.2725C42.0575 60.2771 42.007 60.2225 42.0081 60.032C42.0159 58.3045 42.0091 56.5765 42.0175 54.849C42.0186 54.6446 41.9771 54.5667 41.7495 54.5799C41.4095 54.5998 41.0674 54.5784 40.7269 54.5881C40.5761 54.5927 40.5351 54.5432 40.5372 54.4016C40.5456 53.9358 40.5456 53.47 40.5372 53.0043C40.5346 52.857 40.5871 52.8152 40.7337 52.8183C41.0921 52.8264 41.451 52.8142 41.8089 52.8239C41.9708 52.8285 42.018 52.776 42.0154 52.6216C42.007 52.0799 42.0186 51.5377 42.0086 50.9955C42.0054 50.8304 42.0517 50.7764 42.2272 50.7794C42.8215 50.7891 43.4164 50.7901 44.0107 50.7794C44.1936 50.7759 44.2257 50.8436 44.2235 51.0011C44.2151 51.5428 44.2267 52.085 44.2167 52.6272C44.2136 52.7872 44.2666 52.8295 44.4248 52.8244C44.7743 52.8142 45.1248 52.829 45.4737 52.8178C45.6497 52.8122 45.7207 52.855 45.7149 53.0405C45.7018 53.4889 45.7049 53.9383 45.7139 54.3868C45.717 54.5381 45.6792 54.5947 45.5121 54.5891C45.1626 54.5763 44.8121 54.5962 44.4632 54.5809C44.2708 54.5723 44.2125 54.6197 44.2151 54.8148C44.2272 55.6872 44.2204 56.5596 44.2204 57.4315V57.4321Z" fill="white"/>
<path d="M30.8612 56.5423C30.8612 57.6945 30.8565 58.8472 30.8659 59.9993C30.8675 60.2006 30.8276 60.2806 30.5974 60.2735C30.0204 60.2567 29.4429 60.2623 28.8654 60.2714C28.6936 60.2745 28.6426 60.2261 28.6426 60.0574C28.6478 57.7276 28.6478 55.3973 28.6431 53.0674C28.6431 52.9079 28.6778 52.8463 28.858 52.8499C29.444 52.8611 30.0304 52.8621 30.6163 52.8499C30.8097 52.8458 30.8675 52.8911 30.8659 53.0858C30.856 54.238 30.8612 55.3901 30.8612 56.5428V56.5423Z" fill="white"/>
<path d="M28.4727 50.6318C28.4732 49.9444 29.0439 49.3946 29.7559 49.3936C30.4638 49.393 31.0423 49.9475 31.046 50.6298C31.0497 51.3198 30.4564 51.8926 29.7449 51.8864C29.0412 51.8798 28.4721 51.3188 28.4727 50.6318Z" fill="white"/>
<path d="M31.6907 73.8589C29.3769 73.8564 27.3942 72.2991 26.9402 70.1644C26.4252 67.7424 28.3811 65.169 30.9255 64.9554C32.6124 64.8138 34.0039 65.4344 35.1211 66.6355C35.7007 67.2583 35.6256 67.7948 34.9151 68.281C34.0291 68.8874 33.0585 69.3603 32.1284 69.8974C31.4531 70.2872 30.7758 70.674 30.0895 71.045C29.8824 71.1566 29.9224 71.2238 30.069 71.3405C31.2687 72.294 33.357 71.8929 33.7911 70.2113C33.8552 69.9626 33.9487 69.8969 34.2004 69.905C34.7769 69.9239 35.3549 69.9162 35.9319 69.9081C36.1059 69.9055 36.1558 69.9504 36.1348 70.1252C35.9025 72.0417 34.377 73.5486 32.4001 73.8054C32.1484 73.838 31.8972 73.8701 31.6901 73.8594L31.6907 73.8589ZM29.0369 69.7027C30.3801 68.9542 31.6985 68.2193 33.0259 67.4794C32.2882 66.7879 31.224 66.6702 30.3049 67.1548C29.3659 67.6501 28.8346 68.6999 29.0369 69.7027Z" fill="white"/>
<path d="M65.0182 76.5C64.2951 76.5 63.572 76.5 62.8494 76.5C62.8431 76.4159 62.8316 76.3324 62.8316 76.2483C62.8305 72.962 62.8337 69.6757 62.8242 66.3888C62.8237 66.1519 62.8994 66.1121 63.118 66.1182C63.6598 66.133 64.2026 66.1351 64.7444 66.1172C64.9819 66.1096 65.0812 66.1707 65.0408 66.4051C65.0297 66.4688 65.0392 66.5356 65.0392 66.6492C65.448 66.2997 65.8842 66.0846 66.3724 65.9761C68.2941 65.5485 70.3609 66.7496 70.9657 68.6437C71.755 71.1157 69.8459 73.6861 67.1732 73.732C66.3908 73.7452 65.6782 73.5179 65.0791 73.0038C65.0071 73.0751 65.0413 73.1546 65.0408 73.2239C65.0381 74.2232 65.0392 75.223 65.0381 76.2223C65.0381 76.3145 65.0255 76.4068 65.0192 76.499L65.0182 76.5ZM69.0844 69.8321C69.0928 68.6973 68.209 67.8111 67.0613 67.8045C65.9136 67.7978 65.0334 68.6519 65.0224 69.7827C65.0113 70.9328 65.8789 71.8159 67.0261 71.822C68.189 71.8281 69.0755 70.971 69.0844 69.8321Z" fill="white"/>
<path d="M40.3959 73.8579C39.1615 73.7993 37.9287 73.148 36.8903 72.1003C36.8031 72.0127 36.7963 71.9602 36.9056 71.8868C37.4731 71.5066 38.0412 71.1265 38.6003 70.7336C38.7395 70.6358 38.8016 70.7188 38.8851 70.7881C39.3349 71.1586 39.8089 71.4857 40.4075 71.5928C40.7937 71.6616 41.1563 71.608 41.4832 71.3884C42.067 70.996 42.0843 70.2841 41.5199 69.8683C41.274 69.6869 40.9876 69.5814 40.7002 69.479C40.1279 69.2747 39.5351 69.1233 38.997 68.8318C38.1778 68.3885 37.5246 67.7979 37.2098 66.9194C36.7101 65.5251 37.3528 64.0168 38.7501 63.2717C40.2787 62.4569 42.1374 62.6832 43.5515 63.8634C43.7428 64.0229 43.9109 64.2089 44.0938 64.3786C44.1774 64.456 44.1742 64.506 44.0759 64.5717C43.5368 64.9325 42.9992 65.2958 42.4658 65.6648C42.3597 65.7386 42.2977 65.6989 42.2178 65.6342C41.996 65.4548 41.7648 65.2866 41.4979 65.175C41.0234 64.9763 40.5357 64.9284 40.0438 65.1042C39.6828 65.2331 39.4353 65.4726 39.3912 65.8589C39.3475 66.2401 39.5467 66.504 39.8652 66.6987C40.2456 66.9311 40.6702 67.0636 41.0911 67.2027C41.881 67.4636 42.644 67.777 43.274 68.3253C44.8227 69.6726 44.6314 71.9969 42.8778 73.1959C42.2393 73.6326 41.4926 73.8584 40.3964 73.8579H40.3959Z" fill="white"/>
<path d="M47.6072 66.7621C49.0361 65.1671 52.4181 65.7837 53.0582 68.5049C53.1423 68.8616 53.1801 69.2224 53.1801 69.5883C53.1796 70.8255 53.1754 72.0628 53.1848 73.2996C53.1864 73.4922 53.1302 73.5442 52.9347 73.5396C52.3661 73.5274 51.797 73.5253 51.229 73.5401C51.0151 73.5457 50.9473 73.4947 50.9494 73.2782C50.9604 72.126 50.9536 70.9733 50.9552 69.8206C50.9552 69.5398 50.9299 69.2621 50.8543 68.991C50.6782 68.3637 50.1848 67.9392 49.5474 67.8618C48.8563 67.7777 48.2205 68.086 47.8957 68.6659C47.6682 69.0721 47.6088 69.5149 47.6083 69.9679C47.6062 71.061 47.6004 72.154 47.6135 73.2471C47.6162 73.4652 47.55 73.5121 47.3371 73.5065C46.7601 73.4917 46.1821 73.4963 45.6051 73.5044C45.449 73.5065 45.3965 73.4713 45.3965 73.3092C45.4017 69.9704 45.4017 66.6316 45.3965 63.2934C45.3965 63.1242 45.448 63.0788 45.6177 63.0814C46.1952 63.0905 46.7728 63.0936 47.3497 63.0804C47.5536 63.0758 47.6146 63.1272 47.6125 63.3306C47.6015 64.3727 47.6072 65.4153 47.6072 66.4574V66.7611V66.7621Z" fill="white"/>
<path d="M57.9928 65.8867C60.243 65.8852 62.0822 67.6596 62.0738 69.8233C62.0654 71.9814 60.2372 73.7374 57.9965 73.7384C55.7458 73.7394 53.9071 71.9656 53.916 69.8019C53.925 67.6417 55.7511 65.8882 57.9923 65.8872L57.9928 65.8867ZM57.9976 67.8552C56.8777 67.8537 55.9797 68.7287 55.9713 69.8299C55.9629 70.9117 56.8809 71.8193 57.986 71.8224C59.0859 71.8254 60.0034 70.9306 60.0191 69.8401C60.0349 68.7689 59.1053 67.8563 57.9976 67.8547V67.8552Z" fill="white"/>
<path d="M33.3359 64.4288C33.4584 63.5849 33.5819 62.741 33.7022 61.8972C33.7217 61.7611 33.7758 61.7315 33.9114 61.7845C34.1857 61.8916 34.4679 61.9807 34.7448 62.0821C34.8078 62.1051 34.9219 62.1132 34.8452 62.2309C34.3622 62.9703 33.8788 63.7098 33.3958 64.4492C33.3759 64.4425 33.3559 64.4359 33.3359 64.4293V64.4288Z" fill="white"/>
<path d="M32.4374 64.3557C32.1258 63.5429 31.8147 62.7297 31.5015 61.9174C31.4663 61.8262 31.5031 61.7971 31.5903 61.7859C31.9098 61.7436 32.2299 61.7008 32.5488 61.6534C32.7322 61.6259 32.6965 61.7462 32.6891 61.842C32.6476 62.3984 32.6035 62.9549 32.5599 63.5114C32.5378 63.7886 32.5147 64.0658 32.4921 64.343C32.4742 64.3476 32.4558 64.3522 32.438 64.3568L32.4374 64.3557Z" fill="white"/>
<path d="M34.1585 64.9027C34.674 64.2005 35.1895 63.4983 35.704 62.7955C35.7681 62.7079 35.8191 62.7181 35.8863 62.794C36.0907 63.0254 36.2994 63.2537 36.5075 63.482C36.56 63.5395 36.5957 63.5849 36.498 63.6379C35.7229 64.0578 34.9709 64.5174 34.1785 64.9073C34.1732 64.9098 34.1627 64.9022 34.1543 64.8991L34.158 64.9027H34.1585Z" fill="white"/>
<path d="M34.1548 64.8994C34.1548 64.9058 34.1548 64.9117 34.1548 64.9181C34.1559 64.9133 34.1576 64.9085 34.1587 64.9037L34.1543 64.8999L34.1548 64.8994Z" fill="white"/>
</g>
</g>
<defs>
<clipPath id="clip0_2355_49587">
<rect width="98" height="98" rx="20" fill="white"/>
</clipPath>
<clipPath id="clip1_2355_49587">
<rect width="63" height="55" fill="white" transform="translate(17.5 21.5)"/>
</clipPath>
</defs>
</svg>
