<svg width="98" height="98" viewBox="0 0 98 98" fill="none" xmlns="http://www.w3.org/2000/svg">
<g clip-path="url(#clip0_2355_49574)">
<rect width="98" height="98" rx="20" fill="black"/>
<g clip-path="url(#clip1_2355_49574)">
<rect x="-4" y="-3.7168" width="106" height="105" rx="20" fill="#3B268F"/>
<circle cx="49.3813" cy="40.605" r="19.2642" fill="#EA215B"/>
<path d="M54.0868 44.6681L55.8292 41.96H57.5715L55.1322 38.5748L49.5566 47.7148H34.5723L38.4055 41.6215H35.6177L37.3601 39.2519H48.8597L47.1173 41.6215H41.8902L39.4509 45.0067H47.8143L55.1322 33.4971L64.1925 47.7148H61.0563L58.9654 44.6681H54.0868Z" fill="white"/>
<path d="M50.9505 36.2052H38.7539L40.8448 33.4971H52.6929L50.9505 36.2052Z" fill="white"/>
<path d="M20.5932 71.0971H26.1143C26.1044 72.7351 25.6061 74.087 24.6193 75.1528C23.6325 76.2086 22.3645 76.7365 20.8152 76.7365C19.2857 76.7365 18.0079 76.2283 16.9816 75.212C15.9652 74.1857 15.457 72.898 15.457 71.3487C15.457 69.7896 15.9603 68.4969 16.9668 67.4707C17.9733 66.4444 19.2413 65.9313 20.7708 65.9313C22.0635 65.9313 23.1934 66.3013 24.1604 67.0414C25.1275 67.7716 25.7294 68.719 25.9662 69.8834H23.6572C23.5092 69.5084 23.297 69.1877 23.0207 68.9212C22.7444 68.6449 22.4138 68.4328 22.029 68.2848C21.654 68.1368 21.2494 68.0627 20.8152 68.0627C19.8975 68.0627 19.1525 68.3686 18.5802 68.9804C18.0079 69.5923 17.7217 70.3817 17.7217 71.3487C17.7217 71.9803 17.85 72.5427 18.1065 73.0361C18.3631 73.5295 18.7233 73.9143 19.1871 74.1906C19.6607 74.4669 20.2034 74.6051 20.8152 74.6051C21.2593 74.6051 21.6787 74.5311 22.0734 74.3831C22.4681 74.2351 22.8036 74.0278 23.0799 73.7614C23.3661 73.4851 23.5733 73.1743 23.7016 72.8289H20.5932V71.0971Z" fill="white"/>
<path d="M27.6384 67.4559V65.4428H29.7994V67.4559H27.6384ZM27.6384 76.5145V68.5216H29.7994V76.5145H27.6384Z" fill="white"/>
<path d="M41.8056 74.5163H42.7233V76.5145H41.5243C40.5474 76.5145 39.7679 76.2234 39.1857 75.6412C38.6035 75.059 38.3124 74.2795 38.3124 73.3025V70.4162H34.76V76.5145H32.5989V70.4162H31.2075V68.6252H32.6137V67.8999C32.6137 67.1204 32.8308 66.5086 33.265 66.0645C33.6992 65.6205 34.3258 65.3984 35.1448 65.3984H36.7582V67.1006H35.574C34.9918 67.1006 34.7007 67.3868 34.7007 67.9591V68.6252H38.3124V66.2865H40.4734V68.6252H42.7233V70.4162H40.4734V73.1841C40.4734 73.6183 40.5869 73.9489 40.8138 74.1758C41.0408 74.4028 41.3714 74.5163 41.8056 74.5163Z" fill="white"/>
<path d="M52.6732 76.7365C51.6766 76.7365 50.7688 76.5046 49.9497 76.0409C49.1307 75.5672 48.4893 74.9209 48.0255 74.1018C47.5617 73.2729 47.3298 72.3552 47.3298 71.3487C47.3298 69.8093 47.838 68.5216 48.8544 67.4855C49.8807 66.4494 51.1536 65.9313 52.6732 65.9313C53.9363 65.9313 55.0267 66.3112 55.9444 67.071C56.8621 67.8309 57.4443 68.8275 57.691 70.061H55.4412C55.303 69.6564 55.1007 69.3061 54.8343 69.0101C54.5679 68.7042 54.2472 68.4723 53.8722 68.3144C53.5071 68.1466 53.1074 68.0627 52.6732 68.0627C51.795 68.0627 51.0599 68.3785 50.4678 69.0101C49.8856 69.6317 49.5945 70.4113 49.5945 71.3487C49.5945 72.2763 49.8856 73.0509 50.4678 73.6726C51.0599 74.2943 51.795 74.6051 52.6732 74.6051C53.3541 74.6051 53.9413 74.4127 54.4346 74.0278C54.928 73.643 55.2685 73.12 55.456 72.4588H57.7206C57.4838 73.7417 56.9016 74.7778 55.974 75.5672C55.0563 76.3468 53.9561 76.7365 52.6732 76.7365Z" fill="white"/>
<path d="M65.7207 68.5068H67.3341V76.4997H65.6319L65.4543 75.7892C64.7241 76.4208 63.8606 76.7365 62.864 76.7365C61.6601 76.7365 60.6585 76.3369 59.8592 75.5376C59.0698 74.7284 58.6751 73.717 58.6751 72.5033C58.6751 71.2994 59.0698 70.2978 59.8592 69.4985C60.6585 68.6992 61.6601 68.2996 62.864 68.2996C63.8804 68.2996 64.7537 68.6252 65.4839 69.2765L65.7207 68.5068ZM61.4726 74.0722C61.8871 74.4867 62.4051 74.6939 63.0268 74.6939C63.6583 74.6939 64.1813 74.4867 64.5958 74.0722C65.0102 73.6578 65.2175 73.1348 65.2175 72.5033C65.2175 71.8717 65.0102 71.3487 64.5958 70.9343C64.1813 70.5198 63.6633 70.3126 63.0416 70.3126C62.6272 70.3126 62.2522 70.4113 61.9167 70.6086C61.591 70.7961 61.3345 71.0576 61.147 71.3931C60.9595 71.7188 60.8658 72.0888 60.8658 72.5033C60.8658 73.1348 61.068 73.6578 61.4726 74.0722Z" fill="white"/>
<path d="M73.498 68.4772H74.2084V70.5198H73.2759C72.6641 70.5198 72.225 70.6629 71.9586 70.9491C71.702 71.2352 71.5737 71.704 71.5737 72.3552V76.5145H69.4127V68.5216H70.8041L71.1889 69.4985C71.7316 68.8176 72.5013 68.4772 73.498 68.4772Z" fill="white"/>
<path d="M81.1432 65.6353H83.3042V76.5145H81.7056L81.454 75.8484C80.7435 76.4504 79.9097 76.7513 78.9525 76.7513C78.1532 76.7513 77.4329 76.5688 76.7915 76.2037C76.15 75.8386 75.6468 75.3353 75.2817 74.6939C74.9264 74.0426 74.7488 73.3173 74.7488 72.5181C74.7488 71.7188 74.9264 70.9984 75.2817 70.357C75.6468 69.7156 76.15 69.2123 76.7915 68.8472C77.4329 68.4821 78.1532 68.2996 78.9525 68.2996C79.7617 68.2996 80.4919 68.5167 81.1432 68.9508V65.6353ZM77.5611 74.087C77.9756 74.5015 78.4936 74.7087 79.1153 74.7087C79.7469 74.7087 80.2699 74.5015 80.6843 74.087C81.0987 73.6627 81.306 73.1397 81.306 72.5181C81.306 71.8865 81.0987 71.3635 80.6843 70.9491C80.2699 70.5346 79.7469 70.3274 79.1153 70.3274C78.4936 70.3274 77.9756 70.5346 77.5611 70.9491C77.1467 71.3635 76.9395 71.8865 76.9395 72.5181C76.9395 73.1496 77.1467 73.6726 77.5611 74.087Z" fill="white"/>
</g>
</g>
<defs>
<clipPath id="clip0_2355_49574">
<rect width="98" height="98" rx="20" fill="white"/>
</clipPath>
<clipPath id="clip1_2355_49574">
<rect x="-4" y="-3.7168" width="106" height="105" rx="20" fill="white"/>
</clipPath>
</defs>
</svg>
