<svg width="98" height="98" viewBox="0 0 98 98" fill="none" xmlns="http://www.w3.org/2000/svg">
<g clip-path="url(#clip0_2355_49539)">
<rect width="98" height="98" rx="20" fill="url(#paint0_linear_2355_49539)"/>
<path fill-rule="evenodd" clip-rule="evenodd" d="M21.6506 39.1937C20.6067 39.1734 19.7007 40.0518 19.6877 41.0986C19.6746 42.1454 20.5399 43.0412 21.5911 43.0659C22.6205 43.0906 23.5409 42.2006 23.5613 41.1596C23.5816 40.1244 22.6974 39.2155 21.6506 39.1937ZM56.3431 50.0854L56.3438 50.0844C57.2336 48.8106 58.1233 47.5371 58.9713 46.2357C59.4039 45.5708 59.8627 45.2993 60.6584 45.3515C61.4588 45.403 62.2641 45.392 63.106 45.3806C63.4752 45.3755 63.8513 45.3704 64.2372 45.3704C64.1795 45.4639 64.1276 45.5502 64.0789 45.6311L64.0787 45.6314L64.0787 45.6315C63.9793 45.7967 63.8933 45.9396 63.7988 46.076C63.4009 46.6534 63.0038 47.2314 62.6067 47.8095C61.2954 49.7184 59.9838 51.6276 58.6431 53.5155C58.302 53.996 58.3687 54.2458 58.7346 54.6465C60.189 56.236 61.6238 57.8441 63.0586 59.4521L63.0591 59.4527C63.4589 59.9008 63.8588 60.3489 64.259 60.7967C64.4198 60.9757 64.5775 61.1579 64.7758 61.3871L64.9279 61.5628L65.0038 61.6504C64.5221 61.6504 64.0531 61.65 63.5934 61.6497H63.5896H63.5859H63.5822H63.5786H63.5749C62.3666 61.6488 61.2221 61.648 60.0776 61.6533C59.8115 61.6533 59.6776 61.488 59.5438 61.3229C59.5141 61.2863 59.4844 61.2496 59.4533 61.2148C58.6553 60.3298 57.8602 59.4427 57.0654 58.5559L57.0632 58.5534C56.7308 58.1826 56.3985 57.8119 56.0661 57.4414C55.1441 58.1629 55.0614 59.1241 55.0991 60.1738C55.1528 61.6489 55.1122 61.6504 53.6632 61.6504C53.4696 61.6504 53.2761 61.6493 53.0826 61.6483H53.0824C52.6232 61.6459 52.1643 61.6435 51.7046 61.6547C51.3968 61.662 51.2516 61.5589 51.2792 61.2424C51.286 61.1622 51.2837 61.082 51.2815 61.0014V61.0013C51.2803 60.9608 51.2792 60.9202 51.2792 60.8794C51.2792 59.511 51.2794 58.1427 51.2797 56.7744V56.77V56.7699V56.7698V56.7697V56.7696C51.2806 51.2973 51.2815 45.8254 51.2676 40.3527C51.2676 39.8126 51.362 39.5788 51.9659 39.6224C52.7833 39.6805 53.6124 39.6834 54.4298 39.6224C55.0425 39.5774 55.1238 39.8242 55.1209 40.3541C55.1056 43.0743 55.1075 45.7945 55.1094 48.514V48.5142V48.5144V48.5147V48.5149V48.5151C55.1101 49.4211 55.1107 50.3272 55.1107 51.2331V51.583C55.1339 51.5939 55.1575 51.6048 55.1811 51.6157C55.2047 51.6266 55.2283 51.6375 55.2515 51.6483L55.2544 51.6498C55.6155 51.127 55.9793 50.6062 56.3431 50.0854ZM50.1641 61.6509H50.1628C49.5907 61.0116 49.0276 60.3813 48.4708 59.7579L48.468 59.7548C46.884 57.9815 45.3505 56.2648 43.8034 54.5599C43.4884 54.2115 43.4594 53.9951 43.7396 53.5959C45.2622 51.4282 46.7606 49.2426 48.2589 47.057L48.2639 47.0497L48.2676 47.0443L48.27 47.0408L48.2724 47.0373L48.2735 47.0358C48.5305 46.6608 48.7876 46.2859 49.0447 45.9111C49.0663 45.8797 49.0924 45.8496 49.1191 45.8189L49.1191 45.8189L49.1192 45.8189L49.1192 45.8188L49.1192 45.8188L49.1192 45.8188C49.2148 45.7088 49.318 45.59 49.2466 45.371C48.8874 45.371 48.5277 45.3729 48.1676 45.3749H48.1675C47.2553 45.3799 46.3406 45.385 45.4267 45.3579C44.904 45.3434 44.6063 45.5162 44.316 45.9503C43.3904 47.3333 42.4414 48.7012 41.4458 50.1361L41.4456 50.1365L41.4453 50.1369L41.445 50.1374L41.4449 50.1374L41.4448 50.1375L41.4428 50.1404L41.4407 50.1435L41.4389 50.1461L41.4367 50.1493C41.0577 50.6955 40.672 51.2514 40.2783 51.8217V50.9244C40.2783 50.0358 40.2776 49.1472 40.2768 48.2587C40.2746 45.5936 40.2725 42.9292 40.2899 40.2647C40.2928 39.7507 40.152 39.6041 39.6453 39.6273C38.7291 39.668 37.8086 39.6535 36.891 39.6317C36.5237 39.623 36.3887 39.7202 36.3887 40.1137C36.4003 47.1219 36.4018 54.1316 36.3887 61.1413C36.3872 61.574 36.5455 61.6713 36.9375 61.6582C37.4664 61.6407 37.9967 61.6443 38.527 61.6479C38.7464 61.6494 38.9658 61.6509 39.185 61.6509C39.7261 61.6509 39.9948 61.6509 40.1313 61.5166C40.266 61.3841 40.272 61.121 40.2841 60.5985L40.2855 60.5388C40.2901 60.3433 40.2831 60.146 40.2761 59.9489V59.9488V59.9488V59.9487V59.9487V59.9487C40.2496 59.1985 40.223 58.4488 40.83 57.7947C41.1233 57.4782 41.2191 57.4274 41.5051 57.757C42.2915 58.6604 43.0928 59.5516 43.894 60.4428C44.1267 60.7017 44.3595 60.9606 44.5918 61.2197C44.6147 61.2453 44.6371 61.2712 44.6594 61.2969C44.8203 61.4832 44.9748 61.662 45.2873 61.6582C46.4209 61.6456 47.5553 61.6474 48.7596 61.6494H48.7607H48.7618H48.7629H48.764H48.7652C49.2198 61.6502 49.6845 61.6509 50.1628 61.6509L50.1641 61.6524V61.6509ZM71.3716 44.7403C66.6762 44.7504 62.8868 48.5747 62.8926 53.2976H62.894C62.8984 58.0264 66.6936 61.8362 71.3905 61.8275C76.0742 61.8187 79.897 57.9742 79.8912 53.2788C79.8854 48.5921 76.0321 44.7301 71.3716 44.7403ZM71.3977 48.624C73.9501 48.6371 76.0162 50.7336 76.0132 53.3093C76.0103 55.8893 73.9458 57.9408 71.3585 57.9335C68.793 57.9263 66.7154 55.837 66.7212 53.2701C66.727 50.738 68.8671 48.611 71.3977 48.624ZM34.8214 53.3003C34.8142 58.0306 31.0131 61.8432 26.3221 61.8272C21.634 61.8127 17.817 57.9696 17.8242 53.2756C17.8315 48.589 21.6862 44.7299 26.3468 44.7415C31.0436 44.7531 34.8287 48.5759 34.8214 53.3003ZM26.3163 57.9333C28.8905 57.942 30.987 55.8672 30.9913 53.309C30.9957 50.7668 28.889 48.6383 26.354 48.6253C23.835 48.6122 21.7138 50.6956 21.6993 53.1972C21.6833 55.8411 23.7131 57.9246 26.3163 57.9333ZM24.334 41.1409C24.3268 40.0883 25.1965 39.207 26.2534 39.1954C27.293 39.1852 28.196 40.0752 28.2033 41.1177C28.2091 42.1529 27.3118 43.0618 26.2767 43.069C25.2429 43.0763 24.3427 42.1819 24.3355 41.1395L24.334 41.1409ZM31.3923 43.0685C32.4318 43.054 33.3233 42.1481 33.3146 41.1129C33.3059 40.0675 32.4028 39.1819 31.3589 39.1935C30.3121 39.2051 29.4221 40.1082 29.4337 41.1463C29.4468 42.1814 30.3644 43.0831 31.3923 43.0685Z" fill="#FCFCFC"/>
<path d="M27 0H96.5C100.642 0 104 3.35786 104 7.5C104 11.6421 100.642 15 96.5 15H34C30.134 15 27 11.866 27 8V0Z" fill="black"/>
<path d="M35.2768 11.114C34.5585 11.114 33.9266 10.9586 33.381 10.6478C32.8423 10.3301 32.421 9.89153 32.1171 9.33212C31.8202 8.76579 31.6717 8.10279 31.6717 7.34309C31.6717 6.58339 31.8202 5.92383 32.1171 5.36442C32.421 4.7981 32.8423 4.35954 33.381 4.04876C33.9197 3.73797 34.5516 3.58258 35.2768 3.58258C36.002 3.58258 36.6339 3.73797 37.1726 4.04876C37.7182 4.35954 38.1395 4.7981 38.4365 5.36442C38.7403 5.92383 38.8923 6.57993 38.8923 7.33273C38.8923 8.09243 38.7403 8.75544 38.4365 9.32176C38.1395 9.88808 37.7182 10.3301 37.1726 10.6478C36.6339 10.9586 36.002 11.114 35.2768 11.114ZM35.2768 9.7465C35.8846 9.7465 36.3576 9.53585 36.6961 9.11457C37.0414 8.68637 37.214 8.09588 37.214 7.34309C37.214 6.58339 37.0448 5.99635 36.7064 5.58197C36.368 5.16068 35.8915 4.95003 35.2768 4.95003C34.6759 4.95003 34.2029 5.16068 33.8575 5.58197C33.5191 5.99635 33.3499 6.58339 33.3499 7.34309C33.3499 8.09588 33.5191 8.68637 33.8575 9.11457C34.2029 9.53585 34.6759 9.7465 35.2768 9.7465ZM40.1344 11V3.69653H46.6712V11H45.0655V5.02255H41.7401V11H40.1344ZM49.8872 11V5.02255H47.4734V3.69653H53.9067V5.02255H51.4929V11H49.8872ZM54.6923 11V3.69653H56.1841V8.3894L59.8307 3.69653H61.022V11H59.5302V6.28641L55.8733 11H54.6923ZM62.5131 11V3.69653H63.8494L66.315 8.18221L68.7702 3.69653H70.0859V11H68.6252V6.5454L66.7397 9.90189H65.8385L63.9634 6.57648V11H62.5131ZM72.603 11L73.7218 8.78306L70.614 3.69653H72.3129L74.4884 7.31201L76.3117 3.69653H77.9692L74.2605 11H72.603ZM78.5278 11V3.69653H79.8642L82.3298 8.18221L84.785 3.69653H86.1006V11H84.64V6.5454L82.7545 9.90189H81.8532L79.9782 6.57648V11H78.5278Z" fill="#FCFCFC"/>
</g>
<defs>
<linearGradient id="paint0_linear_2355_49539" x1="33.5693" y1="-10.4658" x2="88.0099" y2="74.8917" gradientUnits="userSpaceOnUse">
<stop stop-color="#902BC5"/>
<stop offset="0.911601" stop-color="#341B5D"/>
</linearGradient>
<clipPath id="clip0_2355_49539">
<rect width="98" height="98" rx="20" fill="white"/>
</clipPath>
</defs>
</svg>
