<svg width="98" height="98" viewBox="0 0 98 98" fill="none" xmlns="http://www.w3.org/2000/svg">
<g clip-path="url(#clip0_2355_49523)">
<rect width="98" height="98" rx="20" fill="black"/>
<rect x="-3" y="-2.7168" width="104" height="104" rx="20" fill="black"/>
<path d="M28.5056 38.7417L22.127 36.0049V65.8057L28.5056 60.0842V38.7417Z" fill="#61C0B1"/>
<path d="M69.4924 38.7426L75.8711 36.0059V65.8067L69.4924 60.0852V38.7426Z" fill="#61C0B1"/>
<path d="M29.656 61.3013L23.2988 67.1992L74.7828 67.1992L68.2945 61.3013L29.656 61.3013Z" fill="#61C0B1"/>
<path d="M30.1602 39.4532L30.1602 59.582L67.9672 59.582L67.9672 39.4532L49.0637 47.8384L30.1602 39.4532Z" fill="#61C0B1"/>
<path d="M30.1602 37.7332L30.1605 31.54L48.1719 39.4122V45.6994L30.1602 37.7332Z" fill="#61C0B1"/>
<path d="M67.8379 37.7332L67.8375 31.54L49.8262 39.4122V45.6994L67.8379 37.7332Z" fill="#61C0B1"/>
<path d="M28.507 36.9762V31.3691L22.7148 34.4275L28.507 36.9762Z" fill="#61C0B1"/>
<path d="M69.4911 36.9762V31.3691L75.2832 34.4275L69.4911 36.9762Z" fill="#61C0B1"/>
</g>
<defs>
<clipPath id="clip0_2355_49523">
<rect width="98" height="98" rx="20" fill="white"/>
</clipPath>
</defs>
</svg>
