<svg width="98" height="98" viewBox="0 0 98 98" fill="none" xmlns="http://www.w3.org/2000/svg">
<g clip-path="url(#clip0_2355_49509)">
<rect width="98" height="98" rx="20" fill="url(#paint0_linear_2355_49509)"/>
<g clip-path="url(#clip1_2355_49509)">
<path d="M17.0008 40.2901C17.7773 40.2901 18.5537 40.3001 19.3296 40.2834C19.5497 40.279 19.6376 40.3501 19.7097 40.5573C20.8212 43.7552 21.9415 46.9492 23.06 50.1444C23.0855 50.2177 23.1115 50.2905 23.1766 50.3538C23.1766 50.2549 23.1766 50.1566 23.1766 50.0577C23.1766 46.8948 23.1793 43.7313 23.1712 40.5684C23.1706 40.3378 23.2238 40.279 23.4499 40.284C24.2079 40.3001 24.9665 40.2967 25.7245 40.2851C25.9077 40.2823 25.9435 40.3417 25.9435 40.5161C25.9392 45.9666 25.9386 51.4165 25.9446 56.8669C25.9446 57.0535 25.898 57.1197 25.7174 57.1396C24.8569 57.2357 23.997 57.338 23.1392 57.4524C22.9397 57.4791 22.9017 57.373 22.8518 57.2224C21.8813 54.3056 20.9069 51.3904 19.9331 48.4746C19.9076 48.3991 19.8821 48.3235 19.8019 48.2491C19.8019 48.3413 19.8019 48.4335 19.8019 48.5257C19.8019 51.5415 19.7997 54.5572 19.8057 57.5724C19.8057 57.7896 19.7802 57.8868 19.527 57.9134C18.7473 57.9951 17.9719 58.1201 17.1949 58.2273C17.1586 58.2323 17.1244 58.2362 17.1092 58.2773C17.0751 58.2545 16.9948 58.3312 17.0003 58.2223C17.0035 58.1579 17.0008 58.0934 17.0008 58.029V40.2901Z" fill="#EB0114"/>
<path d="M77.1046 44.9497C77.5112 43.9526 77.9152 42.9632 78.3181 41.9734C78.5219 41.4723 78.7253 40.9707 78.9275 40.4691C78.9698 40.3647 79.0056 40.2847 79.1514 40.2863C80.09 40.2952 81.0286 40.2908 82.0002 40.2908C81.8462 40.6741 81.7025 41.0379 81.5551 41.3995C80.5796 43.7942 79.6053 46.1895 78.6222 48.5814C78.5458 48.7675 78.5474 48.9192 78.6163 49.1036C79.7094 52.0443 80.7965 54.9873 81.8831 57.9308C81.9167 58.0225 81.9747 58.1114 81.9531 58.2547C81.374 58.1636 80.7971 58.0753 80.2212 57.9803C79.8655 57.9214 79.5131 57.8325 79.1552 57.7964C78.9541 57.7764 78.8825 57.6786 78.8191 57.5098C78.2383 55.9639 77.6517 54.4207 77.0661 52.877C77.0308 52.7837 76.9896 52.6926 76.9387 52.5715C76.4545 53.7225 75.9811 54.8457 75.5083 55.9689C75.3446 56.3577 75.1743 56.7438 75.0219 57.137C74.9607 57.2942 74.8913 57.3237 74.7232 57.3004C73.9191 57.1881 73.1117 57.0982 72.3054 57.0048C71.9801 56.9671 71.979 56.9726 72.1054 56.6777C73.2088 54.1085 74.31 51.5383 75.4199 48.9719C75.4964 48.7947 75.4931 48.652 75.427 48.4781C74.4233 45.8373 73.4273 43.1938 72.4204 40.5541C72.3353 40.3302 72.3667 40.2825 72.6004 40.2863C73.4127 40.2991 74.2254 40.2975 75.0377 40.2863C75.2188 40.2841 75.3001 40.3341 75.3668 40.5124C75.8916 41.9123 76.429 43.3076 76.9647 44.7036C76.9961 44.7852 77.0016 44.8841 77.1035 44.9502L77.1046 44.9497Z" fill="#EB0114"/>
<path d="M28.5962 48.5853C28.5962 45.9111 28.5983 43.2365 28.5918 40.5624C28.5918 40.3574 28.6271 40.2841 28.8504 40.2852C31.215 40.2946 33.5802 40.2935 35.9448 40.2863C36.1421 40.2857 36.2039 40.3279 36.2002 40.5407C36.1861 41.315 36.1882 42.0899 36.1991 42.8643C36.2018 43.0615 36.14 43.1087 35.9545 43.1076C34.5014 43.1004 33.0483 43.1076 31.5951 43.0987C31.3923 43.0976 31.3408 43.1498 31.343 43.3565C31.3538 44.4535 31.3522 45.5512 31.3441 46.6488C31.3425 46.831 31.3923 46.881 31.5691 46.8771C32.6335 46.8527 33.6984 46.8438 34.7633 46.8183C34.9574 46.8138 35.0273 46.8516 35.0235 47.0699C35.0089 47.8348 35.0084 48.6008 35.0235 49.3657C35.0279 49.5951 34.9487 49.6385 34.747 49.639C33.7092 49.6412 32.6714 49.6623 31.6336 49.6629C31.3989 49.6629 31.3392 49.7401 31.3419 49.9795C31.3555 51.1877 31.3538 52.3959 31.343 53.6035C31.3414 53.8152 31.394 53.8663 31.5973 53.8502C33.0369 53.7352 34.4765 53.6307 35.9193 53.568C36.147 53.558 36.2056 53.6152 36.2007 53.8474C36.185 54.5756 36.1909 55.3044 36.198 56.0327C36.1996 56.1993 36.1687 56.2732 35.9816 56.2876C33.6067 56.4698 31.2324 56.6581 28.8586 56.857C28.6412 56.8753 28.5907 56.8315 28.5918 56.6098C28.5994 53.9357 28.5967 51.261 28.5967 48.5869L28.5962 48.5853Z" fill="#EB0114"/>
<path d="M48.1695 48.0623C48.1695 45.5726 48.1722 43.0829 48.1646 40.5932C48.1641 40.3654 48.1966 40.2821 48.4514 40.2832C50.8247 40.2954 53.1985 40.2943 55.5723 40.2843C55.8055 40.2832 55.8505 40.351 55.8462 40.5737C55.8315 41.3203 55.8272 42.068 55.8478 42.814C55.8548 43.0729 55.7713 43.1101 55.5458 43.1084C54.084 43.0984 52.6216 43.1106 51.1598 43.0962C50.9012 43.0934 50.854 43.1762 50.8572 43.4184C50.8703 44.4233 50.8676 45.4287 50.8583 46.4336C50.8567 46.6297 50.9136 46.6791 51.1002 46.6774C52.1922 46.6691 53.2842 46.6791 54.3762 46.668C54.5839 46.6658 54.6332 46.7302 54.6305 46.9335C54.6197 47.7079 54.6208 48.4828 54.6305 49.2571C54.6327 49.4404 54.579 49.4876 54.4022 49.486C53.3102 49.4776 52.2182 49.4876 51.1262 49.4765C50.9147 49.4743 50.8567 49.5287 50.8578 49.7487C50.8665 51.6946 50.8594 53.6399 50.8681 55.5858C50.8692 55.8019 50.8166 55.8624 50.603 55.858C49.8905 55.8435 49.1769 55.8418 48.4645 55.858C48.2308 55.8635 48.163 55.808 48.1641 55.558C48.1744 53.0589 48.1706 50.5603 48.1706 48.0611L48.1695 48.0623Z" fill="#EB0114"/>
<path d="M43.5546 49.5896C43.5546 51.6371 43.5508 53.6841 43.56 55.7316C43.5611 55.9599 43.5096 56.0216 43.2819 56.0193C42.5423 56.0127 41.8016 56.0249 41.0626 56.0527C40.8446 56.061 40.8137 55.9866 40.8142 55.7905C40.8202 53.5124 40.818 51.2349 40.818 48.9569C40.818 47.1032 40.8126 45.2495 40.8245 43.3959C40.8262 43.1437 40.7551 43.092 40.5231 43.097C39.7564 43.112 38.9886 43.0931 38.2219 43.1087C37.998 43.1131 37.9579 43.037 37.9611 42.8298C37.9725 42.0644 37.9714 41.2989 37.9611 40.5335C37.9589 40.349 37.9926 40.2846 38.1916 40.2852C40.8544 40.2924 43.5166 40.2913 46.1794 40.2874C46.3383 40.2874 46.4186 40.3024 46.4158 40.504C46.4028 41.2967 46.4039 42.0905 46.4153 42.8832C46.418 43.0776 46.3459 43.1076 46.1805 43.1059C45.4133 43.0987 44.6455 43.1193 43.8794 43.0943C43.5898 43.0848 43.5481 43.1831 43.5492 43.4475C43.56 45.4945 43.5551 47.542 43.5551 49.5896H43.5546Z" fill="#EB0114"/>
<path d="M57.5615 48.1537C57.5615 45.6273 57.5642 43.1015 57.5566 40.5752C57.5561 40.3546 57.5935 40.2774 57.8299 40.2835C58.5603 40.3019 59.2917 40.3002 60.0221 40.2841C60.246 40.2791 60.303 40.3363 60.303 40.5685C60.2954 44.7358 60.3008 48.903 60.2899 53.0697C60.2894 53.3575 60.3702 53.4058 60.6315 53.4169C62.0196 53.4747 63.4066 53.5602 64.7941 53.6286C64.9432 53.6358 64.972 53.6985 64.9709 53.8313C64.9671 54.624 64.9633 55.4172 64.973 56.2099C64.9758 56.4038 64.8917 56.4115 64.7442 56.4027C63.2765 56.3154 61.8087 56.2266 60.3404 56.1516C59.5027 56.1088 58.6638 56.081 57.825 56.0655C57.6136 56.0616 57.5561 56.0049 57.5566 55.7872C57.5642 53.2425 57.5615 50.6984 57.5615 48.1537Z" fill="#EB0114"/>
<path d="M69.9778 48.5598C69.9778 51.2256 69.9751 53.8914 69.9827 56.5572C69.9832 56.7755 69.9387 56.8216 69.7191 56.7993C68.9741 56.7232 68.2264 56.6699 67.4793 56.626C67.3041 56.616 67.2765 56.5549 67.2765 56.3966C67.2797 51.1017 67.2803 45.8074 67.2754 40.5125C67.2754 40.3247 67.3329 40.2847 67.5047 40.2869C68.2541 40.2958 69.0034 40.2986 69.7528 40.2853C69.9528 40.2819 69.9827 40.3508 69.9827 40.5347C69.9767 43.2099 69.9789 45.8846 69.9789 48.5598H69.9778Z" fill="#EB0114"/>
</g>
</g>
<defs>
<linearGradient id="paint0_linear_2355_49509" x1="54.5" y1="113" x2="67.1635" y2="-13.9446" gradientUnits="userSpaceOnUse">
<stop offset="0.466729"/>
<stop offset="1" stop-color="#414141"/>
</linearGradient>
<clipPath id="clip0_2355_49509">
<rect width="98" height="98" rx="20" fill="white"/>
</clipPath>
<clipPath id="clip1_2355_49509">
<rect width="65" height="18" fill="white" transform="translate(17 40.2832)"/>
</clipPath>
</defs>
</svg>
