<svg width="98" height="98" viewBox="0 0 98 98" fill="none" xmlns="http://www.w3.org/2000/svg">
<g clip-path="url(#clip0_2355_49499)">
<rect width="98" height="98" rx="20" fill="black"/>
<g clip-path="url(#clip1_2355_49499)">
<path d="M44.2743 54.9396C42.5581 54.9396 40.8431 54.9396 39.127 54.9396C38.7608 54.9396 38.7213 54.9582 38.7673 55.3284C38.9307 56.656 39.4779 57.8018 40.4725 58.7099C41.693 59.8239 43.1525 60.25 44.7798 60.1021C46.2305 59.9696 47.3205 59.194 48.2098 58.0877C50.1518 55.6691 52.0806 53.2395 53.9908 50.7957C54.6301 49.9775 55.3078 49.1921 56.1708 48.5896C56.8682 48.1032 57.6226 47.7483 58.4462 47.5194C59.1392 47.3266 59.8355 47.2488 60.5504 47.2609C62.4585 47.2938 64.0923 47.9904 65.4729 49.2885C66.4817 50.2382 67.1605 51.3894 67.5377 52.7247C67.6452 53.107 67.7033 53.4871 67.6824 53.8792C67.6474 54.5452 67.1342 54.8048 66.6363 54.8738C66.2492 54.9275 65.8545 54.9352 65.4619 54.9352C62.2402 54.9396 59.0186 54.9374 55.798 54.9374C55.6883 54.9374 55.5787 54.933 55.469 54.9406C55.1674 54.9626 55.0227 55.1389 55.0731 55.4358C55.401 57.3823 56.423 58.8293 58.229 59.6563C59.2225 60.1109 60.2752 60.2357 61.374 60.0189C62.6942 59.7582 63.7502 59.1053 64.5913 58.0745C64.8281 57.7843 65.0047 57.4557 65.1987 57.138C65.4915 56.656 66.0716 56.484 66.5508 56.7382C67.0399 56.9978 67.2559 57.6594 67.0081 58.1523C66.1275 59.9071 64.7535 61.1329 62.9234 61.8142C61.7227 62.2622 60.4748 62.3882 59.1896 62.1549C56.7015 61.7036 54.9262 60.3179 53.7518 58.1195C53.5127 57.6714 53.3603 57.184 53.209 56.6998C53.1498 56.5092 53.243 56.3581 53.3505 56.2223C54.2091 55.1378 55.0709 54.0578 55.9339 52.9766C56.0842 52.7882 56.2881 52.7477 56.5206 52.7477C59.1852 52.751 61.8499 52.7521 64.5145 52.7455C64.7272 52.7455 64.9838 52.8485 65.1351 52.5878C65.2865 52.3282 65.0705 52.1573 64.9608 51.9776C64.2744 50.8472 63.3039 50.0782 62.0407 49.6543C61.2402 49.3859 60.4243 49.3257 59.614 49.444C58.217 49.6477 57.0667 50.3411 56.1818 51.442C54.8933 53.0445 53.6202 54.6591 52.3383 56.2661C51.471 57.3538 50.6113 58.4503 49.7252 59.5227C48.9883 60.4143 48.1276 61.1657 47.0683 61.6641C46.3698 61.9927 45.6241 62.1625 44.8642 62.2392C43.8948 62.3378 42.9288 62.2502 41.9978 61.9632C40.422 61.4779 39.1336 60.5676 38.1423 59.2444C37.5688 58.4787 37.1598 57.6287 36.9142 56.7108C36.6214 55.6165 36.5556 54.4926 36.7826 53.383C37.2804 50.9502 38.6314 49.1296 40.8541 47.9926C42.1623 47.3233 43.5812 47.0856 45.0199 47.3003C47.7131 47.7012 49.666 49.1592 50.8415 51.6304C50.9786 51.9185 51.0806 52.2197 51.1869 52.5177C51.2834 52.7871 51.2527 53.0445 51.0619 53.2866C50.7187 53.7226 50.3832 54.1651 50.0685 54.6208C49.9029 54.8607 49.7011 54.9385 49.4226 54.9374C47.7065 54.9308 45.9915 54.9341 44.2753 54.9341L44.2743 54.9396ZM44.1054 52.7641C45.1537 52.7641 46.2031 52.7641 47.2514 52.7641C47.6615 52.7641 48.0727 52.7685 48.4828 52.7619C48.8315 52.7564 48.9478 52.5604 48.8063 52.2361C48.7811 52.1781 48.7537 52.12 48.7208 52.0653C47.4444 49.8975 45.0166 48.9412 42.6459 49.5875C41.2368 49.972 40.1578 50.8362 39.433 52.1178C39.1862 52.5549 39.309 52.763 39.8102 52.763C41.2423 52.7641 42.6733 52.763 44.1054 52.763V52.7641Z" fill="#FAD006"/>
<path d="M21 46.6945C21 43.9242 21 41.154 21.0011 38.3838C21.0022 37.6652 21.4869 37.2248 22.1909 37.2895C22.5747 37.3245 22.9672 37.6991 23.0231 38.0803C23.0593 38.3334 23.0769 38.5864 23.0769 38.8427C23.0747 42.0139 23.0758 45.1861 23.0758 48.3572C23.0758 48.4668 23.0758 48.5763 23.0758 48.6859C23.0758 48.848 23.1054 48.9926 23.2721 49.0747C23.4344 49.1547 23.5616 49.0703 23.6734 48.9816C24.0506 48.6804 24.4443 48.4044 24.8654 48.1667C26.2635 47.3802 27.78 47.0778 29.3448 47.3068C32.0961 47.7077 34.0688 49.2138 35.2212 51.7562C35.7103 52.8352 35.9384 53.9788 35.8474 55.1541C35.6456 57.7458 34.4767 59.7887 32.2496 61.1842C30.8602 62.0551 29.3283 62.4078 27.7098 62.2391C25.7273 62.0331 24.0758 61.1437 22.7676 59.6299C22.0845 58.8401 21.5768 57.9539 21.318 56.944C21.1042 56.1148 21 55.2648 21.0011 54.4049C21.0055 51.8351 21.0022 49.2653 21.0022 46.6945H21ZM33.7541 54.7675C33.833 51.8482 31.335 49.4012 28.4511 49.3968C25.4948 49.3913 23.0725 51.7869 23.0648 54.7631C23.0571 57.7064 25.4652 60.1064 28.4018 60.1217C31.3427 60.137 33.8122 57.6899 33.7541 54.7675Z" fill="#FAD006"/>
<path d="M75.9993 42.7114C75.9894 45.7007 73.6154 48.1072 70.5977 48.1226C67.6118 48.1379 65.1609 45.7171 65.1719 42.6906C65.184 39.6531 67.6479 37.3013 70.5659 37.2969C73.5737 37.2925 75.9949 39.7078 75.9993 42.7103V42.7114ZM68.8399 40.3114C68.1644 40.3114 67.4889 40.3059 66.8135 40.3136C66.2575 40.3191 66.2761 40.1767 66.2707 40.8821C66.2696 41.0672 66.3419 41.1187 66.5152 41.1132C66.8069 41.1033 67.1008 41.1264 67.3913 41.1055C67.6611 41.0858 67.7379 41.1899 67.7346 41.4495C67.7236 42.4978 67.7302 43.545 67.7302 44.5932C67.7302 45.2056 67.7302 45.1946 68.3344 45.21C68.5943 45.2165 68.6787 45.1431 68.6754 44.8748C68.6612 43.7268 68.6688 42.5788 68.6699 41.4298C68.6699 41.2731 68.6502 41.1077 68.8914 41.1099C69.4024 41.1143 69.9134 41.1121 70.4244 41.1099C70.5615 41.1099 70.6306 41.1625 70.6722 41.3038C70.7633 41.6072 70.8806 41.9019 70.9881 42.1998C71.2885 43.0345 71.601 43.8648 71.8872 44.705C72.055 45.1979 72.0364 45.2045 72.5419 45.2045C72.6702 45.2045 72.7974 45.1979 72.9246 45.2067C73.0638 45.2154 73.1209 45.1694 73.1702 45.0259C73.4125 44.315 73.6779 43.6118 73.9323 42.9053C74.1746 42.2327 74.4258 41.5623 74.6495 40.8832C74.837 40.318 74.8205 40.3366 74.2119 40.3037C73.9093 40.2873 73.7843 40.4111 73.702 40.6619C73.3753 41.6598 73.0452 42.6577 72.7162 43.6545C72.6987 43.7093 72.7195 43.798 72.6318 43.7969C72.5638 43.7969 72.5221 43.7334 72.5013 43.6709C72.3522 43.235 72.2052 42.7979 72.0572 42.3609C71.8554 41.7693 71.6526 41.1778 71.453 40.5852C71.3828 40.3782 71.2622 40.2993 71.0286 40.3048C70.2994 40.3234 69.5691 40.3114 68.8388 40.3114H68.8399Z" fill="#F9F9F9"/>
</g>
</g>
<defs>
<clipPath id="clip0_2355_49499">
<rect width="98" height="98" rx="20" fill="white"/>
</clipPath>
<clipPath id="clip1_2355_49499">
<rect width="55" height="25" fill="white" transform="translate(21 37.2832)"/>
</clipPath>
</defs>
</svg>
