<svg width="190" height="190" viewBox="0 0 190 190" fill="none" xmlns="http://www.w3.org/2000/svg">
<g clip-path="url(#clip0_2355_63395)">
<rect width="190" height="190" rx="40" fill="url(#paint0_linear_2355_63395)"/>
<g clip-path="url(#clip1_2355_63395)">
<path d="M121.877 44.5641C123.244 45.3533 124.61 46.1422 125.977 46.9314C126.122 47.0481 126.262 47.1733 126.415 47.2793C127.582 48.0909 128.781 48.8604 129.915 49.7159C131.869 51.1896 133.718 52.79 135.451 54.5227C144.439 63.509 149.846 74.2959 151.688 86.8411C152.912 95.1797 152.238 103.388 149.741 111.435C148.889 114.182 147.888 116.87 146.536 119.417C146.442 119.594 146.388 119.792 146.316 119.979L142.927 125.849C142.791 126.02 142.643 126.183 142.522 126.365C142.333 126.65 142.179 126.959 141.981 127.237C140.421 129.425 138.739 131.513 136.892 133.468C125.745 145.26 110.085 151.697 93.8494 151.154C85.0971 150.861 76.8705 148.599 69.1175 144.545C67.1372 143.51 65.2653 142.305 63.428 141.039C61.4368 139.668 59.5489 138.17 57.7532 136.553C53.8116 133.004 50.4301 128.983 47.6426 124.474C42.1259 115.548 39.271 105.838 39.074 95.3587C38.991 90.9444 39.4405 86.5819 40.413 82.2762C40.4396 82.1592 40.4913 82.0478 40.5508 81.878C40.6993 82.0635 40.7968 82.1809 40.8899 82.3017C45.2957 88.0172 49.6947 93.7382 54.1174 99.4409C54.5169 99.9558 54.6371 100.382 54.4678 101.044C52.3141 109.481 57.3709 117.829 65.5487 120.024C72.4632 121.879 79.5988 118.927 83.2066 112.763C83.3731 112.479 83.5549 112.355 83.8828 112.327C85.5893 112.18 87.2936 112.008 88.9985 111.844C95.0513 111.262 101.104 110.681 107.157 110.095C107.487 110.063 107.776 110.085 108.083 110.272C109.538 111.16 111.097 111.825 112.73 112.304C123.569 115.482 135.011 109.774 138.95 99.2298C140.511 95.0519 140.776 90.7804 139.648 86.4697C137.974 80.0681 134.158 75.3545 128.211 72.386C126.436 71.5005 124.57 70.9035 122.623 70.5545C114.004 69.0085 104.978 72.8808 100.346 80.7602C100.164 81.0718 99.9357 81.276 99.6109 81.4298C94.8443 83.6832 90.0825 85.9459 85.3194 88.2067C83.0152 89.3005 80.7105 90.3921 78.4083 91.4906C78.18 91.5997 78.001 91.6483 77.7478 91.4938C75.152 89.9091 72.3239 89.1622 69.2887 89.2293C68.8671 89.2387 68.6108 89.1132 68.3524 88.7783C61.9315 80.4456 55.4983 72.1217 49.0683 63.7956C48.9135 63.5952 48.769 63.3872 48.6309 63.1971C48.7694 62.9572 48.8684 62.7354 49.0112 62.5467C50.0839 61.1294 51.1219 59.6826 52.252 58.3121C55.8908 53.9009 60.1448 50.1683 64.9666 47.0952C73.7267 41.513 83.3135 38.5111 93.7076 38.1602C103.41 37.8314 112.606 39.8786 121.264 44.3084C121.461 44.4087 121.672 44.4799 121.877 44.5641Z" fill="white"/>
<path d="M57.9963 104.509C59.4041 106.337 60.8139 108.164 62.2179 109.996C65.5697 114.37 72.1091 114.721 75.9215 110.516C78.7173 107.432 78.9568 102.707 76.4573 99.336C75.0111 97.386 73.5059 95.4803 72.0283 93.5537C71.9071 93.3959 71.7945 93.2306 71.6248 92.9943C77.7434 93.926 82.6595 99.8222 81.6143 106.711C80.5817 113.517 74.1398 118.078 67.368 116.786C60.7398 115.521 57.0195 109.362 57.6232 104.047C57.7685 104.226 57.8864 104.365 57.9974 104.509L57.9963 104.509Z" fill="white"/>
<path d="M131.253 98.8732C127.237 105.744 118.491 108.063 111.642 104.086C104.7 100.056 102.503 91.2314 106.445 84.4757C110.511 77.5072 119.39 75.4592 126.024 79.3018C132.519 83.064 135.341 91.705 131.253 98.8732ZM124.224 82.3614C118.899 79.3653 112.417 81.2773 109.522 86.3761C106.64 91.4515 108.245 97.9777 113.514 100.999C118.947 104.115 125.42 101.965 128.235 96.9523C131.042 91.9539 129.485 85.4445 124.224 82.3611L124.224 82.3614Z" fill="white"/>
<path d="M71.6248 92.9943C77.7434 93.926 82.6595 99.8222 81.6143 106.711C80.5817 113.517 74.1398 118.078 67.368 116.786C60.7398 115.521 57.0195 109.362 57.6232 104.047C57.7685 104.226 57.8863 104.365 57.9974 104.509C59.4053 106.337 60.8151 108.164 62.219 109.996C65.5708 114.37 72.1102 114.721 75.9226 110.516C78.7184 107.432 78.9579 102.707 76.4585 99.336C75.0122 97.386 73.507 95.4803 72.0294 93.5537C71.9083 93.396 71.7957 93.2307 71.6259 92.9944L71.6248 92.9943Z" fill="white"/>
</g>
</g>
<defs>
<linearGradient id="paint0_linear_2355_63395" x1="2" y1="234" x2="-9.04053e-06" y2="-81" gradientUnits="userSpaceOnUse">
<stop stop-color="#0093D0"/>
<stop offset="1" stop-color="#00278B"/>
</linearGradient>
<clipPath id="clip0_2355_63395">
<rect width="190" height="190" rx="40" fill="white"/>
</clipPath>
<clipPath id="clip1_2355_63395">
<rect width="113" height="113" fill="white" transform="translate(75 17.5) rotate(30)"/>
</clipPath>
</defs>
</svg>
