<svg width="24" height="24" viewBox="0 0 24 24" fill="none" xmlns="http://www.w3.org/2000/svg">
<path fill-rule="evenodd" clip-rule="evenodd" d="M13.4 4.8H10.6C8.87989 4.8 7.71985 4.80201 6.83231 4.88876C5.97285 4.97276 5.56216 5.12248 5.28535 5.29815C4.88764 5.55055 4.55055 5.88764 4.29815 6.28535C4.12248 6.56216 3.97276 6.97285 3.88876 7.83231C3.80201 8.71985 3.8 9.87989 3.8 11.6V14.4C3.8 16.1201 3.80201 17.2802 3.88876 18.1677C3.97276 19.0271 4.12248 19.4378 4.29815 19.7146C4.55055 20.1124 4.88764 20.4495 5.28535 20.7018C5.56216 20.8775 5.97285 21.0272 6.83231 21.1112C7.71985 21.198 8.87989 21.2 10.6 21.2H13.4C15.1201 21.2 16.2802 21.198 17.1677 21.1112C18.0271 21.0272 18.4378 20.8775 18.7146 20.7018C19.1124 20.4495 19.4495 20.1124 19.7018 19.7146C19.8775 19.4378 20.0272 19.0271 20.1112 18.1677C20.198 17.2802 20.2 16.1201 20.2 14.4V11.6C20.2 9.87989 20.198 8.71985 20.1112 7.83231C20.0272 6.97285 19.8775 6.56216 19.7018 6.28535C19.4495 5.88764 19.1124 5.55055 18.7146 5.29815C18.4378 5.12248 18.0271 4.97276 17.1677 4.88876C16.2802 4.80201 15.1201 4.8 13.4 4.8ZM2.77836 5.32087C2 6.54737 2 8.23158 2 11.6V14.4C2 17.7684 2 19.4526 2.77836 20.6791C3.17273 21.3006 3.69943 21.8273 4.32087 22.2216C5.54737 23 7.23158 23 10.6 23H13.4C16.7684 23 18.4526 23 19.6791 22.2216C20.3006 21.8273 20.8273 21.3006 21.2216 20.6791C22 19.4526 22 17.7684 22 14.4V11.6C22 8.23158 22 6.54737 21.2216 5.32087C20.8273 4.69943 20.3006 4.17273 19.6791 3.77836C18.4526 3 16.7684 3 13.4 3H10.6C7.23158 3 5.54737 3 4.32087 3.77836C3.69943 4.17273 3.17273 4.69943 2.77836 5.32087ZM12.2207 16.2C13.988 16.2 15.4207 14.7673 15.4207 13C15.4207 11.2327 13.988 9.8 12.2207 9.8C10.4534 9.8 9.02074 11.2327 9.02074 13C9.02074 14.7673 10.4534 16.2 12.2207 16.2ZM12.2207 18C14.9822 18 17.2207 15.7614 17.2207 13C17.2207 10.2386 14.9822 8 12.2207 8C9.45931 8 7.22074 10.2386 7.22074 13C7.22074 15.7614 9.45931 18 12.2207 18ZM18.0098 8.99301C18.5621 8.99301 19.0098 8.54529 19.0098 7.99301C19.0098 7.44072 18.5621 6.99301 18.0098 6.99301C17.4575 6.99301 17.0098 7.44072 17.0098 7.99301C17.0098 8.54529 17.4575 8.99301 18.0098 8.99301Z" fill="url(#paint0_linear_2910_54488)"/>
<defs>
<linearGradient id="paint0_linear_2910_54488" x1="-3" y1="28" x2="20.5" y2="4.5" gradientUnits="userSpaceOnUse">
<stop offset="0.15625" stop-color="#FCFF55"/>
<stop offset="0.510417" stop-color="#FF6B00"/>
<stop offset="1" stop-color="#AD00FF"/>
</linearGradient>
</defs>
</svg>
