<svg width="24" height="24" viewBox="0 0 24 24" fill="none" xmlns="http://www.w3.org/2000/svg">
<path d="M2.61818 11.0096C2.61818 11.0096 10.5438 7.63782 13.2925 6.45053C14.3462 5.97565 17.9196 4.4559 17.9196 4.4559C17.9196 4.4559 19.5689 3.79107 19.4314 5.40573C19.3855 6.07062 19.0191 8.39763 18.6526 10.9147C18.1028 14.4765 17.5072 18.3707 17.5072 18.3707C17.5072 18.3707 17.4156 19.463 16.6368 19.653C15.858 19.8429 14.5752 18.9881 14.3462 18.7981C14.1629 18.6557 10.9102 16.5186 9.71912 15.4738C9.39842 15.1888 9.03194 14.619 9.7649 13.9541C11.4142 12.3869 13.3841 10.4398 14.5752 9.20502C15.125 8.6351 15.6747 7.30537 13.3841 8.92003C10.1314 11.2471 6.92456 13.4317 6.92456 13.4317C6.92456 13.4317 6.19154 13.9066 4.81718 13.4791C3.44275 13.0518 1.83931 12.4819 1.83931 12.4819C1.83931 12.4819 0.739875 11.7695 2.61818 11.0096Z" fill="#44BCFF"/>
</svg>
