<svg width="24" height="24" viewBox="0 0 24 24" fill="none" xmlns="http://www.w3.org/2000/svg">
<path d="M19.9396 10.4205C18.4212 10.3664 17.0334 9.91947 15.7709 8.9448C15.7709 9.71665 15.7709 10.4395 15.7709 11.1624C15.7709 12.4709 15.7752 13.7794 15.7696 15.0885C15.764 16.3276 15.4724 17.4917 14.8242 18.5472C14.0021 19.8855 12.819 20.6802 11.2836 20.9295C11.2186 20.9403 11.1322 20.9072 11.0972 21.002H10.6611C10.4953 20.9485 10.3289 20.9485 10.1631 21.002H9.72698C9.60686 20.878 9.44231 20.9079 9.29778 20.8818C8.16408 20.6796 7.2037 20.1322 6.3503 19.3686C6.32902 19.3495 6.31776 19.3177 6.30212 19.2917C6.26834 19.2472 6.26208 19.2014 6.29586 19.1537C6.421 19.0908 6.51234 19.174 6.60619 19.2325C7.22559 19.6185 7.88817 19.89 8.60392 20.0235C8.7009 20.0413 8.81477 20.0317 8.86858 20.1481C8.85481 20.2155 8.80351 20.2047 8.75658 20.2034C8.80664 20.2187 8.85356 20.2098 8.89548 20.1799C8.92864 20.1563 8.9643 20.1379 9.00247 20.1239C9.38037 20.0432 9.75764 20.1455 10.1424 20.1093C11.9912 19.9345 13.3489 19.0342 14.2236 17.3722C14.5389 16.7727 14.7391 16.135 14.8611 15.4687C14.8812 15.3593 14.8662 15.2309 14.985 15.1628C15.0313 15.166 15.0482 15.1946 15.0445 15.2398C15.0626 15.208 15.0476 15.1794 15.0313 15.1546C14.9863 15.0853 14.9531 15.0122 14.94 14.9282C14.9006 14.4755 14.9225 14.0229 14.9212 13.5715C14.9181 11.9413 14.9193 10.3105 14.9212 8.68031C14.9212 8.53344 14.9062 8.38339 14.965 8.24415C14.9938 8.17612 15.0326 8.09347 15.1145 8.20346C15.1108 10.3734 15.1145 12.5427 15.1133 14.7127C15.1152 12.7011 15.1139 10.6894 15.1158 8.6784C15.1158 8.56332 15.0964 8.44634 15.1371 8.33444C15.2184 8.19901 15.3173 8.26514 15.3992 8.32426C16.3665 9.02173 17.4645 9.35234 18.6207 9.52337C18.7021 9.53545 18.7872 9.54244 18.8316 9.62954C18.8228 9.67405 18.8072 9.70711 18.7534 9.67977C18.7477 9.73381 18.7797 9.70202 18.7947 9.69694C18.8992 9.66006 19.0124 9.64226 19.0919 9.55134C19.1757 9.42927 19.1601 9.28876 19.1607 9.15397C19.1638 8.65996 19.1576 8.16595 19.1644 7.67194C19.1663 7.53016 19.1344 7.37185 19.2764 7.26758C19.436 7.28792 19.5955 7.3089 19.7551 7.32925C19.8752 7.35913 19.9797 7.37248 19.9765 7.55877C19.964 8.48385 19.9734 9.40892 19.9703 10.334C19.9703 10.3677 19.9534 10.3938 19.9409 10.4217L19.9396 10.4205Z" fill="#E50054"/>
<path d="M19.9397 10.4198C19.9397 9.50367 19.9347 8.58749 19.9454 7.67132C19.9472 7.50092 19.8997 7.39538 19.7539 7.32735C19.8365 7.32544 19.9197 7.32417 20.0023 7.32227V10.4256C19.981 10.4237 19.9604 10.4224 19.9391 10.4205L19.9397 10.4198Z" fill="#E83661"/>
<path d="M19.2743 7.26536C19.2711 7.98189 19.2643 8.6978 19.2674 9.41433C19.2674 9.56819 19.2618 9.689 19.0659 9.67119C18.9877 9.70044 18.9095 9.72333 18.8369 9.65593C18.2832 9.54213 17.7239 9.46456 17.1814 9.29163C16.4663 9.06401 15.8081 8.72895 15.2031 8.28262C15.1399 8.30488 15.1174 8.24511 15.0792 8.21777C15.0511 8.20188 15.0417 8.20887 15.0417 8.23939C15.0367 10.5092 15.031 12.7789 15.0254 15.0487C15.0523 15.09 15.0573 15.1288 15.0148 15.1632C14.8846 15.7443 14.7795 16.3311 14.5443 16.8842C13.6402 19.0072 12.056 20.1217 9.78364 20.2152C9.51586 20.226 9.2462 20.1948 8.97779 20.1827C8.93837 20.2094 8.90146 20.2177 8.8708 20.1694C7.9417 20.0219 7.09393 19.662 6.30497 19.1483C6.20862 19.1604 6.16232 19.0663 6.08286 19.0421C5.9571 18.894 5.83197 18.7458 5.70621 18.5983C5.46596 18.3612 5.29891 18.0745 5.15438 17.7712C4.20463 15.345 4.53748 13.0956 6.19235 11.1195C7.20842 9.90644 8.57424 9.32341 10.1715 9.39208C10.2666 9.3959 10.3574 9.40988 10.4312 9.47918C10.49 9.56057 10.4944 9.6553 10.4944 9.75067C10.4963 10.4246 10.5006 11.0992 10.4925 11.7731C10.4888 12.0993 10.4224 12.1425 10.0896 12.119C9.3901 12.07 8.72127 12.1673 8.14754 12.6162C7.61072 13.0364 7.31228 13.5947 7.26348 14.2858C7.25285 14.4587 7.25973 14.6316 7.25785 14.8046C7.25222 15.5434 7.61886 16.094 8.12439 16.574C8.15192 16.6109 8.18007 16.6484 8.2076 16.6852C8.5367 16.9364 8.77883 17.2924 9.1755 17.4666C10.2498 17.9384 11.5524 17.7349 12.3301 16.5632C12.5659 16.2078 12.6229 15.8034 12.6404 15.3882C12.6442 15.3316 12.6548 15.277 12.6729 15.2236C12.7023 15.0557 12.6898 14.8866 12.6898 14.7187C12.6905 10.9065 12.6898 7.09496 12.6923 3.28276C12.6923 3.10664 12.6567 2.9229 12.7568 2.75823C12.8494 2.67303 12.9651 2.67685 13.0784 2.67621C13.6552 2.67303 14.2327 2.67303 14.8096 2.67621C14.9222 2.67621 15.0392 2.67113 15.1255 2.7684C15.133 2.78112 15.1412 2.79383 15.1505 2.80528C15.2269 2.87204 15.245 2.96804 15.2638 3.05959C15.4446 3.96178 15.8744 4.73109 16.4694 5.4133C16.6008 5.56398 16.7322 5.71466 16.8636 5.86471C17.0701 6.03701 17.2753 6.21121 17.4855 6.37779C17.9147 6.71858 18.3984 6.9481 18.9227 7.09242C19.0422 7.12548 19.1654 7.14837 19.2568 7.24501L19.2755 7.26663L19.2743 7.26536Z" fill="white"/>
<path d="M12.7856 2.78469C12.7819 2.91121 12.775 3.0371 12.775 3.16362C12.775 7.00826 12.775 10.8529 12.7725 14.6975C12.7725 14.9054 12.81 15.1191 12.7255 15.3212C12.6586 15.25 12.6855 15.161 12.6855 15.0803C12.6843 11.0939 12.6843 7.10744 12.6824 3.12039C12.6824 3.07652 12.713 3.0282 12.6711 2.97288C12.6667 2.94491 12.6117 3.00785 12.6442 2.98179C12.6548 2.97352 12.658 2.98242 12.6661 3.00467C12.703 3.10704 12.6811 3.21194 12.6811 3.31494C12.6824 7.2276 12.6824 11.1403 12.6843 15.0529C12.6843 15.1775 12.6542 15.306 12.713 15.4268C12.7693 16.5534 11.849 17.4562 10.9499 17.6991C9.85627 17.9941 8.68691 17.5579 8.20703 16.6856C8.59557 16.8255 8.97659 16.9857 9.39829 17.0105C10.582 17.0798 11.9741 16.2508 12.0236 14.5735C12.0298 14.3631 12.0354 14.152 12.0354 13.9409C12.0361 10.0823 12.0392 6.22369 12.0292 2.36507C12.0286 2.0707 12.108 1.9944 12.3908 2.00203C13.1472 2.02174 13.9049 2.02492 14.6607 2.00076C14.9817 1.99059 15.1256 2.08023 15.0824 2.41466C15.0755 2.46616 15.0805 2.51957 15.0805 2.57234C15.0536 2.75036 14.921 2.73001 14.7971 2.72938C14.2209 2.72874 13.644 2.7262 13.0678 2.73192C12.9746 2.73319 12.8626 2.6747 12.7856 2.78342V2.78469Z" fill="#22B7C6"/>
<path d="M10.4059 9.47136C8.27239 9.36709 6.64567 10.2705 5.57579 12.1194C4.5641 13.8679 4.4446 15.7269 5.1835 17.6273C5.20227 17.6756 5.21666 17.7252 5.23293 17.7742C5.20853 17.9261 5.13845 17.9388 5.03209 17.8416C4.48839 17.1352 4.19121 16.3188 4.07045 15.4446C3.83208 13.721 4.19246 12.1277 5.24544 10.7436C6.51053 9.08162 8.21482 8.47444 10.2407 8.71604C10.3734 8.73193 10.4165 8.7917 10.4146 8.91949C10.4128 9.08734 10.4234 9.25582 10.4284 9.42367C10.4384 9.44911 10.4309 9.465 10.4046 9.47136H10.4059Z" fill="#21B7C6"/>
<path d="M10.4075 9.47151C10.4181 9.45689 10.4262 9.44099 10.4312 9.42383C10.4463 9.43845 10.4619 9.45307 10.4769 9.4677C10.5395 10.2879 10.485 11.1087 10.5063 11.9288C10.5063 11.2257 10.5044 10.5225 10.5082 9.81993C10.5088 9.70103 10.4594 9.56116 10.5983 9.4766C10.6709 9.4766 10.7428 9.47978 10.8154 9.4766C11.0807 9.46198 11.1614 9.57705 11.1551 9.85235C11.1351 10.6954 11.1482 11.5397 11.1476 12.3834C11.1476 12.6895 11.0018 12.8306 10.7103 12.8069C10.3343 12.7776 9.96325 12.8145 9.60287 12.9226C8.2358 13.3327 7.54132 14.7874 8.01182 16.2459C8.04748 16.3559 8.08689 16.4646 8.12443 16.5739C7.47813 16.1899 7.23162 15.5783 7.18031 14.856C7.22036 14.6672 7.22161 14.4777 7.17969 14.2889C7.18657 13.2309 8.0725 12.2423 9.16803 12.0719C9.50652 12.0191 9.84813 11.9657 10.1879 12.0452C10.3743 12.0884 10.4181 12.0274 10.4162 11.8443C10.4068 11.0534 10.4093 10.2618 10.4081 9.47088L10.4075 9.47151Z" fill="#E50054"/>
<path d="M16.4687 5.41291C16.1733 5.27049 16.0257 4.98756 15.8593 4.73007C15.482 4.1445 15.2273 3.5068 15.1504 2.80489C15.1604 2.80171 15.1698 2.79599 15.1798 2.79535C15.5665 2.76059 15.7804 2.9348 15.8217 3.31797C15.8999 4.06058 16.1577 4.74532 16.4693 5.41354L16.4687 5.41291Z" fill="#E50455"/>
<path d="M19.2564 7.24359C18.4249 7.10498 17.7092 6.72541 17.0873 6.15765C16.9978 6.07627 16.9377 5.96246 16.8633 5.86328C17.2456 6.00633 17.6003 6.21551 17.9938 6.33377C18.3217 6.43232 18.6545 6.51052 18.993 6.53468C19.2308 6.55121 19.2933 6.64912 19.2671 6.86656C19.2521 6.99054 19.2596 7.1177 19.2564 7.24359Z" fill="#22B7C6"/>
<path d="M10.5979 9.47731C10.521 9.60065 10.536 9.73862 10.536 9.87468C10.536 10.5855 10.536 11.2963 10.4766 12.0065C10.4766 11.1603 10.4766 10.314 10.4766 9.46777C10.5172 9.47095 10.5573 9.47413 10.5979 9.47667V9.47731Z" fill="#E50056"/>
<path d="M12.7871 2.78496C12.8578 2.64636 12.9867 2.70294 13.0899 2.70231C13.6349 2.69659 14.1805 2.69722 14.7254 2.70104C14.8624 2.70167 14.9938 2.70485 15.0814 2.57324C15.0958 2.63809 15.1108 2.70294 15.1252 2.76779C14.3456 2.77352 13.5661 2.77924 12.7871 2.78496Z" fill="#24B8D0"/>
<path d="M15.0801 8.21842C15.1495 8.18472 15.1689 8.24957 15.204 8.28327C15.1232 8.40661 15.1451 8.54712 15.1451 8.68255C15.1445 10.6103 15.1451 12.538 15.1451 14.4657C15.1451 14.5693 15.1451 14.673 15.1451 14.7766C15.1239 14.7766 15.102 14.7766 15.0807 14.7766V8.21842H15.0801Z" fill="#E50059"/>
<path d="M12.7138 15.4269C12.6275 15.3538 12.6544 15.2527 12.6544 15.1612C12.6531 11.1309 12.6537 7.1006 12.6544 3.07032C12.6544 3.00992 12.6631 2.94952 12.6712 2.85352C12.7426 2.99975 12.7138 3.11737 12.7144 3.23054C12.7163 7.1343 12.7157 11.0381 12.7163 14.9418C12.7163 15.0683 12.7238 15.1949 12.7276 15.3208C12.7232 15.3564 12.7188 15.3913 12.7144 15.4269H12.7138Z" fill="#24B8CD"/>
<path d="M7.17932 14.2891C7.26754 14.4779 7.26692 14.6667 7.17995 14.8562C7.14554 14.6674 7.14616 14.4785 7.17932 14.2891Z" fill="#E50058"/>
</svg>
