<svg width="20" height="20" viewBox="0 0 20 20" fill="none" xmlns="http://www.w3.org/2000/svg">
<path d="M19.5958 7.92097V12.4185C19.5825 12.43 19.5806 12.4452 19.5806 12.4604C19.5787 12.6405 19.5711 12.82 19.5793 13.0002C19.5787 13.0312 19.5774 13.0623 19.5774 13.094C19.5704 13.8843 19.5311 14.6733 19.4277 15.4573C19.3731 15.8727 19.2919 16.2825 19.1656 16.6821C18.9949 17.2218 18.7392 17.7134 18.3541 18.1333C17.903 18.6248 17.3471 18.9458 16.7165 19.1468C16.0515 19.3593 15.3643 19.4443 14.6727 19.5007C14.3022 19.5305 13.931 19.5464 13.5592 19.561C13.5376 19.5597 13.5161 19.5572 13.4945 19.5572C13.1335 19.5648 12.7731 19.573 12.412 19.5813C12.3879 19.5813 12.3619 19.5775 12.341 19.5959H7.8037C7.75929 19.5781 7.7117 19.5838 7.66602 19.5832C7.43696 19.5807 7.20791 19.5686 6.97886 19.5768C6.83864 19.5718 6.69778 19.5654 6.55755 19.5616C5.82027 19.542 5.08489 19.5007 4.35522 19.3904C3.91298 19.3231 3.47835 19.2255 3.05895 19.0669C2.24299 18.7593 1.60532 18.2392 1.17577 17.4743C0.970823 17.1096 0.835041 16.7182 0.73606 16.3136C0.585685 15.7021 0.519697 15.0786 0.47782 14.452C0.436578 13.8349 0.418812 13.2171 0.414371 12.5987C0.414371 12.5333 0.411198 12.4674 0.409929 12.402C0.411833 12.371 0.41564 12.3399 0.415005 12.3088C0.400412 10.7853 0.401046 9.2618 0.415005 7.7383C0.415005 7.70405 0.420081 7.6698 0.409295 7.63618C0.42135 7.25879 0.419447 6.88077 0.432771 6.50275C0.455613 5.81901 0.491779 5.13655 0.587588 4.45852C0.644058 4.05639 0.725273 3.65934 0.850904 3.27181C1.24112 2.061 2.03931 1.25358 3.2512 0.855259C3.75182 0.690985 4.2683 0.601553 4.78985 0.541298C5.37993 0.473432 5.97255 0.442987 6.5658 0.42713C6.95285 0.416982 7.34052 0.411908 7.72756 0.404297C7.76183 0.4062 7.79609 0.408737 7.83035 0.408737C9.28081 0.408737 10.7319 0.408737 12.1824 0.408737C12.2166 0.408737 12.2509 0.405565 12.2851 0.404297C12.7781 0.411274 13.2718 0.420153 13.7642 0.438547C14.3853 0.462015 15.0046 0.502608 15.6201 0.594576C16.0807 0.663711 16.5337 0.763925 16.9703 0.932005C17.9074 1.2929 18.5876 1.92653 18.993 2.84812C19.1789 3.27054 19.2919 3.71389 19.3706 4.16675C19.4873 4.83844 19.5324 5.51647 19.5609 6.1964C19.5717 6.45835 19.5749 6.7203 19.5793 6.98226C19.5736 7.29495 19.5749 7.60764 19.5958 7.92033V7.92097ZM8.79098 11.764C8.67677 11.7405 8.57398 11.7031 8.4731 11.6625C7.96423 11.4551 7.54864 11.1215 7.19713 10.7048C6.80755 10.2436 6.53027 9.71847 6.32469 9.15398C6.03727 8.36432 5.90276 7.54421 5.8539 6.70825C5.84565 6.57125 5.84058 6.43362 5.83677 6.29662C5.8355 6.25412 5.82408 6.23129 5.77776 6.23573C5.75619 6.23763 5.73398 6.23573 5.71241 6.23573C5.06903 6.23573 4.42502 6.23573 3.78164 6.23573C3.62301 6.23573 3.64141 6.21226 3.64712 6.3759C3.66679 6.95371 3.71502 7.52836 3.80892 8.0992C3.92821 8.8286 4.11348 9.53961 4.39583 10.2233C4.68135 10.9153 5.05444 11.5547 5.54807 12.1198C6.54042 13.2564 7.80688 13.8831 9.28144 14.1215C9.77 14.2002 10.2624 14.2275 10.7566 14.2218C10.8778 14.2205 10.8651 14.2319 10.8651 14.1089C10.8651 13.2405 10.8651 12.3722 10.8651 11.5046C10.8651 11.4798 10.8645 11.4545 10.8651 11.4297C10.8677 11.3707 10.8702 11.3688 10.9324 11.3758C10.973 11.3809 11.013 11.3853 11.053 11.3917C11.7864 11.5071 12.426 11.8173 12.9736 12.3164C13.5205 12.8156 13.8993 13.4251 14.1429 14.1209C14.181 14.2287 14.1525 14.2218 14.2851 14.2218C14.9691 14.2218 15.6537 14.2218 16.3377 14.2218C16.3713 14.2218 16.4062 14.23 16.4481 14.2046C15.9176 12.4173 14.8333 11.0853 13.1766 10.2145C13.1893 10.205 13.2007 10.1948 13.2134 10.1872C13.8308 9.80981 14.353 9.32523 14.8003 8.75947C15.3307 8.08968 15.7146 7.34632 15.9113 6.51163C15.9316 6.4241 15.9576 6.33721 15.9608 6.24905C15.9303 6.22875 15.9018 6.23573 15.8738 6.23573C15.2457 6.23573 14.6182 6.23573 13.99 6.23573C13.905 6.23573 13.9044 6.23573 13.8809 6.31501C13.7565 6.72982 13.5782 7.12116 13.3524 7.4903C13.0142 8.04211 12.5986 8.52415 12.0681 8.90091C11.7465 9.12924 11.3988 9.3024 11.0073 9.37407C10.8277 9.40705 10.8639 9.40198 10.8639 9.26053C10.8626 8.28313 10.8639 7.30573 10.8632 6.32833C10.8632 6.23699 10.8626 6.23699 10.7712 6.23636C10.7585 6.23636 10.7465 6.23636 10.7338 6.23636C10.131 6.23636 9.52763 6.23636 8.92486 6.23636C8.78463 6.23636 8.8005 6.21923 8.79986 6.36131C8.79986 8.11949 8.79986 9.87767 8.79986 11.6359C8.79986 11.6758 8.80621 11.717 8.79034 11.7646L8.79098 11.764Z" fill="#3B8ADD"/>
</svg>
