<svg width="24" height="24" viewBox="0 0 24 24" fill="none" xmlns="http://www.w3.org/2000/svg">
<g clip-path="url(#clip0_2910_54495)">
<path d="M11.4898 19C10.1553 18.9531 8.38897 18.9018 6.62403 18.8227C6.04454 18.7964 5.46087 18.7319 4.88974 18.6279C3.71404 18.4155 3.03008 17.6697 2.81416 16.4303C2.62611 15.3477 2.57039 14.2518 2.52442 13.1545C2.4673 11.8008 2.51467 10.4515 2.62193 9.1037C2.6679 8.53673 2.73894 7.96976 2.85038 7.41305C3.09973 6.17656 3.8617 5.43965 5.05969 5.32098C6.29807 5.19938 7.54063 5.1188 8.78319 5.0602C9.85998 5.01039 10.9382 4.98842 12.015 5.006C13.7618 5.03237 15.5072 5.0895 17.2527 5.15836C17.8266 5.18033 18.3977 5.2697 18.9688 5.34442C19.9648 5.47627 20.8424 6.22637 21.057 7.55808C21.2311 8.63635 21.2952 9.7234 21.3425 10.8134C21.3996 12.1729 21.3537 13.531 21.245 14.8847C21.199 15.4517 21.1266 16.0187 21.0152 16.5754C20.7714 17.7957 20.0038 18.54 18.8184 18.6557C17.573 18.7773 16.3235 18.8564 15.0754 18.918C14.0265 18.9692 12.9747 18.9678 11.4912 19H11.4898ZM14.9584 11.9898C13.2868 10.9892 11.657 10.0149 10.016 9.03337V14.9477C11.6653 13.9603 13.2896 12.989 14.9584 11.9898Z" fill="#FF0000"/>
<path d="M15 11.9993C13.3131 13.0114 11.6685 13.9983 10 15V9C11.6601 9.99579 13.3075 10.9841 15 11.9993Z" fill="white"/>
</g>
<defs>
<clipPath id="clip0_2910_54495">
<rect width="19" height="16" fill="white" transform="translate(2.5 4)"/>
</clipPath>
</defs>
</svg>
