<svg width="32" height="33" viewBox="0 0 32 33" fill="none" xmlns="http://www.w3.org/2000/svg">
<rect y="0.878906" width="32" height="32" rx="6" fill="#00EE34"/>
<path d="M24.4053 17.9651C24.2091 16.1901 23.0394 16.4524 22.2946 16.8225C21.0808 17.4229 20.9412 17.8457 19.6393 17.6253C18.2943 17.3982 16.4338 16.2023 15.0521 16.3471C13.3413 16.5264 12.485 17.5117 12.3271 19.2324C12.2073 20.5419 12.2364 22.83 15.3339 24.5556C21.331 26.1364 24.6829 22.7143 24.4053 17.9651Z" fill="#1F242E" stroke="#1F242E" stroke-width="1.05408" stroke-miterlimit="10"/>
<path d="M14.7996 9.65655L15.4713 12.3478L8.24219 11.448L10.1323 17.0873L9.00167 17.7683C9.65342 19.8822 11.3896 22.3824 12.9059 23.5586C15.1205 25.276 17.8572 25.8649 20.5191 24.8368C24.4978 23.3003 25.7963 18.464 23.9209 14.8597C21.0478 9.64832 15.0075 9.65161 14.7996 9.65655Z" stroke="#1F242E" stroke-width="0.88487" stroke-miterlimit="10"/>
<path d="M24.1797 19.115C24.1618 18.091 23.1034 17.8225 22.7432 18.8363C22.5536 19.3715 22.1161 21.1502 23.3216 20.706C23.8896 20.4965 24.1909 19.746 24.1818 19.115L24.1797 19.115Z" fill="#00EE34"/>
<path d="M18.5309 19.3309C18.0819 19.2741 17.6329 19.2152 17.1839 19.1523C17.0957 19.1402 17.0281 19.059 17.0322 18.9698C17.0527 18.5195 17.0629 18.0712 17.0609 17.6269C17.0609 17.5397 16.9871 17.4505 16.8989 17.4261C16.29 17.3206 16.2756 17.3044 15.6052 17.2496C15.5171 17.2253 15.4453 17.2841 15.4474 17.3815C15.4535 17.8805 15.4556 18.2111 15.4371 18.7162C15.433 18.8156 15.3592 18.8846 15.271 18.8704C14.6252 18.8014 14.4674 18.769 13.9261 18.7122C13.8379 18.698 13.7641 18.775 13.76 18.8846C13.7375 19.4181 13.7006 19.8927 13.6534 20.4303C13.6432 20.5419 13.7067 20.6352 13.7949 20.6392C14.2439 20.6595 14.6908 20.6778 15.1398 20.692C15.228 20.694 15.2915 20.7792 15.2792 20.8786C15.2239 21.3898 15.2013 21.8563 15.1193 22.3715C15.1029 22.473 15.1603 22.548 15.2505 22.5399C15.7569 22.5744 16.0993 22.6515 16.5278 22.6048C16.616 22.5947 16.7021 22.5135 16.7164 22.4243C16.7943 21.9638 16.8189 21.3573 16.8723 20.8989C16.8825 20.8096 16.9625 20.7386 17.0506 20.7386C17.4996 20.7467 17.9486 20.7508 18.3976 20.7528C18.4858 20.7528 18.5657 20.6899 18.5739 20.6108C18.619 20.2335 18.6539 19.8562 18.6805 19.483C18.6867 19.4059 18.619 19.3349 18.5309 19.3227V19.3309Z" fill="#00EE34"/>
<path d="M20.8563 23.4715C20.2472 23.7379 19.5826 23.905 18.8795 23.9494C18.7022 23.962 18.5526 23.8394 18.5547 23.6851C18.5547 23.4948 18.5568 23.3024 18.5654 23.1099C18.5739 22.9514 18.7 22.8414 18.8432 22.8562C19.4202 22.9112 19.9887 22.8689 20.5315 22.742C20.6661 22.7124 20.8114 22.7611 20.8606 22.8541C20.9183 22.9704 20.9781 23.0846 21.0401 23.1924C21.0892 23.2791 21.0123 23.4081 20.8584 23.4757L20.8563 23.4715Z" fill="#00EE34"/>
</svg>
