<svg width="306" height="138" viewBox="0 0 306 138" fill="none" xmlns="http://www.w3.org/2000/svg">
<g clip-path="url(#clip0_8_293)">
<rect width="306" height="138" rx="16" fill="#101328"/>
<g filter="url(#filter0_f_8_293)">
<rect x="295.818" y="-245.177" width="298.452" height="159.394" transform="rotate(29.4085 295.818 -245.177)" fill="url(#paint0_linear_8_293)"/>
</g>
<g opacity="0.41">
<path d="M111.778 143.671C111.722 146.34 111.062 148.961 109.847 151.337C108.568 153.74 106.767 155.825 104.577 157.441C102.374 159.112 99.8653 160.336 97.192 161.044C95.9403 161.394 94.66 161.632 93.3661 161.755C92.054 161.852 90.7362 161.844 89.4253 161.731C86.73 161.528 84.0934 160.84 81.6424 159.701C78.7556 158.301 76.1352 156.409 73.8994 154.108C71.5976 151.811 69.6802 149.16 68.2209 146.254L67.6626 145.075L70.1442 142.936C67.6393 138.063 65.2719 133.171 63.0419 128.258C68.6964 128.226 74.42 128.078 80.1448 127.517L77.3513 121.532L79.1563 121.059L79.8302 120.916C80.2539 120.833 80.8752 120.739 81.6349 120.665C83.6664 120.456 85.7123 120.423 87.7496 120.567C90.5672 120.825 93.3382 121.455 95.9902 122.441C97.5634 123.055 99.0782 123.808 100.516 124.693C102.131 125.662 103.647 126.788 105.041 128.054C107.175 130.056 108.875 132.476 110.034 135.162C111.192 137.849 111.786 140.745 111.778 143.671ZM95.4637 147.313C95.3012 146.364 95.1387 145.415 94.9406 144.478C94.9043 144.385 94.8337 144.31 94.7432 144.267C94.6528 144.225 94.5496 144.219 94.4549 144.251L90.9655 144.749C90.8563 144.757 90.7476 144.727 90.6584 144.663C90.5691 144.6 90.5048 144.507 90.4767 144.402C90.2439 143.286 90.0298 142.194 89.695 141.075C89.6591 140.963 89.588 140.865 89.4923 140.796C89.3966 140.728 89.2813 140.691 89.1634 140.693C88.0659 140.748 86.9718 140.859 85.8854 141.024C85.8347 141.023 85.7845 141.034 85.7388 141.056C85.6932 141.079 85.6535 141.111 85.6229 141.152C85.5924 141.193 85.5719 141.24 85.5631 141.29C85.5543 141.34 85.5575 141.391 85.5724 141.44C85.8981 142.673 86.0931 143.489 86.3297 144.755C86.3493 144.807 86.3559 144.864 86.349 144.919C86.3421 144.975 86.3219 145.028 86.2902 145.074C86.2584 145.12 86.216 145.158 86.1666 145.184C86.1171 145.21 86.062 145.224 86.006 145.225L82.5442 145.632C82.4894 145.648 82.4387 145.676 82.3954 145.713C82.3521 145.75 82.3172 145.796 82.293 145.848C82.2688 145.899 82.2559 145.955 82.2551 146.013C82.2543 146.07 82.2657 146.126 82.2884 146.178C82.5031 147.522 82.6661 148.724 82.8451 150.08C82.8431 150.14 82.8542 150.2 82.8776 150.255C82.9009 150.311 82.936 150.36 82.9804 150.401C83.0247 150.441 83.0774 150.471 83.1346 150.49C83.1918 150.508 83.2523 150.513 83.3119 150.506L86.791 149.84C86.8473 149.83 86.9052 149.831 86.9608 149.844C87.0165 149.858 87.0687 149.883 87.1139 149.918C87.1591 149.953 87.1963 149.997 87.2229 150.048C87.2496 150.099 87.2651 150.155 87.2684 150.212C87.4159 151.509 87.6016 152.662 87.7142 154.003C87.7099 154.057 87.7195 154.112 87.7422 154.162C87.7649 154.212 87.8 154.255 87.8441 154.287C87.8882 154.32 87.9398 154.34 87.9941 154.347C88.0484 154.354 88.1036 154.347 88.1545 154.327C89.3033 154.228 90.4404 154.022 91.5509 153.711C91.6625 153.665 91.758 153.588 91.8258 153.488C91.8936 153.388 91.9306 153.271 91.9323 153.15C91.847 151.941 91.5143 150.438 91.3585 149.284C91.3428 149.168 91.3698 149.05 91.4346 148.953C91.4994 148.855 91.5975 148.784 91.7107 148.754C92.861 148.478 93.9984 148.167 95.0994 147.838C95.2137 147.81 95.3139 147.741 95.381 147.645C95.448 147.548 95.4775 147.43 95.4637 147.313ZM103.614 151.72C103.369 151.517 103.135 151.289 102.889 151.055C102.755 150.96 102.595 150.909 102.43 150.909C102.266 150.909 102.105 150.96 101.971 151.055C100.651 151.834 99.1994 152.364 97.6878 152.617C97.597 152.634 97.5104 152.668 97.433 152.718C97.3555 152.768 97.2888 152.833 97.2366 152.909C97.1845 152.985 97.148 153.071 97.1292 153.161C97.1104 153.252 97.1098 153.345 97.1272 153.435C97.2417 153.918 97.3675 154.377 97.5054 154.841C97.5389 154.941 97.5922 155.033 97.6623 155.111C97.7324 155.19 97.8177 155.254 97.913 155.298C98.0084 155.343 98.1118 155.368 98.2171 155.371C98.3223 155.375 98.4272 155.357 98.5253 155.318C100.28 154.727 101.908 153.812 103.325 152.621C103.712 152.27 103.81 151.901 103.614 151.72ZM100.359 133.915C101.363 132.879 102.647 132.158 104.054 131.84C103.679 131.393 103.281 130.965 102.863 130.558C99.5232 127.412 95.365 125.271 90.8647 124.379C87.9067 123.786 84.8742 123.66 81.8772 124.005L85.1261 130.44C79.4021 131.032 73.7227 131.497 68.0575 131.583C70.0645 135.675 72.1742 139.801 74.3764 143.792C73.5502 144.545 72.7055 145.275 71.8721 145.98C73.5303 148.776 75.6511 151.27 78.144 153.356C77.6147 152.247 77.2335 151.074 77.0102 149.865C76.8934 149.249 76.8093 148.626 76.7581 148.001C76.4493 145.702 76.8939 143.365 78.0253 141.341C79.2669 139.403 81.1511 137.963 83.3477 137.275C85.5591 136.731 87.8577 136.639 90.1056 137.005C90.6052 137.076 91.0862 137.123 91.5073 137.172C92.8987 137.376 94.306 137.45 95.711 137.393C97.0913 137.196 97.5216 136.909 97.8735 136.6C98.1986 136.293 98.5046 135.967 98.7898 135.623C99.2261 135.102 99.7394 134.543 100.37 133.891L100.359 133.915ZM108.199 139.302C107.266 136.867 104.551 137.165 104.489 139.859C104.442 141.318 104.814 145.932 107.43 143.885C108 143.278 108.377 142.514 108.512 141.691C108.646 140.868 108.533 140.024 108.186 139.266L108.199 139.302Z" fill="white" fill-opacity="0.12"/>
<path d="M197.852 49.8048C197.795 52.4733 197.135 55.0944 195.921 57.4712C194.642 59.8735 192.841 61.959 190.651 63.5747C188.448 65.2461 185.939 66.4702 183.266 67.178C182.014 67.5277 180.734 67.7655 179.44 67.8886C178.128 67.9854 176.81 67.9774 175.499 67.8645C172.804 67.6619 170.167 66.9742 167.716 65.8347C164.829 64.4352 162.209 62.5424 159.973 60.2415C157.671 57.9452 155.754 55.2935 154.295 52.388L153.736 51.209L156.218 49.0698C153.713 44.1969 151.346 39.3043 149.116 34.3923C154.77 34.3601 160.494 34.2121 166.219 33.6503L163.425 27.6654L165.23 27.1929L165.904 27.0495C166.328 26.9666 166.949 26.8726 167.709 26.799C169.74 26.5893 171.786 26.5565 173.823 26.7009C176.641 26.9587 179.412 27.5888 182.064 28.5749C183.637 29.1883 185.152 29.942 186.59 30.8268C188.205 31.796 189.721 32.9219 191.115 34.1883C193.249 36.19 194.948 38.6094 196.107 41.296C197.266 43.9826 197.86 46.8789 197.852 49.8048ZM181.537 53.4471C181.375 52.4977 181.212 51.5483 181.014 50.6119C180.978 50.5189 180.907 50.4434 180.817 50.4011C180.727 50.3587 180.623 50.3528 180.529 50.3845L177.039 50.8825C176.93 50.8908 176.821 50.8606 176.732 50.7972C176.643 50.7338 176.579 50.6411 176.55 50.5353C176.318 49.4199 176.104 48.3279 175.769 47.2091C175.733 47.0968 175.662 46.9991 175.566 46.9303C175.47 46.8615 175.355 46.8253 175.237 46.827C174.14 46.8821 173.046 46.9924 171.959 47.1576C171.908 47.1568 171.858 47.1679 171.813 47.1902C171.767 47.2125 171.727 47.2453 171.697 47.2858C171.666 47.3264 171.646 47.3736 171.637 47.4236C171.628 47.4736 171.631 47.525 171.646 47.5735C171.972 48.8065 172.167 49.6231 172.403 50.8884C172.423 50.9409 172.43 50.9973 172.423 51.0529C172.416 51.1085 172.396 51.1616 172.364 51.2077C172.332 51.2538 172.29 51.2916 172.24 51.3179C172.191 51.3442 172.136 51.3581 172.08 51.3586L168.618 51.7659C168.563 51.7819 168.512 51.8094 168.469 51.8466C168.426 51.8837 168.391 51.9297 168.367 51.9814C168.343 52.0331 168.33 52.0893 168.329 52.1463C168.328 52.2034 168.339 52.26 168.362 52.3123C168.577 53.6561 168.74 54.8573 168.919 56.2141C168.917 56.2741 168.928 56.3338 168.951 56.3891C168.975 56.4444 169.01 56.494 169.054 56.5345C169.098 56.5749 169.151 56.6053 169.208 56.6235C169.266 56.6416 169.326 56.6473 169.386 56.6398L172.865 55.9741C172.921 55.9633 172.979 55.9647 173.035 55.978C173.09 55.9914 173.142 56.0165 173.188 56.0517C173.233 56.0869 173.27 56.1313 173.297 56.1819C173.323 56.2326 173.339 56.2884 173.342 56.3456C173.49 57.6432 173.675 58.7958 173.788 60.1363C173.784 60.1909 173.793 60.2457 173.816 60.2955C173.839 60.3454 173.874 60.3886 173.918 60.421C173.962 60.4535 174.014 60.4742 174.068 60.4812C174.122 60.4881 174.177 60.4811 174.228 60.4608C175.377 60.3618 176.514 60.1557 177.625 59.8453C177.736 59.7992 177.832 59.7215 177.9 59.6216C177.967 59.5218 178.004 59.4043 178.006 59.2837C177.921 58.0744 177.588 56.5717 177.432 55.4183C177.416 55.3021 177.443 55.1842 177.508 55.0865C177.573 54.9888 177.671 54.918 177.784 54.8874C178.935 54.6118 180.072 54.3005 181.173 53.9722C181.287 53.9441 181.388 53.8753 181.455 53.7786C181.522 53.6818 181.551 53.5639 181.537 53.4471ZM189.688 57.8542C189.442 57.6507 189.209 57.4228 188.963 57.1893C188.829 57.0938 188.668 57.0425 188.504 57.0425C188.34 57.0424 188.179 57.0936 188.045 57.189C186.725 57.968 185.273 58.4975 183.762 58.751C183.671 58.7674 183.584 58.8017 183.507 58.8518C183.429 58.9019 183.363 58.9669 183.31 59.043C183.258 59.1191 183.222 59.2048 183.203 59.2951C183.184 59.3854 183.183 59.4786 183.201 59.5692C183.315 60.052 183.441 60.5105 183.579 60.9747C183.613 61.0746 183.666 61.1666 183.736 61.2452C183.806 61.3238 183.891 61.3874 183.987 61.432C184.082 61.4766 184.186 61.5014 184.291 61.5049C184.396 61.5084 184.501 61.4904 184.599 61.4521C186.353 60.8607 187.981 59.946 189.399 58.7552C189.786 58.4034 189.884 58.0351 189.688 57.8542ZM186.433 40.0486C187.437 39.013 188.72 38.2921 190.127 37.974C189.753 37.5264 189.355 37.0984 188.937 36.6914C185.597 33.5459 181.439 31.4045 176.938 30.5126C173.98 29.92 170.948 29.794 167.951 30.1392L171.2 36.5742C165.476 37.1659 159.796 37.6306 154.131 37.717C156.138 41.8092 158.248 45.9348 160.45 49.926C159.624 50.679 158.779 51.4085 157.946 52.1138C159.604 54.9097 161.725 57.4039 164.218 59.4901C163.688 58.3812 163.307 57.2074 163.084 55.9991C162.967 55.3824 162.883 54.76 162.832 54.1344C162.523 51.8359 162.968 49.4992 164.099 47.4748C165.341 45.5365 167.225 44.0971 169.421 43.409C171.633 42.8649 173.931 42.7728 176.179 43.1384C176.679 43.2094 177.16 43.257 177.581 43.306C178.972 43.5093 180.38 43.5833 181.785 43.5272C183.165 43.3296 183.595 43.0426 183.947 42.7337C184.272 42.427 184.578 42.1006 184.864 41.7564C185.3 41.2354 185.813 40.6763 186.444 40.0243L186.433 40.0486ZM194.272 45.4354C193.34 43.0006 190.625 43.2987 190.562 45.9931C190.516 47.4516 190.887 52.0659 193.503 50.0192C194.074 49.4114 194.451 48.6474 194.585 47.8247C194.72 47.0019 194.607 46.1577 194.259 45.3997L194.272 45.4354Z" fill="white" fill-opacity="0.12"/>
<path d="M312.11 100.859C312.053 103.528 311.393 106.149 310.179 108.526C308.9 110.928 307.099 113.014 304.909 114.629C302.706 116.301 300.197 117.525 297.524 118.233C296.272 118.582 294.992 118.82 293.698 118.943C292.386 119.04 291.068 119.032 289.757 118.919C287.062 118.716 284.425 118.029 281.974 116.889C279.087 115.49 276.467 113.597 274.231 111.296C271.929 109 270.012 106.348 268.553 103.443L267.994 102.264L270.476 100.124C267.971 95.2515 265.604 90.359 263.374 85.4469C269.028 85.4147 274.752 85.2667 280.477 84.7049L277.683 78.72L279.488 78.2475L280.162 78.1042C280.586 78.0212 281.207 77.9272 281.967 77.8536C283.998 77.6439 286.044 77.6111 288.081 77.7555C290.899 78.0133 293.67 78.6435 296.322 79.6296C297.895 80.2429 299.41 80.9966 300.848 81.8815C302.463 82.8506 303.979 83.9765 305.373 85.2429C307.507 87.2446 309.206 89.664 310.365 92.3506C311.524 95.0372 312.118 97.9335 312.11 100.859ZM295.795 104.502C295.633 103.552 295.471 102.603 295.272 101.667C295.236 101.574 295.165 101.498 295.075 101.456C294.985 101.413 294.881 101.407 294.787 101.439L291.297 101.937C291.188 101.945 291.079 101.915 290.99 101.852C290.901 101.788 290.837 101.696 290.808 101.59C290.576 100.475 290.362 99.3825 290.027 98.2637C289.991 98.1514 289.92 98.0537 289.824 97.9849C289.728 97.9161 289.613 97.8799 289.495 97.8817C288.398 97.9367 287.304 98.0471 286.217 98.2123C286.166 98.2114 286.116 98.2226 286.071 98.2448C286.025 98.2671 285.985 98.2999 285.955 98.3405C285.924 98.381 285.904 98.4282 285.895 98.4782C285.886 98.5282 285.889 98.5796 285.904 98.6282C286.23 99.8612 286.425 100.678 286.662 101.943C286.681 101.996 286.688 102.052 286.681 102.108C286.674 102.163 286.654 102.216 286.622 102.262C286.59 102.308 286.548 102.346 286.498 102.373C286.449 102.399 286.394 102.413 286.338 102.413L282.876 102.821C282.821 102.837 282.77 102.864 282.727 102.901C282.684 102.938 282.649 102.984 282.625 103.036C282.601 103.088 282.588 103.144 282.587 103.201C282.586 103.258 282.597 103.315 282.62 103.367C282.835 104.711 282.998 105.912 283.177 107.269C283.175 107.329 283.186 107.388 283.209 107.444C283.233 107.499 283.268 107.549 283.312 107.589C283.357 107.63 283.409 107.66 283.466 107.678C283.524 107.696 283.584 107.702 283.644 107.694L287.123 107.029C287.179 107.018 287.237 107.019 287.293 107.033C287.348 107.046 287.401 107.071 287.446 107.106C287.491 107.141 287.528 107.186 287.555 107.237C287.581 107.287 287.597 107.343 287.6 107.4C287.748 108.698 287.933 109.85 288.046 111.191C288.042 111.246 288.051 111.3 288.074 111.35C288.097 111.4 288.132 111.443 288.176 111.476C288.22 111.508 288.272 111.529 288.326 111.536C288.38 111.543 288.435 111.536 288.486 111.515C289.635 111.416 290.772 111.21 291.883 110.9C291.994 110.854 292.09 110.776 292.158 110.676C292.225 110.576 292.262 110.459 292.264 110.338C292.179 109.129 291.846 107.626 291.69 106.473C291.675 106.357 291.702 106.239 291.766 106.141C291.831 106.043 291.929 105.973 292.042 105.942C293.193 105.666 294.33 105.355 295.431 105.027C295.546 104.999 295.646 104.93 295.713 104.833C295.78 104.736 295.809 104.619 295.795 104.502ZM303.946 108.909C303.701 108.705 303.467 108.477 303.221 108.244C303.087 108.148 302.927 108.097 302.762 108.097C302.598 108.097 302.437 108.148 302.303 108.244C300.983 109.023 299.531 109.552 298.02 109.806C297.929 109.822 297.842 109.856 297.765 109.906C297.687 109.957 297.621 110.022 297.568 110.098C297.516 110.174 297.48 110.259 297.461 110.35C297.442 110.44 297.442 110.533 297.459 110.624C297.573 111.107 297.699 111.565 297.837 112.029C297.871 112.129 297.924 112.221 297.994 112.3C298.064 112.378 298.149 112.442 298.245 112.487C298.34 112.531 298.444 112.556 298.549 112.56C298.654 112.563 298.759 112.545 298.857 112.507C300.611 111.915 302.24 111.001 303.657 109.81C304.044 109.458 304.142 109.09 303.946 108.909ZM300.691 91.1033C301.695 90.0676 302.978 89.3467 304.385 89.0287C304.011 88.5811 303.613 88.153 303.195 87.7461C299.855 84.6005 295.697 82.4591 291.196 81.5672C288.238 80.9747 285.206 80.8487 282.209 81.1938L285.458 87.6288C279.734 88.2206 274.054 88.6852 268.389 88.7717C270.396 92.8639 272.506 96.9894 274.708 100.981C273.882 101.734 273.037 102.463 272.204 103.168C273.862 105.964 275.983 108.459 278.476 110.545C277.947 109.436 277.565 108.262 277.342 107.054C277.225 106.437 277.141 105.815 277.09 105.189C276.781 102.891 277.226 100.554 278.357 98.5294C279.599 96.5911 281.483 95.1517 283.679 94.4636C285.891 93.9195 288.189 93.8274 290.437 94.193C290.937 94.264 291.418 94.3116 291.839 94.3607C293.23 94.5639 294.638 94.638 296.043 94.5818C297.423 94.3842 297.853 94.0973 298.205 93.7883C298.53 93.4816 298.836 93.1552 299.122 92.811C299.558 92.29 300.071 91.731 300.702 91.079L300.691 91.1033ZM308.53 96.49C307.598 94.0553 304.883 94.3533 304.821 97.0477C304.774 98.5062 305.145 103.121 307.761 101.074C308.332 100.466 308.709 99.7021 308.843 98.8793C308.978 98.0566 308.865 97.2124 308.517 96.4544L308.53 96.49Z" fill="white" fill-opacity="0.12"/>
<path d="M83.3539 -4.02809C83.2976 -1.35959 82.6374 1.26149 81.423 3.63831C80.144 6.04061 78.3434 8.12611 76.1533 9.74177C73.9502 11.4132 71.4412 12.6373 68.7679 13.3451C67.5162 13.6948 66.2359 13.9327 64.9421 14.0557C63.6299 14.1526 62.3121 14.1445 61.0012 14.0316C58.3059 13.829 55.6693 13.1413 53.2184 12.0018C50.3315 10.6023 47.7111 8.70948 45.4753 6.40865C43.1735 4.11232 41.2562 1.46061 39.7968 -1.44484L39.2386 -2.62386L41.7201 -4.76306C39.2152 -9.63602 36.8478 -14.5286 34.6178 -19.4406C40.2724 -19.4728 45.9959 -19.6208 51.7207 -20.1826L48.9272 -26.1675L50.7322 -26.64L51.4062 -26.7833C51.8298 -26.8663 52.4511 -26.9603 53.2108 -27.0339C55.2424 -27.2436 57.2883 -27.2764 59.3255 -27.132C62.1431 -26.8742 64.9141 -26.244 67.5661 -25.258C69.1393 -24.6446 70.6541 -23.8909 72.0923 -23.0061C73.7073 -22.0369 75.2229 -20.911 76.6171 -19.6446C78.7511 -17.6429 80.4505 -15.2235 81.6094 -12.5369C82.7684 -9.8503 83.3622 -6.95399 83.3539 -4.02809ZM67.0396 -0.385836C66.8771 -1.3352 66.7147 -2.28455 66.5165 -3.221C66.4803 -3.314 66.4096 -3.3895 66.3192 -3.43182C66.2288 -3.47415 66.1255 -3.48005 66.0308 -3.44835L62.5414 -2.95036C62.4322 -2.94211 62.3235 -2.9723 62.2343 -3.03571C62.145 -3.09911 62.0808 -3.19174 62.0526 -3.29754C61.8199 -4.41301 61.6057 -5.50498 61.2709 -6.6238C61.235 -6.73608 61.164 -6.83383 61.0682 -6.90263C60.9725 -6.97143 60.8572 -7.00761 60.7393 -7.00586C59.6418 -6.95081 58.5478 -6.84046 57.4614 -6.67524C57.4106 -6.6761 57.3604 -6.66496 57.3148 -6.64268C57.2691 -6.6204 57.2294 -6.58762 57.1989 -6.54706C57.1683 -6.50649 57.1478 -6.45929 57.139 -6.40929C57.1302 -6.35928 57.1334 -6.30791 57.1483 -6.25936C57.474 -5.02635 57.6691 -4.20978 57.9057 -2.94448C57.9252 -2.892 57.9318 -2.83556 57.9249 -2.77999C57.918 -2.72441 57.8979 -2.67133 57.8661 -2.6252C57.8344 -2.57908 57.7919 -2.54126 57.7425 -2.515C57.693 -2.48873 57.638 -2.47479 57.582 -2.47432L54.1201 -2.06698C54.0654 -2.05094 54.0146 -2.02345 53.9713 -1.9863C53.928 -1.94915 53.8931 -1.90319 53.8689 -1.85151C53.8447 -1.79984 53.8318 -1.7436 53.831 -1.68654C53.8302 -1.62949 53.8416 -1.57292 53.8643 -1.5206C54.079 -0.176776 54.242 1.02444 54.421 2.38118C54.4191 2.44119 54.4301 2.50091 54.4535 2.55622C54.4769 2.61153 54.5119 2.66113 54.5563 2.70159C54.6007 2.74205 54.6533 2.7724 54.7105 2.79058C54.7677 2.80876 54.8282 2.81437 54.8878 2.80694L58.367 2.14124C58.4232 2.13043 58.4811 2.13178 58.5368 2.14516C58.5925 2.15853 58.6447 2.18363 58.6898 2.2188C58.735 2.25397 58.7722 2.29837 58.7989 2.34906C58.8255 2.39975 58.841 2.45556 58.8443 2.51273C58.9918 3.81031 59.1776 4.96296 59.2902 6.30342C59.2858 6.35801 59.2954 6.41282 59.3181 6.46264C59.3409 6.51247 59.3759 6.55567 59.42 6.58816C59.4641 6.62065 59.5157 6.64135 59.57 6.6483C59.6243 6.65526 59.6795 6.64826 59.7304 6.62793C60.8792 6.52889 62.0163 6.32281 63.1269 6.01237C63.2384 5.96633 63.334 5.88858 63.4017 5.78875C63.4695 5.68893 63.5065 5.57143 63.5082 5.45078C63.4229 4.24154 63.0902 2.73881 62.9345 1.58537C62.9187 1.46921 62.9457 1.35131 63.0105 1.25362C63.0753 1.15593 63.1734 1.08514 63.2866 1.05451C64.4369 0.77889 65.5744 0.467616 66.6754 0.139296C66.7897 0.111236 66.8898 0.0423878 66.9569 -0.0543335C67.024 -0.151055 67.0534 -0.268937 67.0396 -0.385836ZM75.1898 4.02134C74.9447 3.81778 74.7109 3.58992 74.4649 3.35639C74.331 3.26095 74.1707 3.20963 74.0062 3.20958C73.8417 3.20954 73.6814 3.26074 73.5474 3.35609C72.2274 4.13512 70.7754 4.66463 69.2638 4.91816C69.173 4.93455 69.0863 4.96881 69.0089 5.01893C68.9314 5.06905 68.8647 5.13402 68.8126 5.21012C68.7604 5.28621 68.7239 5.37192 68.7051 5.46224C68.6863 5.55256 68.6857 5.64571 68.7032 5.73629C68.8176 6.21911 68.9434 6.67762 69.0813 7.14183C69.1148 7.24168 69.1681 7.33371 69.2382 7.41231C69.3083 7.49091 69.3936 7.55448 69.489 7.59912C69.5843 7.64376 69.6878 7.66854 69.793 7.67201C69.8982 7.67547 70.0031 7.65751 70.1012 7.61924C71.8556 7.02784 73.4837 6.11312 74.9013 4.92236C75.288 4.57053 75.3864 4.20217 75.1898 4.02134ZM71.9348 -13.7843C72.9388 -14.8199 74.2226 -15.5408 75.6295 -15.8589C75.2548 -16.3064 74.8574 -16.7345 74.4389 -17.1414C71.0991 -20.287 66.941 -22.4284 62.4406 -23.3203C59.4826 -23.9128 56.4501 -24.0388 53.4531 -23.6937L56.702 -17.2587C50.978 -16.6669 45.2986 -16.2023 39.6335 -16.1159C41.6404 -12.0236 43.7501 -7.89811 45.9523 -3.90691C45.1262 -3.15389 44.2814 -2.42436 43.448 -1.71913C45.1063 1.07679 47.227 3.57101 49.7199 5.65726C49.1906 4.54828 48.8095 3.37454 48.5861 2.1662C48.4694 1.54952 48.3852 0.927088 48.334 0.301548C48.0252 -1.99697 48.4699 -4.33364 49.6012 -6.35813C50.8428 -8.29642 52.727 -9.73578 54.9236 -10.4239C57.1351 -10.968 59.4336 -11.0601 61.6815 -10.6945C62.1811 -10.6235 62.6621 -10.5759 63.0832 -10.5268C64.4746 -10.3236 65.8819 -10.2496 67.287 -10.3057C68.6672 -10.5033 69.0976 -10.7902 69.4494 -11.0992C69.7745 -11.4059 70.0806 -11.7323 70.3657 -12.0765C70.8021 -12.5975 71.3154 -13.1565 71.9462 -13.8086L71.9348 -13.7843ZM79.7745 -8.39748C78.842 -10.8322 76.127 -10.5342 76.0647 -7.83981C76.0184 -6.38128 76.3896 -1.767 79.0054 -3.8137C79.5761 -4.42145 79.9528 -5.18546 80.0875 -6.0082C80.2222 -6.83095 80.1087 -7.67516 79.7616 -8.43315L79.7745 -8.39748Z" fill="white" fill-opacity="0.12"/>
<path d="M-6.70056 87.6923C-6.75686 90.3608 -7.41701 92.9819 -8.63141 95.3587C-9.91042 97.761 -11.711 99.8465 -13.9011 101.462C-16.1043 103.134 -18.6132 104.358 -21.2865 105.065C-22.5383 105.415 -23.8186 105.653 -25.1124 105.776C-26.4245 105.873 -27.7423 105.865 -29.0532 105.752C-31.7485 105.549 -34.3851 104.862 -36.8361 103.722C-39.723 102.323 -42.3433 100.43 -44.5791 98.129C-46.8809 95.8327 -48.7983 93.181 -50.2576 90.2756L-50.8159 89.0965L-48.3343 86.9573C-50.8392 82.0844 -53.2066 77.1918 -55.4366 72.2798C-49.7821 72.2476 -44.0585 72.0996 -38.3337 71.5378L-41.1272 65.5529L-39.3223 65.0804L-38.6483 64.937C-38.2246 64.8541 -37.6034 64.7601 -36.8436 64.6865C-34.8121 64.4768 -32.7662 64.444 -30.729 64.5884C-27.9113 64.8462 -25.1403 65.4763 -22.4883 66.4624C-20.9151 67.0758 -19.4003 67.8295 -17.9622 68.7143C-16.3472 69.6835 -14.8316 70.8094 -13.4373 72.0758C-11.3033 74.0775 -9.60395 76.4969 -8.44499 79.1835C-7.28604 81.8701 -6.69225 84.7664 -6.70056 87.6923ZM-23.0148 91.3346C-23.1773 90.3852 -23.3398 89.4358 -23.5379 88.4994C-23.5742 88.4064 -23.6449 88.3309 -23.7353 88.2886C-23.8257 88.2463 -23.9289 88.2403 -24.0236 88.2721L-27.5131 88.77C-27.6222 88.7783 -27.7309 88.7481 -27.8202 88.6847C-27.9094 88.6213 -27.9737 88.5287 -28.0018 88.4229C-28.2346 87.3074 -28.4487 86.2154 -28.7835 85.0966C-28.8194 84.9843 -28.8905 84.8866 -28.9862 84.8178C-29.0819 84.749 -29.1973 84.7128 -29.3151 84.7145C-30.4126 84.7696 -31.5067 84.8799 -32.5931 85.0452C-32.6438 85.0443 -32.6941 85.0554 -32.7397 85.0777C-32.7853 85.1 -32.825 85.1328 -32.8556 85.1733C-32.8861 85.2139 -32.9066 85.2611 -32.9154 85.3111C-32.9242 85.3611 -32.921 85.4125 -32.9061 85.461C-32.5804 86.694 -32.3854 87.5106 -32.1488 88.7759C-32.1292 88.8284 -32.1226 88.8848 -32.1295 88.9404C-32.1364 88.996 -32.1566 89.0491 -32.1883 89.0952C-32.2201 89.1413 -32.2625 89.1791 -32.312 89.2054C-32.3614 89.2317 -32.4165 89.2456 -32.4725 89.2461L-35.9343 89.6534C-35.9891 89.6695 -36.0398 89.697 -36.0831 89.7341C-36.1264 89.7712 -36.1613 89.8172 -36.1855 89.8689C-36.2097 89.9206 -36.2227 89.9768 -36.2234 90.0339C-36.2242 90.0909 -36.2129 90.1475 -36.1901 90.1998C-35.9754 91.5436 -35.8125 92.7448 -35.6335 94.1016C-35.6354 94.1616 -35.6243 94.2213 -35.6009 94.2766C-35.5776 94.3319 -35.5425 94.3815 -35.4981 94.422C-35.4538 94.4624 -35.4012 94.4928 -35.3439 94.511C-35.2867 94.5292 -35.2262 94.5348 -35.1667 94.5273L-31.6875 93.8616C-31.6313 93.8508 -31.5734 93.8522 -31.5177 93.8656C-31.462 93.8789 -31.4098 93.904 -31.3646 93.9392C-31.3194 93.9744 -31.2822 94.0188 -31.2556 94.0695C-31.2289 94.1201 -31.2134 94.176 -31.2101 94.2331C-31.0626 95.5307 -30.8769 96.6834 -30.7643 98.0238C-30.7686 98.0784 -30.759 98.1332 -30.7363 98.183C-30.7136 98.2329 -30.6785 98.2761 -30.6344 98.3086C-30.5904 98.3411 -30.5387 98.3617 -30.4844 98.3687C-30.4301 98.3757 -30.3749 98.3687 -30.3241 98.3483C-29.1752 98.2493 -28.0381 98.0432 -26.9276 97.7328C-26.8161 97.6867 -26.7205 97.609 -26.6527 97.5092C-26.5849 97.4093 -26.5479 97.2918 -26.5463 97.1712C-26.6315 95.9619 -26.9642 94.4592 -27.12 93.3058C-27.1358 93.1896 -27.1087 93.0717 -27.044 92.974C-26.9792 92.8763 -26.881 92.8055 -26.7679 92.7749C-25.6175 92.4993 -24.4801 92.188 -23.3791 91.8597C-23.2648 91.8316 -23.1646 91.7628 -23.0976 91.6661C-23.0305 91.5693 -23.0011 91.4515 -23.0148 91.3346ZM-14.8646 95.7417C-15.1098 95.5382 -15.3436 95.3103 -15.5895 95.0768C-15.7234 94.9813 -15.8838 94.93 -16.0483 94.93C-16.2127 94.9299 -16.3731 94.9811 -16.5071 95.0765C-17.827 95.8555 -19.2791 96.385 -20.7907 96.6386C-20.8815 96.6549 -20.9681 96.6892 -21.0456 96.7393C-21.123 96.7894 -21.1897 96.8544 -21.2419 96.9305C-21.294 97.0066 -21.3305 97.0923 -21.3493 97.1826C-21.3681 97.273 -21.3688 97.3661 -21.3513 97.4567C-21.2368 97.9395 -21.1111 98.398 -20.9731 98.8622C-20.9397 98.9621 -20.8863 99.0541 -20.8162 99.1327C-20.7462 99.2113 -20.6608 99.2749 -20.5655 99.3195C-20.4701 99.3642 -20.3667 99.3889 -20.2614 99.3924C-20.1562 99.3959 -20.0513 99.3779 -19.9532 99.3396C-18.1989 98.7482 -16.5708 97.8335 -15.1532 96.6428C-14.7665 96.2909 -14.668 95.9226 -14.8646 95.7417ZM-18.1196 77.9361C-17.1157 76.9005 -15.8319 76.1796 -14.425 75.8615C-14.7997 75.414 -15.1971 74.9859 -15.6156 74.5789C-18.9553 71.4334 -23.1135 69.292 -27.6138 68.4001C-30.5718 67.8076 -33.6044 67.6816 -36.6013 68.0267L-33.3524 74.4617C-39.0765 75.0535 -44.7558 75.5181 -50.421 75.6045C-48.4141 79.6968 -46.3043 83.8223 -44.1021 87.8135C-44.9283 88.5665 -45.773 89.296 -46.6064 90.0013C-44.9482 92.7972 -42.8274 95.2914 -40.3346 97.3777C-40.8638 96.2687 -41.245 95.0949 -41.4683 93.8866C-41.5851 93.2699 -41.6692 92.6475 -41.7204 92.0219C-42.0292 89.7234 -41.5846 87.3868 -40.4532 85.3623C-39.2117 83.424 -37.3274 81.9846 -35.1308 81.2965C-32.9194 80.7524 -30.6208 80.6603 -28.3729 81.0259C-27.8733 81.0969 -27.3923 81.1445 -26.9713 81.1936C-25.5798 81.3968 -24.1725 81.4708 -22.7675 81.4147C-21.3872 81.2171 -20.9569 80.9301 -20.605 80.6212C-20.2799 80.3145 -19.9739 79.9881 -19.6887 79.6439C-19.2524 79.1229 -18.7391 78.5639 -18.1082 77.9118L-18.1196 77.9361ZM-10.2799 83.3229C-11.2125 80.8882 -13.9275 81.1862 -13.9898 83.8806C-14.036 85.3391 -13.6649 89.9534 -11.049 87.9067C-10.4783 87.2989 -10.1016 86.5349 -9.96692 85.7122C-9.83224 84.8895 -9.9457 84.0452 -10.2928 83.2873L-10.2799 83.3229Z" fill="white" fill-opacity="0.12"/>
<path d="M130.877 171.03C131.389 173.65 132.487 176.12 134.089 178.254C135.759 180.403 137.89 182.151 140.323 183.369C142.78 184.639 145.461 185.417 148.216 185.658C149.509 185.789 150.811 185.804 152.107 185.705C153.416 185.576 154.713 185.343 155.985 185.008C158.607 184.348 161.087 183.221 163.308 181.679C165.913 179.807 168.172 177.495 169.982 174.846C171.858 172.191 173.294 169.25 174.236 166.138L174.585 164.881L171.774 163.197C173.41 157.968 174.908 152.743 176.266 147.523C170.689 148.456 165.024 149.288 159.288 149.712L161.018 143.338L159.159 143.18L158.471 143.154C158.039 143.145 157.411 143.158 156.65 143.216C154.612 143.356 152.591 143.673 150.608 144.163C147.876 144.898 145.253 145.992 142.808 147.417C141.363 148.29 139.999 149.291 138.733 150.408C137.307 151.639 136.006 153.007 134.849 154.493C133.088 156.83 131.827 159.504 131.143 162.349C130.46 165.194 130.37 168.149 130.877 171.03ZM147.574 171.834C147.572 170.87 147.57 169.907 147.605 168.951C147.625 168.853 147.682 168.766 147.764 168.709C147.846 168.652 147.946 168.629 148.045 168.644L151.568 168.539C151.677 168.528 151.779 168.48 151.856 168.402C151.933 168.324 151.981 168.222 151.991 168.113C152.029 166.974 152.054 165.862 152.193 164.702C152.209 164.585 152.262 164.477 152.345 164.393C152.428 164.309 152.535 164.253 152.651 164.235C153.742 164.102 154.839 164.024 155.938 164.001C155.988 163.991 156.039 163.994 156.088 164.008C156.136 164.022 156.181 164.048 156.218 164.082C156.255 164.117 156.284 164.16 156.301 164.208C156.318 164.256 156.324 164.307 156.317 164.357C156.207 165.628 156.154 166.466 156.137 167.753C156.127 167.808 156.13 167.865 156.146 167.918C156.162 167.972 156.191 168.021 156.23 168.061C156.27 168.101 156.318 168.131 156.371 168.148C156.424 168.166 156.481 168.17 156.536 168.161L160.017 167.971C160.073 167.978 160.128 167.996 160.177 168.025C160.226 168.054 160.268 168.094 160.301 168.14C160.334 168.187 160.356 168.24 160.367 168.297C160.377 168.353 160.376 168.41 160.362 168.466C160.38 169.826 160.425 171.038 160.48 172.405C160.492 172.464 160.491 172.525 160.478 172.583C160.464 172.642 160.438 172.697 160.401 172.744C160.364 172.792 160.318 172.83 160.264 172.858C160.211 172.886 160.153 172.902 160.093 172.904L156.551 172.843C156.494 172.842 156.437 172.853 156.384 172.875C156.332 172.898 156.284 172.932 156.246 172.974C156.207 173.017 156.178 173.067 156.161 173.121C156.143 173.176 156.137 173.233 156.144 173.29C156.22 174.594 156.234 175.761 156.352 177.101C156.365 177.154 156.365 177.21 156.351 177.263C156.338 177.316 156.31 177.365 156.273 177.404C156.235 177.444 156.187 177.473 156.135 177.489C156.083 177.505 156.027 177.508 155.974 177.496C154.825 177.595 153.669 177.586 152.522 177.47C152.404 177.443 152.297 177.383 152.213 177.296C152.129 177.209 152.072 177.1 152.05 176.981C151.928 175.775 151.999 174.238 151.955 173.075C151.951 172.958 151.904 172.846 151.824 172.761C151.743 172.676 151.635 172.623 151.518 172.612C150.337 172.537 149.164 172.424 148.023 172.289C147.905 172.281 147.795 172.23 147.712 172.146C147.63 172.062 147.58 171.951 147.574 171.834ZM140.296 177.568C140.503 177.325 140.694 177.061 140.897 176.789C141.012 176.672 141.162 176.594 141.324 176.566C141.486 176.538 141.652 176.561 141.801 176.632C143.234 177.174 144.756 177.448 146.288 177.439C146.38 177.44 146.472 177.459 146.557 177.495C146.641 177.531 146.718 177.584 146.783 177.65C146.847 177.716 146.898 177.794 146.932 177.88C146.965 177.966 146.982 178.058 146.98 178.15C146.95 178.645 146.904 179.118 146.848 179.599C146.832 179.703 146.795 179.803 146.739 179.893C146.684 179.982 146.61 180.059 146.524 180.119C146.438 180.18 146.34 180.222 146.237 180.243C146.134 180.265 146.027 180.265 145.924 180.244C144.095 179.961 142.334 179.337 140.734 178.406C140.293 178.125 140.133 177.779 140.296 177.568ZM140.463 159.468C139.297 158.619 137.909 158.128 136.468 158.054C136.761 157.549 137.08 157.06 137.422 156.587C140.176 152.918 143.908 150.098 148.189 148.451C151.003 147.362 153.969 146.72 156.981 146.548L154.879 153.443C160.62 153.049 166.295 152.537 171.892 151.655C170.613 156.03 169.239 160.455 167.75 164.764C168.693 165.364 169.65 165.939 170.592 166.492C169.435 169.53 167.771 172.349 165.671 174.831C166.003 173.647 166.179 172.426 166.192 171.197C166.202 170.57 166.179 169.942 166.122 169.317C166.034 166.999 165.197 164.773 163.737 162.971C162.182 161.274 160.08 160.177 157.798 159.874C155.526 159.716 153.246 160.017 151.093 160.761C150.613 160.917 150.147 161.046 149.741 161.166C148.405 161.604 147.031 161.917 145.637 162.102C144.243 162.143 143.77 161.933 143.37 161.689C142.998 161.442 142.64 161.173 142.301 160.882C141.782 160.444 141.181 159.98 140.448 159.446L140.463 159.468ZM133.658 166.114C134.161 163.556 136.887 163.386 137.409 166.03C137.703 167.459 138.126 172.069 135.199 170.499C134.533 169.998 134.031 169.309 133.758 168.522C133.485 167.734 133.452 166.883 133.665 166.077L133.658 166.114Z" fill="white" fill-opacity="0.12"/>
<path d="M214.924 74.2296C215.435 76.8493 216.533 79.3192 218.136 81.4537C219.806 83.6024 221.937 85.3498 224.37 86.5678C226.827 87.8384 229.508 88.6162 232.263 88.8571C233.556 88.988 234.858 89.0037 236.154 88.904C237.463 88.7754 238.76 88.5425 240.032 88.2074C242.654 87.5475 245.134 86.4198 247.354 84.8785C249.96 83.0066 252.219 80.6942 254.029 78.0454C255.905 75.3897 257.341 72.4496 258.283 69.3376L258.632 68.0806L255.821 66.3965C257.457 61.1674 258.954 55.9425 260.313 50.7218C254.736 51.6556 249.071 52.4871 243.335 52.911L245.065 46.537L243.206 46.3797L242.517 46.3535C242.086 46.3441 241.458 46.3576 240.697 46.4148C238.659 46.555 236.638 46.872 234.655 47.3622C231.923 48.0973 229.3 49.1913 226.855 50.6158C225.41 51.4888 224.046 52.49 222.78 53.6074C221.354 54.8381 220.053 56.2063 218.896 57.6921C217.135 60.0288 215.873 62.7029 215.19 65.5479C214.507 68.3929 214.417 71.3481 214.924 74.2296ZM231.621 75.0327C231.619 74.0696 231.617 73.1064 231.652 72.1499C231.672 72.0521 231.729 71.9656 231.811 71.9085C231.893 71.8513 231.993 71.8279 232.092 71.8429L235.615 71.7378C235.724 71.7273 235.826 71.679 235.903 71.6013C235.98 71.5235 236.028 71.4213 236.038 71.3123C236.076 70.1734 236.101 69.0609 236.24 67.9014C236.256 67.7846 236.309 67.6762 236.392 67.592C236.474 67.5079 236.582 67.4526 236.698 67.4342C237.789 67.301 238.886 67.2229 239.985 67.2002C240.034 67.1907 240.086 67.1931 240.135 67.2073C240.183 67.2214 240.228 67.2469 240.265 67.2817C240.302 67.3164 240.33 67.3594 240.348 67.4072C240.365 67.455 240.37 67.5062 240.364 67.5565C240.254 68.827 240.201 69.6649 240.184 70.952C240.174 71.0071 240.177 71.0638 240.193 71.1174C240.209 71.171 240.238 71.2199 240.277 71.2599C240.316 71.2999 240.365 71.3299 240.418 71.3474C240.471 71.3648 240.528 71.3691 240.583 71.36L244.064 71.1703C244.12 71.1767 244.175 71.1952 244.224 71.2244C244.273 71.2536 244.315 71.2929 244.348 71.3397C244.381 71.3865 244.403 71.4397 244.413 71.4958C244.424 71.5518 244.422 71.6095 244.409 71.665C244.427 73.0257 244.471 74.2371 244.527 75.6045C244.539 75.6633 244.538 75.724 244.525 75.7825C244.511 75.841 244.485 75.8959 244.448 75.9433C244.411 75.9907 244.365 76.0296 244.311 76.0573C244.258 76.085 244.199 76.1009 244.139 76.1037L240.598 76.0418C240.54 76.0408 240.484 76.052 240.431 76.0747C240.378 76.0974 240.331 76.131 240.293 76.1734C240.254 76.2158 240.225 76.2659 240.208 76.3204C240.19 76.3749 240.184 76.4325 240.191 76.4894C240.267 77.7931 240.281 78.9605 240.399 80.3005C240.412 80.3536 240.412 80.4092 240.398 80.4622C240.384 80.5152 240.357 80.5637 240.319 80.6033C240.282 80.6428 240.234 80.672 240.182 80.6881C240.13 80.7043 240.074 80.7068 240.02 80.6954C238.871 80.794 237.716 80.7851 236.569 80.6689C236.451 80.6426 236.343 80.5823 236.26 80.4955C236.176 80.4087 236.119 80.2992 236.097 80.1806C235.975 78.9746 236.046 77.4371 236.002 76.274C235.998 76.1569 235.951 76.0453 235.871 75.9601C235.79 75.8749 235.681 75.822 235.565 75.8111C234.384 75.7359 233.21 75.6235 232.069 75.4879C231.952 75.4798 231.842 75.4291 231.759 75.3452C231.676 75.2614 231.627 75.1503 231.621 75.0327ZM224.343 80.7668C224.55 80.5244 224.741 80.2599 224.944 79.9879C225.059 79.871 225.209 79.793 225.371 79.7649C225.533 79.7367 225.699 79.7598 225.848 79.8309C227.281 80.3731 228.802 80.6469 230.335 80.6386C230.427 80.6392 230.519 80.6582 230.603 80.6944C230.688 80.7305 230.765 80.7831 230.829 80.8492C230.894 80.9153 230.944 80.9935 230.978 81.0793C231.012 81.1651 231.029 81.2568 231.027 81.349C230.997 81.8443 230.951 82.3175 230.895 82.7985C230.879 82.9026 230.842 83.0024 230.786 83.0918C230.73 83.1812 230.657 83.2584 230.571 83.3186C230.485 83.3789 230.387 83.421 230.284 83.4424C230.181 83.4638 230.074 83.464 229.971 83.443C228.142 83.1598 226.381 82.5366 224.781 81.6053C224.34 81.3247 224.18 80.9786 224.343 80.7668ZM224.51 62.6669C223.344 61.8179 221.956 61.3268 220.515 61.2536C220.808 60.7486 221.126 60.259 221.469 59.7866C224.223 56.1169 227.954 53.297 232.236 51.6498C235.05 50.5609 238.016 49.9189 241.028 49.7473L238.926 56.6425C244.667 56.2482 250.342 55.7363 255.939 54.8542C254.66 59.2289 253.286 63.6541 251.797 67.9627C252.74 68.5636 253.697 69.1382 254.638 69.6908C253.482 72.7288 251.818 75.5485 249.718 78.0298C250.05 76.8467 250.225 75.6251 250.239 74.3964C250.249 73.7688 250.226 73.1412 250.169 72.5161C250.081 70.1986 249.244 67.9721 247.783 66.1706C246.229 64.4727 244.127 63.3762 241.845 63.0733C239.573 62.9147 237.293 63.2165 235.14 63.9605C234.66 64.1158 234.194 64.2448 233.788 64.3651C232.451 64.803 231.077 65.1162 229.683 65.3008C228.29 65.3418 227.817 65.1325 227.417 64.8882C227.044 64.6414 226.687 64.3721 226.347 64.0817C225.829 63.6428 225.227 63.1796 224.494 62.6449L224.51 62.6669ZM217.705 69.3132C218.208 66.755 220.934 66.5851 221.456 69.2292C221.75 70.6584 222.172 75.2683 219.246 73.6983C218.579 73.197 218.078 72.5085 217.805 71.7208C217.531 70.9332 217.499 70.082 217.712 69.2758L217.705 69.3132Z" fill="white" fill-opacity="0.12"/>
<path d="M100.427 20.3945C100.938 23.0141 102.036 25.484 103.638 27.6186C105.308 29.7672 107.439 31.5146 109.873 32.7326C112.329 34.0033 115.01 34.781 117.765 35.022C119.058 35.1529 120.36 35.1686 121.656 35.0689C122.965 34.9403 124.262 34.7073 125.535 34.3723C128.156 33.7124 130.636 32.5847 132.857 31.0434C135.462 29.1715 137.721 26.859 139.531 24.2102C141.407 21.5546 142.843 18.6144 143.785 15.5025L144.134 14.2454L141.323 12.5614C142.959 7.33227 144.457 2.10735 145.815 -3.11334C140.238 -2.17957 134.573 -1.34807 128.837 -0.924102L130.567 -7.29815L128.708 -7.45549L128.02 -7.48166C127.588 -7.49102 126.96 -7.47758 126.199 -7.42039C124.161 -7.2801 122.14 -6.9631 120.157 -6.47297C117.425 -5.73789 114.802 -4.64382 112.357 -3.21938C110.912 -2.34639 109.548 -1.34514 108.282 -0.227723C106.856 1.00296 105.555 2.37112 104.398 3.85694C102.637 6.19366 101.376 8.86771 100.692 11.7127C100.009 14.5578 99.9187 17.5129 100.427 20.3945ZM117.123 21.1976C117.121 20.2344 117.119 19.2713 117.154 18.3147C117.174 18.2169 117.231 18.1304 117.313 18.0733C117.395 18.0162 117.495 17.9927 117.594 18.0078L121.117 17.9027C121.226 17.8921 121.328 17.8438 121.405 17.7661C121.483 17.6884 121.53 17.5862 121.54 17.4771C121.579 16.3383 121.603 15.2258 121.742 14.0662C121.758 13.9495 121.812 13.841 121.894 13.7569C121.977 13.6728 122.084 13.6174 122.201 13.599C123.291 13.4659 124.388 13.3878 125.487 13.3651C125.537 13.3555 125.588 13.358 125.637 13.3721C125.686 13.3863 125.73 13.4118 125.767 13.4465C125.804 13.4813 125.833 13.5243 125.85 13.5721C125.867 13.6198 125.873 13.671 125.866 13.7214C125.756 14.9919 125.703 15.8298 125.686 17.1169C125.676 17.172 125.679 17.2287 125.695 17.2823C125.711 17.3359 125.74 17.3847 125.78 17.4247C125.819 17.4648 125.867 17.4948 125.92 17.5122C125.973 17.5297 126.03 17.534 126.085 17.5249L129.566 17.3351C129.623 17.3416 129.677 17.36 129.726 17.3892C129.775 17.4184 129.817 17.4578 129.85 17.5046C129.883 17.5513 129.905 17.6045 129.916 17.6606C129.926 17.7167 129.925 17.7744 129.911 17.8298C129.929 19.1906 129.974 20.402 130.029 21.7694C130.041 21.8282 130.04 21.8889 130.027 21.9474C130.013 22.0059 129.987 22.0607 129.95 22.1082C129.913 22.1556 129.867 22.1945 129.814 22.2222C129.76 22.2499 129.702 22.2657 129.642 22.2686L126.1 22.2067C126.043 22.2057 125.986 22.2169 125.933 22.2396C125.881 22.2622 125.834 22.2959 125.795 22.3383C125.756 22.3806 125.727 22.4307 125.71 22.4852C125.692 22.5397 125.686 22.5974 125.693 22.6543C125.769 23.958 125.783 25.1254 125.901 26.4654C125.915 26.5184 125.914 26.5741 125.901 26.6271C125.887 26.68 125.859 26.7286 125.822 26.7681C125.784 26.8077 125.736 26.8369 125.684 26.853C125.632 26.8691 125.576 26.8717 125.523 26.8603C124.374 26.9589 123.218 26.95 122.071 26.8337C121.953 26.8074 121.846 26.7471 121.762 26.6603C121.678 26.5735 121.622 26.4641 121.599 26.3455C121.477 25.1395 121.548 23.602 121.505 22.4389C121.5 22.3217 121.454 22.2102 121.373 22.125C121.292 22.0398 121.184 21.9868 121.067 21.976C119.886 21.9008 118.713 21.7883 117.572 21.6528C117.454 21.6447 117.344 21.5939 117.261 21.5101C117.179 21.4262 117.129 21.3151 117.123 21.1976ZM109.845 26.9317C110.052 26.6892 110.243 26.4248 110.446 26.1527C110.561 26.0358 110.711 25.9579 110.873 25.9297C111.035 25.9016 111.202 25.9247 111.35 25.9957C112.783 26.5379 114.305 26.8117 115.837 26.8035C115.93 26.8041 116.021 26.8231 116.106 26.8592C116.19 26.8954 116.267 26.948 116.332 27.0141C116.396 27.0802 116.447 27.1584 116.481 27.2442C116.515 27.3299 116.531 27.4216 116.529 27.5139C116.499 28.0091 116.453 28.4824 116.397 28.9633C116.381 29.0674 116.344 29.1672 116.288 29.2566C116.233 29.346 116.159 29.4232 116.073 29.4835C115.987 29.5438 115.889 29.5858 115.786 29.6072C115.683 29.6286 115.577 29.6288 115.473 29.6079C113.644 29.3247 111.883 28.7014 110.283 27.7702C109.842 27.4896 109.682 27.1434 109.845 26.9317ZM110.012 8.83177C108.846 7.98277 107.458 7.49168 106.017 7.41849C106.31 6.9135 106.629 6.42385 106.972 5.95143C109.725 2.28179 113.457 -0.538132 117.739 -2.18537C120.552 -3.27427 123.518 -3.91622 126.53 -4.08789L124.428 2.80737C130.169 2.41306 135.844 1.90113 141.441 1.01901C140.162 5.3938 138.788 9.81898 137.3 14.1276C138.242 14.7285 139.199 15.3031 140.141 15.8556C138.984 18.8936 137.32 21.7133 135.22 24.1946C135.552 23.0116 135.728 21.79 135.741 20.5612C135.751 19.9337 135.728 19.306 135.671 18.6809C135.583 16.3634 134.746 14.137 133.286 12.3354C131.731 10.6376 129.629 9.54109 127.347 9.23815C125.075 9.0796 122.795 9.38137 120.642 10.1254C120.162 10.2807 119.696 10.4097 119.29 10.5299C117.954 10.9678 116.58 11.281 115.186 11.4656C113.792 11.5066 113.319 11.2974 112.919 11.053C112.547 10.8063 112.189 10.537 111.85 10.2466C111.331 9.80767 110.73 9.34449 109.997 8.80976L110.012 8.83177ZM103.207 15.478C103.71 12.9198 106.436 12.7499 106.958 15.3941C107.252 16.8233 107.675 21.4332 104.748 19.8632C104.082 19.3618 103.58 18.6734 103.307 17.8857C103.034 17.098 103.001 16.2468 103.214 15.4407L103.207 15.478Z" fill="white" fill-opacity="0.12"/>
<path d="M14.4375 110.852C14.9486 113.471 16.0466 115.941 17.649 118.076C19.3194 120.224 21.4497 121.972 23.8835 123.19C26.3397 124.461 29.0208 125.238 31.7757 125.479C33.0688 125.61 34.3709 125.626 35.6667 125.526C36.9761 125.397 38.2732 125.165 39.5456 124.829C42.1667 124.17 44.6471 123.042 46.8676 121.501C49.4731 119.629 51.7318 117.316 53.5419 114.667C55.4178 112.012 56.8542 109.072 57.796 105.96L58.1447 104.703L55.3344 103.019C56.9704 97.7895 58.4677 92.5646 59.8262 87.3439C54.2492 88.2776 48.5844 89.1091 42.8478 89.5331L44.5783 83.1591L42.7192 83.0017L42.0306 82.9756C41.599 82.9662 40.9708 82.9796 40.2097 83.0368C38.1722 83.1771 36.1507 83.4941 34.1681 83.9842C31.4359 84.7193 28.8131 85.8134 26.3684 87.2378C24.9231 88.1108 23.5592 89.1121 22.2933 90.2295C20.8675 91.4602 19.5664 92.8283 18.4088 94.3142C16.648 96.6509 15.3867 99.3249 14.7035 102.17C14.0202 105.015 13.9297 107.97 14.4375 110.852ZM31.1341 111.655C31.1321 110.692 31.1301 109.728 31.1654 108.772C31.1853 108.674 31.242 108.588 31.3239 108.531C31.4057 108.473 31.5064 108.45 31.6051 108.465L35.1284 108.36C35.2374 108.349 35.3393 108.301 35.4164 108.223C35.4935 108.146 35.541 108.043 35.5507 107.934C35.5895 106.796 35.6141 105.683 35.7529 104.523C35.7692 104.407 35.8225 104.298 35.9051 104.214C35.9876 104.13 36.0951 104.075 36.2115 104.056C37.3023 103.923 38.3991 103.845 39.4978 103.822C39.5477 103.813 39.599 103.815 39.6478 103.829C39.6965 103.843 39.7413 103.869 39.7783 103.904C39.8153 103.939 39.8436 103.982 39.8608 104.029C39.878 104.077 39.8836 104.128 39.8773 104.179C39.7668 105.449 39.7141 106.287 39.697 107.574C39.6867 107.629 39.6899 107.686 39.7061 107.739C39.7224 107.793 39.7513 107.842 39.7905 107.882C39.8297 107.922 39.8779 107.952 39.9312 107.969C39.9844 107.987 40.041 107.991 40.0963 107.982L43.5768 107.792C43.6335 107.799 43.6882 107.817 43.7372 107.846C43.7862 107.876 43.8285 107.915 43.8611 107.962C43.8938 108.009 43.9161 108.062 43.9266 108.118C43.9372 108.174 43.9356 108.232 43.9221 108.287C43.9401 109.648 43.9846 110.859 44.0399 112.227C44.052 112.285 44.0513 112.346 44.0377 112.405C44.0241 112.463 43.9981 112.518 43.9613 112.565C43.9245 112.613 43.8778 112.652 43.8245 112.679C43.7712 112.707 43.7126 112.723 43.6526 112.726L40.1109 112.664C40.0536 112.663 39.9968 112.674 39.9442 112.697C39.8917 112.719 39.8445 112.753 39.806 112.795C39.7675 112.838 39.7384 112.888 39.7208 112.942C39.7032 112.997 39.6975 113.055 39.7039 113.111C39.7802 114.415 39.794 115.583 39.9119 116.923C39.9256 116.976 39.9254 117.031 39.9115 117.084C39.8977 117.137 39.8705 117.186 39.8326 117.225C39.7947 117.265 39.7474 117.294 39.6951 117.31C39.6427 117.326 39.5871 117.329 39.5336 117.318C38.3847 117.416 37.2291 117.407 36.0819 117.291C35.9641 117.265 35.8567 117.204 35.7728 117.118C35.689 117.031 35.6325 116.921 35.6103 116.803C35.4878 115.597 35.559 114.059 35.5155 112.896C35.5113 112.779 35.4645 112.667 35.384 112.582C35.3035 112.497 35.1947 112.444 35.0779 112.433C33.8974 112.358 32.7236 112.246 31.5827 112.11C31.4652 112.102 31.3548 112.051 31.2722 111.967C31.1896 111.883 31.1405 111.772 31.1341 111.655ZM23.8561 117.389C24.0629 117.146 24.2544 116.882 24.4568 116.61C24.5725 116.493 24.7217 116.415 24.8837 116.387C25.0458 116.359 25.2125 116.382 25.3608 116.453C26.7944 116.995 28.3156 117.269 29.8483 117.261C29.9405 117.261 30.0317 117.28 30.1166 117.316C30.2015 117.353 30.2783 117.405 30.3427 117.471C30.4071 117.537 30.4577 117.616 30.4916 117.701C30.5255 117.787 30.5421 117.879 30.5403 117.971C30.51 118.466 30.4643 118.94 30.4077 119.421C30.3918 119.525 30.3549 119.624 30.2993 119.714C30.2437 119.803 30.1705 119.88 30.0841 119.941C29.9978 120.001 29.9001 120.043 29.797 120.064C29.6939 120.086 29.5875 120.086 29.4843 120.065C27.6547 119.782 25.8944 119.159 24.2943 118.227C23.8532 117.947 23.6933 117.601 23.8561 117.389ZM24.023 99.289C22.857 98.44 21.4689 97.9489 20.0284 97.8757C20.3212 97.3707 20.6396 96.8811 20.9825 96.4086C23.7361 92.739 27.4676 89.9191 31.7495 88.2718C34.5629 87.1829 37.5294 86.541 40.5413 86.3693L38.4389 93.2646C44.1799 92.8703 49.8552 92.3583 55.4519 91.4762C54.1732 95.851 52.7989 100.276 51.3105 104.585C52.2531 105.186 53.21 105.76 54.1516 106.313C52.9951 109.351 51.3314 112.171 49.2313 114.652C49.5634 113.469 49.7386 112.247 49.7523 111.018C49.7621 110.391 49.7387 109.763 49.6823 109.138C49.5941 106.821 48.7571 104.594 47.2966 102.793C45.7424 101.095 43.64 99.9983 41.3582 99.6954C39.0863 99.5368 36.8058 99.8386 34.6533 100.583C34.1732 100.738 33.7074 100.867 33.3009 100.987C31.9646 101.425 30.5906 101.738 29.1966 101.923C27.8029 101.964 27.3298 101.755 26.9304 101.51C26.5577 101.264 26.2004 100.994 25.8607 100.704C25.3418 100.265 24.7406 99.8017 24.0077 99.267L24.023 99.289ZM17.2182 105.935C17.7214 103.377 20.4474 103.207 20.9688 105.851C21.2634 107.281 21.6856 111.89 18.7587 110.32C18.0926 109.819 17.591 109.131 17.3178 108.343C17.0446 107.555 17.0123 106.704 17.2249 105.898L17.2182 105.935Z" fill="white" fill-opacity="0.12"/>
<path d="M106.052 98.7696C106.563 101.389 107.661 103.859 109.263 105.994C110.934 108.142 113.064 109.89 115.498 111.108C117.954 112.378 120.635 113.156 123.39 113.397C124.683 113.528 125.985 113.544 127.281 113.444C128.59 113.315 129.887 113.083 131.16 112.747C133.781 112.088 136.261 110.96 138.482 109.419C141.087 107.547 143.346 105.234 145.156 102.585C147.032 99.9298 148.468 96.9896 149.41 93.8776L149.759 92.6206L146.949 90.9366C148.585 85.7075 150.082 80.4825 151.44 75.2618C145.863 76.1956 140.199 77.0271 134.462 77.4511L136.193 71.077L134.333 70.9197L133.645 70.8935C133.213 70.8842 132.585 70.8976 131.824 70.9548C129.786 71.0951 127.765 71.4121 125.782 71.9022C123.05 72.6373 120.427 73.7314 117.983 75.1558C116.537 76.0288 115.173 77.03 113.908 78.1475C112.482 79.3781 111.181 80.7463 110.023 82.2321C108.262 84.5688 107.001 87.2429 106.318 90.0879C105.635 92.933 105.544 95.8881 106.052 98.7696ZM122.748 99.5728C122.746 98.6096 122.744 97.6464 122.78 96.6899C122.8 96.5921 122.856 96.5056 122.938 96.4485C123.02 96.3914 123.121 96.3679 123.219 96.383L126.743 96.2778C126.852 96.2673 126.954 96.219 127.031 96.1413C127.108 96.0636 127.155 95.9614 127.165 95.8523C127.204 94.7135 127.228 93.601 127.367 92.4414C127.383 92.3247 127.437 92.2162 127.519 92.1321C127.602 92.0479 127.709 91.9926 127.826 91.9742C128.917 91.841 130.013 91.763 131.112 91.7403C131.162 91.7307 131.213 91.7331 131.262 91.7473C131.311 91.7615 131.356 91.787 131.393 91.8217C131.43 91.8565 131.458 91.8995 131.475 91.9473C131.492 91.995 131.498 92.0462 131.492 92.0966C131.381 93.3671 131.328 94.205 131.311 95.4921C131.301 95.5471 131.304 95.6039 131.32 95.6575C131.337 95.711 131.366 95.7599 131.405 95.7999C131.444 95.8399 131.492 95.87 131.545 95.8874C131.599 95.9048 131.655 95.9092 131.711 95.9001L135.191 95.7103C135.248 95.7168 135.302 95.7352 135.351 95.7644C135.4 95.7936 135.443 95.8329 135.475 95.8797C135.508 95.9265 135.53 95.9797 135.541 96.0358C135.551 96.0919 135.55 96.1496 135.536 96.205C135.554 97.5658 135.599 98.7772 135.654 100.145C135.666 100.203 135.666 100.264 135.652 100.323C135.638 100.381 135.612 100.436 135.576 100.483C135.539 100.531 135.492 100.57 135.439 100.597C135.385 100.625 135.327 100.641 135.267 100.644L131.725 100.582C131.668 100.581 131.611 100.592 131.558 100.615C131.506 100.637 131.459 100.671 131.42 100.713C131.382 100.756 131.353 100.806 131.335 100.86C131.317 100.915 131.312 100.973 131.318 101.029C131.394 102.333 131.408 103.501 131.526 104.841C131.54 104.894 131.54 104.949 131.526 105.002C131.512 105.055 131.485 105.104 131.447 105.143C131.409 105.183 131.362 105.212 131.309 105.228C131.257 105.244 131.201 105.247 131.148 105.235C129.999 105.334 128.843 105.325 127.696 105.209C127.578 105.183 127.471 105.122 127.387 105.036C127.303 104.949 127.247 104.839 127.225 104.721C127.102 103.515 127.173 101.977 127.13 100.814C127.126 100.697 127.079 100.585 126.998 100.5C126.918 100.415 126.809 100.362 126.692 100.351C125.512 100.276 124.338 100.163 123.197 100.028C123.079 100.02 122.969 99.9691 122.886 99.8853C122.804 99.8014 122.755 99.6903 122.748 99.5728ZM115.47 105.307C115.677 105.064 115.869 104.8 116.071 104.528C116.187 104.411 116.336 104.333 116.498 104.305C116.66 104.277 116.827 104.3 116.975 104.371C118.409 104.913 119.93 105.187 121.463 105.179C121.555 105.179 121.646 105.198 121.731 105.234C121.816 105.271 121.893 105.323 121.957 105.389C122.021 105.455 122.072 105.534 122.106 105.619C122.14 105.705 122.156 105.797 122.155 105.889C122.124 106.384 122.079 106.858 122.022 107.339C122.006 107.443 121.969 107.542 121.914 107.632C121.858 107.721 121.785 107.798 121.698 107.859C121.612 107.919 121.514 107.961 121.411 107.982C121.308 108.004 121.202 108.004 121.099 107.983C119.269 107.7 117.509 107.077 115.909 106.145C115.467 105.865 115.308 105.519 115.47 105.307ZM115.637 87.207C114.471 86.358 113.083 85.8669 111.643 85.7937C111.935 85.2887 112.254 84.799 112.597 84.3266C115.35 80.657 119.082 77.8371 123.364 76.1898C126.177 75.1009 129.144 74.459 132.156 74.2873L130.053 81.1826C135.794 80.7882 141.469 80.2763 147.066 79.3942C145.787 83.769 144.413 88.1942 142.925 92.5028C143.867 93.1037 144.824 93.6783 145.766 94.2308C144.609 97.2688 142.946 100.089 140.846 102.57C141.178 101.387 141.353 100.165 141.367 98.9364C141.376 98.3089 141.353 97.6812 141.297 97.0561C141.208 94.7386 140.371 92.5122 138.911 90.7106C137.357 89.0128 135.254 87.9163 132.972 87.6133C130.701 87.4548 128.42 87.7566 126.268 88.5006C125.787 88.6559 125.322 88.7849 124.915 88.9051C123.579 89.343 122.205 89.6562 120.811 89.8408C119.417 89.8818 118.944 89.6725 118.545 89.4282C118.172 89.1815 117.815 88.9122 117.475 88.6217C116.956 88.1829 116.355 87.7197 115.622 87.1849L115.637 87.207ZM108.833 93.8532C109.336 91.295 112.062 91.1251 112.583 93.7693C112.878 95.1985 113.3 99.8084 110.373 98.2384C109.707 97.737 109.205 97.0485 108.932 96.2609C108.659 95.4732 108.627 94.622 108.839 93.8159L108.833 93.8532Z" fill="white" fill-opacity="0.12"/>
<path d="M231.938 158.14C232.449 160.759 233.547 163.229 235.15 165.364C236.82 167.513 238.95 169.26 241.384 170.478C243.84 171.749 246.521 172.526 249.276 172.767C250.569 172.898 251.871 172.914 253.167 172.814C254.477 172.686 255.774 172.453 257.046 172.118C259.667 171.458 262.148 170.33 264.368 168.789C266.974 166.917 269.232 164.604 271.042 161.956C272.918 159.3 274.355 156.36 275.297 153.248L275.645 151.991L272.835 150.307C274.471 145.078 275.968 139.853 277.327 134.632C271.75 135.566 266.085 136.397 260.348 136.821L262.079 130.447L260.22 130.29L259.531 130.264C259.1 130.254 258.471 130.268 257.71 130.325C255.673 130.465 253.651 130.782 251.669 131.272C248.936 132.007 246.314 133.101 243.869 134.526C242.424 135.399 241.06 136.4 239.794 137.518C238.368 138.748 237.067 140.116 235.909 141.602C234.148 143.939 232.887 146.613 232.204 149.458C231.521 152.303 231.43 155.258 231.938 158.14ZM248.635 158.943C248.633 157.98 248.631 157.017 248.666 156.06C248.686 155.962 248.742 155.876 248.824 155.819C248.906 155.761 249.007 155.738 249.106 155.753L252.629 155.648C252.738 155.637 252.84 155.589 252.917 155.511C252.994 155.434 253.042 155.331 253.051 155.222C253.09 154.084 253.115 152.971 253.253 151.812C253.27 151.695 253.323 151.586 253.406 151.502C253.488 151.418 253.596 151.363 253.712 151.344C254.803 151.211 255.9 151.133 256.998 151.11C257.048 151.101 257.1 151.103 257.148 151.117C257.197 151.132 257.242 151.157 257.279 151.192C257.316 151.227 257.344 151.27 257.361 151.317C257.378 151.365 257.384 151.416 257.378 151.467C257.267 152.737 257.215 153.575 257.198 154.862C257.187 154.917 257.19 154.974 257.207 155.028C257.223 155.081 257.252 155.13 257.291 155.17C257.33 155.21 257.378 155.24 257.432 155.258C257.485 155.275 257.541 155.279 257.597 155.27L261.077 155.08C261.134 155.087 261.189 155.105 261.238 155.135C261.287 155.164 261.329 155.203 261.362 155.25C261.394 155.297 261.417 155.35 261.427 155.406C261.438 155.462 261.436 155.52 261.423 155.575C261.441 156.936 261.485 158.147 261.54 159.515C261.553 159.573 261.552 159.634 261.538 159.693C261.525 159.751 261.499 159.806 261.462 159.853C261.425 159.901 261.378 159.94 261.325 159.967C261.272 159.995 261.213 160.011 261.153 160.014L257.611 159.952C257.554 159.951 257.497 159.962 257.445 159.985C257.392 160.008 257.345 160.041 257.306 160.084C257.268 160.126 257.239 160.176 257.221 160.231C257.204 160.285 257.198 160.343 257.204 160.4C257.281 161.703 257.294 162.871 257.412 164.211C257.426 164.264 257.426 164.319 257.412 164.372C257.398 164.425 257.371 164.474 257.333 164.513C257.295 164.553 257.248 164.582 257.196 164.598C257.143 164.614 257.088 164.617 257.034 164.606C255.885 164.704 254.73 164.695 253.582 164.579C253.465 164.553 253.357 164.492 253.273 164.406C253.19 164.319 253.133 164.209 253.111 164.091C252.988 162.885 253.059 161.347 253.016 160.184C253.012 160.067 252.965 159.955 252.884 159.87C252.804 159.785 252.695 159.732 252.578 159.721C251.398 159.646 250.224 159.534 249.083 159.398C248.966 159.39 248.855 159.339 248.773 159.255C248.69 159.172 248.641 159.06 248.635 158.943ZM241.357 164.677C241.563 164.435 241.755 164.17 241.957 163.898C242.073 163.781 242.222 163.703 242.384 163.675C242.546 163.647 242.713 163.67 242.861 163.741C244.295 164.283 245.816 164.557 247.349 164.549C247.441 164.549 247.532 164.568 247.617 164.605C247.702 164.641 247.779 164.693 247.843 164.759C247.908 164.825 247.958 164.904 247.992 164.989C248.026 165.075 248.043 165.167 248.041 165.259C248.01 165.754 247.965 166.228 247.908 166.709C247.892 166.813 247.855 166.913 247.8 167.002C247.744 167.091 247.671 167.169 247.585 167.229C247.498 167.289 247.401 167.331 247.297 167.353C247.194 167.374 247.088 167.374 246.985 167.353C245.155 167.07 243.395 166.447 241.795 165.515C241.354 165.235 241.194 164.889 241.357 164.677ZM241.524 146.577C240.357 145.728 238.969 145.237 237.529 145.164C237.822 144.659 238.14 144.169 238.483 143.697C241.237 140.027 244.968 137.207 249.25 135.56C252.063 134.471 255.03 133.829 258.042 133.657L255.939 140.553C261.68 140.158 267.356 139.646 272.952 138.764C271.674 143.139 270.299 147.564 268.811 151.873C269.754 152.474 270.711 153.048 271.652 153.601C270.496 156.639 268.832 159.459 266.732 161.94C267.064 160.757 267.239 159.535 267.253 158.307C267.263 157.679 267.239 157.051 267.183 156.426C267.095 154.109 266.258 151.882 264.797 150.081C263.243 148.383 261.14 147.286 258.859 146.983C256.587 146.825 254.306 147.127 252.154 147.871C251.674 148.026 251.208 148.155 250.801 148.275C249.465 148.713 248.091 149.026 246.697 149.211C245.303 149.252 244.83 149.043 244.431 148.798C244.058 148.552 243.701 148.282 243.361 147.992C242.842 147.553 242.241 147.09 241.508 146.555L241.524 146.577ZM234.719 153.223C235.222 150.665 237.948 150.495 238.469 153.139C238.764 154.569 239.186 159.178 236.259 157.608C235.593 157.107 235.091 156.419 234.818 155.631C234.545 154.843 234.513 153.992 234.725 153.186L234.719 153.223Z" fill="white" fill-opacity="0.12"/>
<path d="M196.507 6.53117C197.018 9.15087 198.116 11.6207 199.718 13.7553C201.389 15.9039 203.519 17.6513 205.953 18.8693C208.409 20.14 211.09 20.9177 213.845 21.1587C215.138 21.2896 216.44 21.3053 217.736 21.2056C219.045 21.077 220.342 20.8441 221.615 20.509C224.236 19.8491 226.716 18.7214 228.937 17.1801C231.542 15.3082 233.801 12.9957 235.611 10.3469C237.487 7.6913 238.923 4.75115 239.865 1.63918L240.214 0.382163L237.403 -1.3019C239.04 -6.53101 240.537 -11.7559 241.895 -16.9766C236.318 -16.0429 230.654 -15.2113 224.917 -14.7874L226.647 -21.1614L224.788 -21.3188L224.1 -21.3449C223.668 -21.3543 223.04 -21.3409 222.279 -21.2837C220.241 -21.1434 218.22 -20.8264 216.237 -20.3362C213.505 -19.6012 210.882 -18.5071 208.438 -17.0827C206.992 -16.2097 205.628 -15.2084 204.362 -14.091C202.937 -12.8603 201.635 -11.4922 200.478 -10.0063C198.717 -7.66962 197.456 -4.99557 196.773 -2.15054C196.089 0.694491 195.999 3.64965 196.507 6.53117ZM213.203 7.3343C213.201 6.37114 213.199 5.40798 213.234 4.45146C213.254 4.35363 213.311 4.26716 213.393 4.21003C213.475 4.15289 213.576 4.12944 213.674 4.14452L217.197 4.03937C217.306 4.02885 217.408 3.98056 217.485 3.90284C217.563 3.82512 217.61 3.72289 217.62 3.61383C217.659 2.475 217.683 1.36251 217.822 0.202948C217.838 0.0861858 217.892 -0.0222651 217.974 -0.106397C218.057 -0.19053 218.164 -0.245868 218.281 -0.264272C219.371 -0.397426 220.468 -0.475506 221.567 -0.498213C221.617 -0.507732 221.668 -0.505324 221.717 -0.491163C221.766 -0.477001 221.81 -0.451489 221.847 -0.416735C221.884 -0.381981 221.913 -0.338977 221.93 -0.291207C221.947 -0.243436 221.953 -0.19227 221.946 -0.141896C221.836 1.12862 221.783 1.96651 221.766 3.25362C221.756 3.30867 221.759 3.36541 221.775 3.41899C221.792 3.47257 221.82 3.52143 221.86 3.56146C221.899 3.60148 221.947 3.63151 222 3.64894C222.053 3.66637 222.11 3.67071 222.165 3.66161L225.646 3.47186C225.703 3.47832 225.757 3.49674 225.806 3.52595C225.855 3.55516 225.898 3.59449 225.93 3.64127C225.963 3.68806 225.985 3.74126 225.996 3.79734C226.006 3.85342 226.005 3.9111 225.991 3.96654C226.009 5.32729 226.054 6.53869 226.109 7.90607C226.121 7.96487 226.12 8.02561 226.107 8.08409C226.093 8.14258 226.067 8.19744 226.03 8.24488C225.994 8.29232 225.947 8.33121 225.894 8.3589C225.84 8.38658 225.782 8.40243 225.722 8.40528L222.18 8.34342C222.123 8.34237 222.066 8.35359 222.013 8.37628C221.961 8.39896 221.914 8.43261 221.875 8.47498C221.837 8.51735 221.808 8.56744 221.79 8.62193C221.772 8.67643 221.767 8.73407 221.773 8.79097C221.849 10.0947 221.863 11.2621 221.981 12.6021C221.995 12.6552 221.995 12.7108 221.981 12.7638C221.967 12.8168 221.94 12.8653 221.902 12.9048C221.864 12.9444 221.816 12.9736 221.764 12.9897C221.712 13.0058 221.656 13.0084 221.603 12.997C220.454 13.0956 219.298 13.0867 218.151 12.9705C218.033 12.9441 217.926 12.8838 217.842 12.7971C217.758 12.7103 217.702 12.6008 217.679 12.4822C217.557 11.2762 217.628 9.7387 217.585 8.57561C217.58 8.45846 217.534 8.3469 217.453 8.26171C217.373 8.17652 217.264 8.12353 217.147 8.11267C215.967 8.03752 214.793 7.92503 213.652 7.78952C213.534 7.78139 213.424 7.73065 213.341 7.64681C213.259 7.56296 213.21 7.45183 213.203 7.3343ZM205.925 13.0684C206.132 12.826 206.323 12.5615 206.526 12.2894C206.642 12.1725 206.791 12.0946 206.953 12.0665C207.115 12.0383 207.282 12.0614 207.43 12.1325C208.864 12.6747 210.385 12.9485 211.917 12.9402C212.01 12.9408 212.101 12.9598 212.186 12.9959C212.271 13.0321 212.347 13.0847 212.412 13.1508C212.476 13.2169 212.527 13.2951 212.561 13.3809C212.595 13.4667 212.611 13.5583 212.609 13.6506C212.579 14.1458 212.533 14.6191 212.477 15.1C212.461 15.2041 212.424 15.3039 212.368 15.3933C212.313 15.4827 212.24 15.5599 212.153 15.6202C212.067 15.6805 211.969 15.7226 211.866 15.7439C211.763 15.7653 211.657 15.7655 211.553 15.7446C209.724 15.4614 207.963 14.8381 206.363 13.9069C205.922 13.6263 205.762 13.2801 205.925 13.0684ZM206.092 -5.03151C204.926 -5.88051 203.538 -6.3716 202.097 -6.44479C202.39 -6.94979 202.709 -7.43944 203.052 -7.91185C205.805 -11.5815 209.537 -14.4014 213.819 -16.0487C216.632 -17.1376 219.599 -17.7795 222.61 -17.9512L220.508 -11.0559C226.249 -11.4502 231.924 -11.9622 237.521 -12.8443C236.242 -8.46948 234.868 -4.0443 233.38 0.264312C234.322 0.865208 235.279 1.43979 236.221 1.99236C235.064 5.03037 233.4 7.85007 231.3 10.3313C231.633 9.14827 231.808 7.92668 231.821 6.69796C231.831 6.0704 231.808 5.44274 231.751 4.81764C231.663 2.50016 230.826 0.273712 229.366 -1.52787C227.811 -3.22569 225.709 -4.32219 223.427 -4.62513C221.155 -4.78368 218.875 -4.48191 216.722 -3.7379C216.242 -3.58259 215.776 -3.4536 215.37 -3.33333C214.034 -2.89547 212.66 -2.58225 211.266 -2.39763C209.872 -2.35666 209.399 -2.56593 208.999 -2.81027C208.627 -3.05698 208.27 -3.32631 207.93 -3.61672C207.411 -4.05561 206.81 -4.5188 206.077 -5.05352L206.092 -5.03151ZM199.287 1.61477C199.79 -0.943464 202.516 -1.11336 203.038 1.5308C203.333 2.96001 203.755 7.5699 200.828 5.99991C200.162 5.49854 199.66 4.81007 199.387 4.02241C199.114 3.23474 199.081 2.38355 199.294 1.57742L199.287 1.61477Z" fill="white" fill-opacity="0.12"/>
<path d="M310.765 57.588C311.276 60.2077 312.374 62.6776 313.976 64.8121C315.647 66.9608 317.777 68.7082 320.211 69.9261C322.667 71.1968 325.348 71.9746 328.103 72.2155C329.396 72.3464 330.698 72.3621 331.994 72.2624C333.303 72.1338 334.6 71.9009 335.873 71.5658C338.494 70.9059 340.974 69.7782 343.195 68.2369C345.8 66.365 348.059 64.0526 349.869 61.4038C351.745 58.7481 353.181 55.808 354.123 52.696L354.472 51.439L351.662 49.7549C353.298 44.5258 354.795 39.3009 356.153 34.0802C350.576 35.014 344.912 35.8455 339.175 36.2694L340.905 29.8954L339.046 29.7381L338.358 29.7119C337.926 29.7025 337.298 29.716 336.537 29.7732C334.499 29.9134 332.478 30.2304 330.495 30.7206C327.763 31.4557 325.14 32.5497 322.696 33.9742C321.25 34.8472 319.886 35.8484 318.62 36.9658C317.195 38.1965 315.894 39.5647 314.736 41.0505C312.975 43.3872 311.714 46.0613 311.031 48.9063C310.347 51.7513 310.257 54.7065 310.765 57.588ZM327.461 58.3911C327.459 57.428 327.457 56.4648 327.493 55.5083C327.512 55.4105 327.569 55.324 327.651 55.2669C327.733 55.2097 327.834 55.1863 327.932 55.2013L331.456 55.0962C331.565 55.0857 331.666 55.0374 331.744 54.9597C331.821 54.8819 331.868 54.7797 331.878 54.6707C331.917 53.5318 331.941 52.4193 332.08 51.2598C332.096 51.143 332.15 51.0346 332.232 50.9504C332.315 50.8663 332.422 50.811 332.539 50.7926C333.629 50.6594 334.726 50.5813 335.825 50.5586C335.875 50.5491 335.926 50.5515 335.975 50.5657C336.024 50.5798 336.068 50.6053 336.105 50.6401C336.142 50.6748 336.171 50.7178 336.188 50.7656C336.205 50.8134 336.211 50.8646 336.204 50.9149C336.094 52.1854 336.041 53.0233 336.024 54.3104C336.014 54.3655 336.017 54.4222 336.033 54.4758C336.05 54.5294 336.078 54.5783 336.118 54.6183C336.157 54.6583 336.205 54.6883 336.258 54.7058C336.312 54.7232 336.368 54.7275 336.423 54.7184L339.904 54.5287C339.961 54.5351 340.015 54.5536 340.064 54.5828C340.113 54.612 340.156 54.6513 340.188 54.6981C340.221 54.7449 340.243 54.7981 340.254 54.8542C340.264 54.9102 340.263 54.9679 340.249 55.0234C340.267 56.3841 340.312 57.5955 340.367 58.9629C340.379 59.0217 340.378 59.0824 340.365 59.1409C340.351 59.1994 340.325 59.2543 340.288 59.3017C340.252 59.3491 340.205 59.388 340.152 59.4157C340.098 59.4434 340.04 59.4593 339.98 59.4621L336.438 59.4002C336.381 59.3992 336.324 59.4104 336.271 59.4331C336.219 59.4558 336.172 59.4894 336.133 59.5318C336.095 59.5742 336.066 59.6243 336.048 59.6788C336.03 59.7333 336.025 59.7909 336.031 59.8478C336.107 61.1515 336.121 62.3189 336.239 63.6589C336.253 63.712 336.253 63.7676 336.239 63.8206C336.225 63.8736 336.198 63.9221 336.16 63.9617C336.122 64.0012 336.075 64.0304 336.022 64.0465C335.97 64.0627 335.914 64.0652 335.861 64.0538C334.712 64.1524 333.556 64.1435 332.409 64.0273C332.291 64.001 332.184 63.9407 332.1 63.8539C332.016 63.7671 331.96 63.6576 331.937 63.539C331.815 62.333 331.886 60.7955 331.843 59.6324C331.838 59.5153 331.792 59.4037 331.711 59.3185C331.631 59.2333 331.522 59.1804 331.405 59.1695C330.225 59.0943 329.051 58.9819 327.91 58.8463C327.792 58.8382 327.682 58.7875 327.599 58.7036C327.517 58.6198 327.468 58.5087 327.461 58.3911ZM320.183 64.1252C320.39 63.8828 320.582 63.6183 320.784 63.3463C320.9 63.2293 321.049 63.1514 321.211 63.1233C321.373 63.0951 321.54 63.1182 321.688 63.1893C323.122 63.7315 324.643 64.0053 326.175 63.997C326.268 63.9976 326.359 64.0166 326.444 64.0528C326.529 64.0889 326.605 64.1415 326.67 64.2076C326.734 64.2737 326.785 64.3519 326.819 64.4377C326.853 64.5235 326.869 64.6152 326.867 64.7074C326.837 65.2027 326.791 65.6759 326.735 66.1569C326.719 66.261 326.682 66.3608 326.626 66.4502C326.571 66.5396 326.498 66.6168 326.411 66.677C326.325 66.7373 326.227 66.7794 326.124 66.8008C326.021 66.8222 325.915 66.8224 325.811 66.8014C323.982 66.5182 322.222 65.8949 320.621 64.9637C320.18 64.6831 320.02 64.337 320.183 64.1252ZM320.35 46.0253C319.184 45.1763 317.796 44.6852 316.356 44.612C316.648 44.107 316.967 43.6174 317.31 43.145C320.063 39.4753 323.795 36.6554 328.077 35.0082C330.89 33.9193 333.857 33.2773 336.868 33.1056L334.766 40.0009C340.507 39.6066 346.182 39.0947 351.779 38.2126C350.5 42.5873 349.126 47.0125 347.638 51.3211C348.58 51.922 349.537 52.4966 350.479 53.0492C349.322 56.0872 347.659 58.9069 345.558 61.3882C345.891 60.2051 346.066 58.9835 346.079 57.7548C346.089 57.1272 346.066 56.4996 346.009 55.8745C345.921 53.557 345.084 51.3305 343.624 49.529C342.07 47.8311 339.967 46.7346 337.685 46.4317C335.413 46.2731 333.133 46.5749 330.98 47.3189C330.5 47.4742 330.035 47.6032 329.628 47.7235C328.292 48.1614 326.918 48.4746 325.524 48.6592C324.13 48.7002 323.657 48.4909 323.258 48.2466C322.885 47.9998 322.528 47.7305 322.188 47.4401C321.669 47.0012 321.068 46.538 320.335 46.0033L320.35 46.0253ZM313.545 52.6716C314.049 50.1134 316.775 49.9435 317.296 52.5876C317.591 54.0168 318.013 58.6267 315.086 57.0567C314.42 56.5554 313.918 55.8669 313.645 55.0792C313.372 54.2916 313.339 53.4404 313.552 52.6342L313.545 52.6716Z" fill="white" fill-opacity="0.12"/>
<path d="M-8.04761 44.4198C-7.53649 47.0395 -6.4385 49.5093 -4.83608 51.6439C-3.16567 53.7925 -1.0354 55.54 1.39842 56.7579C3.8546 58.0286 6.53572 58.8064 9.29062 59.0473C10.5837 59.1782 11.8858 59.1939 13.1816 59.0942C14.491 58.9656 15.7881 58.7327 17.0605 58.3976C19.6816 57.7377 22.162 56.61 24.3825 55.0687C26.988 53.1968 29.2466 50.8844 31.0568 48.2355C32.9327 45.5799 34.3691 42.6398 35.3109 39.5278L35.6596 38.2708L32.8493 36.5867C34.4853 31.3576 35.9826 26.1327 37.3411 20.912C31.7641 21.8458 26.0993 22.6773 20.3627 23.1012L22.0932 16.7272L20.2341 16.5698L19.5455 16.5437C19.1139 16.5343 18.4857 16.5477 17.7246 16.6049C15.6871 16.7452 13.6656 17.0622 11.683 17.5524C8.95074 18.2874 6.32801 19.3815 3.88333 20.8059C2.43797 21.6789 1.07409 22.6802 -0.19183 23.7976C-1.61765 25.0283 -2.91874 26.3964 -4.07626 27.8823C-5.83715 30.219 -7.09845 32.893 -7.78165 35.7381C-8.46486 38.5831 -8.55539 41.5383 -8.04761 44.4198ZM8.64899 45.2229C8.64698 44.2597 8.64497 43.2966 8.68029 42.3401C8.70016 42.2422 8.7569 42.1558 8.83876 42.0986C8.92062 42.0415 9.02134 42.018 9.12002 42.0331L12.6433 41.928C12.7523 41.9175 12.8542 41.8692 12.9313 41.7915C13.0084 41.7137 13.0559 41.6115 13.0656 41.5024C13.1044 40.3636 13.129 39.2511 13.2678 38.0916C13.2841 37.9748 13.3374 37.8663 13.42 37.7822C13.5025 37.6981 13.61 37.6427 13.7264 37.6243C14.8172 37.4912 15.914 37.4131 17.0127 37.3904C17.0626 37.3809 17.1139 37.3833 17.1627 37.3974C17.2114 37.4116 17.2562 37.4371 17.2932 37.4719C17.3302 37.5066 17.3585 37.5496 17.3757 37.5974C17.3929 37.6452 17.3985 37.6963 17.3922 37.7467C17.2817 39.0172 17.229 39.8551 17.2119 41.1422C17.2016 41.1973 17.2048 41.254 17.221 41.3076C17.2373 41.3612 17.2662 41.41 17.3054 41.4501C17.3446 41.4901 17.3928 41.5201 17.446 41.5375C17.4993 41.555 17.5559 41.5593 17.6112 41.5502L21.0917 41.3605C21.1484 41.3669 21.2031 41.3854 21.2521 41.4146C21.3011 41.4438 21.3434 41.4831 21.376 41.5299C21.4087 41.5767 21.431 41.6299 21.4415 41.686C21.4521 41.742 21.4505 41.7997 21.437 41.8552C21.455 43.2159 21.4995 44.4273 21.5548 45.7947C21.5669 45.8535 21.5662 45.9142 21.5526 45.9727C21.539 46.0312 21.513 46.0861 21.4762 46.1335C21.4394 46.1809 21.3927 46.2198 21.3394 46.2475C21.2861 46.2752 21.2275 46.291 21.1675 46.2939L17.6258 46.232C17.5685 46.231 17.5117 46.2422 17.4591 46.2649C17.4065 46.2876 17.3594 46.3212 17.3209 46.3636C17.2823 46.406 17.2533 46.456 17.2357 46.5105C17.2181 46.565 17.2124 46.6227 17.2188 46.6796C17.2951 47.9833 17.3089 49.1507 17.4268 50.4907C17.4404 50.5438 17.4403 50.5994 17.4264 50.6524C17.4126 50.7054 17.3854 50.7539 17.3475 50.7935C17.3096 50.833 17.2623 50.8622 17.21 50.8783C17.1576 50.8945 17.102 50.897 17.0485 50.8856C15.8996 50.9842 14.744 50.9753 13.5968 50.8591C13.479 50.8327 13.3716 50.7724 13.2877 50.6857C13.2039 50.5989 13.1474 50.4894 13.1252 50.3708C13.0027 49.1648 13.0739 47.6273 13.0304 46.4642C13.0262 46.3471 12.9794 46.2355 12.8989 46.1503C12.8184 46.0651 12.7096 46.0121 12.5928 46.0013C11.4123 45.9261 10.2385 45.8136 9.09756 45.6781C8.98013 45.67 8.86972 45.6193 8.7871 45.5354C8.70449 45.4516 8.65538 45.3404 8.64899 45.2229ZM1.371 50.957C1.57779 50.7146 1.76925 50.4501 1.97169 50.178C2.08736 50.0611 2.2366 49.9832 2.39863 49.9551C2.56067 49.9269 2.72742 49.95 2.87573 50.0211C4.30933 50.5633 5.83047 50.8371 7.36316 50.8288C7.4554 50.8294 7.54662 50.8484 7.63149 50.8846C7.71636 50.9207 7.79321 50.9733 7.85758 51.0394C7.92195 51.1055 7.97257 51.1837 8.0065 51.2695C8.04043 51.3553 8.05696 51.4469 8.0552 51.5392C8.02489 52.0344 7.97924 52.5077 7.92259 52.9887C7.90669 53.0927 7.86981 53.1925 7.81419 53.2819C7.75857 53.3714 7.68536 53.4486 7.59902 53.5088C7.51267 53.5691 7.415 53.6112 7.31189 53.6326C7.20879 53.6539 7.1024 53.6541 6.99921 53.6332C5.16964 53.35 3.40927 52.7267 1.80916 51.7955C1.36805 51.5149 1.20817 51.1687 1.371 50.957ZM1.53791 32.8571C0.37186 32.0081 -1.01618 31.517 -2.45671 31.4438C-2.16393 30.9388 -1.84547 30.4492 -1.50258 29.9768C1.25102 26.3071 4.98247 23.4872 9.26443 21.84C12.0778 20.7511 15.0443 20.1091 18.0562 19.9374L15.9537 26.8327C21.6948 26.4384 27.3701 25.9265 32.9668 25.0443C31.6881 29.4191 30.3138 33.8443 28.8254 38.1529C29.768 38.7538 30.7249 39.3284 31.6665 39.881C30.51 42.919 28.8463 45.7387 26.7462 48.22C27.0783 47.0369 27.2535 45.8153 27.2672 44.5866C27.277 43.959 27.2536 43.3313 27.1972 42.7063C27.109 40.3888 26.272 38.1623 24.8115 36.3607C23.2572 34.6629 21.1549 33.5664 18.8731 33.2635C16.6012 33.1049 14.3207 33.4067 12.1682 34.1507C11.6881 34.306 11.2223 34.435 10.8158 34.5553C9.47947 34.9931 8.1055 35.3064 6.71146 35.491C5.31774 35.532 4.84471 35.3227 4.44528 35.0783C4.07257 34.8316 3.71532 34.5623 3.37556 34.2719C2.85668 33.833 2.25546 33.3698 1.52255 32.8351L1.53791 32.8571ZM-5.26686 39.5034C-4.76375 36.9451 -2.03772 36.7753 -1.51628 39.4194C-1.22166 40.8486 -0.799495 45.4585 -3.72641 43.8885C-4.3925 43.3871 -4.89413 42.6987 -5.16731 41.911C-5.4405 41.1234 -5.47286 40.2722 -5.26025 39.466L-5.26686 39.5034Z" fill="white" fill-opacity="0.12"/>
<path d="M219.499 123.537C219.443 126.205 218.783 128.827 217.568 131.203C216.289 133.606 214.489 135.691 212.299 137.307C210.095 138.978 207.586 140.202 204.913 140.91C203.661 141.26 202.381 141.498 201.087 141.621C199.775 141.718 198.457 141.71 197.147 141.597C194.451 141.394 191.815 140.706 189.364 139.567C186.477 138.167 183.856 136.275 181.621 133.974C179.319 131.677 177.401 129.026 175.942 126.12L175.384 124.941L177.865 122.802C175.361 117.929 172.993 113.037 170.763 108.124C176.418 108.092 182.141 107.944 187.866 107.382L185.072 101.398L186.877 100.925L187.551 100.782C187.975 100.699 188.596 100.605 189.356 100.531C191.388 100.321 193.434 100.289 195.471 100.433C198.288 100.691 201.059 101.321 203.711 102.307C205.285 102.92 206.799 103.674 208.238 104.559C209.853 105.528 211.368 106.654 212.762 107.92C214.896 109.922 216.596 112.342 217.755 115.028C218.914 117.715 219.507 120.611 219.499 123.537ZM203.185 127.179C203.022 126.23 202.86 125.281 202.662 124.344C202.626 124.251 202.555 124.176 202.464 124.133C202.374 124.091 202.271 124.085 202.176 124.117L198.687 124.615C198.577 124.623 198.469 124.593 198.38 124.529C198.29 124.466 198.226 124.373 198.198 124.268C197.965 123.152 197.751 122.06 197.416 120.941C197.38 120.829 197.309 120.731 197.213 120.662C197.118 120.594 197.002 120.557 196.885 120.559C195.787 120.614 194.693 120.725 193.607 120.89C193.556 120.889 193.506 120.9 193.46 120.922C193.414 120.945 193.375 120.977 193.344 121.018C193.314 121.059 193.293 121.106 193.284 121.156C193.275 121.206 193.279 121.257 193.294 121.306C193.619 122.539 193.814 123.355 194.051 124.621C194.07 124.673 194.077 124.73 194.07 124.785C194.063 124.841 194.043 124.894 194.011 124.94C193.98 124.986 193.937 125.024 193.888 125.05C193.838 125.076 193.783 125.09 193.727 125.091L190.265 125.498C190.211 125.514 190.16 125.542 190.117 125.579C190.073 125.616 190.038 125.662 190.014 125.714C189.99 125.765 189.977 125.821 189.976 125.879C189.975 125.936 189.987 125.992 190.01 126.044C190.224 127.388 190.387 128.589 190.566 129.946C190.564 130.006 190.575 130.066 190.599 130.121C190.622 130.177 190.657 130.226 190.702 130.267C190.746 130.307 190.799 130.337 190.856 130.356C190.913 130.374 190.973 130.379 191.033 130.372L194.512 129.706C194.568 129.695 194.626 129.697 194.682 129.71C194.738 129.724 194.79 129.749 194.835 129.784C194.88 129.819 194.917 129.863 194.944 129.914C194.971 129.965 194.986 130.021 194.99 130.078C195.137 131.375 195.323 132.528 195.435 133.868C195.431 133.923 195.441 133.978 195.463 134.028C195.486 134.078 195.521 134.121 195.565 134.153C195.609 134.186 195.661 134.206 195.715 134.213C195.77 134.22 195.825 134.213 195.876 134.193C197.025 134.094 198.162 133.888 199.272 133.577C199.384 133.531 199.479 133.454 199.547 133.354C199.615 133.254 199.652 133.136 199.653 133.016C199.568 131.807 199.235 130.304 199.08 129.15C199.064 129.034 199.091 128.916 199.156 128.819C199.221 128.721 199.319 128.65 199.432 128.62C200.582 128.344 201.72 128.033 202.821 127.704C202.935 127.676 203.035 127.607 203.102 127.511C203.169 127.414 203.199 127.296 203.185 127.179ZM211.335 131.586C211.09 131.383 210.856 131.155 210.61 130.921C210.476 130.826 210.316 130.775 210.151 130.775C209.987 130.775 209.827 130.826 209.693 130.921C208.373 131.7 206.921 132.23 205.409 132.483C205.318 132.5 205.232 132.534 205.154 132.584C205.077 132.634 205.01 132.699 204.958 132.775C204.906 132.851 204.869 132.937 204.85 133.027C204.832 133.118 204.831 133.211 204.848 133.301C204.963 133.784 205.089 134.243 205.227 134.707C205.26 134.807 205.313 134.899 205.383 134.977C205.454 135.056 205.539 135.12 205.634 135.164C205.73 135.209 205.833 135.234 205.938 135.237C206.044 135.241 206.148 135.223 206.246 135.184C208.001 134.593 209.629 133.678 211.047 132.487C211.433 132.136 211.532 131.767 211.335 131.586ZM208.08 113.781C209.084 112.745 210.368 112.024 211.775 111.706C211.4 111.259 211.003 110.831 210.584 110.424C207.244 107.278 203.086 105.137 198.586 104.245C195.628 103.652 192.595 103.526 189.598 103.871L192.847 110.306C187.123 110.898 181.444 111.363 175.779 111.449C177.786 115.541 179.895 119.667 182.098 123.658C181.271 124.411 180.427 125.141 179.593 125.846C181.252 128.642 183.372 131.136 185.865 133.222C185.336 132.113 184.955 130.94 184.731 129.731C184.615 129.115 184.53 128.492 184.479 127.867C184.171 125.568 184.615 123.231 185.746 121.207C186.988 119.269 188.872 117.829 191.069 117.141C193.28 116.597 195.579 116.505 197.827 116.871C198.326 116.942 198.807 116.989 199.228 117.038C200.62 117.241 202.027 117.316 203.432 117.259C204.812 117.062 205.243 116.775 205.595 116.466C205.92 116.159 206.226 115.833 206.511 115.489C206.947 114.968 207.461 114.409 208.091 113.757L208.08 113.781ZM215.92 119.168C214.987 116.733 212.272 117.031 212.21 119.725C212.164 121.184 212.535 125.798 215.151 123.751C215.721 123.144 216.098 122.38 216.233 121.557C216.367 120.734 216.254 119.89 215.907 119.132L215.92 119.168Z" fill="white" fill-opacity="0.12"/>
<path d="M305.419 23.0577C305.363 25.7262 304.703 28.3473 303.488 30.7241C302.209 33.1264 300.409 35.2119 298.218 36.8276C296.015 38.499 293.506 39.7231 290.833 40.4309C289.581 40.7807 288.301 41.0185 287.007 41.1415C285.695 41.2384 284.377 41.2303 283.066 41.1174C280.371 40.9148 277.735 40.2272 275.284 39.0877C272.397 37.6881 269.776 35.7953 267.54 33.4945C265.239 31.1981 263.321 28.5464 261.862 25.641L261.304 24.462L263.785 22.3228C261.28 17.4498 258.913 12.5573 256.683 7.6452C262.338 7.61299 268.061 7.46504 273.786 6.90325L270.992 0.918297L272.797 0.445824L273.471 0.302466C273.895 0.219548 274.516 0.125528 275.276 0.0519136C277.308 -0.157751 279.353 -0.190566 281.391 -0.0461671C284.208 0.211595 286.979 0.841766 289.631 1.82786C291.205 2.44124 292.719 3.19491 294.157 4.07976C295.772 5.04891 297.288 6.17482 298.682 7.44118C300.816 9.44292 302.516 11.8623 303.675 14.5489C304.834 17.2355 305.427 20.1318 305.419 23.0577ZM289.105 26.7C288.942 25.7506 288.78 24.8013 288.582 23.8648C288.545 23.7718 288.475 23.6963 288.384 23.654C288.294 23.6117 288.191 23.6058 288.096 23.6375L284.607 24.1355C284.497 24.1437 284.389 24.1135 284.299 24.0501C284.21 23.9867 284.146 23.8941 284.118 23.7883C283.885 22.6728 283.671 21.5808 283.336 20.462C283.3 20.3497 283.229 20.252 283.133 20.1832C283.038 20.1144 282.922 20.0782 282.805 20.08C281.707 20.135 280.613 20.2454 279.527 20.4106C279.476 20.4097 279.426 20.4209 279.38 20.4431C279.334 20.4654 279.295 20.4982 279.264 20.5388C279.234 20.5793 279.213 20.6265 279.204 20.6765C279.195 20.7265 279.199 20.7779 279.213 20.8265C279.539 22.0595 279.734 22.876 279.971 24.1413C279.99 24.1938 279.997 24.2503 279.99 24.3058C279.983 24.3614 279.963 24.4145 279.931 24.4606C279.9 24.5067 279.857 24.5446 279.808 24.5708C279.758 24.5971 279.703 24.611 279.647 24.6115L276.185 25.0188C276.131 25.0349 276.08 25.0624 276.036 25.0995C275.993 25.1367 275.958 25.1826 275.934 25.2343C275.91 25.286 275.897 25.3422 275.896 25.3993C275.895 25.4563 275.907 25.5129 275.93 25.5652C276.144 26.909 276.307 28.1103 276.486 29.467C276.484 29.527 276.495 29.5867 276.519 29.642C276.542 29.6973 276.577 29.7469 276.621 29.7874C276.666 29.8279 276.718 29.8582 276.776 29.8764C276.833 29.8946 276.893 29.9002 276.953 29.8928L280.432 29.2271C280.488 29.2162 280.546 29.2176 280.602 29.231C280.658 29.2443 280.71 29.2694 280.755 29.3046C280.8 29.3398 280.837 29.3842 280.864 29.4349C280.891 29.4856 280.906 29.5414 280.91 29.5985C281.057 30.8961 281.243 32.0488 281.355 33.3892C281.351 33.4438 281.361 33.4986 281.383 33.5485C281.406 33.5983 281.441 33.6415 281.485 33.674C281.529 33.7065 281.581 33.7272 281.635 33.7341C281.69 33.7411 281.745 33.7341 281.796 33.7137C282.944 33.6147 284.081 33.4086 285.192 33.0982C285.304 33.0521 285.399 32.9744 285.467 32.8746C285.535 32.7747 285.572 32.6572 285.573 32.5366C285.488 31.3274 285.155 29.8246 285 28.6712C284.984 28.555 285.011 28.4371 285.076 28.3394C285.14 28.2417 285.239 28.171 285.352 28.1403C286.502 27.8647 287.64 27.5534 288.741 27.2251C288.855 27.1971 288.955 27.1282 289.022 27.0315C289.089 26.9348 289.119 26.8169 289.105 26.7ZM297.255 31.1072C297.01 30.9036 296.776 30.6757 296.53 30.4422C296.396 30.3468 296.236 30.2954 296.071 30.2954C295.907 30.2954 295.747 30.3466 295.613 30.4419C294.293 31.2209 292.841 31.7504 291.329 32.004C291.238 32.0204 291.152 32.0546 291.074 32.1047C290.997 32.1549 290.93 32.2198 290.878 32.2959C290.826 32.372 290.789 32.4577 290.77 32.5481C290.752 32.6384 290.751 32.7315 290.768 32.8221C290.883 33.3049 291.009 33.7634 291.147 34.2276C291.18 34.3275 291.233 34.4195 291.303 34.4981C291.373 34.5767 291.459 34.6403 291.554 34.6849C291.65 34.7296 291.753 34.7544 291.858 34.7578C291.963 34.7613 292.068 34.7433 292.166 34.7051C293.921 34.1137 295.549 33.1989 296.966 32.0082C297.353 31.6563 297.452 31.288 297.255 31.1072ZM294 13.3016C295.004 12.2659 296.288 11.545 297.695 11.227C297.32 10.7794 296.923 10.3513 296.504 9.94437C293.164 6.79879 289.006 4.65741 284.506 3.7655C281.548 3.17297 278.515 3.04697 275.518 3.3921L278.767 9.82711C273.043 10.4189 267.364 10.8835 261.699 10.97C263.706 15.0622 265.815 19.1877 268.017 23.1789C267.191 23.9319 266.347 24.6615 265.513 25.3667C267.171 28.1626 269.292 30.6568 271.785 32.7431C271.256 31.6341 270.875 30.4604 270.651 29.252C270.535 28.6353 270.45 28.0129 270.399 27.3874C270.09 25.0888 270.535 22.7522 271.666 20.7277C272.908 18.7894 274.792 17.35 276.989 16.6619C279.2 16.1178 281.499 16.0257 283.747 16.3913C284.246 16.4623 284.727 16.5099 285.148 16.559C286.54 16.7622 287.947 16.8363 289.352 16.7801C290.732 16.5825 291.163 16.2956 291.515 15.9866C291.84 15.6799 292.146 15.3535 292.431 15.0094C292.867 14.4883 293.381 13.9293 294.011 13.2773L294 13.3016ZM301.84 18.6883C300.907 16.2536 298.192 16.5516 298.13 19.246C298.084 20.7045 298.455 25.3188 301.071 23.2721C301.641 22.6644 302.018 21.9004 302.153 21.0776C302.287 20.2549 302.174 19.4107 301.827 18.6527L301.84 18.6883Z" fill="white" fill-opacity="0.12"/>
<path d="M100.839 60.9476C100.783 63.6161 100.123 66.2371 98.9081 68.614C97.6291 71.0163 95.8285 73.1018 93.6384 74.7174C91.4353 76.3888 88.9263 77.6129 86.253 78.3207C85.0013 78.6705 83.721 78.9083 82.4272 79.0313C81.115 79.1282 79.7972 79.1202 78.4863 79.0073C75.791 78.8046 73.1544 78.117 70.7035 76.9775C67.8166 75.578 65.1962 73.6851 62.9604 71.3843C60.6586 69.088 58.7413 66.4363 57.2819 63.5308L56.7237 62.3518L59.2052 60.2126C56.7003 55.3396 54.3329 50.4471 52.1029 45.535C57.7575 45.5028 63.481 45.3549 69.2058 44.7931L66.4123 38.8081L68.2173 38.3357L68.8913 38.1923C69.3149 38.1094 69.9362 38.0154 70.6959 37.9417C72.7275 37.7321 74.7734 37.6993 76.8106 37.8437C79.6282 38.1014 82.3992 38.7316 85.0512 39.7177C86.6244 40.3311 88.1392 41.0847 89.5774 41.9696C91.1924 42.9387 92.708 44.0647 94.1022 45.331C96.2362 47.3327 97.9356 49.7522 99.0946 52.4388C100.254 55.1254 100.847 58.0217 100.839 60.9476ZM84.5247 64.5898C84.3622 63.6405 84.1998 62.6911 84.0016 61.7546C83.9654 61.6617 83.8947 61.5861 83.8043 61.5438C83.7139 61.5015 83.6106 61.4956 83.516 61.5273L80.0265 62.0253C79.9173 62.0335 79.8086 62.0033 79.7194 61.9399C79.6301 61.8765 79.5659 61.7839 79.5377 61.6781C79.305 60.5626 79.0908 59.4707 78.756 58.3518C78.7201 58.2396 78.6491 58.1418 78.5533 58.073C78.4576 58.0042 78.3423 57.968 78.2244 57.9698C77.1269 58.0248 76.0329 58.1352 74.9465 58.3004C74.8957 58.2995 74.8455 58.3107 74.7999 58.333C74.7542 58.3552 74.7145 58.388 74.684 58.4286C74.6534 58.4692 74.6329 58.5164 74.6241 58.5664C74.6153 58.6164 74.6185 58.6677 74.6334 58.7163C74.9591 59.9493 75.1542 60.7659 75.3908 62.0312C75.4103 62.0836 75.4169 62.1401 75.41 62.1957C75.4031 62.2512 75.383 62.3043 75.3512 62.3504C75.3195 62.3966 75.277 62.4344 75.2276 62.4607C75.1781 62.4869 75.1231 62.5009 75.0671 62.5013L71.6052 62.9087C71.5505 62.9247 71.4997 62.9522 71.4564 62.9893C71.4131 63.0265 71.3782 63.0725 71.354 63.1241C71.3298 63.1758 71.3169 63.232 71.3161 63.2891C71.3153 63.3462 71.3267 63.4027 71.3495 63.455C71.5641 64.7989 71.7271 66.0001 71.9061 67.3568C71.9042 67.4168 71.9153 67.4766 71.9386 67.5319C71.962 67.5872 71.997 67.6368 72.0414 67.6772C72.0858 67.7177 72.1384 67.748 72.1956 67.7662C72.2528 67.7844 72.3133 67.79 72.3729 67.7826L75.8521 67.1169C75.9083 67.1061 75.9662 67.1074 76.0219 67.1208C76.0776 67.1342 76.1298 67.1593 76.175 67.1944C76.2202 67.2296 76.2573 67.274 76.284 67.3247C76.3106 67.3754 76.3261 67.4312 76.3294 67.4884C76.4769 68.786 76.6627 69.9386 76.7753 71.2791C76.7709 71.3337 76.7805 71.3885 76.8032 71.4383C76.826 71.4881 76.861 71.5313 76.9051 71.5638C76.9492 71.5963 77.0008 71.617 77.0551 71.624C77.1094 71.6309 77.1646 71.6239 77.2155 71.6036C78.3643 71.5045 79.5014 71.2985 80.612 70.988C80.7235 70.942 80.8191 70.8642 80.8868 70.7644C80.9546 70.6646 80.9916 70.5471 80.9933 70.4264C80.9081 69.2172 80.5753 67.7145 80.4196 66.561C80.4038 66.4449 80.4308 66.327 80.4956 66.2293C80.5604 66.1316 80.6585 66.0608 80.7717 66.0302C81.922 65.7545 83.0595 65.4433 84.1605 65.1149C84.2748 65.0869 84.3749 65.018 84.442 64.9213C84.5091 64.8246 84.5385 64.7067 84.5247 64.5898ZM92.6749 68.997C92.4298 68.7934 92.196 68.5656 91.95 68.332C91.8161 68.2366 91.6558 68.1853 91.4913 68.1852C91.3268 68.1852 91.1665 68.2364 91.0325 68.3317C89.7125 69.1108 88.2605 69.6403 86.7489 69.8938C86.6581 69.9102 86.5714 69.9445 86.494 69.9946C86.4165 70.0447 86.3498 70.1097 86.2977 70.1858C86.2455 70.2619 86.209 70.3476 86.1902 70.4379C86.1714 70.5282 86.1708 70.6214 86.1883 70.7119C86.3027 71.1948 86.4285 71.6533 86.5664 72.1175C86.5999 72.2173 86.6533 72.3094 86.7233 72.388C86.7934 72.4666 86.8787 72.5301 86.9741 72.5748C87.0694 72.6194 87.1729 72.6442 87.2781 72.6477C87.3834 72.6511 87.4882 72.6332 87.5863 72.5949C89.3407 72.0035 90.9688 71.0888 92.3864 69.898C92.7731 69.5462 92.8715 69.1778 92.6749 68.997ZM89.4199 51.1914C90.4239 50.1558 91.7077 49.4349 93.1146 49.1168C92.7399 48.6692 92.3425 48.2411 91.924 47.8342C88.5842 44.6886 84.4261 42.5472 79.9257 41.6553C76.9677 41.0628 73.9352 40.9368 70.9382 41.2819L74.1871 47.7169C68.4631 48.3087 62.7837 48.7733 57.1186 48.8598C59.1255 52.952 61.2352 57.0775 63.4374 61.0687C62.6113 61.8218 61.7665 62.5513 60.9331 63.2565C62.5914 66.0524 64.7121 68.5467 67.205 70.6329C66.6757 69.5239 66.2946 68.3502 66.0712 67.1418C65.9545 66.5252 65.8703 65.9027 65.8191 65.2772C65.5104 62.9787 65.955 60.642 67.0863 58.6175C68.3279 56.6792 70.2121 55.2399 72.4087 54.5518C74.6202 54.0076 76.9187 53.9156 79.1666 54.2811C79.6662 54.3522 80.1472 54.3997 80.5683 54.4488C81.9597 54.6521 83.367 54.7261 84.7721 54.67C86.1523 54.4724 86.5827 54.1854 86.9345 53.8764C87.2596 53.5697 87.5657 53.2433 87.8508 52.8992C88.2872 52.3781 88.8005 51.8191 89.4313 51.1671L89.4199 51.1914ZM97.2596 56.5782C96.3271 54.1434 93.6121 54.4415 93.5498 57.1358C93.5035 58.5944 93.8747 63.2086 96.4905 61.1619C97.0612 60.5542 97.4379 59.7902 97.5726 58.9674C97.7073 58.1447 97.5939 57.3005 97.2467 56.5425L97.2596 56.5782Z" fill="white" fill-opacity="0.12"/>
</g>
<path fill-rule="evenodd" clip-rule="evenodd" d="M182.909 59.4259C182.975 59.2905 183.054 59.1621 183.144 59.0413C184.136 57.7048 184.723 56.0494 184.723 54.2571C184.723 49.8197 181.126 46.2225 176.689 46.2225C174.929 46.2225 173.301 46.7884 171.977 47.7482C170.716 48.6628 168.505 48.6695 167.238 47.7625C165.922 46.82 164.309 46.2653 162.566 46.2653C158.129 46.2653 154.532 49.8625 154.532 54.2998C154.532 55.9743 155.044 57.529 155.92 58.8161C155.994 58.9238 156.058 59.0352 156.114 59.1532C157.149 61.3562 160.99 67.931 169.578 67.931C175.565 67.931 180.466 64.4664 182.909 59.4259ZM161.457 51.4498C161.457 51.2946 161.582 51.1688 161.738 51.1688H163.895C164.05 51.1688 164.176 51.2946 164.176 51.4498V53.6923H166.744C166.9 53.6923 167.025 53.8181 167.025 53.9732V56.1307C167.025 56.2858 166.9 56.4116 166.744 56.4116H164.176V58.6534C164.176 58.8085 164.05 58.9343 163.895 58.9343H161.738C161.582 58.9343 161.457 58.8085 161.457 58.6534V56.4116H158.89C158.734 56.4116 158.609 56.2858 158.609 56.1307V53.9732C158.609 53.8181 158.734 53.6923 158.89 53.6923H161.457V51.4498ZM179.622 54.7463C179.622 56.2826 178.377 57.528 176.841 57.528C175.304 57.528 174.059 56.2826 174.059 54.7463C174.059 53.2101 175.304 51.9647 176.841 51.9647C178.377 51.9647 179.622 53.2101 179.622 54.7463ZM167.909 62.9527C168.767 63.1352 170.202 63.2623 171.831 62.9303C172.136 62.868 172.445 63.0474 172.523 63.3493L172.672 63.9306C172.731 64.1618 172.639 64.4077 172.423 64.5086C171.307 65.0294 169.022 65.3974 167.251 64.5279C167.021 64.4151 166.925 64.146 167.002 63.9018L167.175 63.3546C167.271 63.0521 167.599 62.8868 167.909 62.9527Z" fill="white"/>
<path d="M182.775 46.9901H185.895C187.292 46.9901 188.424 48.1222 188.424 49.5188V56.4656C188.424 57.8621 187.292 58.9942 185.895 58.9942H182.775V46.9901Z" fill="white"/>
<path d="M156.649 46.9901H153.529C152.132 46.9901 151 48.1222 151 49.5188V56.4656C151 57.8621 152.132 58.9942 153.529 58.9942H156.649V46.9901Z" fill="white"/>
<path d="M185.247 58.0687C185.298 64.0519 180.657 72.0256 169.659 72.0256" stroke="white" stroke-width="2.8245"/>
<rect x="166.534" y="69.7195" width="7.06125" height="4.94288" rx="2.47144" fill="white"/>
<path fill-rule="evenodd" clip-rule="evenodd" d="M170.248 27L177.122 36.416L180.176 33.7132C180.652 34.309 181.146 34.892 181.595 35.5089C181.747 35.7174 181.957 36.0173 182.207 36.4011C182.706 37.1677 183.363 38.2739 184.02 39.6584C185.328 42.418 186.659 46.343 186.659 50.9161H183.128C183.128 47.0194 181.99 43.6191 180.83 41.1709C180.406 40.278 179.984 39.5198 179.62 38.9198L176.557 41.6305L170.321 33.088L164.441 41.562L160.484 38.481C160.063 39.1998 159.557 40.1404 159.062 41.2466C157.863 43.9273 156.787 47.4558 157.039 51.1061L153.517 51.3494C153.209 46.8974 154.516 42.7621 155.839 39.8046C156.506 38.3139 157.192 37.0909 157.713 36.2364C158.317 35.2461 159.01 34.3266 159.698 33.3938L163.667 36.4846L170.248 27Z" fill="white"/>
<path d="M204.599 61.8312V57.5766L211.28 50.5802C212.099 49.6977 212.677 48.9413 213.013 48.311C213.37 47.6807 213.549 47.0504 213.549 46.4201C213.549 44.8233 212.53 44.0249 210.492 44.0249C209.652 44.0249 208.79 44.1825 207.908 44.4977C207.046 44.8128 206.185 45.2961 205.323 45.9474L203.527 41.7243C204.494 40.9679 205.66 40.3691 207.025 39.9279C208.412 39.4867 209.841 39.2661 211.311 39.2661C213.875 39.2661 215.829 39.8229 217.173 40.9364C218.539 42.05 219.222 43.6573 219.222 45.7583C219.222 47.1029 218.917 48.3951 218.308 49.6347C217.699 50.8533 216.68 52.1559 215.251 53.5426L211.658 57.1354H220.041V61.8312H204.599ZM231.311 61.8312V58.1124H222.298V54.0469L232.225 39.6128H236.89V53.7317H239.789V58.1124H236.89V61.8312H231.311ZM231.311 53.7317V47.7753L227.309 53.7317H231.311ZM246.174 64.3839L242.077 63.1863L250.303 37.5643L254.4 38.7934L246.174 64.3839ZM257.95 61.8312L267.593 44.3401H257.508V39.6128H273.928V43.9619L264.284 61.8312H257.95Z" fill="white"/>
<g filter="url(#filter1_f_8_293)">
<rect x="-73.0391" y="61" width="285.769" height="152.62" transform="rotate(18.7114 -73.0391 61)" fill="url(#paint1_linear_8_293)"/>
</g>
</g>
<rect x="0.5" y="0.5" width="305" height="137" rx="15.5" stroke="#39FD64"/>
<defs>
<filter id="filter0_f_8_293" x="136.198" y="-326.529" width="500.966" height="448.109" filterUnits="userSpaceOnUse" color-interpolation-filters="sRGB">
<feFlood flood-opacity="0" result="BackgroundImageFix"/>
<feBlend mode="normal" in="SourceGraphic" in2="BackgroundImageFix" result="shape"/>
<feGaussianBlur stdDeviation="40.676" result="effect1_foregroundBlur_8_293"/>
</filter>
<filter id="filter1_f_8_293" x="-199.895" y="-16.8947" width="475.415" height="392.018" filterUnits="userSpaceOnUse" color-interpolation-filters="sRGB">
<feFlood flood-opacity="0" result="BackgroundImageFix"/>
<feBlend mode="normal" in="SourceGraphic" in2="BackgroundImageFix" result="shape"/>
<feGaussianBlur stdDeviation="38.9473" result="effect1_foregroundBlur_8_293"/>
</filter>
<linearGradient id="paint0_linear_8_293" x1="444.706" y1="-292.405" x2="434.707" y2="-101.801" gradientUnits="userSpaceOnUse">
<stop stop-color="#39FD64" stop-opacity="0.31"/>
<stop offset="1" stop-color="#39FD64"/>
</linearGradient>
<linearGradient id="paint1_linear_8_293" x1="69.5214" y1="15.7792" x2="59.9476" y2="198.282" gradientUnits="userSpaceOnUse">
<stop stop-color="#39FD64" stop-opacity="0.31"/>
<stop offset="1" stop-color="#39FD64"/>
</linearGradient>
<clipPath id="clip0_8_293">
<rect width="306" height="138" rx="16" fill="white"/>
</clipPath>
</defs>
</svg>
