<svg width="667" height="625" viewBox="0 0 667 625" fill="none" xmlns="http://www.w3.org/2000/svg">
<g filter="url(#filter0_f_4739_98832)">
<ellipse cx="333.5" cy="312.428" rx="92.5" ry="71" fill="#00EE34"/>
</g>
<path fill-rule="evenodd" clip-rule="evenodd" d="M221.384 374.626C197.429 343.399 186.343 311.51 180.587 282.731L197.232 274.1L196.591 272.524H150.909V323.918H100.885L177.291 173.163H118.359L41.9541 323.918V374.626H150.909V413H206.414V374.626H221.384Z" fill="white"/>
<path fill-rule="evenodd" clip-rule="evenodd" d="M620 323.918H596.016V272.524H540.511V323.918H490.488L566.893 173.163H507.962L463.324 261.236C477.863 312.222 467.878 349.678 452.393 374.626H540.511V413H596.016V374.626H620V323.918Z" fill="white"/>
<g filter="url(#filter1_d_4739_98832)">
<path d="M435.039 252.454C390.513 171.716 296.772 173.001 295.865 173.001L284.072 173.304L293.219 209.968L188.442 196.89L217.849 284.734L201.823 294.41L204.015 301.44C213.691 332.738 239.092 370.385 263.207 389.057C286.642 407.201 313.177 416.575 339.787 416.575C353.848 416.575 367.834 414.004 381.441 408.713C409.034 398.053 430.125 376.584 440.86 348.159C452.426 317.467 450.31 281.785 435.039 252.454ZM347.725 341.431C341.299 341.431 334.873 341.431 328.447 341.204C327.162 341.204 326.028 342.263 325.877 343.548C325.121 350.049 324.819 358.743 323.685 365.396C323.458 366.605 322.249 367.815 320.963 367.966C314.84 368.646 309.926 367.512 302.669 366.983C301.384 367.134 300.552 366.076 300.779 364.64C301.989 357.231 302.291 350.578 303.122 343.246C303.274 341.809 302.367 340.6 301.081 340.524C294.656 340.373 288.23 340.071 281.804 339.768C280.595 339.768 279.687 338.407 279.839 336.82C280.443 329.109 280.973 322.305 281.351 314.67C281.351 313.082 282.409 312.024 283.694 312.175C291.481 313.007 293.748 313.46 302.971 314.443C304.256 314.67 305.315 313.687 305.315 312.251C305.617 304.994 305.617 300.307 305.466 293.125C305.466 291.764 306.524 290.932 307.734 291.235C317.335 291.991 317.562 292.293 326.255 293.805C327.54 294.108 328.599 295.393 328.599 296.678C328.674 303.028 328.523 309.454 328.221 315.879C328.145 317.165 329.128 318.299 330.337 318.525C336.839 319.433 343.264 320.264 349.69 321.02C350.9 321.096 351.883 322.154 351.807 323.212C351.429 328.58 350.9 333.947 350.295 339.39C350.144 340.524 349.01 341.431 347.725 341.431ZM385.766 382.626H385.69C378.82 388.483 367.758 390.733 354.982 388.919C352.002 388.496 350.295 387.332 350.295 385.064C350.295 382.342 351.965 380.132 352.881 377.334C353.58 375.2 354.778 373.207 356.888 373.705C364.642 375.537 373.889 376.154 381.079 372.118C383.136 370.964 385.086 372.345 385.766 373.705C386.598 375.369 386.827 375.98 387.72 377.666C388.4 378.951 388.067 380.469 385.766 382.626ZM387.186 281.256C384.087 283.146 382.273 284.204 380.534 284.96C378.039 286.019 375.242 286.85 367.38 285.49C361.03 284.431 353.621 281.483 344.625 278.005C342.206 277.023 339.636 275.964 336.914 274.906C325.65 270.597 311.589 265.759 298.662 267.119C284.45 268.556 272.43 273.621 263.736 283.07C255.118 292.369 250.885 304.691 249.6 318.601C249.297 321.7 249.071 325.254 249.071 329.26C249.071 335.383 249.675 342.414 251.49 349.898C240.377 335.459 230.398 318.45 224.502 302.801L240.604 293.049L215.884 219.342L318.242 232.118L308.414 192.656C332.908 195.302 388.547 207.247 418.408 261.374C419.92 264.322 421.281 267.422 422.49 270.521C413.116 268.783 403.969 272.336 398.526 274.982C393.839 277.401 390.135 279.517 387.186 281.256ZM418.181 340.751C403.132 344.993 407.219 321.625 409.941 313.914C414.228 299.992 430.201 303.255 430.503 317.921C430.655 326.992 426.346 337.727 418.181 340.751Z" fill="#00EE34"/>
</g>
<defs>
<filter id="filter0_f_4739_98832" x="0.199997" y="0.627731" width="666.6" height="623.6" filterUnits="userSpaceOnUse" color-interpolation-filters="sRGB">
<feFlood flood-opacity="0" result="BackgroundImageFix"/>
<feBlend mode="normal" in="SourceGraphic" in2="BackgroundImageFix" result="shape"/>
<feGaussianBlur stdDeviation="120.4" result="effect1_foregroundBlur_4739_98832"/>
</filter>
<filter id="filter1_d_4739_98832" x="146.029" y="135.519" width="344.617" height="328.4" filterUnits="userSpaceOnUse" color-interpolation-filters="sRGB">
<feFlood flood-opacity="0" result="BackgroundImageFix"/>
<feColorMatrix in="SourceAlpha" type="matrix" values="0 0 0 0 0 0 0 0 0 0 0 0 0 0 0 0 0 0 127 0" result="hardAlpha"/>
<feOffset dy="4.93171"/>
<feGaussianBlur stdDeviation="21.2064"/>
<feComposite in2="hardAlpha" operator="out"/>
<feColorMatrix type="matrix" values="0 0 0 0 0 0 0 0 0 0 0 0 0 0 0 0 0 0 0.46 0"/>
<feBlend mode="normal" in2="BackgroundImageFix" result="effect1_dropShadow_4739_98832"/>
<feBlend mode="normal" in="SourceGraphic" in2="effect1_dropShadow_4739_98832" result="shape"/>
</filter>
</defs>
</svg>
