<svg width="21" height="26" viewBox="0 0 21 26" fill="none" xmlns="http://www.w3.org/2000/svg">
<path d="M14.282 4.63029C13.3659 5.6799 11.9002 6.50776 10.4344 6.38949C10.2512 4.9703 10.9688 3.46241 11.8086 2.53106C12.7247 1.45189 14.3278 0.683156 15.6256 0.624023C15.7783 2.10235 15.1828 3.55111 14.282 4.63029ZM15.6103 6.67038C13.4881 6.55211 11.6712 7.83825 10.6635 7.83825C9.64051 7.83825 8.09842 6.72951 6.41893 6.75908C4.23559 6.78864 2.20492 7.98608 1.09035 9.89312C-1.19987 13.7072 0.494893 19.3544 2.70877 22.4589C3.79281 23.9964 5.0906 25.6816 6.80063 25.6225C8.41905 25.5634 9.06032 24.6025 11.0146 24.6025C12.9842 24.6025 13.5491 25.6225 15.2592 25.5929C17.0303 25.5634 18.1449 24.0555 19.2289 22.518C20.4656 20.7736 20.9695 19.0735 21 18.9848C20.9695 18.9553 17.5799 17.6987 17.5494 13.9142C17.5189 10.7506 20.2213 9.24266 20.3435 9.15396C18.8167 6.96604 16.4348 6.72951 15.6103 6.67038Z" fill="white"/>
</svg>
