<svg width="174" height="49" viewBox="0 0 174 49" fill="none" xmlns="http://www.w3.org/2000/svg">
<rect y="0.124023" width="174" height="48" rx="12" fill="#8397C3" fill-opacity="0.1"/>
<path d="M30.282 15.6303C29.3659 16.6799 27.9002 17.5078 26.4344 17.3895C26.2512 15.9703 26.9688 14.4624 27.8086 13.5311C28.7247 12.4519 30.3278 11.6832 31.6256 11.624C31.7783 13.1023 31.1828 14.5511 30.282 15.6303ZM31.6103 17.6704C29.4881 17.5521 27.6712 18.8383 26.6635 18.8383C25.6405 18.8383 24.0984 17.7295 22.4189 17.7591C20.2356 17.7886 18.2049 18.9861 17.0904 20.8931C14.8001 24.7072 16.4949 30.3544 18.7088 33.4589C19.7928 34.9964 21.0906 36.6816 22.8006 36.6225C24.4191 36.5634 25.0603 35.6025 27.0146 35.6025C28.9842 35.6025 29.5491 36.6225 31.2592 36.5929C33.0303 36.5634 34.1449 35.0555 35.2289 33.518C36.4656 31.7736 36.9695 30.0735 37 29.9848C36.9695 29.9553 33.5799 28.6987 33.5494 24.9142C33.5189 21.7506 36.2213 20.2427 36.3435 20.154C34.8167 17.966 32.4348 17.7295 31.6103 17.6704Z" fill="white"/>
<path d="M57.0795 12.124H56.0227C55.9602 11.82 55.8509 11.553 55.6946 11.3229C55.5412 11.0928 55.3537 10.8996 55.1321 10.7433C54.9134 10.5843 54.6705 10.4649 54.4034 10.3854C54.1364 10.3058 53.858 10.2661 53.5682 10.2661C53.0398 10.2661 52.5611 10.3996 52.1321 10.6666C51.706 10.9337 51.3665 11.3271 51.1136 11.847C50.8636 12.3669 50.7386 13.0047 50.7386 13.7604C50.7386 14.5161 50.8636 15.1539 51.1136 15.6737C51.3665 16.1936 51.706 16.5871 52.1321 16.8541C52.5611 17.1212 53.0398 17.2547 53.5682 17.2547C53.858 17.2547 54.1364 17.2149 54.4034 17.1354C54.6705 17.0558 54.9134 16.9379 55.1321 16.7817C55.3537 16.6226 55.5412 16.428 55.6946 16.1979C55.8509 15.9649 55.9602 15.6979 56.0227 15.3968H57.0795C57 15.8428 56.8551 16.2419 56.6449 16.5942C56.4347 16.9465 56.1733 17.2462 55.8608 17.4933C55.5483 17.7377 55.1974 17.9237 54.8082 18.0516C54.4219 18.1794 54.0085 18.2433 53.5682 18.2433C52.8239 18.2433 52.1619 18.0615 51.5824 17.6979C51.0028 17.3343 50.5469 16.8172 50.2145 16.1468C49.8821 15.4763 49.7159 14.6808 49.7159 13.7604C49.7159 12.8399 49.8821 12.0445 50.2145 11.374C50.5469 10.7036 51.0028 10.1865 51.5824 9.82289C52.1619 9.45925 52.8239 9.27743 53.5682 9.27743C54.0085 9.27743 54.4219 9.34135 54.8082 9.46919C55.1974 9.59703 55.5483 9.78453 55.8608 10.0317C56.1733 10.276 56.4347 10.5743 56.6449 10.9266C56.8551 11.276 57 11.6752 57.0795 12.124ZM58.6509 18.124V11.5786H59.6566V14.4252H60.3214L62.6737 11.5786H63.9691L61.3271 14.732L64.0032 18.124H62.7077L60.56 15.3627H59.6566V18.124H58.6509ZM67.0224 18.2774C66.6076 18.2774 66.2312 18.1993 65.8931 18.0431C65.555 17.884 65.2866 17.6553 65.0877 17.357C64.8888 17.0558 64.7894 16.6922 64.7894 16.2661C64.7894 15.8911 64.8633 15.5871 65.011 15.3541C65.1587 15.1183 65.3562 14.9337 65.6033 14.8002C65.8505 14.6666 66.1232 14.5672 66.4215 14.5019C66.7227 14.4337 67.0252 14.3797 67.3292 14.3399C67.7269 14.2888 68.0494 14.2504 68.2965 14.2249C68.5465 14.1965 68.7283 14.1496 68.842 14.0843C68.9585 14.0189 69.0167 13.9053 69.0167 13.7433V13.7093C69.0167 13.2888 68.9016 12.9621 68.6715 12.7291C68.4442 12.4962 68.0991 12.3797 67.636 12.3797C67.1559 12.3797 66.7795 12.4848 66.5067 12.695C66.234 12.9053 66.0423 13.1297 65.9315 13.3683L64.9769 13.0274C65.1474 12.6297 65.3746 12.32 65.6587 12.0985C65.9457 11.874 66.2582 11.7178 66.5962 11.6297C66.9371 11.5388 67.2724 11.4933 67.6019 11.4933C67.8121 11.4933 68.0536 11.5189 68.3263 11.57C68.6019 11.6183 68.8675 11.7192 69.1232 11.8726C69.3817 12.026 69.5962 12.2575 69.7667 12.5672C69.9371 12.8769 70.0224 13.2916 70.0224 13.8115V18.124H69.0167V17.2377H68.9656C68.8974 17.3797 68.7837 17.5317 68.6246 17.6936C68.4656 17.8556 68.2539 17.9933 67.9897 18.107C67.7255 18.2206 67.4031 18.2774 67.0224 18.2774ZM67.1758 17.374C67.5735 17.374 67.9087 17.2959 68.1815 17.1396C68.457 16.9834 68.6644 16.7817 68.8036 16.5345C68.9457 16.2874 69.0167 16.0274 69.0167 15.7547V14.8343C68.9741 14.8854 68.8803 14.9323 68.7354 14.9749C68.5934 15.0146 68.4286 15.0502 68.2411 15.0814C68.0565 15.1098 67.8761 15.1354 67.6999 15.1581C67.5266 15.178 67.386 15.195 67.2781 15.2093C67.0167 15.2433 66.7724 15.2987 66.5451 15.3754C66.3207 15.4493 66.1388 15.5615 65.9996 15.7121C65.8633 15.8598 65.7951 16.0615 65.7951 16.3172C65.7951 16.6666 65.9244 16.9308 66.1829 17.1098C66.4442 17.286 66.7752 17.374 67.1758 17.374ZM76.9034 11.5786V18.124H75.8977V11.5786H76.9034ZM76.5114 14.6979V15.6354C76.2841 15.7206 76.0582 15.7959 75.8338 15.8612C75.6094 15.9237 75.3736 15.9735 75.1264 16.0104C74.8793 16.0445 74.608 16.0615 74.3125 16.0615C73.571 16.0615 72.9759 15.8612 72.527 15.4607C72.081 15.0601 71.858 14.4593 71.858 13.6581V11.5615H72.8636V13.6581C72.8636 13.9933 72.9276 14.2689 73.0554 14.4848C73.1832 14.7007 73.3565 14.8612 73.5753 14.9664C73.794 15.0715 74.0398 15.124 74.3125 15.124C74.7386 15.124 75.1236 15.0857 75.4673 15.009C75.8139 14.9294 76.1619 14.8257 76.5114 14.6979ZM80.6747 18.2774C80.2599 18.2774 79.8835 18.1993 79.5455 18.0431C79.2074 17.884 78.9389 17.6553 78.7401 17.357C78.5412 17.0558 78.4418 16.6922 78.4418 16.2661C78.4418 15.8911 78.5156 15.5871 78.6634 15.3541C78.8111 15.1183 79.0085 14.9337 79.2557 14.8002C79.5028 14.6666 79.7756 14.5672 80.0739 14.5019C80.375 14.4337 80.6776 14.3797 80.9815 14.3399C81.3793 14.2888 81.7017 14.2504 81.9489 14.2249C82.1989 14.1965 82.3807 14.1496 82.4943 14.0843C82.6108 14.0189 82.669 13.9053 82.669 13.7433V13.7093C82.669 13.2888 82.554 12.9621 82.3239 12.7291C82.0966 12.4962 81.7514 12.3797 81.2884 12.3797C80.8082 12.3797 80.4318 12.4848 80.1591 12.695C79.8864 12.9053 79.6946 13.1297 79.5838 13.3683L78.6293 13.0274C78.7997 12.6297 79.027 12.32 79.3111 12.0985C79.598 11.874 79.9105 11.7178 80.2486 11.6297C80.5895 11.5388 80.9247 11.4933 81.2543 11.4933C81.4645 11.4933 81.706 11.5189 81.9787 11.57C82.2543 11.6183 82.5199 11.7192 82.7756 11.8726C83.0341 12.026 83.2486 12.2575 83.419 12.5672C83.5895 12.8769 83.6747 13.2916 83.6747 13.8115V18.124H82.669V17.2377H82.6179C82.5497 17.3797 82.4361 17.5317 82.277 17.6936C82.1179 17.8556 81.9063 17.9933 81.642 18.107C81.3778 18.2206 81.0554 18.2774 80.6747 18.2774ZM80.8281 17.374C81.2259 17.374 81.5611 17.2959 81.8338 17.1396C82.1094 16.9834 82.3168 16.7817 82.456 16.5345C82.598 16.2874 82.669 16.0274 82.669 15.7547V14.8343C82.6264 14.8854 82.5327 14.9323 82.3878 14.9749C82.2457 15.0146 82.081 15.0502 81.8935 15.0814C81.7088 15.1098 81.5284 15.1354 81.3523 15.1581C81.179 15.178 81.0384 15.195 80.9304 15.2093C80.669 15.2433 80.4247 15.2987 80.1974 15.3754C79.973 15.4493 79.7912 15.5615 79.652 15.7121C79.5156 15.8598 79.4474 16.0615 79.4474 16.3172C79.4474 16.6666 79.5767 16.9308 79.8352 17.1098C80.0966 17.286 80.4276 17.374 80.8281 17.374ZM84.6197 12.5161V11.5786H89.9379V12.5161H87.7901V18.124H86.7844V12.5161H84.6197ZM92.2741 13.9479H94.1491C94.9162 13.9479 95.5028 14.1425 95.9091 14.5317C96.3153 14.9209 96.5185 15.4138 96.5185 16.0104C96.5185 16.4024 96.4276 16.759 96.2457 17.08C96.0639 17.3982 95.7969 17.6524 95.4446 17.8428C95.0923 18.0303 94.6605 18.124 94.1491 18.124H91.4048V11.5786H92.4105V17.1865H94.1491C94.5469 17.1865 94.8736 17.0814 95.1293 16.8712C95.3849 16.661 95.5128 16.3911 95.5128 16.0615C95.5128 15.7149 95.3849 15.4323 95.1293 15.2135C94.8736 14.9948 94.5469 14.8854 94.1491 14.8854H92.2741V13.9479ZM101.424 18.124V11.5786H104.1C104.805 11.5786 105.365 11.7377 105.779 12.0558C106.194 12.374 106.402 12.7945 106.402 13.3172C106.402 13.7149 106.284 14.0232 106.048 14.2419C105.812 14.4578 105.51 14.6041 105.14 14.6808C105.382 14.7149 105.616 14.8002 105.843 14.9365C106.074 15.0729 106.264 15.2604 106.414 15.499C106.565 15.7348 106.64 16.0246 106.64 16.3683C106.64 16.7036 106.555 17.0033 106.385 17.2675C106.214 17.5317 105.97 17.7405 105.652 17.8939C105.333 18.0473 104.953 18.124 104.51 18.124H101.424ZM102.379 17.2036H104.51C104.856 17.2036 105.127 17.1212 105.324 16.9564C105.52 16.7916 105.618 16.5672 105.618 16.2831C105.618 15.945 105.52 15.6794 105.324 15.4862C105.127 15.2902 104.856 15.1922 104.51 15.1922H102.379V17.2036ZM102.379 14.3229H104.1C104.37 14.3229 104.602 14.286 104.795 14.2121C104.988 14.1354 105.136 14.0274 105.238 13.8882C105.343 13.7462 105.396 13.5786 105.396 13.3854C105.396 13.1098 105.281 12.8939 105.051 12.7377C104.821 12.5786 104.504 12.499 104.1 12.499H102.379V14.3229Z" fill="#8C95AD"/>
<path d="M50.6506 39.124H49.358L53.0966 28.9422H54.3693L58.108 39.124H56.8153L53.7727 30.553H53.6932L50.6506 39.124ZM51.1278 35.1468H56.3381V36.2405H51.1278V35.1468ZM59.5348 41.9877V31.4877H60.6683V32.7007H60.8075C60.8937 32.5682 61.013 32.3991 61.1655 32.1936C61.3213 31.9848 61.5433 31.7992 61.8317 31.6368C62.1233 31.4711 62.5178 31.3882 63.0149 31.3882C63.6579 31.3882 64.2247 31.549 64.7152 31.8705C65.2057 32.192 65.5885 32.6477 65.8636 33.2377C66.1387 33.8276 66.2763 34.5236 66.2763 35.3257C66.2763 36.1344 66.1387 36.8354 65.8636 37.4287C65.5885 38.0187 65.2074 38.4761 64.7202 38.8009C64.233 39.1224 63.6712 39.2831 63.0348 39.2831C62.5443 39.2831 62.1515 39.2019 61.8565 39.0395C61.5616 38.8738 61.3345 38.6865 61.1754 38.4777C61.0163 38.2656 60.8937 38.0899 60.8075 37.9507H60.7081V41.9877H59.5348ZM60.6882 35.3058C60.6882 35.8825 60.7727 36.3913 60.9418 36.8321C61.1108 37.2696 61.3577 37.6127 61.6825 37.8612C62.0073 38.1065 62.4051 38.2291 62.8757 38.2291C63.3662 38.2291 63.7756 38.0999 64.1037 37.8414C64.4351 37.5795 64.6837 37.2282 64.8494 36.7874C65.0185 36.3432 65.103 35.8494 65.103 35.3058C65.103 34.7689 65.0201 34.285 64.8544 33.8541C64.692 33.42 64.4451 33.0769 64.1136 32.825C63.7855 32.5698 63.3729 32.4422 62.8757 32.4422C62.3984 32.4422 61.9974 32.5632 61.6726 32.8051C61.3478 33.0438 61.1025 33.3785 60.9368 33.8094C60.7711 34.2369 60.6882 34.7358 60.6882 35.3058ZM68.0661 41.9877V31.4877H69.1996V32.7007H69.3388C69.425 32.5682 69.5443 32.3991 69.6967 32.1936C69.8525 31.9848 70.0746 31.7992 70.3629 31.6368C70.6546 31.4711 71.049 31.3882 71.5462 31.3882C72.1892 31.3882 72.7559 31.549 73.2464 31.8705C73.737 32.192 74.1198 32.6477 74.3949 33.2377C74.67 33.8276 74.8075 34.5236 74.8075 35.3257C74.8075 36.1344 74.67 36.8354 74.3949 37.4287C74.1198 38.0187 73.7386 38.4761 73.2514 38.8009C72.7642 39.1224 72.2024 39.2831 71.5661 39.2831C71.0755 39.2831 70.6828 39.2019 70.3878 39.0395C70.0928 38.8738 69.8658 38.6865 69.7067 38.4777C69.5476 38.2656 69.425 38.0899 69.3388 37.9507H69.2393V41.9877H68.0661ZM69.2195 35.3058C69.2195 35.8825 69.304 36.3913 69.473 36.8321C69.642 37.2696 69.889 37.6127 70.2138 37.8612C70.5386 38.1065 70.9363 38.2291 71.407 38.2291C71.8975 38.2291 72.3068 38.0999 72.6349 37.8414C72.9664 37.5795 73.215 37.2282 73.3807 36.7874C73.5497 36.3432 73.6342 35.8494 73.6342 35.3058C73.6342 34.7689 73.5514 34.285 73.3857 33.8541C73.2232 33.42 72.9763 33.0769 72.6449 32.825C72.3168 32.5698 71.9041 32.4422 71.407 32.4422C70.9297 32.4422 70.5286 32.5632 70.2038 32.8051C69.879 33.0438 69.6338 33.3785 69.468 33.8094C69.3023 34.2369 69.2195 34.7358 69.2195 35.3058ZM86.2621 31.4877C86.2024 30.9839 85.9605 30.5928 85.5362 30.3144C85.112 30.036 84.5916 29.8968 83.9751 29.8968C83.5244 29.8968 83.13 29.9697 82.7919 30.1155C82.4571 30.2613 82.1953 30.4619 82.0064 30.7171C81.8208 30.9723 81.728 31.2623 81.728 31.5871C81.728 31.8589 81.7926 32.0925 81.9219 32.2881C82.0545 32.4803 82.2235 32.6411 82.429 32.7703C82.6345 32.8963 82.8499 33.0007 83.0753 33.0835C83.3007 33.1631 83.5078 33.2277 83.6967 33.2774L84.7308 33.5558C84.996 33.6254 85.291 33.7216 85.6158 33.8442C85.9439 33.9668 86.2571 34.1342 86.5554 34.3463C86.857 34.5551 87.1056 34.8236 87.3011 35.1517C87.4967 35.4798 87.5945 35.8825 87.5945 36.3598C87.5945 36.91 87.4503 37.4072 87.1619 37.8513C86.8769 38.2954 86.4593 38.6484 85.9091 38.9102C85.3622 39.1721 84.6977 39.303 83.9155 39.303C83.1863 39.303 82.5549 39.1853 82.0213 38.95C81.491 38.7147 81.0734 38.3866 80.7685 37.9656C80.4669 37.5447 80.2962 37.0558 80.2564 36.499H81.5291C81.5623 36.8835 81.6915 37.2017 81.9169 37.4536C82.1456 37.7021 82.4339 37.8878 82.782 38.0104C83.1333 38.1297 83.5111 38.1894 83.9155 38.1894C84.3861 38.1894 84.8087 38.1131 85.1832 37.9607C85.5578 37.8049 85.8544 37.5895 86.0732 37.3144C86.2919 37.036 86.4013 36.7111 86.4013 36.3399C86.4013 36.0019 86.3068 35.7268 86.1179 35.5146C85.929 35.3025 85.6804 35.1302 85.3722 34.9976C85.0639 34.865 84.7308 34.749 84.3729 34.6496L83.12 34.2916C82.3246 34.0629 81.6948 33.7365 81.2308 33.3122C80.7668 32.888 80.5348 32.3328 80.5348 31.6468C80.5348 31.0767 80.6889 30.5795 80.9972 30.1553C81.3087 29.7277 81.7263 29.3963 82.25 29.161C82.777 28.9223 83.3653 28.803 84.0149 28.803C84.6712 28.803 85.2545 28.9207 85.7649 29.156C86.2753 29.388 86.6797 29.7062 86.978 30.1105C87.2796 30.5149 87.4387 30.9739 87.4553 31.4877H86.2621ZM92.7836 31.4877V32.482H88.8262V31.4877H92.7836ZM89.9796 29.6581H91.1529V36.9365C91.1529 37.268 91.2009 37.5165 91.2971 37.6823C91.3965 37.8447 91.5224 37.954 91.6749 38.0104C91.8307 38.0634 91.9947 38.0899 92.1671 38.0899C92.2963 38.0899 92.4024 38.0833 92.4853 38.07C92.5681 38.0535 92.6344 38.0402 92.6841 38.0303L92.9228 39.0843C92.8432 39.1141 92.7322 39.1439 92.5897 39.1737C92.4471 39.2069 92.2665 39.2235 92.0478 39.2235C91.7163 39.2235 91.3915 39.1522 91.0733 39.0097C90.7585 38.8672 90.4966 38.6501 90.2878 38.3584C90.0823 38.0667 89.9796 37.6988 89.9796 37.2547V29.6581ZM97.5687 39.2831C96.8793 39.2831 96.2744 39.1191 95.7541 38.7909C95.237 38.4628 94.8327 38.0038 94.541 37.4138C94.2527 36.8238 94.1085 36.1344 94.1085 35.3456C94.1085 34.5502 94.2527 33.8558 94.541 33.2625C94.8327 32.6692 95.237 32.2085 95.7541 31.8804C96.2744 31.5523 96.8793 31.3882 97.5687 31.3882C98.2581 31.3882 98.8613 31.5523 99.3784 31.8804C99.8987 32.2085 100.303 32.6692 100.591 33.2625C100.883 33.8558 101.029 34.5502 101.029 35.3456C101.029 36.1344 100.883 36.8238 100.591 37.4138C100.303 38.0038 99.8987 38.4628 99.3784 38.7909C98.8613 39.1191 98.2581 39.2831 97.5687 39.2831ZM97.5687 38.2291C98.0924 38.2291 98.5233 38.0949 98.8613 37.8264C99.1994 37.558 99.4496 37.205 99.612 36.7675C99.7744 36.33 99.8556 35.856 99.8556 35.3456C99.8556 34.8352 99.7744 34.3596 99.612 33.9188C99.4496 33.478 99.1994 33.1217 98.8613 32.8499C98.5233 32.5781 98.0924 32.4422 97.5687 32.4422C97.045 32.4422 96.6142 32.5781 96.2761 32.8499C95.938 33.1217 95.6878 33.478 95.5254 33.9188C95.363 34.3596 95.2818 34.8352 95.2818 35.3456C95.2818 35.856 95.363 36.33 95.5254 36.7675C95.6878 37.205 95.938 37.558 96.2761 37.8264C96.6142 38.0949 97.045 38.2291 97.5687 38.2291ZM102.82 39.124V31.4877H103.953V32.6411H104.033C104.172 32.2632 104.424 31.9566 104.789 31.7213C105.153 31.486 105.564 31.3683 106.022 31.3683C106.108 31.3683 106.216 31.37 106.345 31.3733C106.474 31.3766 106.572 31.3816 106.638 31.3882V32.5814C106.598 32.5715 106.507 32.5566 106.365 32.5367C106.225 32.5135 106.078 32.5019 105.922 32.5019C105.551 32.5019 105.22 32.5798 104.928 32.7355C104.64 32.888 104.411 33.1001 104.242 33.3719C104.076 33.6404 103.993 33.9469 103.993 34.2916V39.124H102.82ZM110.998 39.2831C110.262 39.2831 109.628 39.1207 109.094 38.7959C108.564 38.4678 108.154 38.0104 107.866 37.4237C107.581 36.8338 107.439 36.1477 107.439 35.3655C107.439 34.5833 107.581 33.8939 107.866 33.2973C108.154 32.6974 108.556 32.2301 109.069 31.8953C109.586 31.5573 110.19 31.3882 110.879 31.3882C111.277 31.3882 111.669 31.4545 112.057 31.5871C112.445 31.7197 112.798 31.9351 113.116 32.2334C113.434 32.5284 113.688 32.9195 113.877 33.4067C114.066 33.8939 114.16 34.4938 114.16 35.2064V35.7036H108.274V34.6894H112.967C112.967 34.2585 112.881 33.874 112.708 33.536C112.539 33.1979 112.297 32.9311 111.983 32.7355C111.671 32.54 111.303 32.4422 110.879 32.4422C110.412 32.4422 110.007 32.5582 109.666 32.7902C109.328 33.0189 109.068 33.3172 108.885 33.6851C108.703 34.053 108.612 34.4474 108.612 34.8683V35.5445C108.612 36.1212 108.711 36.6101 108.91 37.0111C109.112 37.4088 109.392 37.7121 109.75 37.9209C110.108 38.1264 110.524 38.2291 110.998 38.2291C111.306 38.2291 111.585 38.186 111.833 38.0999C112.085 38.0104 112.302 37.8778 112.485 37.7021C112.667 37.5232 112.808 37.3011 112.907 37.036L114.041 37.3541C113.922 37.7386 113.721 38.0767 113.439 38.3683C113.158 38.6567 112.81 38.8821 112.395 39.0445C111.981 39.2036 111.515 39.2831 110.998 39.2831Z" fill="white"/>
</svg>
