<svg width="28" height="28" viewBox="0 0 28 28" fill="none" xmlns="http://www.w3.org/2000/svg">
<g clip-path="url(#clip0_2608_43240)">
<path d="M28 13.9997C28 12.2873 27.692 10.6468 27.1292 9.13021L14 8.52148L0.870789 9.13016C0.308055 10.6468 0 12.2873 0 13.9997C0 15.7122 0.308055 17.3527 0.870789 18.8693L14 19.478L27.1292 18.8693C27.692 17.3527 28 15.7122 28 13.9997Z" fill="#0052B4"/>
<path d="M14.0003 27.9996C20.0198 27.9996 25.1514 24.2004 27.1295 18.8691H0.871094C2.8492 24.2004 7.9808 27.9996 14.0003 27.9996Z" fill="#FF9811"/>
<path d="M0.871094 9.13046H27.1296C25.1514 3.79925 20.0198 0 14.0003 0C7.9808 0 2.8492 3.79925 0.871094 9.13046Z" fill="#D80027"/>
</g>
<defs>
<clipPath id="clip0_2608_43240">
<rect width="28" height="28" fill="white"/>
</clipPath>
</defs>
</svg>
