<svg width="200" height="23" viewBox="0 0 200 23" fill="none" xmlns="http://www.w3.org/2000/svg">
<path d="M0 23C0 10.2975 10.2975 0 23 0H177C189.703 0 200 10.2975 200 23H0Z" fill="#158EFF"/>
<path d="M24.3519 14.9241C24.6655 14.5482 24.9187 14.221 25.2007 13.9198C25.286 13.8288 25.4493 13.8108 25.5771 13.7588C25.9591 13.6045 26.3665 13.4931 26.7175 13.2869C27.5629 12.7896 27.6731 11.9899 27.0323 11.253C26.8865 11.0851 26.7164 10.9388 26.5163 10.7415C25.3691 13.0427 23.8088 14.945 21.7749 16.4731C22.4756 17.4146 23.2685 18.2069 24.3021 18.7415C24.2795 18.7799 24.2569 18.8183 24.2343 18.8568C23.8043 18.6669 23.338 18.5313 22.9537 18.273C22.4112 17.9091 21.9196 17.4649 21.4268 17.0314C21.2663 16.8907 21.1645 16.8517 20.9724 16.9664C20.34 17.3445 19.6726 17.6401 18.9385 17.7695C17.203 18.0752 16.3011 17.032 16.4276 15.4202C16.5277 14.1476 17.0476 13.0083 17.6964 11.9249C17.7201 11.8854 17.7512 11.8509 17.8071 11.7763C17.971 12.2273 18.1332 12.6432 18.2688 13.0676C18.2982 13.1603 18.2383 13.2846 18.2095 13.3914C18.0648 13.921 17.9518 14.4505 18.0773 15.0037C18.2304 15.6791 18.6955 16.039 19.3878 15.965C19.6963 15.9322 19.9987 15.8356 20.3355 15.761C20.0298 15.2337 19.7489 14.7799 19.4974 14.3092C18.6656 12.7534 18.1191 11.0993 17.8365 9.35924C17.7331 8.72235 17.7433 8.72969 17.112 8.85628C16.2044 9.03769 15.3262 9.29256 14.5463 9.81982C14.5311 9.80287 14.5153 9.78535 14.5 9.7684C14.5616 9.69832 14.6192 9.62372 14.6859 9.55873C15.4229 8.83707 16.3372 8.45391 17.3183 8.22108C17.6268 8.14761 17.7484 8.0425 17.7416 7.70399C17.7257 6.91055 17.8184 6.12615 18.1632 5.39375C18.7464 4.15442 19.8433 3.80461 21.0357 4.48446C22.0111 5.03998 22.7 5.88258 23.3069 6.80091C23.4816 7.06539 23.6375 7.34287 23.776 7.65821C23.2069 7.47341 22.5525 7.66895 22.0795 7.11682C21.698 6.6715 21.2148 6.33468 20.5994 6.25387C20.1326 6.19284 19.7625 6.34429 19.5099 6.74101C19.2968 7.07613 19.1623 7.4412 19.151 7.88031C19.3211 7.88031 19.4686 7.88483 19.6161 7.87974C21.6409 7.80458 23.6104 8.08997 25.5189 8.77886C25.7573 8.86476 25.9947 8.95574 26.2253 9.06142C26.3931 9.13828 26.4722 9.10663 26.54 8.92862C26.8978 7.99164 27.1865 7.04222 27.1459 6.02273C27.1436 5.96283 27.1532 5.90236 27.1628 5.75938C27.412 6.26913 27.4533 6.73931 27.4103 7.1982C27.3482 7.85883 27.2318 8.51607 27.1018 9.16767C27.0588 9.38354 27.0871 9.48527 27.2775 9.59151C27.9981 9.99388 28.6553 10.4771 29.1475 11.1541C29.9274 12.2267 29.7194 13.3445 28.6044 14.0622C27.8845 14.5256 27.0746 14.7313 26.2405 14.8427C25.7754 14.9048 25.3035 14.9161 24.8345 14.9427C24.6977 14.9506 24.5593 14.9314 24.3524 14.9218L24.3519 14.9241ZM19.7585 8.63984C19.6364 8.63984 19.5127 8.65001 19.3917 8.63758C19.1357 8.61158 19.0267 8.70822 19.0549 8.97326C19.0928 9.32816 19.1075 9.68532 19.1431 10.0408C19.3251 11.8763 19.9439 13.5655 20.8599 15.1563C20.9877 15.3778 21.095 15.379 21.2985 15.2535C23.1809 14.0916 24.6401 12.529 25.7449 10.6206C25.8879 10.3736 25.828 10.277 25.5963 10.1527C23.772 9.17332 21.8212 8.69635 19.7591 8.6404L19.7585 8.63984Z" fill="white"/>
<path d="M42.5828 11.0938C42.6205 11.1376 42.6294 11.1565 42.6433 11.1632C43.5089 11.5896 43.8145 12.1103 43.6803 12.9322C43.5333 13.8317 42.9361 14.4384 42.0682 14.5565C41.8403 14.5876 41.6085 14.6053 41.3783 14.6059C39.6414 14.6098 37.904 14.6086 36.1671 14.6075C35.7833 14.6075 35.7617 14.5848 35.7617 14.1966C35.7617 12.1824 35.7617 10.1683 35.7617 8.15411C35.7617 7.78477 35.7772 7.76925 36.1566 7.76869C37.7459 7.76814 39.3348 7.7698 40.9241 7.76758C41.4171 7.76703 41.9013 7.80918 42.3599 8.01048C43.2061 8.38093 43.6897 9.37858 43.3819 10.2431C43.2877 10.5082 43.027 10.7173 42.8313 10.9419C42.7747 11.0068 42.6788 11.0367 42.5817 11.0938H42.5828ZM39.5194 13.2306C39.5194 13.2306 39.5194 13.2278 39.5194 13.2261C40.1283 13.2261 40.7378 13.2389 41.3461 13.2222C41.9107 13.2073 42.1774 12.8401 42.0338 12.3155C41.9578 12.0377 41.7837 11.8919 41.4033 11.8858C40.1766 11.8663 38.9493 11.8697 37.7221 11.8597C37.5679 11.8586 37.5075 11.9163 37.5108 12.071C37.518 12.366 37.5247 12.6621 37.5091 12.9566C37.4969 13.184 37.5929 13.2378 37.8031 13.2339C38.3748 13.2222 38.9471 13.23 39.5194 13.23V13.2306ZM37.5169 10.4866C37.6112 10.4949 37.665 10.5038 37.7188 10.5038C38.7713 10.5038 39.8244 10.506 40.877 10.4988C41.0406 10.4977 41.2092 10.4688 41.3667 10.4228C41.6589 10.3369 41.8009 10.1278 41.8037 9.82445C41.8075 9.40576 41.5746 9.15731 41.0373 9.14234C39.9298 9.11184 38.8212 9.12293 37.7132 9.13125C37.6472 9.13125 37.5285 9.25492 37.5252 9.32534C37.5064 9.70189 37.5163 10.0801 37.5163 10.4866H37.5169Z" fill="white"/>
<path d="M96.9986 10.5112C97.1378 10.5112 97.2459 10.5112 97.354 10.5112C98.888 10.5112 100.422 10.5101 101.955 10.5123C102.297 10.5123 102.551 10.6748 102.65 10.9609C102.743 11.2277 102.712 11.5066 102.483 11.6652C102.3 11.7922 102.046 11.8732 101.823 11.8754C100.335 11.8931 98.8475 11.8848 97.3601 11.8848C97.2514 11.8848 97.1422 11.8848 97.0102 11.8848C97.0102 12.2447 96.9775 12.5791 97.0263 12.9019C97.0457 13.03 97.2309 13.1564 97.3685 13.2341C97.4616 13.2867 97.603 13.259 97.7228 13.2596C99.4414 13.2607 101.16 13.2596 102.879 13.2607C103.252 13.2607 103.277 13.2862 103.278 13.6483C103.278 13.8796 103.274 14.1103 103.279 14.3415C103.283 14.5373 103.201 14.6266 102.998 14.6266C100.956 14.6227 98.9146 14.6354 96.8727 14.6155C95.9959 14.6066 95.2622 13.8835 95.245 13.0011C95.2162 11.5421 95.2267 10.0819 95.2389 8.62178C95.2434 8.11325 95.5994 7.78162 96.1129 7.78052C98.4044 7.77497 100.696 7.77885 102.987 7.77441C103.205 7.77441 103.288 7.86259 103.28 8.07221C103.272 8.26575 103.278 8.46041 103.278 8.6545C103.278 8.97615 103.122 9.13697 102.808 9.13697C101.016 9.13697 99.2229 9.13697 97.4306 9.13697C97.3474 9.13697 97.257 9.11812 97.1832 9.14473C97.1128 9.17024 97.0091 9.24178 97.0069 9.29613C96.9919 9.69042 96.9986 10.0858 96.9986 10.5112Z" fill="white"/>
<path d="M91.9755 12.1597C91.9755 12.0527 91.9755 11.9457 91.9755 11.8386C91.9755 10.6192 91.975 9.39969 91.9761 8.18021C91.9761 7.80588 92.0143 7.76928 92.3898 7.76817C92.7225 7.7665 93.0547 7.76484 93.3874 7.76872C93.6952 7.77205 93.7401 7.81919 93.7401 8.15636C93.7418 9.60654 93.7412 11.0573 93.7412 12.5074C93.7412 12.9694 93.7396 13.4313 93.7412 13.8933C93.7424 14.2776 93.6004 14.5865 93.2421 14.749C92.8861 14.9104 92.565 14.8194 92.27 14.5682C90.6451 13.1857 89.0158 11.8081 87.3882 10.4295C87.2934 10.3491 87.1958 10.2731 87.0299 10.1389V10.5155C87.0299 11.7349 87.0299 12.9544 87.0299 14.1739C87.0299 14.5848 86.9956 14.6187 86.5913 14.6192C86.268 14.6198 85.9447 14.6131 85.6214 14.6214C85.3779 14.6275 85.2637 14.5272 85.2637 14.2787C85.2664 12.3294 85.2637 10.3801 85.2681 8.43087C85.2692 8.06763 85.4345 7.78869 85.7722 7.63729C86.1227 7.4798 86.4366 7.56575 86.7211 7.80754C88.3614 9.20004 90.0029 10.5914 91.6444 11.9828C91.7276 12.0533 91.8141 12.1198 91.8995 12.188C91.9251 12.1786 91.9506 12.1692 91.9761 12.1597H91.9755Z" fill="white"/>
<path d="M77.2182 10.5113C77.3519 10.5113 77.4511 10.5113 77.5504 10.5113C78.5669 10.5113 79.5829 10.5102 80.5994 10.5119C81.068 10.5124 81.3796 10.7825 81.3857 11.1857C81.3918 11.5833 81.078 11.8789 80.616 11.8828C79.6089 11.8905 78.6019 11.8855 77.5948 11.8855C77.485 11.8855 77.3757 11.8855 77.2343 11.8855C77.2343 12.2454 77.201 12.5876 77.2515 12.917C77.2704 13.0418 77.4683 13.1621 77.6097 13.237C77.7051 13.2875 77.8449 13.2597 77.9647 13.2603C79.6738 13.2614 81.3835 13.2603 83.0927 13.2614C83.4809 13.2614 83.4981 13.2797 83.4992 13.6679C83.4997 13.8991 83.4964 14.1298 83.4992 14.3611C83.5014 14.5441 83.4238 14.6284 83.2324 14.6278C81.1905 14.624 79.1481 14.6373 77.1068 14.6173C76.2045 14.6084 75.4636 13.8337 75.4553 12.927C75.4425 11.5134 75.4475 10.0998 75.4531 8.68627C75.4553 8.14058 75.8146 7.78455 76.3587 7.78345C78.6318 7.78012 80.9044 7.78511 83.1775 7.77735C83.4226 7.77679 83.5103 7.86386 83.4981 8.10065C83.4859 8.3308 83.4831 8.56316 83.4986 8.7933C83.5169 9.06282 83.4027 9.14378 83.142 9.14267C81.3308 9.13491 79.5202 9.13879 77.709 9.13879C77.1389 9.13879 77.2243 9.12049 77.2193 9.63235C77.2166 9.91573 77.2193 10.1991 77.2193 10.5124L77.2182 10.5113Z" fill="white"/>
<path d="M49.0162 7.76872C49.2286 7.76872 49.4415 7.77925 49.6534 7.7665C50.1475 7.736 50.4708 7.95283 50.6871 8.39426C51.2999 9.6459 51.9276 10.8898 52.5493 12.1364C52.8914 12.8219 53.2336 13.5068 53.5752 14.1922C53.736 14.5149 53.6822 14.6048 53.3246 14.6076C52.9918 14.6098 52.6591 14.597 52.3269 14.612C52.0968 14.6225 51.9731 14.5249 51.8821 14.3225C51.7346 13.9948 51.5577 13.6798 51.4058 13.3537C51.3392 13.2117 51.2583 13.1441 51.0919 13.1446C49.7155 13.1507 48.3391 13.1446 46.9626 13.1563C46.8645 13.1574 46.7281 13.2511 46.677 13.3404C46.494 13.6604 46.3304 13.9926 46.1779 14.3281C46.0853 14.5321 45.9539 14.6209 45.7276 14.6109C45.4049 14.597 45.081 14.6081 44.7577 14.607C44.3501 14.6059 44.3035 14.5355 44.481 14.1778C45.1869 12.7564 45.8946 11.3362 46.6022 9.91542C46.8656 9.38692 47.1318 8.85954 47.3913 8.32882C47.571 7.9617 47.8521 7.76373 48.2675 7.76761C48.5171 7.76983 48.7666 7.76761 49.0156 7.76761L49.0162 7.76872ZM50.5856 11.7682C50.5395 11.6545 50.5168 11.5863 50.4846 11.5225C50.127 10.8044 49.7637 10.0896 49.4121 9.36807C49.3295 9.19782 49.2286 9.11741 49.0317 9.1163C48.8265 9.11519 48.7134 9.19449 48.6252 9.37583C48.267 10.114 47.8965 10.8465 47.5327 11.5819C47.5072 11.6335 47.4994 11.6939 47.4778 11.7682H50.5845H50.5856Z" fill="white"/>
<path d="M104.086 7.78408C104.263 7.77631 104.363 7.76799 104.462 7.76799C106.772 7.76744 109.081 7.76744 111.391 7.76799C111.803 7.76799 111.817 7.78297 111.818 8.1828C111.818 8.35805 111.818 8.53384 111.818 8.70908C111.817 9.11779 111.814 9.12057 111.393 9.12057C110.654 9.12057 109.915 9.12889 109.176 9.11613C108.946 9.11225 108.877 9.18157 108.878 9.41227C108.886 11.2872 108.882 13.1628 108.882 15.0377C108.882 15.1209 108.887 15.2047 108.878 15.2867C108.861 15.4392 108.779 15.4903 108.656 15.3865C108.196 15.0006 107.729 14.6218 107.295 14.2087C107.19 14.1094 107.166 13.8892 107.165 13.7245C107.155 12.3021 107.153 10.8796 107.165 9.45719C107.167 9.191 107.093 9.10615 106.824 9.11502C106.243 9.13443 105.66 9.11336 105.078 9.12445C104.842 9.12889 104.699 9.03905 104.601 8.82831C104.448 8.49613 104.278 8.17171 104.086 7.78408Z" fill="white"/>
<path d="M59.9004 7.78671C60.0723 7.77784 60.1705 7.76841 60.2692 7.76841C62.3565 7.7673 64.4434 7.7673 66.5307 7.76841C66.9156 7.76841 66.9217 7.77506 66.9228 8.15106C66.9239 8.37288 66.9139 8.59471 66.9256 8.81598C66.9372 9.04168 66.8501 9.12819 66.62 9.12542C65.9185 9.11544 65.2159 9.13485 64.5143 9.11544C64.2393 9.10767 64.1805 9.20084 64.1822 9.45982C64.1927 11.3348 64.1888 13.2092 64.1849 15.0842C64.1849 15.1968 64.1428 15.3099 64.12 15.4225C64.0125 15.3653 63.8927 15.3237 63.8001 15.2483C63.4424 14.9566 63.1002 14.6455 62.7386 14.3588C62.5229 14.188 62.4364 13.9839 62.4375 13.7133C62.4431 12.282 62.4347 10.8501 62.4453 9.41878C62.4469 9.17478 62.3804 9.09769 62.1347 9.10934C61.711 9.1293 61.2851 9.12209 60.8609 9.10934C60.7505 9.10601 60.588 9.06996 60.5426 8.99399C60.3196 8.618 60.1283 8.22315 59.9004 7.78726V7.78671Z" fill="white"/>
<path d="M52.1183 7.78652C52.2858 7.77765 52.3762 7.76822 52.4666 7.76822C54.5445 7.76766 56.6219 7.76711 58.6998 7.76822C59.0764 7.76822 59.0936 7.78652 59.0947 8.1553C59.0952 8.33997 59.0947 8.52464 59.0947 8.70931C59.0941 9.11746 59.0908 9.12079 58.6693 9.12079C58.1708 9.12079 57.6717 9.13133 57.1737 9.11636C56.9496 9.1097 56.8936 9.18956 56.8942 9.40306C56.9014 11.3052 56.8992 13.2079 56.8953 15.11C56.8953 15.2138 56.857 15.3175 56.8359 15.4217C56.735 15.3712 56.6208 15.3374 56.5359 15.2675C56.1716 14.9692 55.8233 14.6514 55.4545 14.3592C55.2377 14.1873 55.1556 13.9843 55.1567 13.7131C55.1634 12.2818 55.154 10.8505 55.1651 9.41914C55.1667 9.17458 55.098 9.10138 54.8528 9.10859C54.2717 9.12578 53.6894 9.10693 53.1076 9.11746C52.8731 9.1219 52.7239 9.03317 52.6257 8.82466C52.4704 8.49469 52.3052 8.16861 52.1172 7.78596L52.1183 7.78652Z" fill="white"/>
<path d="M67.8655 10.4931C67.8655 9.70842 67.865 8.92317 67.8655 8.13846C67.8655 7.79297 67.8871 7.77079 68.2193 7.76912C68.5887 7.76691 68.9586 7.77855 69.3273 7.76524C69.5686 7.75637 69.6495 7.84621 69.6479 8.08744C69.6401 9.57422 69.644 11.0604 69.644 12.5472C69.644 13.1118 69.7654 13.2354 70.3189 13.2354C71.6576 13.2354 72.9969 13.2354 74.3356 13.2354C74.6933 13.2354 74.7121 13.2554 74.7138 13.6125C74.7149 13.8155 74.7149 14.019 74.7138 14.222C74.7121 14.5841 74.6888 14.6074 74.3139 14.608C73.0118 14.6085 71.7097 14.6096 70.4082 14.6074C70.076 14.6069 69.7405 14.6246 69.4127 14.5819C68.49 14.4627 67.8727 13.7495 67.8661 12.8201C67.8605 12.0442 67.865 11.269 67.865 10.4931H67.8655Z" fill="white"/>
<path d="M83.2636 10.356C83.7472 10.356 84.1021 10.7126 84.0971 11.1929C84.0926 11.6454 83.7172 12.0203 83.2686 12.0203C82.7994 12.0203 82.4345 11.647 82.4395 11.1712C82.4445 10.7021 82.7944 10.3555 83.2636 10.3555V10.356Z" fill="white"/>
</svg>
