<svg width="57" height="56" viewBox="0 0 57 56" fill="none" xmlns="http://www.w3.org/2000/svg">
<rect x="0.0390625" width="56" height="56" rx="10" fill="#8397C3" fill-opacity="0.2"/>
<g clip-path="url(#clip0_2355_52372)">
<mask id="path-3-inside-1_2355_52372" fill="white">
<path fill-rule="evenodd" clip-rule="evenodd" d="M8.6887 21.2034C6.65149 22.0578 5.69265 24.402 6.54708 26.4392L15.0339 46.6743C15.8883 48.7115 18.2325 49.6703 20.2697 48.8159L31.3722 44.1594C33.4094 43.3049 34.3683 40.9608 33.5138 38.9236L25.027 18.6885C24.1726 16.6513 21.8285 15.6925 19.7912 16.5469L8.6887 21.2034ZM17.5195 20.0681L16.2713 20.5916C15.9165 20.2009 15.3409 20.0557 14.8265 20.2715C14.312 20.4873 14.0122 20.9995 14.0423 21.5264L12.792 22.0508C12.3569 22.2333 12.1521 22.734 12.3346 23.1692C12.5171 23.6043 13.0178 23.8091 13.4529 23.6266L15.7873 22.6476C15.7975 22.6436 15.8077 22.6395 15.8179 22.6352C15.828 22.6309 15.8381 22.6266 15.8481 22.6221L18.1804 21.6439C18.6155 21.4614 18.8203 20.9607 18.6378 20.5255C18.4553 20.0904 17.9546 19.8856 17.5195 20.0681Z"/>
</mask>
<path fill-rule="evenodd" clip-rule="evenodd" d="M8.6887 21.2034C6.65149 22.0578 5.69265 24.402 6.54708 26.4392L15.0339 46.6743C15.8883 48.7115 18.2325 49.6703 20.2697 48.8159L31.3722 44.1594C33.4094 43.3049 34.3683 40.9608 33.5138 38.9236L25.027 18.6885C24.1726 16.6513 21.8285 15.6925 19.7912 16.5469L8.6887 21.2034ZM17.5195 20.0681L16.2713 20.5916C15.9165 20.2009 15.3409 20.0557 14.8265 20.2715C14.312 20.4873 14.0122 20.9995 14.0423 21.5264L12.792 22.0508C12.3569 22.2333 12.1521 22.734 12.3346 23.1692C12.5171 23.6043 13.0178 23.8091 13.4529 23.6266L15.7873 22.6476C15.7975 22.6436 15.8077 22.6395 15.8179 22.6352C15.828 22.6309 15.8381 22.6266 15.8481 22.6221L18.1804 21.6439C18.6155 21.4614 18.8203 20.9607 18.6378 20.5255C18.4553 20.0904 17.9546 19.8856 17.5195 20.0681Z" fill="url(#paint0_linear_2355_52372)"/>
<path d="M6.54708 26.4392L6.57133 26.429L6.54708 26.4392ZM15.0339 46.6743L15.0096 46.6844L15.0339 46.6743ZM16.2713 20.5916L16.2518 20.6093L16.2643 20.623L16.2814 20.6158L16.2713 20.5916ZM14.0423 21.5264L14.0525 21.5507L14.0696 21.5435L14.0686 21.5249L14.0423 21.5264ZM12.792 22.0508L12.8022 22.0751L12.792 22.0508ZM15.7873 22.6476L15.7777 22.6231L15.7771 22.6233L15.7873 22.6476ZM15.8481 22.6221L15.838 22.5978L15.8373 22.5981L15.8481 22.6221ZM18.1804 21.6439L18.1702 21.6196L18.1804 21.6439ZM6.57133 26.429C5.72251 24.4052 6.67505 22.0765 8.69887 21.2277L8.67853 21.1792C6.62793 22.0392 5.66279 24.3988 6.52284 26.4494L6.57133 26.429ZM15.0581 46.6641L6.57133 26.429L6.52284 26.4494L15.0096 46.6844L15.0581 46.6641ZM20.2595 48.7916C18.2357 49.6404 15.907 48.6879 15.0581 46.6641L15.0096 46.6844C15.8697 48.735 18.2292 49.7002 20.2799 48.8401L20.2595 48.7916ZM31.362 44.1351L20.2595 48.7916L20.2799 48.8401L31.3824 44.1836L31.362 44.1351ZM33.4896 38.9337C34.3384 40.9576 33.3859 43.2863 31.362 44.1351L31.3824 44.1836C33.433 43.3236 34.3981 40.964 33.5381 38.9134L33.4896 38.9337ZM25.0028 18.6987L33.4896 38.9337L33.5381 38.9134L25.0513 18.6783L25.0028 18.6987ZM19.8014 16.5711C21.8252 15.7223 24.154 16.6748 25.0028 18.6987L25.0513 18.6783C24.1912 16.6277 21.8317 15.6626 19.7811 16.5226L19.8014 16.5711ZM8.69887 21.2277L19.8014 16.5711L19.7811 16.5226L8.67853 21.1792L8.69887 21.2277ZM16.2814 20.6158L17.5296 20.0923L17.5093 20.0438L16.2611 20.5673L16.2814 20.6158ZM14.8367 20.2957C15.3405 20.0844 15.9043 20.2265 16.2518 20.6093L16.2907 20.5739C15.9287 20.1752 15.3414 20.027 14.8163 20.2472L14.8367 20.2957ZM14.0686 21.5249C14.0391 21.0088 14.3328 20.5071 14.8367 20.2957L14.8163 20.2472C14.2913 20.4674 13.9854 20.9902 14.0161 21.5279L14.0686 21.5249ZM12.8022 22.0751L14.0525 21.5507L14.0321 21.5022L12.7819 22.0266L12.8022 22.0751ZM12.3588 23.159C12.1819 22.7372 12.3804 22.2519 12.8022 22.0751L12.7819 22.0266C12.3333 22.2147 12.1222 22.7308 12.3103 23.1793L12.3588 23.159ZM13.4428 23.6024C13.021 23.7793 12.5357 23.5808 12.3588 23.159L12.3103 23.1793C12.4985 23.6279 13.0146 23.839 13.4631 23.6509L13.4428 23.6024ZM15.7771 22.6233L13.4428 23.6024L13.4631 23.6509L15.7974 22.6718L15.7771 22.6233ZM15.8077 22.611C15.7977 22.6151 15.7877 22.6192 15.7777 22.6231L15.7968 22.6721C15.8072 22.668 15.8176 22.6638 15.828 22.6594L15.8077 22.611ZM15.8373 22.5981C15.8275 22.6025 15.8177 22.6068 15.8077 22.611L15.828 22.6594C15.8384 22.6551 15.8487 22.6506 15.8589 22.646L15.8373 22.5981ZM18.1702 21.6196L15.838 22.5978L15.8583 22.6463L18.1905 21.6681L18.1702 21.6196ZM18.6136 20.5357C18.7905 20.9575 18.592 21.4428 18.1702 21.6196L18.1905 21.6681C18.6391 21.48 18.8502 20.9639 18.6621 20.5154L18.6136 20.5357ZM17.5296 20.0923C17.9514 19.9154 18.4367 20.1139 18.6136 20.5357L18.6621 20.5154C18.4739 20.0668 17.9578 19.8557 17.5093 20.0438L17.5296 20.0923Z" fill="white" fill-opacity="0.5" mask="url(#path-3-inside-1_2355_52372)"/>
<g clip-path="url(#clip1_2355_52372)">
<path fill-rule="evenodd" clip-rule="evenodd" d="M23.5837 37.3862C26.2305 35.3366 26.7231 31.5402 24.6839 28.9069C22.6448 26.2737 18.8459 25.8005 16.1985 27.8506C13.7855 29.7192 13.163 33.0402 14.6172 35.6073L14.628 35.6045L14.6287 35.6043C15.6789 35.3128 16.729 35.0213 17.7795 34.7314C17.8167 34.7209 17.8347 34.7024 17.8486 34.6668C17.9586 34.3795 18.137 34.1412 18.3824 33.9549C18.414 33.9313 18.4219 33.9069 18.4199 33.8698C18.3771 33.0752 18.3348 32.2811 18.2936 31.4862C18.2917 31.4481 18.28 31.4186 18.2574 31.3883C17.6965 30.6412 17.6652 29.6337 18.1786 28.8466C18.3322 28.6109 18.5248 28.4113 18.7554 28.2511C19.6174 27.6506 20.7359 27.7427 21.4783 28.3925C22.3684 29.1722 22.4796 30.5203 21.7305 31.443C21.6229 31.576 21.4996 31.6935 21.365 31.7986C21.3396 31.8183 21.3238 31.8397 21.3146 31.8707C21.084 32.6354 20.8528 33.4006 20.6212 34.1652C20.6102 34.2022 20.6162 34.2279 20.6393 34.2578C21.061 34.7976 21.1188 35.633 20.5945 36.2677C20.051 36.9265 19.0744 37.0535 18.3751 36.5201C18.3364 36.4904 18.3034 36.4847 18.2576 36.4972C17.6252 36.6727 16.2568 37.0461 15.8467 37.133C17.9753 39.0374 21.2336 39.2061 23.5837 37.3862ZM19.121 28.8965C18.4824 29.3919 18.3633 30.3184 18.856 30.9548C19.356 31.592 20.271 31.7112 20.9151 31.2133C21.5822 30.6986 21.663 29.7678 21.1836 29.1524C20.6858 28.5143 19.7637 28.3979 19.121 28.8965ZM20.6984 30.9191C20.2155 31.2948 19.5261 31.2095 19.1507 30.7331C18.7908 30.2767 18.8402 29.5761 19.3427 29.1815C19.8248 28.8036 20.5181 28.8904 20.8943 29.3727C21.2679 29.8515 21.1801 30.5442 20.6984 30.9191ZM20.2259 35.1802C20.1816 34.6173 19.6462 34.2336 19.0958 34.3695C18.9321 34.4099 18.7702 34.4555 18.6083 34.501L18.6083 34.501C18.534 34.5219 18.4597 34.5428 18.3852 34.5633C18.3637 34.5689 18.3422 34.5745 18.3105 34.5825C18.6045 34.0893 19.3031 33.812 19.9286 34.138C20.5419 34.4577 20.7709 35.2138 20.4396 35.8222C20.1099 36.4267 19.3796 36.6238 18.8208 36.3482L18.8347 36.3435C18.855 36.3367 18.8711 36.3312 18.8875 36.3269L18.8879 36.3268C19.101 36.2683 19.3141 36.2097 19.5275 36.1528C19.6528 36.1191 19.7716 36.0685 19.8725 35.9867C20.126 35.7785 20.2518 35.5093 20.2259 35.1802Z" fill="white"/>
</g>
<path d="M22.8953 21.1959L22.7148 20.7656C22.5373 20.8248 22.3612 20.8618 22.1865 20.8768C22.0134 20.8881 21.8517 20.8716 21.7013 20.8274L21.6881 20.3683C21.8489 20.4082 22.0128 20.4223 22.1796 20.4106C22.3464 20.3989 22.5171 20.3564 22.6919 20.2831C22.8822 20.2033 23.0075 20.1109 23.0677 20.0059C23.128 19.9009 23.1367 19.7976 23.0941 19.6959C23.0558 19.6046 22.9952 19.5442 22.9123 19.5145C22.8293 19.4849 22.7038 19.4855 22.5357 19.5161L22.0834 19.6C21.8268 19.6463 21.6134 19.6346 21.4432 19.565C21.2744 19.4916 21.1479 19.3546 21.0637 19.1538C20.9719 18.9347 20.9691 18.7197 21.0554 18.5087C21.1432 18.2941 21.307 18.118 21.5468 17.9807L21.3614 17.5387L21.7526 17.3746L21.9363 17.8127C22.0774 17.7689 22.2227 17.7462 22.3724 17.7448C22.522 17.7434 22.6598 17.7684 22.7856 17.8199L22.7945 18.2577C22.5197 18.1583 22.2285 18.1731 21.9208 18.3021C21.7591 18.37 21.6446 18.4624 21.5772 18.5796C21.5114 18.6931 21.5036 18.8098 21.5539 18.9298C21.5911 19.0184 21.6512 19.0776 21.7341 19.1072C21.817 19.1368 21.931 19.138 22.076 19.1109L22.5284 19.027C22.8017 18.9768 23.0235 18.9865 23.1937 19.0561C23.3655 19.1221 23.4924 19.2528 23.5744 19.4484C23.6663 19.6674 23.6661 19.8791 23.574 20.0833C23.4833 20.2839 23.3257 20.4527 23.1011 20.5898L23.2864 21.0318L22.8953 21.1959Z" fill="white"/>
</g>
<g filter="url(#filter0_d_2355_52372)">
<mask id="path-8-inside-2_2355_52372" fill="white">
<path fill-rule="evenodd" clip-rule="evenodd" d="M33.3744 11.0021C31.2357 10.4486 29.0533 11.7338 28.4999 13.8724L23.0028 35.1155C22.4494 37.2542 23.7345 39.4366 25.8732 39.99L37.5288 43.0061C39.6675 43.5595 41.8499 42.2744 42.4033 40.1357L47.9004 18.8927C48.4538 16.754 47.1687 14.5716 45.03 14.0182L33.3744 11.0021ZM41.0889 15.4446L39.7788 15.1056C39.7331 14.5797 39.3629 14.1156 38.8228 13.9758C38.2826 13.8361 37.7338 14.0623 37.4387 14.5L36.126 14.1603C35.6692 14.0421 35.203 14.3166 35.0848 14.7734C34.9666 15.2303 35.2411 15.6964 35.6979 15.8146L38.1583 16.4513L38.1806 16.4573L38.2031 16.4629L40.6608 17.0989C41.1176 17.2171 41.5838 16.9426 41.702 16.4858C41.8202 16.029 41.5457 15.5628 41.0889 15.4446Z"/>
</mask>
<path fill-rule="evenodd" clip-rule="evenodd" d="M33.3744 11.0021C31.2357 10.4486 29.0533 11.7338 28.4999 13.8724L23.0028 35.1155C22.4494 37.2542 23.7345 39.4366 25.8732 39.99L37.5288 43.0061C39.6675 43.5595 41.8499 42.2744 42.4033 40.1357L47.9004 18.8927C48.4538 16.754 47.1687 14.5716 45.03 14.0182L33.3744 11.0021ZM41.0889 15.4446L39.7788 15.1056C39.7331 14.5797 39.3629 14.1156 38.8228 13.9758C38.2826 13.8361 37.7338 14.0623 37.4387 14.5L36.126 14.1603C35.6692 14.0421 35.203 14.3166 35.0848 14.7734C34.9666 15.2303 35.2411 15.6964 35.6979 15.8146L38.1583 16.4513L38.1806 16.4573L38.2031 16.4629L40.6608 17.0989C41.1176 17.2171 41.5838 16.9426 41.702 16.4858C41.8202 16.029 41.5457 15.5628 41.0889 15.4446Z" fill="url(#paint1_linear_2355_52372)"/>
<path d="M39.7788 15.1056L39.7526 15.1079L39.7542 15.1264L39.7722 15.131L39.7788 15.1056ZM37.4387 14.5L37.4321 14.5255L37.4501 14.5301L37.4605 14.5147L37.4387 14.5ZM36.126 14.1603L36.1194 14.1858L36.126 14.1603ZM38.1583 16.4513L38.1651 16.4259L38.1649 16.4259L38.1583 16.4513ZM38.1806 16.4573L38.1738 16.4827L38.1743 16.4828L38.1806 16.4573ZM38.2031 16.4629L38.2097 16.4374L38.2094 16.4374L38.2031 16.4629ZM40.6608 17.0989L40.6674 17.0734L40.6608 17.0989ZM28.5253 13.879C29.0751 11.7544 31.2432 10.4777 33.3678 11.0275L33.381 10.9766C31.2282 10.4196 29.0315 11.7131 28.4744 13.8659L28.5253 13.879ZM23.0283 35.1221L28.5253 13.879L28.4744 13.8659L22.9774 35.1089L23.0283 35.1221ZM25.8798 39.9645C23.7551 39.4148 22.4785 37.2467 23.0283 35.1221L22.9774 35.1089C22.4203 37.2616 23.7139 39.4584 25.8666 40.0155L25.8798 39.9645ZM37.5354 42.9807L25.8798 39.9645L25.8666 40.0155L37.5222 43.0316L37.5354 42.9807ZM42.3778 40.1292C41.8281 42.2538 39.66 43.5305 37.5354 42.9807L37.5222 43.0316C39.6749 43.5886 41.8717 42.2951 42.4288 40.1423L42.3778 40.1292ZM47.8749 18.8861L42.3778 40.1292L42.4288 40.1423L47.9258 18.8993L47.8749 18.8861ZM45.0234 14.0436C47.148 14.5934 48.4247 16.7615 47.8749 18.8861L47.9258 18.8993C48.4829 16.7465 47.1893 14.5498 45.0366 13.9927L45.0234 14.0436ZM33.3678 11.0275L45.0234 14.0436L45.0366 13.9927L33.381 10.9766L33.3678 11.0275ZM39.7722 15.131L41.0823 15.47L41.0955 15.4191L39.7854 15.0801L39.7722 15.131ZM38.8162 14.0013C39.3452 14.1382 39.7079 14.5927 39.7526 15.1079L39.805 15.1033C39.7584 14.5667 39.3806 14.093 38.8293 13.9504L38.8162 14.0013ZM37.4605 14.5147C37.7495 14.086 38.2871 13.8644 38.8162 14.0013L38.8293 13.9504C38.2781 13.8077 37.718 14.0387 37.4169 14.4853L37.4605 14.5147ZM36.1194 14.1858L37.4321 14.5255L37.4453 14.4746L36.1326 14.1349L36.1194 14.1858ZM35.1102 14.78C35.2248 14.3373 35.6766 14.0712 36.1194 14.1858L36.1326 14.1349C35.6617 14.013 35.1812 14.296 35.0593 14.7669L35.1102 14.78ZM35.7045 15.7892C35.2617 15.6746 34.9957 15.2228 35.1102 14.78L35.0593 14.7669C34.9375 15.2377 35.2204 15.7182 35.6913 15.8401L35.7045 15.7892ZM38.1649 16.4259L35.7045 15.7892L35.6913 15.8401L38.1517 16.4768L38.1649 16.4259ZM38.1874 16.4319L38.1651 16.4259L38.1515 16.4767L38.1738 16.4827L38.1874 16.4319ZM38.2094 16.4374L38.187 16.4318L38.1743 16.4828L38.1967 16.4884L38.2094 16.4374ZM40.6674 17.0734L38.2097 16.4374L38.1965 16.4884L40.6542 17.1243L40.6674 17.0734ZM41.6766 16.4792C41.562 16.922 41.1102 17.188 40.6674 17.0734L40.6542 17.1243C41.1251 17.2462 41.6056 16.9632 41.7275 16.4924L41.6766 16.4792ZM41.0823 15.47C41.5251 15.5846 41.7911 16.0364 41.6766 16.4792L41.7275 16.4924C41.8493 16.0215 41.5664 15.541 41.0955 15.4191L41.0823 15.47Z" fill="white" fill-opacity="0.5" mask="url(#path-8-inside-2_2355_52372)"/>
<g clip-path="url(#clip2_2355_52372)">
<path fill-rule="evenodd" clip-rule="evenodd" d="M35.4316 32.9006C38.7791 32.8719 41.4697 30.1487 41.4412 26.8183C41.4126 23.488 38.6756 20.8114 35.3274 20.8401C32.2755 20.8663 29.7694 23.1324 29.3725 26.056L29.3827 26.0603L29.3834 26.0606C30.3957 26.4644 31.408 26.8682 32.4196 27.2735C32.4555 27.2877 32.481 27.2839 32.5137 27.264C32.7752 27.1019 33.0614 27.0203 33.3696 27.0206C33.409 27.0209 33.4301 27.0062 33.451 26.9755C33.898 26.3172 34.3451 25.6596 34.7936 25.002C34.8152 24.9705 34.8237 24.94 34.8241 24.9022C34.83 23.968 35.4151 23.1472 36.3002 22.8316C36.5652 22.737 36.8394 22.6947 37.1199 22.7069C38.1695 22.7509 39.0039 23.5014 39.2013 24.468C39.4376 25.6275 38.7099 26.7677 37.5551 27.0486C37.3889 27.0892 37.2197 27.1081 37.0489 27.1103C37.0167 27.1106 36.9912 27.118 36.9651 27.1372C36.3186 27.6062 35.6713 28.0752 35.024 28.5435C34.9928 28.5662 34.9821 28.5903 34.9824 28.6281C34.9912 29.313 34.5314 30.0129 33.7298 30.2006C32.8984 30.3959 32.0443 29.9056 31.8107 29.0577C31.7978 29.0106 31.775 28.9861 31.731 28.9683C31.1215 28.7251 29.8063 28.1938 29.4272 28.0147C29.9683 30.8191 32.4594 32.9261 35.4316 32.9006ZM37.0204 23.4422C36.2122 23.4498 35.5564 24.115 35.5633 24.9199C35.5754 25.7297 36.2315 26.3786 37.0456 26.3723C37.8881 26.3665 38.516 25.6747 38.5071 24.8946C38.4972 24.0854 37.8338 23.4345 37.0204 23.4422ZM37.0512 26.0069C36.4394 26.0136 35.9424 25.5282 35.9321 24.9218C35.922 24.3407 36.3855 23.813 37.0243 23.8032C37.6368 23.7943 38.136 24.2832 38.1435 24.8948C38.1509 25.502 37.6616 26.0002 37.0512 26.0069ZM34.0947 29.1121C34.4002 28.6373 34.2064 28.0077 33.6861 27.7827C33.5313 27.7158 33.3749 27.654 33.2184 27.5922L33.2183 27.5922C33.1466 27.5638 33.0748 27.5355 33.0032 27.5067L33.0032 27.5067C32.9827 27.4981 32.9622 27.4896 32.9321 27.4768C33.4647 27.2623 34.1886 27.4645 34.4891 28.1027C34.7836 28.7285 34.5081 29.4689 33.876 29.7525C33.2476 30.034 32.5471 29.7487 32.2692 29.191L32.2831 29.1957C32.3034 29.2025 32.3195 29.208 32.3352 29.2144L32.3355 29.2145C32.5405 29.297 32.7456 29.3795 32.9499 29.4634C33.0701 29.5125 33.1952 29.5441 33.3251 29.5401C33.6529 29.5278 33.916 29.3897 34.0947 29.1121Z" fill="white"/>
</g>
<path d="M44.6856 19.597L44.8024 19.1453C44.6253 19.0849 44.4627 19.0078 44.3147 18.914C44.17 18.8181 44.0513 18.7071 43.9584 18.5808L44.2258 18.2075C44.3297 18.3366 44.4516 18.447 44.5914 18.5387C44.7312 18.6304 44.8929 18.6999 45.0763 18.7474C45.2761 18.7991 45.4318 18.8014 45.5433 18.7543C45.6548 18.7072 45.7243 18.6303 45.752 18.5235C45.7768 18.4277 45.7651 18.3429 45.717 18.2692C45.6689 18.1954 45.5687 18.1198 45.4164 18.0424L45.0056 17.8353C44.7734 17.7168 44.6106 17.5783 44.5173 17.4198C44.4274 17.2593 44.4097 17.0736 44.4643 16.8628C44.5238 16.6329 44.6517 16.46 44.8481 16.3444C45.048 16.2267 45.285 16.1858 45.559 16.2216L45.6791 15.7576L46.0897 15.8639L45.9707 16.3238C46.1095 16.3743 46.2389 16.4443 46.3589 16.5338C46.4788 16.6232 46.5733 16.7265 46.6423 16.8437L46.3843 17.1975C46.2258 16.9521 45.985 16.7875 45.662 16.704C45.4923 16.66 45.3451 16.6643 45.2206 16.7168C45.0994 16.7672 45.0226 16.8554 44.99 16.9813C44.9659 17.0744 44.9779 17.1578 45.026 17.2316C45.0741 17.3054 45.1641 17.3754 45.2959 17.4416L45.7067 17.6487C45.9546 17.7742 46.1253 17.9162 46.2186 18.0747C46.3154 18.2312 46.3372 18.4121 46.2841 18.6174C46.2246 18.8474 46.0963 19.0157 45.8993 19.1225C45.7057 19.2272 45.478 19.2661 45.2163 19.2393L45.0962 19.7033L44.6856 19.597Z" fill="white"/>
</g>
<defs>
<filter id="filter0_d_2355_52372" x="11" y="5" width="40.9023" height="48.0083" filterUnits="userSpaceOnUse" color-interpolation-filters="sRGB">
<feFlood flood-opacity="0" result="BackgroundImageFix"/>
<feColorMatrix in="SourceAlpha" type="matrix" values="0 0 0 0 0 0 0 0 0 0 0 0 0 0 0 0 0 0 127 0" result="hardAlpha"/>
<feOffset dx="-4" dy="2"/>
<feGaussianBlur stdDeviation="3.5"/>
<feComposite in2="hardAlpha" operator="out"/>
<feColorMatrix type="matrix" values="0 0 0 0 0 0 0 0 0 0 0 0 0 0 0 0 0 0 0.3 0"/>
<feBlend mode="normal" in2="BackgroundImageFix" result="effect1_dropShadow_2355_52372"/>
<feBlend mode="normal" in="SourceGraphic" in2="effect1_dropShadow_2355_52372" result="shape"/>
</filter>
<linearGradient id="paint0_linear_2355_52372" x1="17.4436" y1="18.7074" x2="34.6918" y2="88.3736" gradientUnits="userSpaceOnUse">
<stop stop-color="#4277FF"/>
<stop offset="1" stop-color="#0054B7"/>
</linearGradient>
<linearGradient id="paint1_linear_2355_52372" x1="41.8534" y1="14.3163" x2="13.4009" y2="80.2051" gradientUnits="userSpaceOnUse">
<stop stop-color="#4277FF"/>
<stop offset="1" stop-color="#0054B7"/>
</linearGradient>
<clipPath id="clip0_2355_52372">
<rect x="5" y="22.7505" width="20.0395" height="29.9427" rx="2.5" transform="rotate(-22.7537 5 22.7505)" fill="white"/>
</clipPath>
<clipPath id="clip1_2355_52372">
<rect width="14.2847" height="14.2847" fill="white" transform="translate(9.28516 30.3843) rotate(-37.7537)"/>
</clipPath>
<clipPath id="clip2_2355_52372">
<rect width="14.2847" height="14.2847" fill="white" transform="translate(28.291 18.6704) rotate(-0.491818)"/>
</clipPath>
</defs>
</svg>
