<svg width="24" height="24" viewBox="0 0 24 24" fill="none" xmlns="http://www.w3.org/2000/svg">
<rect width="24" height="24" rx="6" fill="#ECCF1B"/>
<g filter="url(#filter0_i_2849_43052)">
<path d="M19.8248 14.896C19.6703 14.9568 19.5396 14.8657 19.4207 14.972C19.4088 14.972 19.397 14.972 19.3851 14.9568C19.2068 14.8809 19.2068 14.8809 19.2068 15.1086C19.2068 15.5033 19.2068 15.898 19.2068 16.2928C19.2068 16.6419 19.0167 16.8849 18.7434 16.8849C18.6008 16.8849 18.4582 16.8697 18.3156 16.8849C18.2205 16.9 18.1611 16.7786 18.066 16.8089C17.7927 16.9152 17.5194 16.8697 17.2341 16.8697C16.4736 16.8697 15.713 16.8697 14.9406 16.8697C14.9168 16.8697 14.798 16.9456 14.8574 16.7786C14.8812 16.733 14.8099 16.7482 14.7861 16.7482C14.7624 16.7482 14.7148 16.7482 14.7386 16.7938C14.798 16.9304 14.7148 16.8849 14.6673 16.8849C13.6453 16.8849 12.6352 16.8849 11.6132 16.8849C11.4825 16.8849 11.3518 16.8849 11.2211 16.8849C11.1498 16.8849 11.0903 16.8849 11.0903 16.7482C10.9715 16.8849 10.6625 16.9304 10.5318 16.8393C10.4249 16.7482 10.306 16.733 10.211 16.8393C10.1753 16.9152 10.1278 16.9152 10.0802 16.9152C9.84256 16.9152 9.60489 16.8697 9.3791 16.9304C9.14143 16.9911 8.90376 16.9608 8.67797 16.9759C8.40465 16.9911 8.13132 17.0215 7.858 16.9759C7.27571 16.8697 6.70529 16.9759 6.123 16.9C5.90909 16.8697 5.67142 16.6875 5.68331 16.3231C5.69519 15.9284 5.68331 15.5337 5.68331 15.139C5.68331 15.0023 5.64766 15.0023 5.56447 14.9871C5.43375 14.972 5.29115 15.0479 5.16043 14.9416C5.04159 14.8505 4.97029 14.6987 5.02971 14.5469C5.07724 14.4254 5.06536 14.3191 5.06536 14.1977C5.06536 14.0155 5.14854 13.9092 5.29115 13.8941C5.30303 13.8941 5.31491 13.8941 5.31491 13.8941C5.43375 13.8789 5.57635 13.9548 5.64766 13.8637C5.70707 13.7726 5.67142 13.5904 5.67142 13.4538C5.67142 12.6795 5.67142 11.9204 5.67142 11.1462C5.67142 10.5085 5.67142 9.87089 5.67142 9.24844C5.67142 9.11181 5.63577 9.08144 5.5407 9.09663C5.4694 9.11181 5.38622 9.08144 5.31491 9.09663C5.14854 9.15735 5.10101 8.97517 5.01783 8.8689C4.99406 8.83854 4.99406 8.76263 5.01783 8.74745C5.08913 8.65636 5.07724 8.5349 5.06536 8.42863C5.05348 8.30718 5.16043 8.21609 5.10101 8.09463C5.10101 8.09463 5.11289 8.07945 5.12478 8.07945C5.2555 8.06427 5.38622 8.03391 5.50505 8.06427C5.64766 8.09463 5.68331 8.07945 5.68331 7.91245C5.68331 7.44182 5.68331 6.956 5.68331 6.48537C5.68331 6.30319 5.81403 6.10583 5.94474 6.07546C6.32502 5.98437 6.71718 5.98437 7.09745 6.02992C7.88177 6.12101 8.67797 6.0451 9.46229 6.09064C9.62866 6.10583 9.78314 6.07546 9.94951 6.07546C10.4605 6.09064 10.9834 6.07546 11.4944 6.07546C11.53 6.07546 11.6489 6.01473 11.5776 6.18173C11.5657 6.19692 11.6132 6.27282 11.6489 6.25764C11.6726 6.24246 11.7202 6.2121 11.6964 6.15137C11.6489 6.0451 11.7083 6.07546 11.7439 6.07546C12.4213 6.07546 13.0987 6.07546 13.776 6.07546C13.9662 6.22728 14.1444 6.13619 14.3346 6.09064C14.5366 6.0451 14.7386 6.09064 14.9525 6.07546C15.1308 6.07546 15.309 6.01473 15.4873 6.01473C15.6061 6.01473 15.6893 6.07546 15.8081 6.07546C16.0101 6.07546 16.2122 6.06028 16.4142 6.07546C16.5449 6.09064 16.6994 6.01473 16.8063 6.07546C16.9608 6.16655 17.1272 5.95401 17.2698 6.12101C17.2698 6.12101 17.2817 6.12101 17.2936 6.12101C17.4599 5.92364 17.6263 6.02992 17.8046 6.07546C17.9472 6.12101 18.1135 6.06028 18.2561 6.09064C18.4582 6.13619 18.6483 6.13619 18.8503 6.15137C18.9454 6.15137 19.0167 6.27282 19.0405 6.36391C19.0642 6.47019 19.1236 6.57646 19.1118 6.71309C19.0642 7.13818 19.1712 7.54809 19.1712 7.98836C19.1712 8.17054 19.3019 8.07945 19.3732 8.06427C19.5039 8.01872 19.6346 8.10981 19.7654 8.07945C19.7772 8.07945 19.7891 8.09463 19.801 8.09463C19.7297 8.2009 19.8248 8.27681 19.8248 8.3679C19.8248 8.50454 19.8129 8.62599 19.8723 8.76263C19.9198 8.88408 19.7891 9.09663 19.6822 9.09663C19.5396 9.09663 19.4088 9.09663 19.2662 9.09663C19.1949 9.09663 19.1712 9.12699 19.1712 9.21808C19.1712 9.38508 19.1831 9.5369 19.1712 9.7039C19.1593 9.79499 19.2544 9.84053 19.2187 9.93162C19.1118 10.2049 19.1949 10.4933 19.1712 10.7666C19.1593 10.8729 19.2544 10.9488 19.2187 11.0551C19.1355 11.3587 19.1949 11.6775 19.1712 11.9812C19.1593 12.0874 19.2068 12.1785 19.2068 12.2848C19.2068 12.6188 19.1355 12.9528 19.1712 13.2868C19.1831 13.4386 19.2068 13.5904 19.1712 13.7422C19.1474 13.8637 19.2068 13.9244 19.3019 13.9244C19.3851 13.9244 19.4801 13.9396 19.5514 13.9244C19.7059 13.8637 19.7772 14.0155 19.8485 14.137C19.8604 14.1521 19.8723 14.1977 19.8604 14.2129C19.7772 14.3799 19.8367 14.5772 19.801 14.7442C19.7772 14.7898 19.7416 14.8353 19.8248 14.896ZM9.73561 15.9588C9.78314 15.8373 9.85444 15.8221 9.93763 15.8221C10.104 15.8221 10.2704 15.8221 10.4367 15.8221C10.615 15.8221 10.7814 15.8373 10.9596 15.8829C11.0547 15.9132 11.1498 15.8373 11.2567 15.8677C11.3755 15.9132 11.5181 15.9132 11.6489 15.8677C11.7677 15.8221 11.8865 16.0499 11.9816 15.8525C12.1361 15.9284 12.2906 15.8373 12.4451 15.8221C12.7778 15.807 13.1105 15.8221 13.4433 15.8221C14.0018 15.807 14.5485 15.8373 15.107 15.8829C15.2852 15.898 15.4516 15.8525 15.6299 15.8221C15.8319 15.7918 16.0458 15.807 16.2478 15.8221C16.5568 15.8525 16.8658 15.7462 17.1628 15.8829C17.1747 15.8829 17.1985 15.8829 17.1985 15.8677C17.246 15.7918 17.3054 15.8221 17.353 15.8221C17.6501 15.807 17.9472 15.807 18.2324 15.8829C18.3393 15.9132 18.3631 15.8525 18.3631 15.7159C18.3274 14.6835 18.4106 13.6511 18.3156 12.6188C18.2799 12.2241 18.2918 11.8293 18.3156 11.4346C18.3274 11.3132 18.2086 11.1158 18.3987 11.0551C18.3987 11.0551 18.4106 11.0247 18.3987 11.0247C18.268 10.8577 18.4938 10.5844 18.3156 10.4174C18.3037 10.4023 18.3156 10.3567 18.3156 10.3415C18.2799 10.129 18.3869 9.9468 18.3631 9.74944C18.3512 9.59762 18.3037 9.46099 18.3037 9.30917C18.3156 8.64117 18.3037 7.97318 18.3037 7.32036C18.3037 7.25964 18.3393 7.16855 18.2443 7.16855C18.0303 7.15336 17.8164 7.15336 17.6025 7.10782C17.4481 7.07746 17.2936 7.10782 17.1391 7.10782C16.6994 7.10782 16.2478 7.03191 15.8081 7.15336C15.6061 7.21409 15.3803 7.09264 15.1664 7.15336C15.0595 7.18373 14.9644 7.07746 14.8455 7.15336C14.8099 7.16855 14.7624 7.13818 14.7386 7.07746C14.7267 7.04709 14.8218 6.956 14.7148 6.97118C14.6673 6.97118 14.5722 6.91046 14.5722 7.04709C14.5722 7.07746 14.5485 7.09264 14.5247 7.09264C14.5009 7.09264 14.4772 7.07746 14.4772 7.04709C14.4772 7.01673 14.4772 6.97118 14.4296 6.97118C14.394 7.00155 14.4296 7.10782 14.3702 7.09264C14.2276 7.04709 14.1088 7.16855 13.9662 7.15336C13.4314 7.123 12.8966 7.123 12.3619 7.10782C11.3399 7.07746 10.3179 7.01673 9.29591 7.15336C9.03448 7.18373 8.77304 7.15336 8.5116 7.16855C8.26204 7.18373 8.0006 7.123 7.75105 7.16855C7.41831 7.22927 7.09745 7.10782 6.76471 7.10782C6.51516 7.10782 6.52704 7.10782 6.51516 7.42664C6.50327 7.63918 6.50327 7.86691 6.46762 8.07945C6.45574 8.125 6.45574 8.18572 6.46762 8.21609C6.53892 8.39827 6.50327 8.58045 6.51516 8.76263C6.52704 8.88408 6.51516 8.99035 6.37255 9.00554C6.55081 8.97517 6.51516 9.11181 6.51516 9.21808C6.51516 9.7039 6.51516 10.1745 6.51516 10.6603C6.51516 10.7211 6.51516 10.7818 6.47951 10.8425C6.43197 10.9184 6.44386 11.0399 6.46762 11.1006C6.51516 11.1917 6.50327 11.2828 6.50327 11.3739C6.50327 12.5884 6.50327 13.7878 6.50327 15.0023C6.50327 15.0327 6.56269 15.1693 6.44386 15.0782C6.39632 15.0479 6.4082 15.1238 6.4082 15.1541C6.4082 15.1845 6.39632 15.2604 6.44386 15.23C6.56269 15.1541 6.51516 15.2756 6.51516 15.3211C6.51516 15.4426 6.51516 15.5792 6.51516 15.7007C6.51516 15.807 6.52704 15.8525 6.62211 15.8373C6.83601 15.807 7.04992 15.9284 7.26382 15.9132C7.33512 15.9132 7.41831 16.0347 7.45396 15.8525C7.45396 15.8373 7.53714 15.8221 7.54903 15.8525C7.59656 15.9284 7.66786 15.9132 7.72728 15.898C8.04814 15.8677 8.38088 15.9436 8.70174 15.8525C8.91564 15.7918 9.14143 15.8829 9.35533 15.8525C9.43852 15.8373 9.53359 15.8677 9.62865 15.8373C9.72372 15.8221 9.74749 15.8373 9.73561 15.9588Z" fill="black"/>
</g>
<path d="M14.8681 8.458C14.8681 8.86791 14.8799 9.293 14.8562 9.7029C14.8443 9.8699 14.8205 10.0369 14.8205 10.2191C14.8205 10.3102 14.8205 10.3861 14.8562 10.4772C14.9275 10.6594 14.773 11.1452 14.5947 11.2514C14.8562 11.4184 14.8799 11.6917 14.8562 12.0105C14.8443 12.1016 14.8681 12.2079 14.8681 12.299C14.8443 12.7848 14.9394 13.2706 14.8918 13.7564C14.8681 14.0297 14.9394 14.3333 14.773 14.5762C14.6898 14.6977 14.6066 14.7888 14.4878 14.7888C13.9887 14.804 13.4777 14.7888 12.9786 14.7888C12.8954 14.7888 12.8716 14.7432 12.931 14.6521C12.9786 14.5914 12.9667 14.4851 12.9429 14.4396C12.8716 14.3333 12.8954 14.2271 12.8954 14.1056C12.8954 13.6805 12.8954 13.2402 12.8954 12.8152C12.8954 12.7241 12.9073 12.6482 12.931 12.5571C12.9548 12.4812 12.9191 12.3597 12.9073 12.2534C12.9073 12.2231 12.8954 12.1927 12.8954 12.1623C12.8954 11.9953 12.9191 11.8435 12.8003 11.7069C12.7409 11.6462 12.7528 11.5095 12.7409 11.4033C12.729 11.3273 12.8003 11.2059 12.6934 11.1603C12.8003 11.13 12.7052 10.9782 12.7765 10.9174C12.8835 10.8264 12.8835 10.7201 12.9073 10.5379C12.9429 10.295 12.8835 10.0521 12.8954 9.80917C12.9073 9.27781 12.8954 8.76164 12.8954 8.23027C12.8954 8.15437 12.8835 8.09364 12.9786 8.09364C13.3945 8.09364 13.7985 8.07846 14.2145 8.10882C14.3214 8.10882 14.4165 8.16955 14.5234 8.10882C14.6423 8.06328 14.7017 8.18473 14.7849 8.27582C14.8086 8.291 14.8086 8.32137 14.7968 8.35173C14.773 8.38209 14.7492 8.41246 14.773 8.458C14.8205 8.53391 14.8443 8.41246 14.8681 8.458ZM13.9055 13.9538C13.9887 13.969 14.0837 13.969 14.1075 13.8172C14.1194 13.7412 14.0719 13.6957 14.0719 13.6198C14.0719 13.4072 14.1075 13.2099 14.0837 12.9973C14.06 12.8 14.0719 12.6026 14.0837 12.3901C14.0956 12.2231 14.0362 12.0561 14.0837 11.8739C14.0956 11.8132 14.0837 11.7524 14.0124 11.7524C13.9411 11.7524 13.8817 11.7524 13.8104 11.7524C13.6916 11.7524 13.6559 11.8283 13.6678 11.9802C13.7035 12.466 13.6797 12.9518 13.6797 13.4376C13.6797 13.4832 13.6678 13.5287 13.644 13.5742C13.5846 13.7109 13.644 13.9082 13.7629 13.9386C13.7985 13.969 13.8461 13.9538 13.9055 13.9538ZM13.8817 9.01972C13.8342 9.01972 13.7866 9.01972 13.751 9.01972C13.7035 9.01972 13.6797 9.03491 13.6797 9.11082C13.6678 9.42963 13.6678 9.76363 13.6559 10.0824C13.644 10.2798 13.6678 10.5075 13.6797 10.7201C13.6797 10.7656 13.6797 10.8112 13.7272 10.8264C13.8104 10.8415 13.9055 10.8719 13.9887 10.8415C14.0481 10.8264 14.0837 10.796 14.0837 10.6897C14.0837 10.5227 14.0481 10.3405 14.1194 10.1735C14.1432 10.1432 14.1432 10.0673 14.1194 10.0217C14.0362 9.85472 14.0837 9.67254 14.0837 9.49036C14.0837 9.39927 14.0481 9.293 14.0956 9.20191C14.1669 9.06527 14.0837 9.03491 14.0124 9.00454C13.9768 9.00454 13.9293 9.01972 13.8817 9.01972Z" fill="black"/>
<path d="M11.3525 12.0576C11.4357 11.9817 11.5783 12.1183 11.5664 11.921C11.5545 11.6932 11.4 11.8299 11.305 11.7691C11.3882 11.7236 11.5426 11.8299 11.5308 11.6022C11.5189 11.42 11.4 11.5414 11.3168 11.4655C11.5308 11.5414 11.5189 11.3896 11.5189 11.2378C11.5189 10.3269 11.5189 9.4008 11.5189 8.4899C11.5189 8.29253 11.6852 8.1559 11.8278 8.24699C11.8754 8.27735 11.911 8.26217 11.9586 8.26217C12.2557 8.26217 12.4101 8.52026 12.2675 8.88462C12.22 9.00608 12.1725 9.12753 12.2913 9.2338C12.327 9.26416 12.3151 9.32489 12.3151 9.38562C12.3151 9.65889 12.3151 9.91698 12.3151 10.1903C12.3151 10.3572 12.3745 10.5091 12.3626 10.6761C12.3507 10.919 12.3626 11.1467 12.3507 11.3896C12.3507 11.4655 12.3745 11.4807 12.422 11.4807C12.4577 11.4807 12.4933 11.4807 12.529 11.5111C12.4814 11.5111 12.4458 11.5111 12.3983 11.5111C12.3745 11.5111 12.3388 11.5111 12.3507 11.5718C12.3745 11.8754 12.3388 12.1639 12.3151 12.4675C12.2913 12.9533 12.3151 13.424 12.3032 13.9098C12.3032 14.1071 12.2438 14.2893 12.2438 14.4867C12.2438 14.6081 12.0061 14.8055 11.8873 14.8055C11.4 14.8055 10.9128 14.7903 10.4256 14.8055C10.283 14.8055 10.1998 14.684 10.1641 14.5778C10.1285 14.4715 10.0928 14.35 10.0928 14.2134C10.1047 13.8946 10.1047 13.5758 10.0928 13.257C10.0928 13.0748 10.1285 12.923 10.1404 12.7408C10.1641 12.4979 10.0453 12.255 10.1047 12.0272C10.176 11.7084 10.0928 11.3592 10.1879 11.0556C10.1879 11.0404 10.1998 11.0252 10.1879 11.0101C10.081 10.752 10.1641 10.4787 10.1404 10.2206C10.1285 10.0992 10.2117 9.99289 10.1641 9.85625C10.1047 9.67407 10.2473 9.50707 10.1998 9.32489C10.1879 9.29453 10.2236 9.27935 10.2354 9.26416C10.2949 9.17307 10.3424 9.09717 10.1998 9.09717C10.1404 9.09717 10.1404 9.03644 10.1404 8.99089C10.1404 8.76317 10.1404 8.53544 10.1404 8.30772C10.1404 8.23181 10.1641 8.18626 10.2236 8.20144C10.3424 8.23181 10.4731 8.14072 10.5801 8.26217C10.592 8.27735 10.6395 8.27735 10.6633 8.26217C10.7108 8.24699 10.7346 8.14072 10.794 8.23181C10.8415 8.30772 10.9009 8.36844 10.9009 8.4899C10.889 8.76317 10.889 9.03644 10.9009 9.30971C10.9128 10.0233 10.9841 10.7368 10.9485 11.4503C10.9366 11.6477 10.9841 11.8451 10.9009 12.0272C10.8772 12.088 10.9485 12.1335 10.9485 12.2094C10.9485 12.4675 10.9841 12.7408 10.9366 12.9837C10.889 13.257 10.9128 13.515 10.9009 13.7731C10.889 13.9098 10.9485 13.9553 11.0435 13.8946C11.1267 13.8339 11.2099 13.8642 11.2931 13.849C11.305 13.849 11.3406 13.8642 11.3287 13.8794C11.2812 13.9705 11.3168 14.0009 11.3882 13.9857C11.4595 13.9705 11.4951 13.925 11.4951 13.8187C11.4951 13.5454 11.4951 13.257 11.4951 12.9837C11.4951 12.9078 11.4713 12.8167 11.5308 12.7408L11.5426 12.7104C11.4595 12.5282 11.5783 12.3461 11.5545 12.1487C11.5545 12.088 11.5308 12.0728 11.4951 12.0728C11.4713 12.0576 11.4238 12.0576 11.3525 12.0576Z" fill="black"/>
<path d="M17.411 14.3647C17.3635 14.3799 17.3872 14.4406 17.3991 14.471C17.4823 14.638 17.3753 14.6835 17.2922 14.7291C17.1258 14.8353 16.9713 14.8353 16.7812 14.805C16.4722 14.7594 16.1632 14.7898 15.8542 14.7898C15.7829 14.7898 15.7116 14.7898 15.6403 14.7291C15.5215 14.6228 15.4383 14.5013 15.4383 14.3191C15.4264 13.3475 15.4264 12.3759 15.4383 11.4043C15.4383 11.1158 15.4264 10.8273 15.4264 10.5541C15.4383 10.2504 15.4264 9.96199 15.4264 9.65835C15.4264 9.61281 15.4264 9.55208 15.3908 9.52172C15.367 9.49136 15.367 9.43063 15.3789 9.41545C15.474 9.15736 15.4146 8.88409 15.4264 8.61082C15.4383 8.38309 15.6166 8.125 15.8067 8.125C16.2345 8.125 16.6623 8.125 17.102 8.125C17.3159 8.125 17.4466 8.27682 17.4466 8.51973C17.4466 8.65636 17.411 8.626 17.3635 8.56527C17.3516 8.67154 17.3516 8.67154 17.4229 8.71709C17.4466 8.73227 17.4466 8.76263 17.4466 8.793C17.4466 9.06627 17.4466 9.35472 17.4466 9.62799C17.4466 9.7039 17.4348 9.73426 17.3753 9.73426C17.209 9.73426 17.0307 9.73426 16.8643 9.73426C16.8287 9.73426 16.8287 9.71908 16.8168 9.65835C16.793 9.46099 16.8049 9.27881 16.793 9.08145C16.793 9.02072 16.7574 9.02072 16.7217 9.02072C16.5791 9.02072 16.4484 9.02072 16.3058 9.02072C16.2108 9.02072 16.1513 9.15736 16.1989 9.24845C16.2345 9.32436 16.2345 9.38508 16.2345 9.46099C16.2345 10.8425 16.2345 12.2241 16.2345 13.6056C16.2345 13.6511 16.2464 13.7119 16.2226 13.7422C16.1157 13.9244 16.2226 13.9092 16.3058 13.9092C16.3534 13.9092 16.4009 13.9092 16.4365 13.9092C16.496 13.8941 16.5316 13.9244 16.5197 14.0155C16.5197 14.0611 16.5197 14.1066 16.5673 14.1066C16.6029 14.1066 16.6504 14.1218 16.6742 14.0459C16.7099 13.9092 16.7455 13.7574 16.8525 13.6512C16.9238 13.5752 16.8762 13.4538 16.793 13.4234C16.7099 13.3931 16.7217 13.3475 16.7217 13.2716C16.7217 12.8769 16.7217 12.4822 16.7217 12.0874C16.7217 11.9356 16.7217 11.7838 16.5791 11.7079C16.5435 11.6927 16.5197 11.632 16.5197 11.5713C16.5197 11.3739 16.5197 11.1765 16.5197 10.9943C16.5197 10.8881 16.5435 10.8425 16.6267 10.8425C16.8643 10.8425 17.102 10.8425 17.3397 10.8425C17.4466 10.8425 17.4823 10.9336 17.4823 11.0399C17.4823 11.8597 17.4823 12.6795 17.4823 13.4993C17.4823 13.7726 17.4823 14.0459 17.4823 14.3191C17.4942 14.3799 17.5061 14.471 17.411 14.3647C17.3872 14.3647 17.3753 14.3343 17.3516 14.3647L17.3635 14.3951C17.3991 14.4254 17.411 14.3951 17.411 14.3647Z" fill="black"/>
<path d="M7.49054 12.7718C7.53808 12.7262 7.56185 12.8629 7.5975 12.7566C7.60938 12.711 7.5975 12.6351 7.54996 12.6351C7.45489 12.6351 7.47866 12.5289 7.49054 12.4985C7.53808 12.4226 7.49054 12.3315 7.5262 12.2556C7.56185 12.1949 7.50243 12.1493 7.46678 12.1189C7.39548 12.043 7.37171 11.9519 7.37171 11.8457C7.38359 11.6939 7.37171 11.542 7.37171 11.4054C7.37171 11.3295 7.32417 11.208 7.45489 11.208C7.49054 11.208 7.47866 11.1321 7.47866 11.0866C7.47866 10.8133 7.47866 10.5249 7.47866 10.2516C7.47866 10.1301 7.46678 10.0239 7.56185 9.93278C7.5975 9.88723 7.62126 9.78096 7.5262 9.7506C7.46678 9.73541 7.47866 9.68987 7.47866 9.64432C7.47866 9.21924 7.47866 8.79415 7.47866 8.36906C7.47866 8.21724 7.58561 8.20206 7.6688 8.20206C8.16791 8.18688 8.6789 8.20206 9.17801 8.20206C9.51075 8.20206 9.5464 8.26279 9.5464 8.68788C9.5464 9.67469 9.5464 10.6463 9.5464 11.6331C9.5464 11.7698 9.51075 11.876 9.4751 11.9823C9.42757 12.1038 9.29685 12.1189 9.1899 12.1189C8.94034 12.1341 8.69079 12.1341 8.44123 12.1189C8.29863 12.1038 8.28674 12.1797 8.28674 12.3163C8.28674 13.045 8.28674 13.7889 8.29863 14.5177C8.29863 14.7606 8.20356 14.9276 8.00154 14.882C7.91835 14.8668 7.83517 14.882 7.76387 14.882C7.54996 14.882 7.49054 14.8061 7.49054 14.5328C7.49054 13.9256 7.49054 13.3487 7.49054 12.7718ZM8.40558 11.2688C8.44123 11.1929 8.5363 11.2536 8.54818 11.208C8.56007 11.0714 8.64325 11.1321 8.6789 11.1321C8.73832 11.1321 8.85716 11.0562 8.85716 10.9651C8.85716 10.9196 8.88092 10.8285 8.83339 10.8133C8.72644 10.7981 8.76209 10.707 8.76209 10.6311C8.76209 10.2364 8.76209 9.85687 8.76209 9.46214C8.76209 9.06742 8.76209 9.0826 8.465 9.05224C8.34616 9.03706 8.31051 9.0826 8.31051 9.23442C8.3224 9.7506 8.31051 10.2668 8.31051 10.783C8.31051 10.8892 8.3224 10.9955 8.19168 10.9348C8.15602 10.9196 8.14414 10.9651 8.15602 10.9955C8.17979 11.041 8.17979 11.1321 8.26298 11.0714C8.29863 11.041 8.38181 11.0866 8.41746 11.1321C8.465 11.1929 8.36993 11.1929 8.40558 11.2688Z" fill="black"/>
<defs>
<filter id="filter0_i_2849_43052" x="5" y="6" width="14.8828" height="11" filterUnits="userSpaceOnUse" color-interpolation-filters="sRGB">
<feFlood flood-opacity="0" result="BackgroundImageFix"/>
<feBlend mode="normal" in="SourceGraphic" in2="BackgroundImageFix" result="shape"/>
<feColorMatrix in="SourceAlpha" type="matrix" values="0 0 0 0 0 0 0 0 0 0 0 0 0 0 0 0 0 0 127 0" result="hardAlpha"/>
<feOffset dx="0.411374" dy="0.411374"/>
<feComposite in2="hardAlpha" operator="arithmetic" k2="-1" k3="1"/>
<feColorMatrix type="matrix" values="0 0 0 0 1 0 0 0 0 1 0 0 0 0 1 0 0 0 1 0"/>
<feBlend mode="normal" in2="shape" result="effect1_innerShadow_2849_43052"/>
</filter>
</defs>
</svg>
