<svg width="28" height="28" viewBox="0 0 28 28" fill="none" xmlns="http://www.w3.org/2000/svg">
<g clip-path="url(#clip0_2608_43241)">
<path d="M27.75 14C27.75 21.5939 21.5939 27.75 14 27.75C6.40608 27.75 0.25 21.5939 0.25 14C0.25 6.40608 6.40608 0.25 14 0.25C21.5939 0.25 27.75 6.40608 27.75 14Z" fill="white" stroke="#DADADA" stroke-width="0.5"/>
<path d="M27.8815 12.1739H15.8262H15.8261V0.118508C15.2283 0.0406875 14.6189 0 14 0C13.3811 0 12.7717 0.0406875 12.1739 0.118508V12.1738V12.1739H0.118508C0.0406875 12.7717 0 13.3811 0 14C0 14.619 0.0406875 15.2283 0.118508 15.8261H12.1738H12.1739V27.8815C12.7717 27.9593 13.3811 28 14 28C14.6189 28 15.2283 27.9594 15.8261 27.8815V15.8262V15.8261H27.8815C27.9593 15.2283 28 14.619 28 14C28 13.3811 27.9593 12.7717 27.8815 12.1739Z" fill="#D80027"/>
<path d="M8.52134 6.69527V4.86914H6.69527V6.69527H4.86914V8.52134H6.69527V10.3474H8.52134V8.52134H10.3474V6.69527H8.52134Z" fill="#D80027"/>
<path d="M21.3045 6.69527V4.86914H19.4784V6.69527H17.6523V8.52134H19.4784V10.3474H21.3045V8.52134H23.1306V6.69527H21.3045Z" fill="#D80027"/>
<path d="M8.52134 19.4784V17.6523H6.69527V19.4784H4.86914V21.3045H6.69527V23.1306H8.52134V21.3045H10.3474V19.4784H8.52134Z" fill="#D80027"/>
<path d="M21.3045 19.4784V17.6523H19.4784V19.4784H17.6523V21.3045H19.4784V23.1306H21.3045V21.3045H23.1306V19.4784H21.3045Z" fill="#D80027"/>
</g>
<defs>
<clipPath id="clip0_2608_43241">
<rect width="28" height="28" fill="white"/>
</clipPath>
</defs>
</svg>
