<svg width="217" height="36" viewBox="0 0 217 36" fill="none" xmlns="http://www.w3.org/2000/svg">
<g clip-path="url(#clip0_3329_12907)">
<path d="M34.12 12.5038C28.23 1.82381 15.83 1.99381 15.71 1.99381L14.15 2.03381L15.36 6.88381L1.5 5.15381L5.39 16.7738L3.27 18.0538L3.56 18.9838C4.84 23.1238 8.2 28.1038 11.39 30.5738C14.49 32.9738 18 34.2138 21.52 34.2138C23.38 34.2138 25.23 33.8738 27.03 33.1738C30.68 31.7638 33.47 28.9238 34.89 25.1638C36.42 21.1038 36.14 16.3838 34.12 12.5038ZM22.57 24.2738C21.72 24.2738 20.87 24.2738 20.02 24.2438C19.85 24.2438 19.7 24.3838 19.68 24.5538C19.58 25.4138 19.54 26.5638 19.39 27.4438C19.36 27.6038 19.2 27.7638 19.03 27.7838C18.22 27.8738 17.57 27.7238 16.61 27.6538C16.44 27.6738 16.33 27.5338 16.36 27.3438C16.52 26.3638 16.56 25.4838 16.67 24.5138C16.69 24.3238 16.57 24.1638 16.4 24.1538C15.55 24.1338 14.7 24.0938 13.85 24.0538C13.69 24.0538 13.57 23.8738 13.59 23.6638C13.67 22.6438 13.74 21.7438 13.79 20.7338C13.79 20.5238 13.93 20.3838 14.1 20.4038C15.13 20.5138 15.43 20.5738 16.65 20.7038C16.82 20.7338 16.96 20.6038 16.96 20.4138C17 19.4538 17 18.8338 16.98 17.8838C16.98 17.7038 17.12 17.5938 17.28 17.6338C18.55 17.7338 18.58 17.7738 19.73 17.9738C19.9 18.0138 20.04 18.1838 20.04 18.3538C20.05 19.1938 20.03 20.0438 19.99 20.8938C19.98 21.0638 20.11 21.2138 20.27 21.2438C21.13 21.3638 21.98 21.4738 22.83 21.5738C22.99 21.5838 23.12 21.7238 23.11 21.8638C23.06 22.5738 22.99 23.2838 22.91 24.0038C22.89 24.1538 22.74 24.2738 22.57 24.2738ZM27.23 29.4338H27.22C26.07 29.9238 24.81 30.2438 23.48 30.3338C23.14 30.3538 22.86 30.1238 22.86 29.8238C22.86 29.4638 22.86 29.1038 22.88 28.7338C22.9 28.4338 23.14 28.2338 23.41 28.2538C24.5 28.3638 25.58 28.2838 26.61 28.0438C26.86 27.9838 27.14 28.0738 27.23 28.2538C27.34 28.4738 27.45 28.6938 27.57 28.8938C27.66 29.0638 27.52 29.3038 27.23 29.4338ZM27.79 16.3138C27.38 16.5638 27.14 16.7038 26.91 16.8038C26.58 16.9438 26.21 17.0538 25.17 16.8738C24.33 16.7338 23.35 16.3438 22.16 15.8838C21.84 15.7538 21.5 15.6138 21.14 15.4738C19.65 14.9038 17.79 14.2638 16.08 14.4438C14.2 14.6338 12.61 15.3038 11.46 16.5538C10.32 17.7838 9.76 19.4138 9.59 21.2538C9.55 21.6638 9.52 22.1338 9.52 22.6638C9.52 23.4738 9.6 24.4038 9.84 25.3938C8.37 23.4838 7.05 21.2338 6.27 19.1638L8.4 17.8738L5.13 8.12381L18.67 9.81381L17.37 4.59381C20.61 4.94381 27.97 6.52381 31.92 13.6838C32.12 14.0738 32.3 14.4838 32.46 14.8938C31.22 14.6638 30.01 15.1338 29.29 15.4838C28.67 15.8038 28.18 16.0838 27.79 16.3138ZM31.89 24.1838C29.61 25.0238 30.44 21.6538 30.8 20.6338C31.48 18.7138 33.48 19.2238 33.52 21.1638C33.54 22.3638 32.97 23.7838 31.89 24.1838Z" fill="#00EE34"/>
</g>
<path fill-rule="evenodd" clip-rule="evenodd" d="M198.4 20.8735C198.778 19.8655 198.967 18.7595 198.967 17.5555H190.903V20.0965H194.557C194.319 20.6705 193.899 21.1325 193.297 21.4825C192.695 21.8185 192.009 21.9865 191.239 21.9865C190.679 21.9865 190.168 21.8955 189.706 21.7135C189.258 21.5175 188.873 21.2515 188.551 20.9155C188.229 20.5655 187.977 20.1525 187.795 19.6765C187.627 19.1865 187.543 18.6545 187.543 18.0805C187.543 17.4925 187.627 16.9605 187.795 16.4845C187.977 15.9945 188.229 15.5745 188.551 15.2245C188.887 14.8745 189.279 14.6085 189.727 14.4265C190.189 14.2305 190.693 14.1325 191.239 14.1325C191.995 14.1325 192.674 14.3145 193.276 14.6785C193.878 15.0425 194.312 15.5395 194.578 16.1695H198.82C198.666 15.3155 198.358 14.5315 197.896 13.8175C197.448 13.1035 196.888 12.4875 196.216 11.9695C195.544 11.4515 194.781 11.0525 193.927 10.7725C193.073 10.4785 192.163 10.3315 191.197 10.3315C190.063 10.3315 189.02 10.5275 188.068 10.9195C187.116 11.2975 186.29 11.8365 185.59 12.5365C184.904 13.2225 184.365 14.0415 183.973 14.9935C183.595 15.9315 183.406 16.9605 183.406 18.0805C183.406 18.2769 183.412 18.4706 183.424 18.6617C185.386 19.0982 186.854 20.8492 186.854 22.9429C186.854 23.4579 186.765 23.9523 186.602 24.4114C187.063 24.7268 187.566 24.9965 188.11 25.2205C189.062 25.5985 190.105 25.7875 191.239 25.7875C192.387 25.7875 193.437 25.5845 194.389 25.1785C195.341 24.7725 196.153 24.2055 196.825 23.4775C197.511 22.7495 198.036 21.8815 198.4 20.8735Z" fill="#00EE34"/>
<circle cx="182.625" cy="22.8237" r="2.5" fill="#00EE34"/>
<path d="M173.5 25.6655C172.604 25.6655 171.785 25.5465 171.043 25.3085C170.315 25.0845 169.692 24.7555 169.174 24.3215C168.67 23.8875 168.278 23.3555 167.998 22.7255C167.718 22.0815 167.578 21.3605 167.578 20.5625H171.757C171.757 21.0945 171.925 21.4865 172.261 21.7385C172.611 21.9905 173.017 22.1165 173.479 22.1165C173.913 22.1165 174.298 22.0115 174.634 21.8015C174.97 21.5915 175.138 21.2835 175.138 20.8775C175.138 20.6395 175.068 20.4435 174.928 20.2895C174.802 20.1355 174.62 20.0025 174.382 19.8905C174.158 19.7785 173.892 19.6805 173.584 19.5965C173.276 19.5125 172.947 19.4285 172.597 19.3445C172.065 19.2185 171.512 19.0715 170.938 18.9035C170.378 18.7215 169.86 18.4695 169.384 18.1475C168.908 17.8115 168.516 17.3845 168.208 16.8665C167.914 16.3345 167.767 15.6485 167.767 14.8085C167.767 13.3525 168.257 12.2325 169.237 11.4485C170.231 10.6505 171.603 10.2515 173.353 10.2515C175.131 10.2515 176.496 10.6785 177.448 11.5325C178.414 12.3865 178.897 13.5625 178.897 15.0605H174.844C174.844 14.5985 174.69 14.2555 174.382 14.0315C174.088 13.8075 173.731 13.6955 173.311 13.6955C172.947 13.6955 172.618 13.7795 172.324 13.9475C172.03 14.1015 171.883 14.3535 171.883 14.7035C171.883 14.9135 171.946 15.0885 172.072 15.2285C172.212 15.3685 172.394 15.4945 172.618 15.6065C172.842 15.7045 173.101 15.8025 173.395 15.9005C173.703 15.9845 174.032 16.0685 174.382 16.1525C174.928 16.2925 175.495 16.4605 176.083 16.6565C176.671 16.8385 177.21 17.0975 177.7 17.4335C178.19 17.7695 178.589 18.2035 178.897 18.7355C179.219 19.2675 179.38 19.9535 179.38 20.7935C179.38 21.5915 179.233 22.2985 178.939 22.9145C178.645 23.5165 178.232 24.0275 177.7 24.4475C177.182 24.8535 176.566 25.1545 175.852 25.3505C175.138 25.5605 174.354 25.6655 173.5 25.6655Z" fill="#00EE34"/>
<path d="M150.286 25.6048L149.131 17.1418L145.246 25.6258H144.049L140.143 17.1418L139.009 25.6048H134.914L137.14 10.9048H141.172L144.637 18.9058L148.123 10.9048H152.176L154.36 25.6048H150.286Z" fill="#00EE34"/>
<path d="M129.048 23.2313H123.84L123.021 25.6253H118.695L124.47 10.9253H128.418L134.319 25.6253H129.867L129.048 23.2313ZM126.444 15.5033L124.827 20.0603H128.061L126.444 15.5033Z" fill="#00EE34"/>
<path d="M119.647 17.4237C119.647 18.6277 119.458 19.7337 119.08 20.7417C118.716 21.7497 118.191 22.6177 117.505 23.3457C116.833 24.0737 116.021 24.6407 115.069 25.0467C114.117 25.4527 113.067 25.6557 111.919 25.6557C110.785 25.6557 109.742 25.4667 108.79 25.0887C107.838 24.6967 107.012 24.1647 106.312 23.4927C105.612 22.8067 105.066 21.9947 104.674 21.0567C104.282 20.1047 104.086 19.0687 104.086 17.9487C104.086 16.8287 104.275 15.7997 104.653 14.8617C105.045 13.9097 105.584 13.0907 106.27 12.4047C106.97 11.7047 107.796 11.1657 108.748 10.7877C109.7 10.3957 110.743 10.1997 111.877 10.1997C112.843 10.1997 113.753 10.3467 114.607 10.6407C115.461 10.9207 116.224 11.3197 116.896 11.8377C117.568 12.3557 118.128 12.9717 118.576 13.6857C119.038 14.3997 119.346 15.1837 119.5 16.0377H115.258C114.992 15.4077 114.558 14.9107 113.956 14.5467C113.354 14.1827 112.675 14.0007 111.919 14.0007C111.373 14.0007 110.869 14.0987 110.407 14.2947C109.959 14.4767 109.567 14.7427 109.231 15.0927C108.909 15.4427 108.657 15.8627 108.475 16.3527C108.307 16.8287 108.223 17.3607 108.223 17.9487C108.223 18.5227 108.307 19.0547 108.475 19.5447C108.657 20.0207 108.909 20.4337 109.231 20.7837C109.553 21.1197 109.938 21.3857 110.386 21.5817C110.848 21.7637 111.359 21.8547 111.919 21.8547C112.689 21.8547 113.375 21.6867 113.977 21.3507C114.579 21.0007 114.999 20.5387 115.237 19.9647H111.583V17.4237H119.647Z" fill="#00EE34"/>
<path d="M103.241 22.1486V25.6556H92.7578V10.9556H103.073V14.4626H96.7898V16.6256H102.527V19.9436H96.7898V22.1486H103.241Z" fill="#00EE34"/>
<path d="M166.21 22.1486V25.6556H155.727V10.9556H166.042V14.4626H159.759V16.6256H165.496V19.9436H159.759V22.1486H166.21Z" fill="#00EE34"/>
<path d="M83.3336 10.9556C84.4536 10.9556 85.4756 11.1376 86.3996 11.5016C87.3236 11.8656 88.1216 12.3696 88.7936 13.0136C89.4656 13.6576 89.9836 14.4276 90.3476 15.3236C90.7256 16.2196 90.9146 17.2066 90.9146 18.2846C90.9146 19.3626 90.7256 20.3566 90.3476 21.2666C89.9836 22.1626 89.4656 22.9396 88.7936 23.5976C88.1216 24.2416 87.3166 24.7456 86.3786 25.1096C85.4546 25.4736 84.4396 25.6556 83.3336 25.6556H77.3906V10.9556H83.3336ZM83.1446 21.9386C83.6906 21.9386 84.1876 21.8546 84.6356 21.6866C85.0836 21.5046 85.4616 21.2526 85.7696 20.9306C86.0916 20.6086 86.3366 20.2236 86.5046 19.7756C86.6866 19.3276 86.7776 18.8306 86.7776 18.2846C86.7776 17.1926 86.4416 16.3176 85.7696 15.6596C85.1116 15.0016 84.2366 14.6726 83.1446 14.6726H81.4436V21.9386H83.1446Z" fill="#00EE34"/>
<path d="M67.8521 25.6557C66.6761 25.6557 65.5911 25.4667 64.5971 25.0887C63.6031 24.6967 62.7421 24.1577 62.0141 23.4717C61.3001 22.7857 60.7401 21.9737 60.3341 21.0357C59.9421 20.0837 59.7461 19.0477 59.7461 17.9277C59.7461 16.8077 59.9421 15.7787 60.3341 14.8407C60.7401 13.8887 61.3001 13.0697 62.0141 12.3837C62.7421 11.6977 63.6031 11.1657 64.5971 10.7877C65.5911 10.3957 66.6761 10.1997 67.8521 10.1997C69.0281 10.1997 70.1061 10.3957 71.0861 10.7877C72.0801 11.1657 72.9341 11.6977 73.6481 12.3837C74.3621 13.0557 74.9151 13.8677 75.3071 14.8197C75.7131 15.7577 75.9161 16.7937 75.9161 17.9277C75.9161 19.0617 75.7131 20.1047 75.3071 21.0567C74.9151 21.9947 74.3621 22.8067 73.6481 23.4927C72.9341 24.1647 72.0801 24.6967 71.0861 25.0887C70.1061 25.4667 69.0281 25.6557 67.8521 25.6557ZM67.8521 21.8757C68.4121 21.8757 68.9231 21.7777 69.3851 21.5817C69.8611 21.3857 70.2671 21.1127 70.6031 20.7627C70.9531 20.4127 71.2191 19.9997 71.4011 19.5237C71.5971 19.0337 71.6951 18.5017 71.6951 17.9277C71.6951 17.3537 71.5971 16.8287 71.4011 16.3527C71.2191 15.8627 70.9531 15.4427 70.6031 15.0927C70.2671 14.7427 69.8611 14.4697 69.3851 14.2737C68.9231 14.0777 68.4121 13.9797 67.8521 13.9797C67.2921 13.9797 66.7741 14.0777 66.2981 14.2737C65.8221 14.4697 65.4091 14.7427 65.0591 15.0927C64.7231 15.4427 64.4571 15.8627 64.2611 16.3527C64.0651 16.8287 63.9671 17.3537 63.9671 17.9277C63.9671 18.5017 64.0651 19.0337 64.2611 19.5237C64.4571 19.9997 64.7231 20.4127 65.0591 20.7627C65.4091 21.1127 65.8221 21.3857 66.2981 21.5817C66.7741 21.7777 67.2921 21.8757 67.8521 21.8757Z" fill="#00EE34"/>
<path d="M50.8003 25.6557C49.6803 25.6557 48.6443 25.4597 47.6923 25.0677C46.7403 24.6757 45.9143 24.1367 45.2143 23.4507C44.5143 22.7647 43.9683 21.9527 43.5763 21.0147C43.1843 20.0627 42.9883 19.0407 42.9883 17.9487C42.9883 16.8427 43.1843 15.8207 43.5763 14.8827C43.9683 13.9307 44.5143 13.1117 45.2143 12.4257C45.9143 11.7257 46.7403 11.1797 47.6923 10.7877C48.6443 10.3957 49.6803 10.1997 50.8003 10.1997C51.7663 10.1997 52.6693 10.3537 53.5093 10.6617C54.3493 10.9557 55.0913 11.3827 55.7353 11.9427C56.3933 12.4887 56.9393 13.1467 57.3733 13.9167C57.8073 14.6867 58.0943 15.5407 58.2343 16.4787H54.1393C53.8873 15.7227 53.4603 15.1207 52.8583 14.6727C52.2703 14.2107 51.5913 13.9797 50.8213 13.9797C50.3033 13.9797 49.8203 14.0777 49.3723 14.2737C48.9383 14.4697 48.5603 14.7497 48.2383 15.1137C47.9163 15.4637 47.6643 15.8837 47.4823 16.3737C47.3003 16.8497 47.2093 17.3747 47.2093 17.9487C47.2093 18.5087 47.3003 19.0337 47.4823 19.5237C47.6643 19.9997 47.9163 20.4127 48.2383 20.7627C48.5603 21.0987 48.9383 21.3647 49.3723 21.5607C49.8203 21.7567 50.3033 21.8547 50.8213 21.8547C51.6333 21.8547 52.3403 21.6097 52.9423 21.1197C53.5443 20.6297 53.9433 19.9787 54.1393 19.1667H58.2763C58.1363 20.1327 57.8493 21.0147 57.4153 21.8127C56.9953 22.6107 56.4563 23.2967 55.7983 23.8707C55.1543 24.4307 54.4053 24.8717 53.5513 25.1937C52.6973 25.5017 51.7803 25.6557 50.8003 25.6557Z" fill="#00EE34"/>
<path d="M215.827 17.5555C215.827 18.7595 215.638 19.8655 215.26 20.8735C214.896 21.8815 214.371 22.7495 213.685 23.4775C213.013 24.2055 212.201 24.7725 211.249 25.1785C210.297 25.5845 209.247 25.7875 208.099 25.7875C206.965 25.7875 205.922 25.5985 204.97 25.2205C204.018 24.8285 203.192 24.2965 202.492 23.6245C201.792 22.9385 201.246 22.1265 200.854 21.1885C200.462 20.2365 200.266 19.2005 200.266 18.0805C200.266 16.9605 200.455 15.9315 200.833 14.9935C201.225 14.0415 201.764 13.2225 202.45 12.5365C203.15 11.8365 203.976 11.2975 204.928 10.9195C205.88 10.5275 206.923 10.3315 208.057 10.3315C209.023 10.3315 209.933 10.4785 210.787 10.7725C211.641 11.0525 212.404 11.4515 213.076 11.9695C213.748 12.4875 214.308 13.1035 214.756 13.8175C215.218 14.5315 215.526 15.3155 215.68 16.1695H211.438C211.172 15.5395 210.738 15.0425 210.136 14.6785C209.534 14.3145 208.855 14.1325 208.099 14.1325C207.553 14.1325 207.049 14.2305 206.587 14.4265C206.139 14.6085 205.747 14.8745 205.411 15.2245C205.089 15.5745 204.837 15.9945 204.655 16.4845C204.487 16.9605 204.403 17.4925 204.403 18.0805C204.403 18.6545 204.487 19.1865 204.655 19.6765C204.837 20.1525 205.089 20.5655 205.411 20.9155C205.733 21.2515 206.118 21.5175 206.566 21.7135C207.028 21.8955 207.539 21.9865 208.099 21.9865C208.869 21.9865 209.555 21.8185 210.157 21.4825C210.759 21.1325 211.179 20.6705 211.417 20.0965H207.763V17.5555H215.827Z" fill="#00EE34"/>
<defs>
<clipPath id="clip0_3329_12907">
<rect width="34.37" height="32.22" fill="white" transform="translate(1.5 1.99365)"/>
</clipPath>
</defs>
</svg>
