<svg width="24" height="24" viewBox="0 0 24 24" fill="none" xmlns="http://www.w3.org/2000/svg">
<rect y="-0.00634766" width="24" height="24" rx="12" fill="#25DCF5"/>
<path d="M11.8722 13.5829C13.8678 13.5829 15.4855 11.9551 15.4855 9.94719C15.4855 7.93923 13.8678 6.31146 11.8722 6.31146C9.87655 6.31146 8.25879 7.93923 8.25879 9.94719C8.25879 11.9551 9.87655 13.5829 11.8722 13.5829Z" fill="#FFEB33"/>
<path d="M12.1437 5.31174C12.1437 5.46234 12.0223 5.58447 11.8726 5.58447C11.7229 5.58447 11.6016 5.46234 11.6016 5.31174C11.6016 5.16115 11.8726 4.49365 11.8726 4.49365C11.8726 4.49365 12.1437 5.16115 12.1437 5.31174Z" fill="#FFEB33"/>
<path d="M11.6016 14.5836C11.6016 14.433 11.7229 14.3109 11.8726 14.3109C12.0223 14.3109 12.1437 14.433 12.1437 14.5836C12.1437 14.7342 11.8726 15.4017 11.8726 15.4017C11.8726 15.4017 11.6016 14.7342 11.6016 14.5836Z" fill="#FFEB33"/>
<path d="M16.48 10.2203C16.3304 10.2203 16.209 10.0982 16.209 9.94759C16.209 9.797 16.3304 9.67487 16.48 9.67487C16.6297 9.67487 17.2931 9.94759 17.2931 9.94759C17.2931 9.94759 16.6297 10.2203 16.48 10.2203Z" fill="#FFEB33"/>
<path d="M7.26521 9.67487C7.41487 9.67487 7.53625 9.797 7.53625 9.94759C7.53625 10.0982 7.41487 10.2203 7.26521 10.2203C7.11554 10.2203 6.45215 9.94759 6.45215 9.94759C6.45215 9.94759 7.11554 9.67487 7.26521 9.67487Z" fill="#FFEB33"/>
<path d="M15.3221 6.86244C15.2163 6.96894 15.0447 6.96894 14.9388 6.86244C14.8329 6.75593 14.8329 6.58334 14.9388 6.47675C15.0446 6.37017 15.7053 6.09106 15.7053 6.09106C15.7053 6.09106 15.428 6.75593 15.3221 6.86244Z" fill="#FFEB33"/>
<path d="M8.42328 13.0329C8.52913 12.9264 8.70066 12.9264 8.80659 13.0329C8.91252 13.1394 8.91244 13.312 8.80659 13.4186C8.70074 13.5252 8.04004 13.8042 8.04004 13.8042C8.04004 13.8042 8.31742 13.1395 8.42328 13.0329Z" fill="#FFEB33"/>
<path d="M14.9388 13.4186C14.8329 13.3121 14.8329 13.1395 14.9388 13.0329C15.0446 12.9263 15.2161 12.9264 15.3221 13.0329C15.428 13.1394 15.7054 13.8042 15.7054 13.8042C15.7054 13.8042 15.0446 13.525 14.9388 13.4186Z" fill="#FFEB33"/>
<path d="M8.80667 6.47667C8.91252 6.58318 8.91252 6.75577 8.80667 6.86236C8.70082 6.96895 8.52929 6.96887 8.42335 6.86236C8.31742 6.75585 8.04004 6.09106 8.04004 6.09106C8.04004 6.09106 8.70082 6.37025 8.80667 6.47667Z" fill="#FFEB33"/>
<path d="M10.3594 5.56037C10.4167 5.69956 10.351 5.859 10.2127 5.91664C10.0744 5.97428 9.9159 5.90819 9.85862 5.769C9.80134 5.62981 9.79785 4.90881 9.79785 4.90881C9.79785 4.90881 10.3022 5.42118 10.3594 5.56037Z" fill="#FFEB33"/>
<path d="M13.385 14.335C13.3277 14.1958 13.3934 14.0364 13.5317 13.9787C13.67 13.9211 13.8285 13.9872 13.8858 14.1264C13.943 14.2655 13.9465 14.9865 13.9465 14.9865C13.9465 14.9865 13.4422 14.4742 13.385 14.335Z" fill="#FFEB33"/>
<path d="M16.2332 8.42553C16.0948 8.48317 15.9364 8.41708 15.8791 8.27789C15.8218 8.1387 15.8875 7.97926 16.0258 7.92162C16.1642 7.86398 16.8806 7.86047 16.8806 7.86047C16.8806 7.86047 16.3715 8.36781 16.2332 8.42553Z" fill="#FFEB33"/>
<path d="M7.51278 11.4697C7.65112 11.412 7.80958 11.4781 7.86686 11.6173C7.92414 11.7565 7.85846 11.916 7.72012 11.9736C7.58179 12.0312 6.86523 12.0347 6.86523 12.0347C6.86523 12.0347 7.37444 11.5274 7.51278 11.4697Z" fill="#FFEB33"/>
<path d="M13.8857 5.76892C13.8285 5.90811 13.6699 5.97412 13.5317 5.91656C13.3933 5.85892 13.3277 5.6994 13.3849 5.56029C13.4422 5.42118 13.9464 4.90881 13.9464 4.90881C13.9464 4.90881 13.943 5.62981 13.8857 5.76892Z" fill="#FFEB33"/>
<path d="M9.85854 14.1263C9.91582 13.9871 10.0744 13.9211 10.2126 13.9787C10.351 14.0363 10.4166 14.1958 10.3594 14.335C10.3021 14.4741 9.79785 14.9864 9.79785 14.9864C9.79785 14.9864 9.80126 14.2655 9.85854 14.1263Z" fill="#FFEB33"/>
<path d="M16.0258 11.9736C15.8875 11.9159 15.8219 11.7564 15.8791 11.6173C15.9363 11.4781 16.0949 11.4121 16.2331 11.4696C16.3714 11.5272 16.8806 12.0346 16.8806 12.0346C16.8806 12.0346 16.164 12.0313 16.0258 11.9736Z" fill="#FFEB33"/>
<path d="M7.72005 7.92172C7.85838 7.97936 7.92399 8.13888 7.86678 8.27799C7.8095 8.4171 7.65096 8.48319 7.5127 8.42564C7.37445 8.368 6.86523 7.86066 6.86523 7.86066C6.86523 7.86066 7.58187 7.86401 7.72005 7.92172Z" fill="#FFEB33"/>
<path d="M11.2398 5.34772C11.2691 5.49544 11.1738 5.63902 11.0269 5.66836C10.8801 5.69777 10.7374 5.60187 10.7082 5.45407C10.679 5.30635 10.8154 4.59851 10.8154 4.59851C10.8154 4.59851 11.2106 5.2 11.2398 5.34772Z" fill="#FFEB33"/>
<path d="M12.5053 14.5477C12.476 14.4 12.5713 14.2564 12.7182 14.227C12.8651 14.1976 13.0077 14.2935 13.0369 14.4413C13.0661 14.5891 12.9297 15.2969 12.9297 15.2969C12.9297 15.2969 12.5344 14.6954 12.5053 14.5477Z" fill="#FFEB33"/>
<path d="M16.4441 9.31073C16.2972 9.34014 16.1545 9.24424 16.1254 9.09644C16.0962 8.94863 16.1915 8.80514 16.3384 8.7758C16.4852 8.74638 17.1887 8.88366 17.1887 8.88366C17.1887 8.88366 16.5909 9.28139 16.4441 9.31073Z" fill="#FFEB33"/>
<path d="M7.30124 10.5846C7.44806 10.5552 7.59075 10.6511 7.61991 10.7989C7.64914 10.9467 7.55383 11.0902 7.40694 11.1196C7.26012 11.149 6.55664 11.0117 6.55664 11.0117C6.55664 11.0117 7.15443 10.614 7.30124 10.5846Z" fill="#FFEB33"/>
<path d="M14.6575 6.24465C14.5744 6.36989 14.4061 6.40353 14.2816 6.31982C14.1571 6.23612 14.1237 6.06679 14.2069 5.94155C14.29 5.81631 14.8839 5.41284 14.8839 5.41284C14.8839 5.41284 14.7406 6.11933 14.6575 6.24465Z" fill="#FFEB33"/>
<path d="M9.08769 13.6508C9.1708 13.5256 9.33916 13.4919 9.46363 13.5756C9.5881 13.6593 9.62154 13.8287 9.53835 13.9539C9.45524 14.0791 8.86133 14.4826 8.86133 14.4826C8.86133 14.4826 9.00458 13.7761 9.08769 13.6508Z" fill="#FFEB33"/>
<path d="M15.5531 12.75C15.4286 12.6663 15.3952 12.4969 15.4784 12.3717C15.5616 12.2464 15.7298 12.2128 15.8543 12.2965C15.9788 12.3801 16.3798 12.9777 16.3798 12.9777C16.3798 12.9777 15.6775 12.8336 15.5531 12.75Z" fill="#FFEB33"/>
<path d="M8.19192 7.1453C8.31639 7.22893 8.34983 7.39834 8.26663 7.52358C8.18352 7.64882 8.01516 7.68246 7.89069 7.59875C7.76622 7.51505 7.36523 6.91754 7.36523 6.91754C7.36523 6.91754 8.06753 7.06168 8.19192 7.1453Z" fill="#FFEB33"/>
<path d="M9.53835 5.94147C9.62146 6.06671 9.58802 6.23603 9.46363 6.31974C9.33924 6.40345 9.17088 6.36973 9.08769 6.24456C9.00458 6.11932 8.86133 5.41284 8.86133 5.41284C8.86133 5.41284 9.45524 5.81631 9.53835 5.94147Z" fill="#FFEB33"/>
<path d="M14.2068 13.9538C14.1237 13.8286 14.1571 13.6593 14.2815 13.5756C14.4059 13.4919 14.5743 13.5256 14.6575 13.6507C14.7406 13.776 14.8838 14.4825 14.8838 14.4825C14.8838 14.4825 14.29 14.079 14.2068 13.9538Z" fill="#FFEB33"/>
<path d="M15.8543 7.59875C15.7298 7.68238 15.5615 7.64874 15.4783 7.52357C15.3952 7.39833 15.4286 7.22901 15.553 7.1453C15.6775 7.06168 16.3796 6.91754 16.3796 6.91754C16.3796 6.91754 15.9787 7.51512 15.8543 7.59875Z" fill="#FFEB33"/>
<path d="M7.89158 12.2965C8.01605 12.2128 8.18434 12.2465 8.26753 12.3716C8.35064 12.4969 8.31721 12.6662 8.19282 12.7499C8.06835 12.8335 7.36621 12.9777 7.36621 12.9777C7.36621 12.9777 7.76711 12.3801 7.89158 12.2965Z" fill="#FFEB33"/>
<path d="M13.0369 5.45407C13.0077 5.60179 12.865 5.69777 12.7182 5.66836C12.5714 5.63894 12.476 5.49544 12.5053 5.34772C12.5345 5.2 12.9297 4.59851 12.9297 4.59851C12.9297 4.59851 13.0661 5.30635 13.0369 5.45407Z" fill="#FFEB33"/>
<path d="M10.7082 14.4413C10.7374 14.2936 10.88 14.1976 11.0269 14.227C11.1737 14.2565 11.2691 14.4 11.2398 14.5477C11.2106 14.6954 10.8154 15.2969 10.8154 15.2969C10.8154 15.2969 10.679 14.5891 10.7082 14.4413Z" fill="#FFEB33"/>
<path d="M16.3384 11.1196C16.1915 11.0902 16.0961 10.9467 16.1254 10.7989C16.1546 10.6512 16.2972 10.5552 16.444 10.5846C16.5909 10.6141 17.1886 11.0117 17.1886 11.0117C17.1886 11.0117 16.4852 11.1489 16.3384 11.1196Z" fill="#FFEB33"/>
<path d="M7.40694 8.77578C7.55375 8.8052 7.64914 8.94869 7.61991 9.09642C7.59067 9.24414 7.44806 9.34012 7.30125 9.31071C7.15443 9.28129 6.55664 8.88364 6.55664 8.88364C6.55664 8.88364 7.26012 8.74644 7.40694 8.77578Z" fill="#FFEB33"/>
<path d="M20.3724 10.9043C20.2665 10.8595 20.1455 10.9108 20.1014 11.0167C20.1014 11.0171 20.1014 11.0171 20.1014 11.0171C20.1006 11.0191 20.0965 11.0289 20.0894 11.0457C19.9328 11.4138 19.6087 11.9519 19.2815 12.458C19.5863 11.4708 19.865 10.4165 19.8844 10.3423C19.9135 10.2316 19.8483 10.1179 19.7384 10.0878C19.6284 10.0581 19.5152 10.1225 19.4844 10.2328C19.3422 10.7455 19.0514 11.4204 18.783 11.9916C18.8322 11.3547 18.8415 10.7646 18.8421 10.7219C18.8438 10.6091 18.7559 10.5158 18.6438 10.5104C18.5383 10.5137 18.4366 10.5911 18.4283 10.7038C18.1629 14.3764 14.6508 16.0193 14.3088 16.1704C14.1299 16.1884 13.2965 16.2828 12.5401 16.5471C12.4543 16.5771 12.3813 16.6071 12.3086 16.637C12.2815 16.6268 12.2525 16.621 12.222 16.6228C9.90045 16.7919 8.04932 15.8336 6.71889 13.7807C5.7137 12.2295 5.39844 10.6012 5.39535 10.585C5.37412 10.4718 5.26636 10.3988 5.15338 10.4188C5.04087 10.4404 4.96695 10.5491 4.98827 10.6623C4.99666 10.7073 5.135 11.418 5.51594 12.3533C5.00625 11.5438 4.65106 10.5631 4.52604 10.0523C4.5235 10.0421 4.51701 10.0344 4.5132 10.0249C4.50734 10.0105 4.50243 9.996 4.49379 9.98349C4.48769 9.97464 4.47969 9.96818 4.47248 9.96045C4.46115 9.94841 4.45029 9.93661 4.43643 9.92761C4.42851 9.92242 4.41963 9.91987 4.411 9.91581C4.3957 9.90863 4.38073 9.90154 4.3637 9.89827C4.35189 9.89596 4.33985 9.89747 4.32757 9.89723C4.31513 9.89707 4.3034 9.89388 4.29065 9.89612C4.28787 9.89659 4.28573 9.89851 4.28296 9.89914C4.28027 9.8997 4.27773 9.89883 4.27504 9.89938C4.26394 9.90209 4.25547 9.90911 4.24533 9.91349C4.23241 9.91915 4.21918 9.92338 4.20785 9.93127C4.19668 9.939 4.18836 9.94905 4.17909 9.9587C4.16982 9.96826 4.16015 9.97671 4.15286 9.98779C4.1455 9.99903 4.14154 10.0117 4.13631 10.0242C4.13131 10.0364 4.12553 10.0479 4.12292 10.0611C4.12022 10.0745 4.12141 10.0884 4.12149 10.1025C4.12149 10.1138 4.1184 10.1245 4.12038 10.136C4.12117 10.1409 4.12276 10.1459 4.12363 10.1507V10.1515C4.12387 10.1523 4.12418 10.1535 4.12442 10.1545C4.25261 10.9145 4.55813 11.7023 4.8344 12.303C4.3957 11.8021 4.02911 11.2251 3.89917 10.8833C3.89545 10.8733 3.88792 10.8664 3.88285 10.8575C3.87516 10.8437 3.86843 10.8296 3.85805 10.8182C3.85068 10.81 3.84173 10.8048 3.83333 10.798C3.82073 10.7878 3.80877 10.7775 3.79419 10.7705C3.78484 10.766 3.7747 10.7646 3.7648 10.7615C3.7495 10.7569 3.73469 10.7518 3.71845 10.7507C3.70569 10.7498 3.69301 10.7531 3.6801 10.7548C3.66813 10.7563 3.65633 10.7548 3.64445 10.7585C3.64215 10.7592 3.64056 10.7611 3.63842 10.7619C3.63621 10.7626 3.63399 10.7621 3.63177 10.763C3.62052 10.7673 3.61252 10.7757 3.60245 10.7816C3.59065 10.7887 3.57805 10.7945 3.56799 10.8036C3.55769 10.8129 3.55056 10.8245 3.54248 10.8355C3.53479 10.846 3.52623 10.8553 3.52053 10.8669C3.51459 10.8791 3.51237 10.8924 3.50896 10.9055C3.50556 10.9184 3.50104 10.9303 3.50017 10.9438C3.49922 10.9573 3.50254 10.9707 3.50429 10.9844C3.50579 10.9962 3.50421 11.0079 3.50785 11.0195C3.73334 11.7514 4.27559 12.6221 4.70042 13.2354C4.34642 12.961 4.08623 12.6641 4.01073 12.5745C4.00257 12.5648 3.99456 12.555 3.9864 12.5452C3.91335 12.4568 3.78429 12.4442 3.69579 12.5163C3.6076 12.5888 3.59374 12.7192 3.66505 12.8082C3.66893 12.8132 3.68446 12.8327 3.71044 12.8632C4.02134 13.2354 4.36005 13.5828 4.66691 13.8761L4.24715 13.6961C4.15144 13.6545 4.03893 13.692 3.98656 13.7836C3.93411 13.8753 3.9578 13.9913 4.04178 14.0548C4.08267 14.0853 4.826 14.6441 5.46951 14.9744C5.40882 14.9781 5.33759 14.9736 5.25789 14.9675C5.16059 14.958 5.06488 15.0281 5.04119 15.1274C5.0179 15.2272 5.06971 15.3291 5.16384 15.3681C5.17969 15.3747 5.37578 15.4561 5.61791 15.5428C5.56142 15.566 5.51649 15.6137 5.49787 15.6755C5.46998 15.768 5.5092 15.8682 5.59255 15.9162C5.61426 15.9289 5.90718 16.0979 6.26965 16.2477C6.25999 16.2627 6.25206 16.279 6.24612 16.2969C6.21776 16.3845 6.25016 16.4806 6.32567 16.5332C6.38858 16.5767 7.7961 17.5378 9.43996 17.5378C9.54787 17.5378 9.65689 17.5337 9.76655 17.5248C9.88048 17.5158 9.96573 17.4153 9.95662 17.3004C9.94751 17.1855 9.84855 17.0988 9.73343 17.1094C8.70075 17.1941 7.70585 16.804 7.11417 16.5058C7.19229 16.4866 7.23721 16.4691 7.24838 16.4647C7.33965 16.4272 7.39226 16.3307 7.37444 16.2333C7.35661 16.1361 7.27326 16.0647 7.1747 16.0626C6.93447 16.0577 6.60178 15.94 6.31521 15.8138C6.42344 15.7592 6.48666 15.707 6.49221 15.7026C6.55456 15.65 6.58087 15.5661 6.55963 15.4871C6.53824 15.4085 6.47296 15.3495 6.39293 15.3365C6.30491 15.3218 6.19518 15.2933 6.08029 15.2583C6.19201 15.1935 6.23955 15.1223 6.25777 15.086C6.28653 15.0282 6.28716 14.9605 6.25959 14.9023C6.23186 14.8441 6.17909 14.8021 6.11626 14.7886C6.06207 14.7768 6.00067 14.7569 5.93435 14.7308C5.94647 14.7186 5.95764 14.7048 5.96668 14.6889C6.01944 14.5989 5.99766 14.4832 5.91573 14.4185C5.91145 14.4152 5.75062 14.2882 5.50706 14.0768C5.54573 14.0625 5.57988 14.0361 5.6046 14.0003C5.65681 13.9245 5.65324 13.8231 5.59588 13.7514C5.59129 13.7457 5.43021 13.5419 5.20821 13.2324C5.2815 13.2897 5.35471 13.3482 5.42791 13.3955C5.46238 13.4175 5.50136 13.4285 5.54002 13.4285C5.59247 13.4285 5.64421 13.4086 5.68406 13.3699C5.70046 13.3539 5.7133 13.3356 5.72344 13.316C5.84918 13.4512 5.98126 13.5739 6.11999 13.6785C6.13805 13.6922 6.16 13.6919 6.18028 13.6988C6.23907 13.798 6.30024 13.8973 6.36441 13.9966C7.62282 15.9448 9.39718 16.9884 11.5253 17.051C11.3294 17.1708 11.1166 17.2945 10.7798 17.4265C10.7063 17.4554 10.6413 17.4842 10.576 17.5132C10.5445 17.5194 10.515 17.5309 10.4903 17.5505C9.90243 17.8244 9.65903 18.095 9.56031 18.2842C9.46175 18.4724 9.54676 18.6654 9.66711 18.7656C9.70451 18.7965 9.75213 18.8124 9.79982 18.8124C9.83263 18.8124 9.86543 18.805 9.89514 18.79C9.96843 18.7533 10.0174 18.6755 10.0141 18.5937C10.0226 18.5844 10.0587 18.5542 10.1716 18.5505C10.2539 18.5435 10.4272 18.5623 10.6294 18.5785C10.8217 18.5945 11.0525 18.6126 11.2977 18.6253C11.1443 18.8053 10.9659 19.0139 10.9659 19.0139C10.9124 19.0766 10.9006 19.1654 10.9362 19.2399C10.972 19.3148 11.0492 19.3613 11.1301 19.3584C11.2939 19.3526 11.4051 19.3494 11.4782 19.3478C11.5419 19.4318 11.6201 19.4651 11.6704 19.4781C11.813 19.5148 11.955 19.4574 12.062 19.3894C12.143 19.4481 12.2239 19.4728 12.2881 19.4823C12.4328 19.5022 12.5668 19.4599 12.6637 19.4118C12.7641 19.477 12.8624 19.4937 12.9373 19.4937C12.9384 19.4937 12.9396 19.4937 12.9407 19.4937C13.1024 19.4929 13.244 19.4143 13.344 19.3372C13.4325 19.3902 13.5171 19.4072 13.5824 19.4102C13.7308 19.4154 13.8538 19.3581 13.9356 19.3042C14.2276 19.3632 14.4793 19.2248 14.6457 19.0721C14.7216 19.1165 14.7938 19.1275 14.8513 19.1246C14.9992 19.1194 15.1119 19.0289 15.1842 18.9479C15.5153 18.9881 15.7529 18.9267 15.8902 18.7626C15.9651 18.6734 15.9955 18.5729 16.0038 18.4812C16.9224 18.4759 17.0055 17.9713 17.0122 17.909C17.0182 17.8523 17.0011 17.7958 16.9645 17.7522C16.9281 17.7087 16.8752 17.6818 16.8188 17.6785L14.4105 17.5328C14.3098 17.5254 14.2198 17.5934 14.1965 17.6925C14.196 17.694 14.1549 17.848 14.0265 17.9711C13.8536 18.1371 13.5753 18.2248 13.2726 18.2713C13.2737 18.2434 13.2698 18.215 13.2592 18.1873C13.2179 18.0798 13.0977 18.0276 12.9912 18.068C12.494 18.2621 11.6891 18.2377 11.0593 18.1937C11.1559 18.1143 11.2722 18.0356 11.3652 17.9842C11.4437 17.9407 11.4858 17.8515 11.4692 17.7628C11.4572 17.6983 11.4108 17.6534 11.3549 17.6245C11.53 17.5356 11.6735 17.4496 11.8097 17.3661C12.0462 17.2203 12.2695 17.083 12.6763 16.9409C13.4614 16.6665 14.3701 16.583 14.3792 16.5821C14.3998 16.5804 14.4201 16.5752 14.4393 16.5674C14.4716 16.554 17.0347 15.4736 18.2423 12.9807C18.2264 13.0561 18.2095 13.125 18.191 13.1851C18.1595 13.2878 18.2104 13.3974 18.3087 13.4388C18.3848 13.471 18.4712 13.4543 18.5298 13.3997C18.4535 13.6022 18.3845 13.7614 18.3281 13.8554C18.2707 13.9512 18.2984 14.0754 18.3909 14.1372C18.4126 14.1515 18.4358 14.1612 18.4597 14.167C18.3662 14.3047 18.2714 14.4349 18.1769 14.5543C18.114 14.6337 18.1176 14.7469 18.1834 14.8219C18.0211 14.9929 17.8772 15.1338 17.7679 15.2234C17.6965 15.2816 17.6732 15.379 17.706 15.4621C17.6006 15.5228 17.514 15.5656 17.4539 15.5838C17.3531 15.6144 17.2913 15.7166 17.3103 15.8209C17.3202 15.8759 17.3509 15.9223 17.3934 15.9528C17.2667 15.987 17.128 16.02 16.9775 16.0501C16.8927 16.0671 16.8273 16.1352 16.8134 16.2211C16.7997 16.307 16.8402 16.3925 16.9152 16.4357C16.9217 16.4393 16.9924 16.4797 17.1008 16.5261C16.6999 16.6885 15.9841 16.9007 14.8095 17.0172C14.6958 17.0286 14.6124 17.1309 14.6237 17.2453C14.6348 17.3598 14.7332 17.4392 14.8504 17.4326C17.0801 17.2107 17.7686 16.6492 17.7967 16.6251C17.8611 16.5709 17.8866 16.4825 17.8611 16.4019C17.8441 16.3486 17.8069 16.3055 17.759 16.2805C18.4714 16.0549 18.7772 15.8052 18.7932 15.7918C18.8713 15.7266 18.891 15.6139 18.8396 15.5255C18.7878 15.4371 18.6799 15.3988 18.5858 15.4371C18.5593 15.4473 18.517 15.4578 18.4635 15.4684C18.9416 15.139 19.4491 14.7467 19.6723 14.5716C19.7115 14.5424 19.7472 14.5142 19.7785 14.4877C19.8652 14.4144 19.8773 14.2848 19.8058 14.1966C19.7348 14.1086 19.6054 14.0939 19.5168 14.1643C19.4844 14.19 19.4508 14.2165 19.416 14.2437C19.313 14.3208 19.1812 14.4079 19.0375 14.4974C19.5801 13.8776 20.1263 13.2056 20.2823 13.0126C20.2965 12.9951 20.3104 12.9776 20.3246 12.9601C20.3962 12.8705 20.3823 12.7393 20.2932 12.6673C20.2039 12.594 20.0734 12.6091 20.002 12.6982L20.0015 12.6987L20.0013 12.6992C19.9974 12.7036 19.9799 12.7256 19.9504 12.7623C19.7869 12.963 19.6148 13.1574 19.445 13.3389C19.9978 12.331 20.4163 11.3389 20.4776 11.1919C20.4798 11.1866 20.4819 11.1814 20.4841 11.1759C20.528 11.0705 20.4781 10.9483 20.3724 10.9043ZM10.6595 17.933L10.7161 17.9404C10.6467 18.0057 10.5902 18.0789 10.5454 18.1544C10.447 18.1465 10.3577 18.1394 10.2877 18.1363C10.3841 18.073 10.5082 18.0042 10.6595 17.933Z" fill="#FFEB33"/>
</svg>
