<svg width="28" height="29" viewBox="0 0 28 29" fill="none" xmlns="http://www.w3.org/2000/svg">
<g clip-path="url(#clip0_2355_46357)">
<rect y="0.639648" width="28" height="28" rx="14" fill="#FF465C"/>
<rect y="19.6396" width="30" height="9" fill="#FF465C"/>
<rect y="0.639648" width="30" height="3" fill="white"/>
<rect y="6.63965" width="30" height="3" fill="white"/>
<rect y="12.6396" width="30" height="3" fill="white"/>
<rect y="18.6396" width="30" height="3" fill="white"/>
<rect y="-1.36035" width="16" height="17" fill="#407DD9"/>
<rect y="24.6396" width="30" height="3" fill="white"/>
<path fill-rule="evenodd" clip-rule="evenodd" d="M11.6913 5.96697C11.1776 5.75696 10.6044 5.63965 10 5.63965C7.79086 5.63965 6 7.20665 6 9.13965C6 11.0726 7.79086 12.6396 10 12.6396C10.6044 12.6396 11.1776 12.5223 11.6913 12.3123C10.8762 13.1321 9.74737 13.6396 8.5 13.6396C6.01472 13.6396 4 11.6249 4 9.13965C4 6.65437 6.01472 4.63965 8.5 4.63965C9.74737 4.63965 10.8762 5.14717 11.6913 5.96697Z" fill="#FFF733"/>
<path d="M10.5 6.63965L10.8266 8.24232L12.107 7.22454L11.327 8.66219L12.962 8.70553L11.4404 9.30547L12.6651 10.3896L11.1138 9.87116L11.3551 11.4889L10.5 10.0946L9.64495 11.4889L9.88619 9.87116L8.33494 10.3896L9.55959 9.30547L8.03798 8.70553L9.67302 8.66219L8.89303 7.22454L10.1734 8.24232L10.5 6.63965Z" fill="#FFF733"/>
</g>
<defs>
<clipPath id="clip0_2355_46357">
<rect y="0.639648" width="28" height="28" rx="14" fill="white"/>
</clipPath>
</defs>
</svg>
