<svg width="200" height="23" viewBox="0 0 200 23" fill="none" xmlns="http://www.w3.org/2000/svg">
<path d="M0 23C0 10.2975 10.2975 0 23 0H177C189.703 0 200 10.2975 200 23H0Z" fill="#E70000"/>
<path d="M22.3023 11.4988C22.3023 9.21442 22.3023 6.93006 22.3023 4.64538C22.3023 4.47884 22.3843 4.39547 22.5481 4.39527C23.2271 4.39527 23.9064 4.39311 24.5855 4.39619C26.4283 4.40422 27.9583 5.74588 28.2044 7.57078C28.2275 7.74339 28.2353 7.91939 28.2353 8.09355C28.2371 10.3677 28.2383 12.6419 28.2359 14.9161C28.234 16.7329 27.0007 18.2142 25.2163 18.5433C25.0301 18.5776 24.839 18.5977 24.65 18.5995C23.9247 18.6063 23.199 18.6011 22.4737 18.6051C22.3066 18.606 22.3008 18.5081 22.3008 18.3825C22.3026 16.0879 22.302 13.793 22.302 11.4985L22.3023 11.4988ZM25.1305 10.7787C24.323 10.7661 23.6844 11.3987 23.6779 12.2183C23.6718 12.9683 24.3051 13.6139 25.0391 13.6442C25.8345 13.6769 26.5373 13.0464 26.5453 12.225C26.553 11.4346 25.9299 10.7911 25.1308 10.7787H25.1305Z" fill="white"/>
<path d="M20.8765 11.5151C20.8765 13.8103 20.8765 16.1051 20.8765 18.4003C20.8765 18.5822 20.8545 18.6053 20.6751 18.6053C19.7025 18.6053 18.7301 18.6066 17.7575 18.6038C16.6394 18.6004 15.6868 18.2076 14.9367 17.3696C14.4365 16.8107 14.1373 16.1533 14.0536 15.4048C14.0305 15.1961 14.0237 14.9842 14.0234 14.774C14.0212 12.551 14.0153 10.3278 14.0246 8.1049C14.0308 6.64127 14.6857 5.54448 15.9613 4.82718C16.4772 4.53693 17.042 4.40291 17.6321 4.39859C18.6406 4.39118 19.6494 4.39612 20.6578 4.39643C20.866 4.39643 20.8771 4.40816 20.8771 4.61443C20.8771 6.91454 20.8771 9.21497 20.8771 11.5151H20.8765ZM19.7309 11.4929C19.7309 9.57408 19.7287 7.655 19.7346 5.73623C19.7352 5.57721 19.6904 5.5383 19.5357 5.54047C18.8978 5.54911 18.2598 5.53954 17.6219 5.54541C16.2747 5.55776 15.1665 6.68635 15.1674 8.03295C15.1696 10.3429 15.168 12.6526 15.1696 14.9626C15.1696 15.0855 15.1788 15.2093 15.1964 15.3307C15.3622 16.4757 16.3238 17.381 17.4777 17.4406C18.1447 17.4752 18.8147 17.4551 19.4835 17.4588C19.729 17.4601 19.7303 17.4588 19.7306 17.2189C19.7309 15.3103 19.7306 13.4017 19.7306 11.4932L19.7309 11.4929Z" fill="white"/>
<path d="M16.2429 11.4942C16.2186 10.8133 16.7839 10.1714 17.559 10.168C18.339 10.1646 18.9043 10.7689 18.9065 11.5174C18.9087 12.2467 18.3062 12.8337 17.5599 12.8331C16.8185 12.8328 16.2411 12.2452 16.2433 11.4942H16.2429Z" fill="white"/>
<path d="M107.299 11.4572C107.311 9.51272 108.937 7.90144 110.867 7.92008C112.817 7.93872 114.426 9.54883 114.428 11.4817C114.43 13.4529 112.797 15.0945 110.845 15.0805C108.878 15.0677 107.287 13.4425 107.299 11.4572ZM110.879 13.5741C112.005 13.5683 112.962 12.6048 112.945 11.4968C112.926 10.3434 111.953 9.39388 110.809 9.41369C109.69 9.43349 108.786 10.3819 108.792 11.5318C108.798 12.6665 109.733 13.5799 110.879 13.5741Z" fill="white"/>
<path d="M46.8086 8.08203H48.2591V14.745H46.8098V8.08203H46.8086Z" fill="white"/>
<path d="M37.0505 14.7347H35.6423L35.5996 8.14062H37.1345L40.3735 12.279V8.14062H41.6967V14.7987H40.2783L37.0505 10.5327V14.7347Z" fill="white"/>
<path d="M86.7555 14.7649H85.3473L85.3047 8.1709H86.8395L90.0786 12.3092V8.1709H91.4018V14.829H89.9834L86.7555 10.563V14.7649Z" fill="white"/>
<path d="M54.5973 14.7347H53.1891L53.1465 8.14062H54.6813L57.9204 12.279V8.14062H59.2436V14.7987H57.8252L54.5973 10.5327V14.7347Z" fill="white"/>
<path d="M66.0834 14.7479V9.46272H64.0723V8.09277H69.6144V9.46272H67.7314V14.7479H66.0834Z" fill="white"/>
<path d="M74.5879 8.05371V14.8291H79.9792V13.4443H76.0472V12.1336H79.5546V10.8045H75.9549V9.30921H79.85V8.05371H74.5879Z" fill="white"/>
<path fill-rule="evenodd" clip-rule="evenodd" d="M99.6895 8.1709H96.707V14.8291H99.6895C101.529 14.8291 103.02 13.3389 103.02 11.5C103.02 9.66113 101.529 8.1709 99.6895 8.1709ZM99.7695 9.5625H98.1211V13.2393H99.7695C100.479 13.2393 101.094 12.8379 101.4 12.25C101.533 11.9961 101.607 11.707 101.607 11.4014C101.607 11.0703 101.52 10.7607 101.367 10.4932C101.051 9.9375 100.453 9.5625 99.7695 9.5625Z" fill="white"/>
</svg>
