<svg width="174" height="49" viewBox="0 0 174 49" fill="none" xmlns="http://www.w3.org/2000/svg">
<rect y="0.124023" width="174" height="48" rx="12" fill="#8397C3" fill-opacity="0.1"/>
<g clip-path="url(#clip0_4954_589)">
<path d="M28.6183 24.4009C24.4282 28.4985 20.1883 32.6437 16 36.7404V11.8867C20.1652 16.0178 24.3624 20.1798 28.6183 24.4009Z" fill="white"/>
<path d="M29.4782 23.4482C25.2454 19.2782 21.0108 15.1057 16.7754 10.9331C16.7861 10.9014 16.7958 10.8696 16.8065 10.8379C17.2359 10.9948 17.6964 11.0963 18.0885 11.3167C20.9175 12.9048 23.7305 14.5193 26.5523 16.1188C28.6434 17.304 30.7398 18.4785 32.8335 19.6592C32.9339 19.7156 33.03 19.78 33.1224 19.8373C31.8742 21.0735 30.6428 22.293 29.4773 23.4473L29.4782 23.4482Z" fill="white"/>
<path d="M29.4459 25.0645C30.6941 26.3139 31.9326 27.5537 33.1942 28.8155C32.2935 29.3243 31.3894 29.8393 30.4808 30.3472C26.865 32.3691 23.2483 34.3901 19.6308 36.4085C19.0387 36.7392 18.4448 37.0663 17.8375 37.3688C17.6997 37.4375 17.5059 37.397 17.3379 37.4058C17.3895 37.2471 17.3939 37.0434 17.4997 36.9376C19.9446 34.4827 22.3966 32.0349 24.8548 29.5924C26.3698 28.0863 27.8963 26.5926 29.4468 25.0645H29.4459Z" fill="white"/>
<path d="M30.1133 24.3052C31.4113 23.0337 32.6586 21.8036 33.922 20.5903C34.0109 20.5056 34.2616 20.4774 34.371 20.5391C36.0299 21.4668 37.6889 22.3944 39.3248 23.3626C40.212 23.8872 40.2316 24.7011 39.3505 25.2381C37.704 26.2416 36.0219 27.1886 34.3452 28.1427C34.2572 28.1929 34.034 28.1259 33.946 28.0404C32.9298 27.0581 31.9287 26.0608 30.9214 25.0706C30.6814 24.8343 30.4325 24.6068 30.1133 24.3052Z" fill="white"/>
</g>
<path d="M60.0795 12.124H59.0227C58.9602 11.82 58.8509 11.553 58.6946 11.3229C58.5412 11.0928 58.3537 10.8996 58.1321 10.7433C57.9134 10.5843 57.6705 10.4649 57.4034 10.3854C57.1364 10.3058 56.858 10.2661 56.5682 10.2661C56.0398 10.2661 55.5611 10.3996 55.1321 10.6666C54.706 10.9337 54.3665 11.3271 54.1136 11.847C53.8636 12.3669 53.7386 13.0047 53.7386 13.7604C53.7386 14.5161 53.8636 15.1539 54.1136 15.6737C54.3665 16.1936 54.706 16.5871 55.1321 16.8541C55.5611 17.1212 56.0398 17.2547 56.5682 17.2547C56.858 17.2547 57.1364 17.2149 57.4034 17.1354C57.6705 17.0558 57.9134 16.9379 58.1321 16.7817C58.3537 16.6226 58.5412 16.428 58.6946 16.1979C58.8509 15.9649 58.9602 15.6979 59.0227 15.3968H60.0795C60 15.8428 59.8551 16.2419 59.6449 16.5942C59.4347 16.9465 59.1733 17.2462 58.8608 17.4933C58.5483 17.7377 58.1974 17.9237 57.8082 18.0516C57.4219 18.1794 57.0085 18.2433 56.5682 18.2433C55.8239 18.2433 55.1619 18.0615 54.5824 17.6979C54.0028 17.3343 53.5469 16.8172 53.2145 16.1468C52.8821 15.4763 52.7159 14.6808 52.7159 13.7604C52.7159 12.8399 52.8821 12.0445 53.2145 11.374C53.5469 10.7036 54.0028 10.1865 54.5824 9.82289C55.1619 9.45925 55.8239 9.27743 56.5682 9.27743C57.0085 9.27743 57.4219 9.34135 57.8082 9.46919C58.1974 9.59703 58.5483 9.78453 58.8608 10.0317C59.1733 10.276 59.4347 10.5743 59.6449 10.9266C59.8551 11.276 60 11.6752 60.0795 12.124ZM61.6509 18.124V11.5786H62.6566V14.4252H63.3214L65.6737 11.5786H66.9691L64.3271 14.732L67.0032 18.124H65.7077L63.56 15.3627H62.6566V18.124H61.6509ZM70.0224 18.2774C69.6076 18.2774 69.2312 18.1993 68.8931 18.0431C68.555 17.884 68.2866 17.6553 68.0877 17.357C67.8888 17.0558 67.7894 16.6922 67.7894 16.2661C67.7894 15.8911 67.8633 15.5871 68.011 15.3541C68.1587 15.1183 68.3562 14.9337 68.6033 14.8002C68.8505 14.6666 69.1232 14.5672 69.4215 14.5019C69.7227 14.4337 70.0252 14.3797 70.3292 14.3399C70.7269 14.2888 71.0494 14.2504 71.2965 14.2249C71.5465 14.1965 71.7283 14.1496 71.842 14.0843C71.9585 14.0189 72.0167 13.9053 72.0167 13.7433V13.7093C72.0167 13.2888 71.9016 12.9621 71.6715 12.7291C71.4442 12.4962 71.0991 12.3797 70.636 12.3797C70.1559 12.3797 69.7795 12.4848 69.5067 12.695C69.234 12.9053 69.0423 13.1297 68.9315 13.3683L67.9769 13.0274C68.1474 12.6297 68.3746 12.32 68.6587 12.0985C68.9457 11.874 69.2582 11.7178 69.5962 11.6297C69.9371 11.5388 70.2724 11.4933 70.6019 11.4933C70.8121 11.4933 71.0536 11.5189 71.3263 11.57C71.6019 11.6183 71.8675 11.7192 72.1232 11.8726C72.3817 12.026 72.5962 12.2575 72.7667 12.5672C72.9371 12.8769 73.0224 13.2916 73.0224 13.8115V18.124H72.0167V17.2377H71.9656C71.8974 17.3797 71.7837 17.5317 71.6246 17.6936C71.4656 17.8556 71.2539 17.9933 70.9897 18.107C70.7255 18.2206 70.4031 18.2774 70.0224 18.2774ZM70.1758 17.374C70.5735 17.374 70.9087 17.2959 71.1815 17.1396C71.457 16.9834 71.6644 16.7817 71.8036 16.5345C71.9457 16.2874 72.0167 16.0274 72.0167 15.7547V14.8343C71.9741 14.8854 71.8803 14.9323 71.7354 14.9749C71.5934 15.0146 71.4286 15.0502 71.2411 15.0814C71.0565 15.1098 70.8761 15.1354 70.6999 15.1581C70.5266 15.178 70.386 15.195 70.2781 15.2093C70.0167 15.2433 69.7724 15.2987 69.5451 15.3754C69.3207 15.4493 69.1388 15.5615 68.9996 15.7121C68.8633 15.8598 68.7951 16.0615 68.7951 16.3172C68.7951 16.6666 68.9244 16.9308 69.1829 17.1098C69.4442 17.286 69.7752 17.374 70.1758 17.374ZM79.9034 11.5786V18.124H78.8977V11.5786H79.9034ZM79.5114 14.6979V15.6354C79.2841 15.7206 79.0582 15.7959 78.8338 15.8612C78.6094 15.9237 78.3736 15.9735 78.1264 16.0104C77.8793 16.0445 77.608 16.0615 77.3125 16.0615C76.571 16.0615 75.9759 15.8612 75.527 15.4607C75.081 15.0601 74.858 14.4593 74.858 13.6581V11.5615H75.8636V13.6581C75.8636 13.9933 75.9276 14.2689 76.0554 14.4848C76.1832 14.7007 76.3565 14.8612 76.5753 14.9664C76.794 15.0715 77.0398 15.124 77.3125 15.124C77.7386 15.124 78.1236 15.0857 78.4673 15.009C78.8139 14.9294 79.1619 14.8257 79.5114 14.6979ZM83.6747 18.2774C83.2599 18.2774 82.8835 18.1993 82.5455 18.0431C82.2074 17.884 81.9389 17.6553 81.7401 17.357C81.5412 17.0558 81.4418 16.6922 81.4418 16.2661C81.4418 15.8911 81.5156 15.5871 81.6634 15.3541C81.8111 15.1183 82.0085 14.9337 82.2557 14.8002C82.5028 14.6666 82.7756 14.5672 83.0739 14.5019C83.375 14.4337 83.6776 14.3797 83.9815 14.3399C84.3793 14.2888 84.7017 14.2504 84.9489 14.2249C85.1989 14.1965 85.3807 14.1496 85.4943 14.0843C85.6108 14.0189 85.669 13.9053 85.669 13.7433V13.7093C85.669 13.2888 85.554 12.9621 85.3239 12.7291C85.0966 12.4962 84.7514 12.3797 84.2884 12.3797C83.8082 12.3797 83.4318 12.4848 83.1591 12.695C82.8864 12.9053 82.6946 13.1297 82.5838 13.3683L81.6293 13.0274C81.7997 12.6297 82.027 12.32 82.3111 12.0985C82.598 11.874 82.9105 11.7178 83.2486 11.6297C83.5895 11.5388 83.9247 11.4933 84.2543 11.4933C84.4645 11.4933 84.706 11.5189 84.9787 11.57C85.2543 11.6183 85.5199 11.7192 85.7756 11.8726C86.0341 12.026 86.2486 12.2575 86.419 12.5672C86.5895 12.8769 86.6747 13.2916 86.6747 13.8115V18.124H85.669V17.2377H85.6179C85.5497 17.3797 85.4361 17.5317 85.277 17.6936C85.1179 17.8556 84.9063 17.9933 84.642 18.107C84.3778 18.2206 84.0554 18.2774 83.6747 18.2774ZM83.8281 17.374C84.2259 17.374 84.5611 17.2959 84.8338 17.1396C85.1094 16.9834 85.3168 16.7817 85.456 16.5345C85.598 16.2874 85.669 16.0274 85.669 15.7547V14.8343C85.6264 14.8854 85.5327 14.9323 85.3878 14.9749C85.2457 15.0146 85.081 15.0502 84.8935 15.0814C84.7088 15.1098 84.5284 15.1354 84.3523 15.1581C84.179 15.178 84.0384 15.195 83.9304 15.2093C83.669 15.2433 83.4247 15.2987 83.1974 15.3754C82.973 15.4493 82.7912 15.5615 82.652 15.7121C82.5156 15.8598 82.4474 16.0615 82.4474 16.3172C82.4474 16.6666 82.5767 16.9308 82.8352 17.1098C83.0966 17.286 83.4276 17.374 83.8281 17.374ZM87.6197 12.5161V11.5786H92.9379V12.5161H90.7901V18.124H89.7844V12.5161H87.6197ZM95.2741 13.9479H97.1491C97.9162 13.9479 98.5028 14.1425 98.9091 14.5317C99.3153 14.9209 99.5185 15.4138 99.5185 16.0104C99.5185 16.4024 99.4276 16.759 99.2457 17.08C99.0639 17.3982 98.7969 17.6524 98.4446 17.8428C98.0923 18.0303 97.6605 18.124 97.1491 18.124H94.4048V11.5786H95.4105V17.1865H97.1491C97.5469 17.1865 97.8736 17.0814 98.1293 16.8712C98.3849 16.661 98.5128 16.3911 98.5128 16.0615C98.5128 15.7149 98.3849 15.4323 98.1293 15.2135C97.8736 14.9948 97.5469 14.8854 97.1491 14.8854H95.2741V13.9479ZM104.424 18.124V11.5786H107.1C107.805 11.5786 108.365 11.7377 108.779 12.0558C109.194 12.374 109.402 12.7945 109.402 13.3172C109.402 13.7149 109.284 14.0232 109.048 14.2419C108.812 14.4578 108.51 14.6041 108.14 14.6808C108.382 14.7149 108.616 14.8002 108.843 14.9365C109.074 15.0729 109.264 15.2604 109.414 15.499C109.565 15.7348 109.64 16.0246 109.64 16.3683C109.64 16.7036 109.555 17.0033 109.385 17.2675C109.214 17.5317 108.97 17.7405 108.652 17.8939C108.333 18.0473 107.953 18.124 107.51 18.124H104.424ZM105.379 17.2036H107.51C107.856 17.2036 108.127 17.1212 108.324 16.9564C108.52 16.7916 108.618 16.5672 108.618 16.2831C108.618 15.945 108.52 15.6794 108.324 15.4862C108.127 15.2902 107.856 15.1922 107.51 15.1922H105.379V17.2036ZM105.379 14.3229H107.1C107.37 14.3229 107.602 14.286 107.795 14.2121C107.988 14.1354 108.136 14.0274 108.238 13.8882C108.343 13.7462 108.396 13.5786 108.396 13.3854C108.396 13.1098 108.281 12.8939 108.051 12.7377C107.821 12.5786 107.504 12.499 107.1 12.499H105.379V14.3229Z" fill="#8C95AD"/>
<path d="M53.233 39.124V28.9422H56.6733C57.4721 28.9422 58.125 29.0864 58.6321 29.3747C59.1425 29.6598 59.5204 30.0459 59.7656 30.5331C60.0109 31.0203 60.1335 31.5639 60.1335 32.1638C60.1335 32.7637 60.0109 33.3089 59.7656 33.7994C59.5237 34.29 59.1491 34.6811 58.642 34.9727C58.1349 35.2611 57.4853 35.4053 56.6932 35.4053H54.2273V34.3115H56.6534C57.2003 34.3115 57.6394 34.2171 57.9709 34.0281C58.3023 33.8392 58.5426 33.584 58.6918 33.2625C58.8442 32.9377 58.9205 32.5715 58.9205 32.1638C58.9205 31.7561 58.8442 31.3915 58.6918 31.07C58.5426 30.7485 58.3007 30.4967 57.9659 30.3144C57.6312 30.1288 57.187 30.036 56.6335 30.036H54.4659V39.124H53.233ZM63.1339 28.9422V39.124H61.9606V28.9422H63.1339ZM67.53 39.303C67.0461 39.303 66.6069 39.2119 66.2125 39.0296C65.8181 38.844 65.5049 38.5771 65.2729 38.2291C65.0409 37.8778 64.9249 37.4536 64.9249 36.9564C64.9249 36.5189 65.0111 36.1643 65.1834 35.8925C65.3558 35.6174 65.5861 35.402 65.8745 35.2462C66.1628 35.0904 66.481 34.9744 66.829 34.8982C67.1803 34.8186 67.5333 34.7557 67.888 34.7093C68.352 34.6496 68.7282 34.6048 69.0165 34.575C69.3082 34.5419 69.5203 34.4872 69.6529 34.411C69.7888 34.3347 69.8567 34.2021 69.8567 34.0132V33.9735C69.8567 33.4829 69.7225 33.1018 69.454 32.83C69.1889 32.5582 68.7862 32.4223 68.2459 32.4223C67.6858 32.4223 67.2466 32.545 66.9284 32.7902C66.6103 33.0355 66.3865 33.2973 66.2573 33.5757L65.1436 33.178C65.3425 32.714 65.6077 32.3527 65.9391 32.0942C66.2739 31.8324 66.6384 31.6501 67.0328 31.5473C67.4306 31.4413 67.8217 31.3882 68.2061 31.3882C68.4514 31.3882 68.7331 31.4181 69.0513 31.4777C69.3728 31.5341 69.6827 31.6517 69.981 31.8307C70.2826 32.0097 70.5328 32.2798 70.7317 32.6411C70.9306 33.0023 71.03 33.4862 71.03 34.0928V39.124H69.8567V38.0899H69.7971C69.7175 38.2557 69.5849 38.433 69.3993 38.6219C69.2137 38.8108 68.9668 38.9716 68.6586 39.1041C68.3503 39.2367 67.9741 39.303 67.53 39.303ZM67.709 38.249C68.173 38.249 68.5641 38.1579 68.8823 37.9756C69.2038 37.7933 69.4457 37.558 69.6081 37.2696C69.7739 36.9813 69.8567 36.678 69.8567 36.3598V35.286C69.807 35.3456 69.6976 35.4003 69.5286 35.45C69.3629 35.4964 69.1706 35.5378 68.9519 35.5743C68.7364 35.6075 68.526 35.6373 68.3205 35.6638C68.1183 35.687 67.9542 35.7069 67.8283 35.7235C67.5234 35.7632 67.2383 35.8279 66.9732 35.9173C66.7114 36.0035 66.4992 36.1344 66.3368 36.3101C66.1777 36.4825 66.0982 36.7178 66.0982 37.0161C66.0982 37.4237 66.249 37.732 66.5506 37.9408C66.8555 38.1463 67.2417 38.249 67.709 38.249ZM73.6538 41.9877C73.4549 41.9877 73.2776 41.9711 73.1218 41.9379C72.966 41.9081 72.8583 41.8783 72.7987 41.8485L73.0969 40.8144C73.382 40.8873 73.6339 40.9138 73.8526 40.8939C74.0714 40.874 74.2653 40.7762 74.4343 40.6006C74.6067 40.4282 74.7641 40.1482 74.9066 39.7604L75.1254 39.1638L72.3015 31.4877H73.5742L75.6822 37.5729H75.7617L77.8697 31.4877H79.1424L75.9009 40.2377C75.7551 40.6321 75.5745 40.9585 75.359 41.2171C75.1436 41.4789 74.8933 41.6728 74.6083 41.7987C74.3266 41.9247 74.0084 41.9877 73.6538 41.9877ZM84.7876 28.9422H86.2592L89.7195 37.3939H89.8388L93.299 28.9422H94.7706V39.124H93.6172V31.3882H93.5178L90.3359 39.124H89.2223L86.0405 31.3882H85.9411V39.124H84.7876V28.9422ZM99.3308 39.303C98.8469 39.303 98.4077 39.2119 98.0133 39.0296C97.6189 38.844 97.3057 38.5771 97.0737 38.2291C96.8417 37.8778 96.7257 37.4536 96.7257 36.9564C96.7257 36.5189 96.8118 36.1643 96.9842 35.8925C97.1565 35.6174 97.3869 35.402 97.6752 35.2462C97.9636 35.0904 98.2818 34.9744 98.6298 34.8982C98.9811 34.8186 99.3341 34.7557 99.6887 34.7093C100.153 34.6496 100.529 34.6048 100.817 34.575C101.109 34.5419 101.321 34.4872 101.454 34.411C101.59 34.3347 101.657 34.2021 101.657 34.0132V33.9735C101.657 33.4829 101.523 33.1018 101.255 32.83C100.99 32.5582 100.587 32.4223 100.047 32.4223C99.4866 32.4223 99.0474 32.545 98.7292 32.7902C98.411 33.0355 98.1873 33.2973 98.0581 33.5757L96.9444 33.178C97.1433 32.714 97.4084 32.3527 97.7399 32.0942C98.0746 31.8324 98.4392 31.6501 98.8336 31.5473C99.2314 31.4413 99.6225 31.3882 100.007 31.3882C100.252 31.3882 100.534 31.4181 100.852 31.4777C101.174 31.5341 101.483 31.6517 101.782 31.8307C102.083 32.0097 102.334 32.2798 102.532 32.6411C102.731 33.0023 102.831 33.4862 102.831 34.0928V39.124H101.657V38.0899H101.598C101.518 38.2557 101.386 38.433 101.2 38.6219C101.015 38.8108 100.768 38.9716 100.459 39.1041C100.151 39.2367 99.7749 39.303 99.3308 39.303ZM99.5098 38.249C99.9738 38.249 100.365 38.1579 100.683 37.9756C101.005 37.7933 101.247 37.558 101.409 37.2696C101.575 36.9813 101.657 36.678 101.657 36.3598V35.286C101.608 35.3456 101.498 35.4003 101.329 35.45C101.164 35.4964 100.971 35.5378 100.753 35.5743C100.537 35.6075 100.327 35.6373 100.121 35.6638C99.9191 35.687 99.755 35.7069 99.6291 35.7235C99.3242 35.7632 99.0391 35.8279 98.774 35.9173C98.5121 36.0035 98.3 36.1344 98.1376 36.3101C97.9785 36.4825 97.899 36.7178 97.899 37.0161C97.899 37.4237 98.0498 37.732 98.3514 37.9408C98.6563 38.1463 99.0424 38.249 99.5098 38.249ZM104.972 39.124V31.4877H106.106V32.6411H106.185C106.325 32.2632 106.576 31.9566 106.941 31.7213C107.306 31.486 107.717 31.3683 108.174 31.3683C108.26 31.3683 108.368 31.37 108.497 31.3733C108.626 31.3766 108.724 31.3816 108.79 31.3882V32.5814C108.751 32.5715 108.66 32.5566 108.517 32.5367C108.378 32.5135 108.23 32.5019 108.075 32.5019C107.703 32.5019 107.372 32.5798 107.08 32.7355C106.792 32.888 106.563 33.1001 106.394 33.3719C106.228 33.6404 106.146 33.9469 106.146 34.2916V39.124H104.972ZM111.275 36.3399L111.255 34.8882H111.494L114.835 31.4877H116.286L112.727 35.0871H112.627L111.275 36.3399ZM110.181 39.124V28.9422H111.355V39.124H110.181ZM115.034 39.124L112.051 35.3456L112.886 34.5303L116.525 39.124H115.034ZM120.684 39.2831C119.948 39.2831 119.313 39.1207 118.78 38.7959C118.249 38.4678 117.84 38.0104 117.552 37.4237C117.267 36.8338 117.124 36.1477 117.124 35.3655C117.124 34.5833 117.267 33.8939 117.552 33.2973C117.84 32.6974 118.241 32.2301 118.755 31.8953C119.272 31.5573 119.875 31.3882 120.564 31.3882C120.962 31.3882 121.355 31.4545 121.743 31.5871C122.131 31.7197 122.483 31.9351 122.802 32.2334C123.12 32.5284 123.373 32.9195 123.562 33.4067C123.751 33.8939 123.846 34.4938 123.846 35.2064V35.7036H117.959V34.6894H122.653C122.653 34.2585 122.566 33.874 122.394 33.536C122.225 33.1979 121.983 32.9311 121.668 32.7355C121.357 32.54 120.989 32.4422 120.564 32.4422C120.097 32.4422 119.693 32.5582 119.351 32.7902C119.013 33.0189 118.753 33.3172 118.571 33.6851C118.389 34.053 118.297 34.4474 118.297 34.8683V35.5445C118.297 36.1212 118.397 36.6101 118.596 37.0111C118.798 37.4088 119.078 37.7121 119.436 37.9209C119.794 38.1264 120.21 38.2291 120.684 38.2291C120.992 38.2291 121.27 38.186 121.519 38.0999C121.771 38.0104 121.988 37.8778 122.17 37.7021C122.353 37.5232 122.493 37.3011 122.593 37.036L123.726 37.3541C123.607 37.7386 123.407 38.0767 123.125 38.3683C122.843 38.6567 122.495 38.8821 122.081 39.0445C121.666 39.2036 121.201 39.2831 120.684 39.2831ZM128.952 31.4877V32.482H124.994V31.4877H128.952ZM126.148 29.6581H127.321V36.9365C127.321 37.268 127.369 37.5165 127.465 37.6823C127.564 37.8447 127.69 37.954 127.843 38.0104C127.999 38.0634 128.163 38.0899 128.335 38.0899C128.464 38.0899 128.57 38.0833 128.653 38.07C128.736 38.0535 128.802 38.0402 128.852 38.0303L129.091 39.0843C129.011 39.1141 128.9 39.1439 128.758 39.1737C128.615 39.2069 128.434 39.2235 128.216 39.2235C127.884 39.2235 127.559 39.1522 127.241 39.0097C126.926 38.8672 126.665 38.6501 126.456 38.3584C126.25 38.0667 126.148 37.6988 126.148 37.2547V29.6581Z" fill="white"/>
<defs>
<clipPath id="clip0_4954_589">
<rect width="24" height="26.5714" fill="white" transform="translate(16 10.8379)"/>
</clipPath>
</defs>
</svg>
