<svg width="200" height="23" viewBox="0 0 200 23" fill="none" xmlns="http://www.w3.org/2000/svg">
<path d="M0 23C0 10.2975 10.2975 0 23 0H177C189.703 0 200 10.2975 200 23H0Z" fill="#005CF6"/>
<path fill-rule="evenodd" clip-rule="evenodd" d="M22.979 17.6641C23.1983 17.7288 23.4199 17.7942 23.6467 17.862C23.6476 17.7912 23.6484 17.734 23.6462 17.674L23.7679 8.33277L23.7693 8.21018V8.21012C23.7709 8.04668 23.7726 7.88325 23.7818 7.71991C23.789 7.61374 23.8023 7.5022 23.8418 7.4019C23.9329 7.18239 24.1047 7.08655 24.2892 7.14072C24.5881 7.22635 24.8005 7.39805 24.8584 7.69034C24.9 7.88706 24.9267 8.09448 24.9241 8.29607C24.9162 9.23961 24.9034 10.1816 24.8905 11.1243L24.8905 11.1253C24.8862 11.4398 24.882 11.7544 24.8779 12.0691L24.8777 12.0809C24.8765 12.1523 24.8754 12.2149 24.9726 12.242C25.0889 12.2729 25.204 12.3077 25.3189 12.3425L25.3189 12.3425L25.3189 12.3425C25.5343 12.4077 25.7489 12.4727 25.969 12.5111C26.3563 12.5788 26.7365 12.5129 27.0831 12.3158C27.6993 11.9642 27.9916 11.4258 28.1087 10.787C28.2194 10.1945 28.1918 9.60015 28.0995 9.01043C27.9773 8.23503 27.5857 7.59236 26.9455 7.07996C26.3488 6.60355 25.6501 6.28928 24.9149 6.06446C24.0647 5.80396 23.2052 5.56836 22.3465 5.33299L22.3464 5.33298C22.1077 5.26753 21.8689 5.2021 21.6305 5.13616C21.4912 5.09815 21.3489 5.06942 21.2017 5.03971L21.2017 5.03971C21.1384 5.02693 21.0741 5.01397 21.0089 5L21.0067 5.16618L20.9794 7.2638L20.9794 7.26449C20.9376 10.4679 20.8959 13.674 20.8512 16.8774C20.8498 16.9837 20.8667 17.0384 20.9986 17.0755C21.3376 17.1684 21.6722 17.2707 22.0065 17.3729C22.146 17.4155 22.2854 17.4582 22.4252 17.5001C22.6092 17.555 22.7933 17.6093 22.979 17.6641ZM39.869 15.9527L38.0687 15.9293C38.0675 15.9059 38.0657 15.8831 38.064 15.8607L38.064 15.8607L38.064 15.8606L38.064 15.8605C38.0608 15.8197 38.0577 15.7802 38.0582 15.7411C38.0617 15.479 38.0646 15.2169 38.0675 14.9548L38.0675 14.9542L38.0676 14.9536L38.0676 14.9531C38.0734 14.4279 38.0793 13.9028 38.089 13.3781C38.1145 12.0194 39.1067 11.0605 40.4849 11.0751C41.5866 11.0865 42.6884 11.101 43.7902 11.1154L43.7905 11.1154C44.9656 11.1309 46.1407 11.1463 47.3156 11.1581C47.5771 11.1615 47.8509 11.1462 48.0996 11.0751C48.7901 10.8764 49.1159 10.3858 49.0935 9.64869C49.0759 9.08348 48.655 8.59336 48.0312 8.43736C47.8385 8.3887 47.6351 8.36468 47.4358 8.36208C45.0893 8.32819 42.7432 8.29792 40.3968 8.26764L38.3855 8.24161L38.1655 8.23874L38.1775 7.31835L38.4321 7.32166L40.9157 7.35413C43.3992 7.38664 45.8826 7.41916 48.3661 7.45023C49.0297 7.45887 49.6423 7.60703 50.1659 8.03353C50.6185 8.40269 50.8443 8.89283 50.8966 9.45337C50.9503 10.0336 50.8954 10.6055 50.5299 11.0982C50.0608 11.7298 49.4048 12.0605 48.6297 12.059C46.9971 12.0547 45.3648 12.032 43.7324 12.0092L43.7318 12.0092C42.9868 11.9988 42.2418 11.9884 41.4968 11.9797C40.7011 11.9702 40.1338 12.3876 39.9429 13.1236C39.9075 13.2591 39.9039 13.4043 39.9021 13.5445C39.8917 14.1386 39.8843 14.7332 39.8767 15.3383V15.3385V15.3386V15.3388L39.869 15.9527ZM64.1238 7.66816L64.112 8.57488L63.8729 8.57177L59.6718 8.51704C58.7027 8.50441 58.1144 9.06942 58.1019 10.0317C58.0967 10.4269 58.0903 10.8221 58.0838 11.2172L58.0838 11.2176C58.0693 12.1066 58.0548 12.9955 58.0552 13.8842C58.056 15.1441 57.1075 15.9301 56.1583 16.1143C55.8333 16.1776 55.4912 16.1748 55.1566 16.1721L55.1312 16.1719C53.8788 16.161 52.6265 16.1436 51.3742 16.1262L50.4347 16.1133C50.4028 16.1128 50.3708 16.1103 50.3341 16.1075C50.3134 16.1058 50.2912 16.1041 50.2666 16.1025L50.2787 15.1702L51.6776 15.1884C51.9952 15.1931 52.3129 15.198 52.6305 15.203L52.6317 15.203L52.6322 15.2031C53.3479 15.2143 54.0638 15.2255 54.7801 15.2331C55.5801 15.2418 56.1752 14.6794 56.1907 13.8864C56.202 13.2972 56.2088 12.7078 56.2157 12.1183V12.1182V12.1182V12.1181C56.2237 11.4304 56.2317 10.7427 56.2467 10.0554C56.2634 9.306 56.4759 8.62925 57.0977 8.13733C57.5626 7.76901 58.1035 7.58716 58.6913 7.59055C59.9661 7.59855 61.2412 7.61672 62.5162 7.63489L62.5167 7.63489C63.0154 7.642 63.514 7.6491 64.0126 7.6556C64.0317 7.65585 64.0505 7.65841 64.0774 7.66209L64.0929 7.6642L64.1238 7.66816ZM24.4154 15.0426L24.4192 14.7308L24.4192 14.7305C24.4241 14.3213 24.4288 13.9233 24.441 13.5253C24.4416 13.4845 24.5041 13.4253 24.5484 13.4123C25.3362 13.2046 26.135 13.0651 26.9589 13.0241C27.7239 12.9877 28.4883 13.0031 29.2422 13.1438C30.0402 13.2904 30.8287 13.4832 31.5202 13.9036C31.6661 13.9927 31.8056 14.1199 31.889 14.2599C32.0732 14.5648 31.9805 14.915 31.6543 15.1233C31.3993 15.2862 31.1238 15.4352 30.8401 15.5459C29.837 15.9336 28.8067 16.249 27.7763 16.5645L27.7762 16.5645C27.2796 16.7166 26.7829 16.8686 26.2892 17.0288C25.8994 17.1563 25.507 17.2789 25.1147 17.4016C24.9185 17.4629 24.7222 17.5242 24.5263 17.5862C24.4984 17.595 24.4705 17.6014 24.4389 17.6086C24.4238 17.612 24.4078 17.6156 24.3906 17.6198C24.3897 17.5989 24.3883 17.5802 24.3869 17.5626L24.3869 17.5626C24.385 17.5367 24.3832 17.5133 24.3835 17.4889C24.3849 17.3814 24.3865 17.2737 24.3881 17.1659V17.1659C24.3929 16.8422 24.3976 16.5178 24.3974 16.1949C24.3987 16.0996 24.4257 16.0536 24.5291 16.0223C25.7545 15.635 26.98 15.2422 28.2026 14.844C28.5422 14.734 28.882 14.6131 29.2131 14.4812C29.2899 14.4495 29.3912 14.35 29.386 14.2954C29.3752 14.2217 29.2825 14.1197 29.2034 14.0942C28.8255 13.9802 28.4416 13.8772 28.0403 13.9864C27.4028 14.1606 26.7682 14.3403 26.1336 14.5255C25.7766 14.6301 25.4209 14.7422 25.0657 14.8542L25.0656 14.8542C24.8979 14.9071 24.7304 14.9599 24.5628 15.0118C24.5443 15.0165 24.5251 15.0201 24.504 15.024C24.4782 15.0287 24.4495 15.0341 24.4154 15.0426ZM19.9956 15.6666L20.0065 14.8357C19.7968 14.9038 19.6107 14.9641 19.4218 15.0188C19.3527 15.0407 19.2838 15.0638 19.2148 15.087C19.0362 15.147 18.857 15.2072 18.6719 15.2461C18.2207 15.3438 17.7637 15.4359 17.2947 15.3235C17.2446 15.3112 17.1917 15.3064 17.1391 15.3015C17.0687 15.295 16.9987 15.2886 16.9367 15.2644C16.846 15.2305 16.7529 15.153 16.7157 15.0735C16.6728 14.9776 16.7765 14.9217 16.8652 14.8874C16.9501 14.8548 17.0348 14.8212 17.1195 14.7877C17.3355 14.7021 17.5518 14.6165 17.7724 14.545C18.4546 14.3223 19.1396 14.1106 19.8275 13.9015C19.9663 13.8598 20.0316 13.8088 20.0277 13.6589C20.0209 13.3577 20.0266 13.0581 20.0322 12.7579C20.0344 12.6452 20.0365 12.5324 20.038 12.4194L20.04 12.2586C19.9671 12.2795 19.8965 12.2989 19.8276 12.3178C19.6903 12.3555 19.5599 12.3914 19.432 12.4333L19.4318 12.4333C18.1237 12.8522 16.8156 13.2711 15.5132 13.6982C15.0968 13.8345 14.7005 14.0119 14.353 14.2689C13.9552 14.5634 13.9041 14.8706 14.2466 15.2184C14.412 15.3868 14.6396 15.5205 14.8618 15.6215C15.4231 15.8795 16.0331 16.0073 16.6433 16.1161C17.72 16.3099 18.8018 16.3404 19.8887 16.1992C19.9241 16.1942 19.9807 16.1378 19.9841 16.1024C19.9943 15.9941 19.9946 15.8842 19.995 15.775C19.9951 15.7388 19.9952 15.7026 19.9956 15.6666Z" fill="white"/>
<path d="M75.5157 15.1945H75.2599C72.0363 15.1945 68.8129 15.1964 65.5892 15.1893C65.391 15.189 65.1814 15.1434 64.9979 15.0685C64.7612 14.9716 64.6937 14.7314 64.8352 14.5185C64.9275 14.3797 65.0551 14.2482 65.1959 14.1604C66.3043 13.469 67.4194 12.7875 68.5332 12.1052C70.9679 10.6131 73.4017 9.12014 75.8403 7.63523C76.0524 7.50605 76.2921 7.40044 76.5327 7.34457C76.9738 7.24285 77.2909 7.46665 77.3878 7.91038C77.4163 8.04053 77.423 8.17713 77.423 8.31084C77.4253 10.2104 77.4243 12.1103 77.4246 14.0099C77.4246 14.1643 77.5014 14.2416 77.6549 14.2418C78.1445 14.2418 78.6344 14.2489 79.124 14.2382C79.2926 14.2347 79.3394 14.2912 79.3291 14.451C79.3165 14.6493 79.3216 14.8492 79.3278 15.0482C79.3313 15.1609 79.2893 15.1974 79.1773 15.1964C78.6554 15.1919 78.1332 15.2006 77.6113 15.1909C77.4566 15.188 77.4163 15.2423 77.4224 15.3847C77.4311 15.5888 77.4204 15.7935 77.4263 15.998C77.4292 16.1052 77.384 16.1391 77.2829 16.1385C76.7394 16.1359 76.1958 16.1352 75.6523 16.1385C75.5419 16.1391 75.5138 16.0861 75.5144 15.9896C75.5163 15.7325 75.5151 15.4754 75.5151 15.1945H75.5157ZM67.0635 14.1711C67.0693 14.1878 67.0751 14.205 67.0813 14.2218C67.1523 14.2282 67.223 14.2408 67.2941 14.2408C69.9684 14.2418 72.6431 14.2402 75.3174 14.2453C75.4844 14.2453 75.5235 14.1946 75.5231 14.0344C75.518 12.431 75.5205 10.8272 75.5209 9.22381C75.5209 9.20766 75.5212 9.19151 75.5205 9.17537C75.5128 9.0281 75.4685 9.00098 75.3416 9.0675C75.2987 9.08979 75.258 9.11595 75.2166 9.14146C74.2362 9.74343 73.256 10.3457 72.2752 10.9477C70.6166 11.966 68.9573 12.9832 67.2989 14.0025C67.2169 14.0529 67.142 14.1152 67.0635 14.1717V14.1711Z" fill="white"/>
</svg>
