<svg width="57" height="56" viewBox="0 0 57 56" fill="none" xmlns="http://www.w3.org/2000/svg">
<rect x="0.0390625" width="56" height="56" rx="10" fill="#F5CE1B"/>
<path d="M45.737 36.6765C45.3423 36.8316 45.0084 36.5989 44.7048 36.8704C44.6744 36.8704 44.6441 36.8704 44.6137 36.8316C44.1583 36.6377 44.1583 36.6377 44.1583 37.2195C44.1583 38.2279 44.1583 39.2363 44.1583 40.2448C44.1583 41.1368 43.6726 41.7574 42.9743 41.7574C42.61 41.7574 42.2456 41.7186 41.8813 41.7574C41.6385 41.7962 41.4867 41.4859 41.2438 41.5635C40.5455 41.835 39.8472 41.7186 39.1186 41.7186C37.1756 41.7186 35.2326 41.7186 33.2592 41.7186C33.1985 41.7186 32.8949 41.9125 33.0467 41.4859C33.1074 41.3696 32.9252 41.4083 32.8645 41.4083C32.8038 41.4083 32.6823 41.4083 32.7431 41.5247C32.8949 41.8738 32.6823 41.7574 32.5609 41.7574C29.95 41.7574 27.3694 41.7574 24.7585 41.7574C24.4245 41.7574 24.0905 41.7574 23.7566 41.7574C23.5744 41.7574 23.4226 41.7574 23.4226 41.4083C23.119 41.7574 22.3297 41.8738 21.9957 41.6411C21.7225 41.4083 21.4189 41.3696 21.176 41.6411C21.0849 41.835 20.9635 41.835 20.8421 41.835C20.2349 41.835 19.6277 41.7186 19.0508 41.8738C18.4436 42.0289 17.8364 41.9513 17.2596 41.9901C16.5613 42.0289 15.8631 42.1065 15.1648 41.9901C13.6772 41.7186 12.2199 41.9901 10.7323 41.7962C10.1858 41.7186 9.5786 41.2532 9.60896 40.3223C9.63932 39.3139 9.60896 38.3055 9.60896 37.2971C9.60896 36.948 9.51789 36.948 9.30537 36.9092C8.97141 36.8704 8.60709 37.0643 8.27314 36.7928C7.96954 36.5601 7.78738 36.1723 7.93918 35.7844C8.06062 35.4741 8.03026 35.2026 8.03026 34.8923C8.03026 34.4269 8.24278 34.1554 8.60709 34.1166C8.63745 34.1166 8.66781 34.1166 8.66781 34.1166C8.97141 34.0778 9.33573 34.2718 9.51789 34.0391C9.66968 33.8063 9.5786 33.3409 9.5786 32.9918C9.5786 31.0138 9.5786 29.0745 9.5786 27.0964C9.5786 25.4674 9.5786 23.8384 9.5786 22.2482C9.5786 21.8991 9.48753 21.8216 9.24465 21.8604C9.06249 21.8991 8.84997 21.8216 8.66781 21.8604C8.24278 22.0155 8.12134 21.5501 7.90882 21.2786C7.8481 21.201 7.8481 21.0071 7.90882 20.9683C8.09098 20.7356 8.06062 20.4253 8.03026 20.1538C7.9999 19.8435 8.27314 19.6108 8.12134 19.3005C8.12134 19.3005 8.1517 19.2617 8.18206 19.2617C8.51601 19.2229 8.84997 19.1454 9.15357 19.2229C9.51789 19.3005 9.60896 19.2617 9.60896 18.8351C9.60896 17.6327 9.60896 16.3916 9.60896 15.1892C9.60896 14.7238 9.94292 14.2196 10.2769 14.142C11.2484 13.9093 12.2503 13.9093 13.2218 14.0256C15.2255 14.2584 17.2596 14.0644 19.2634 14.1808C19.6884 14.2196 20.0831 14.142 20.5081 14.142C21.8136 14.1808 23.1494 14.142 24.4549 14.142C24.5459 14.142 24.8495 13.9869 24.6674 14.4135C24.637 14.4523 24.7585 14.6462 24.8495 14.6074C24.9103 14.5686 25.0317 14.4911 24.971 14.3359C24.8495 14.0644 25.0013 14.142 25.0924 14.142C26.8229 14.142 28.5534 14.142 30.2839 14.142C30.7697 14.5299 31.2251 14.2971 31.7108 14.1808C32.2269 14.0644 32.7431 14.1808 33.2895 14.142C33.7449 14.142 34.2003 13.9869 34.6557 13.9869C34.9593 13.9869 35.1718 14.142 35.4754 14.142C35.9915 14.142 36.5077 14.1032 37.0238 14.142C37.3577 14.1808 37.7524 13.9869 38.0256 14.142C38.4203 14.3747 38.8454 13.8317 39.2097 14.2584C39.2097 14.2584 39.24 14.2584 39.2704 14.2584C39.6954 13.7541 40.1205 14.0256 40.5759 14.142C40.9402 14.2584 41.3652 14.1032 41.7295 14.1808C42.2456 14.2971 42.7314 14.2971 43.2475 14.3359C43.4904 14.3359 43.6726 14.6462 43.7333 14.8789C43.794 15.1504 43.9458 15.4219 43.9154 15.771C43.794 16.857 44.0672 17.9042 44.0672 19.029C44.0672 19.4944 44.4012 19.2617 44.5833 19.2229C44.9173 19.1066 45.2513 19.3393 45.5852 19.2617C45.6156 19.2617 45.6459 19.3005 45.6763 19.3005C45.4941 19.572 45.737 19.7659 45.737 19.9986C45.737 20.3477 45.7067 20.658 45.8585 21.0071C45.9799 21.3174 45.6459 21.8604 45.3727 21.8604C45.0084 21.8604 44.6744 21.8604 44.3101 21.8604C44.1279 21.8604 44.0672 21.9379 44.0672 22.1706C44.0672 22.5973 44.0976 22.9851 44.0672 23.4118C44.0369 23.6445 44.2797 23.7609 44.1887 23.9936C43.9154 24.6917 44.1279 25.4286 44.0672 26.1268C44.0369 26.3983 44.2797 26.5922 44.1887 26.8637C43.9762 27.6394 44.1279 28.4539 44.0672 29.2296C44.0369 29.5011 44.1583 29.7338 44.1583 30.0053C44.1583 30.8586 43.9761 31.7119 44.0672 32.5652C44.0976 32.9531 44.1583 33.3409 44.0672 33.7288C44.0065 34.0391 44.1583 34.1942 44.4012 34.1942C44.6137 34.1942 44.8566 34.233 45.0387 34.1942C45.4334 34.0391 45.6156 34.4269 45.7977 34.7372C45.8281 34.776 45.8585 34.8923 45.8281 34.9311C45.6156 35.3578 45.7674 35.862 45.6763 36.2886C45.6156 36.405 45.5245 36.5213 45.737 36.6765ZM19.9616 39.3915C20.0831 39.0812 20.2652 39.0424 20.4777 39.0424C20.9028 39.0424 21.3278 39.0424 21.7528 39.0424C22.2082 39.0424 22.6333 39.0812 23.0887 39.1976C23.3316 39.2751 23.5744 39.0812 23.8477 39.1588C24.1513 39.2751 24.5156 39.2751 24.8495 39.1588C25.1531 39.0424 25.4567 39.6242 25.6996 39.12C26.0943 39.3139 26.489 39.0812 26.8836 39.0424C27.7337 39.0036 28.5838 39.0424 29.4339 39.0424C30.8608 39.0036 32.2573 39.0812 33.6842 39.1976C34.1396 39.2363 34.5646 39.12 35.02 39.0424C35.5362 38.9648 36.0826 39.0036 36.5987 39.0424C37.3881 39.12 38.1774 38.8485 38.9364 39.1976C38.9668 39.1976 39.0275 39.1976 39.0275 39.1588C39.149 38.9648 39.3008 39.0424 39.4222 39.0424C40.1812 39.0036 40.9402 39.0036 41.6688 39.1976C41.942 39.2751 42.0028 39.12 42.0028 38.7709C41.9117 36.1335 42.1242 33.4961 41.8813 30.8586C41.7902 29.8502 41.8206 28.8418 41.8813 27.8334C41.9117 27.5231 41.6081 27.0189 42.0938 26.8637C42.0938 26.8637 42.1242 26.7861 42.0938 26.7861C41.7599 26.3595 42.3367 25.6614 41.8813 25.2347C41.851 25.1959 41.8813 25.0796 41.8813 25.0408C41.7902 24.4978 42.0635 24.0324 42.0028 23.5281C41.9724 23.1403 41.851 22.7912 41.851 22.4034C41.8813 20.6968 41.851 18.9902 41.851 17.3224C41.851 17.1673 41.9421 16.9346 41.6992 16.9346C41.1527 16.8958 40.6062 16.8958 40.0597 16.7794C39.6651 16.7019 39.2704 16.7794 38.8757 16.7794C37.7524 16.7794 36.5987 16.5855 35.4754 16.8958C34.9593 17.0509 34.3825 16.7406 33.836 16.8958C33.5628 16.9734 33.3199 16.7019 33.0163 16.8958C32.9252 16.9346 32.8038 16.857 32.7431 16.7019C32.7127 16.6243 32.9556 16.3916 32.6823 16.4304C32.5609 16.4304 32.318 16.2752 32.318 16.6243C32.318 16.7019 32.2573 16.7406 32.1966 16.7406C32.1359 16.7406 32.0751 16.7019 32.0751 16.6243C32.0751 16.5467 32.0751 16.4304 31.9537 16.4304C31.8626 16.5079 31.9537 16.7794 31.8019 16.7406C31.4376 16.6243 31.134 16.9346 30.7697 16.8958C29.4035 16.8182 28.0373 16.8182 26.6711 16.7794C24.0602 16.7019 21.4492 16.5467 18.8383 16.8958C18.1704 16.9734 17.5025 16.8958 16.8346 16.9346C16.197 16.9734 15.5291 16.8182 14.8916 16.9346C14.0415 17.0897 13.2218 16.7794 12.3717 16.7794C11.7341 16.7794 11.7645 16.7794 11.7341 17.5939C11.7038 18.1369 11.7038 18.7187 11.6127 19.2617C11.5823 19.3781 11.5823 19.5332 11.6127 19.6108C11.7949 20.0762 11.7038 20.5416 11.7341 21.0071C11.7645 21.3174 11.7341 21.5889 11.3698 21.6276C11.8252 21.5501 11.7341 21.8991 11.7341 22.1706C11.7341 23.4118 11.7341 24.6141 11.7341 25.8553C11.7341 26.0104 11.7341 26.1656 11.6431 26.3207C11.5216 26.5146 11.552 26.8249 11.6127 26.9801C11.7341 27.2128 11.7038 27.4455 11.7038 27.6782C11.7038 30.7811 11.7038 33.8451 11.7038 36.948C11.7038 37.0256 11.8556 37.3746 11.552 37.1419C11.4305 37.0643 11.4609 37.2583 11.4609 37.3358C11.4609 37.4134 11.4305 37.6073 11.552 37.5298C11.8556 37.3358 11.7341 37.6461 11.7341 37.7625C11.7341 38.0728 11.7341 38.4218 11.7341 38.7321C11.7341 39.0036 11.7645 39.12 12.0074 39.0812C12.5539 39.0036 13.1003 39.3139 13.6468 39.2751C13.829 39.2751 14.0415 39.5854 14.1326 39.12C14.1326 39.0812 14.3451 39.0424 14.3754 39.12C14.4969 39.3139 14.679 39.2751 14.8308 39.2363C15.6505 39.1588 16.5006 39.3527 17.3203 39.12C17.8668 38.9648 18.4436 39.1976 18.9901 39.12C19.2026 39.0812 19.4455 39.1588 19.6884 39.0812C19.9313 39.0424 19.992 39.0812 19.9616 39.3915Z" fill="black"/>
<path d="M33.0754 20.2306C33.0754 21.2778 33.1057 22.3638 33.045 23.411C33.0146 23.8377 32.9539 24.2643 32.9539 24.7297C32.9539 24.9624 32.9539 25.1564 33.045 25.3891C33.2272 25.8545 32.8325 27.0957 32.3771 27.3672C33.045 27.7938 33.1057 28.4919 33.045 29.3064C33.0146 29.5392 33.0754 29.8107 33.0754 30.0434C33.0146 31.2845 33.2575 32.5257 33.1361 33.7668C33.0754 34.4649 33.2575 35.2406 32.8325 35.8612C32.62 36.1715 32.4074 36.4042 32.1038 36.4042C30.8287 36.443 29.5233 36.4042 28.2482 36.4042C28.0356 36.4042 27.9749 36.2879 28.1267 36.0551C28.2482 35.9 28.2178 35.6285 28.1571 35.5121C27.9749 35.2406 28.0356 34.9691 28.0356 34.6589C28.0356 33.5729 28.0356 32.4481 28.0356 31.3621C28.0356 31.1294 28.066 30.9354 28.1267 30.7027C28.1874 30.5088 28.0964 30.1985 28.066 29.927C28.066 29.8494 28.0356 29.7719 28.0356 29.6943C28.0356 29.2677 28.0964 28.8798 27.7928 28.5307C27.641 28.3756 27.6713 28.0265 27.641 27.755C27.6106 27.5611 27.7928 27.2508 27.5195 27.1344C27.7928 27.0569 27.5499 26.669 27.7321 26.5139C28.0053 26.2812 28.0053 26.0097 28.066 25.5442C28.1571 24.9237 28.0053 24.3031 28.0356 23.6825C28.066 22.325 28.0356 21.0063 28.0356 19.6488C28.0356 19.4549 28.0053 19.2997 28.2482 19.2997C29.3108 19.2997 30.343 19.2609 31.4056 19.3385C31.6788 19.3385 31.9217 19.4937 32.1949 19.3385C32.4985 19.2222 32.6503 19.5324 32.8628 19.7652C32.9236 19.8039 32.9236 19.8815 32.8932 19.9591C32.8325 20.0367 32.7718 20.1142 32.8325 20.2306C32.9539 20.4245 33.0146 20.1142 33.0754 20.2306ZM30.6162 34.271C30.8287 34.3098 31.0716 34.3098 31.1323 33.9219C31.1627 33.728 31.0413 33.6116 31.0413 33.4177C31.0413 32.8747 31.1323 32.3705 31.0716 31.8275C31.0109 31.3233 31.0413 30.8191 31.0716 30.2761C31.102 29.8494 30.9502 29.4228 31.0716 28.9574C31.102 28.8022 31.0716 28.6471 30.8895 28.6471C30.7073 28.6471 30.5555 28.6471 30.3733 28.6471C30.0697 28.6471 29.9787 28.841 30.009 29.2289C30.1001 30.47 30.0394 31.7112 30.0394 32.9523C30.0394 33.0686 30.009 33.185 29.9483 33.3014C29.7965 33.6504 29.9483 34.1546 30.2519 34.2322C30.343 34.3098 30.4644 34.271 30.6162 34.271ZM30.5555 21.6657C30.4341 21.6657 30.3126 21.6657 30.2215 21.6657C30.1001 21.6657 30.0394 21.7044 30.0394 21.8984C30.009 22.7129 30.009 23.5662 29.9787 24.3807C29.9483 24.8849 30.009 25.4667 30.0394 26.0097C30.0394 26.126 30.0394 26.2424 30.1608 26.2812C30.3733 26.3199 30.6162 26.3975 30.8287 26.3199C30.9805 26.2812 31.0716 26.2036 31.0716 25.9321C31.0716 25.5054 30.9805 25.04 31.1627 24.6134C31.2234 24.5358 31.2234 24.3419 31.1627 24.2255C30.9502 23.7989 31.0716 23.3334 31.0716 22.868C31.0716 22.6353 30.9805 22.3638 31.102 22.1311C31.2841 21.782 31.0716 21.7044 30.8895 21.6269C30.7984 21.6269 30.6769 21.6657 30.5555 21.6657Z" fill="black"/>
<path d="M24.0921 29.4239C24.3046 29.2299 24.6689 29.579 24.6386 29.0748C24.6082 28.493 24.2135 28.8421 23.9707 28.6869C24.1832 28.5706 24.5779 28.8421 24.5475 28.2603C24.5171 27.7949 24.2135 28.1052 24.001 27.9112C24.5475 28.1052 24.5171 27.7173 24.5171 27.3294C24.5171 25.0023 24.5171 22.6364 24.5171 20.3092C24.5171 19.805 24.9422 19.4559 25.3065 19.6887C25.4279 19.7662 25.519 19.7274 25.6404 19.7274C26.3994 19.7274 26.7941 20.3868 26.4298 21.3177C26.3084 21.6279 26.1869 21.9382 26.4905 22.2097C26.5816 22.2873 26.5512 22.4424 26.5512 22.5976C26.5512 23.2957 26.5512 23.9551 26.5512 24.6532C26.5512 25.0799 26.703 25.4677 26.6727 25.8944C26.6423 26.5149 26.6727 27.0967 26.6423 27.7173C26.6423 27.9112 26.703 27.95 26.8245 27.95C26.9156 27.95 27.0066 27.95 27.0977 28.0276C26.9763 28.0276 26.8852 28.0276 26.7638 28.0276C26.703 28.0276 26.612 28.0276 26.6423 28.1827C26.703 28.9584 26.612 29.6954 26.5512 30.4711C26.4905 31.7122 26.5512 32.9146 26.5209 34.1557C26.5209 34.6599 26.3691 35.1254 26.3691 35.6296C26.3691 35.9399 25.7619 36.4441 25.4583 36.4441C24.2135 36.4441 22.9688 36.4053 21.724 36.4441C21.3597 36.4441 21.1472 36.1338 21.0561 35.8623C20.9651 35.5908 20.874 35.2805 20.874 34.9314C20.9043 34.1169 20.9043 33.3024 20.874 32.4879C20.874 32.0225 20.9651 31.6347 20.9954 31.1692C21.0561 30.5487 20.7525 29.9281 20.9043 29.3463C21.0865 28.5318 20.874 27.6397 21.1169 26.864C21.1169 26.8252 21.1472 26.7864 21.1169 26.7477C20.8436 26.0883 21.0561 25.3902 20.9954 24.7308C20.9651 24.4205 21.1776 24.149 21.0561 23.7999C20.9043 23.3345 21.2686 22.9079 21.1472 22.4424C21.1169 22.3649 21.2079 22.3261 21.2383 22.2873C21.3901 22.0546 21.5115 21.8607 21.1472 21.8607C20.9954 21.8607 20.9954 21.7055 20.9954 21.5892C20.9954 21.0074 20.9954 20.4256 20.9954 19.8438C20.9954 19.6499 21.0561 19.5335 21.2079 19.5723C21.5115 19.6499 21.8455 19.4172 22.1187 19.7274C22.1491 19.7662 22.2705 19.7662 22.3312 19.7274C22.4527 19.6887 22.5134 19.4172 22.6652 19.6499C22.7866 19.8438 22.9384 19.9989 22.9384 20.3092C22.9081 21.0074 22.9081 21.7055 22.9384 22.4037C22.9688 24.2266 23.151 26.0495 23.0599 27.8724C23.0295 28.3767 23.151 28.8809 22.9384 29.3463C22.8777 29.5014 23.0599 29.6178 23.0599 29.8117C23.0599 30.4711 23.151 31.1692 23.0295 31.7898C22.9081 32.4879 22.9688 33.1473 22.9384 33.8067C22.9081 34.1557 23.0599 34.2721 23.3028 34.1169C23.5153 33.9618 23.7278 34.0394 23.9403 34.0006C23.9707 34.0006 24.0617 34.0394 24.0314 34.0782C23.9099 34.3109 24.001 34.3884 24.1832 34.3497C24.3653 34.3109 24.4564 34.1945 24.4564 33.923C24.4564 33.2249 24.4564 32.4879 24.4564 31.7898C24.4564 31.5959 24.3957 31.3632 24.5475 31.1692L24.5779 31.0917C24.3653 30.6262 24.6689 30.1608 24.6082 29.6566C24.6082 29.5014 24.5475 29.4627 24.4564 29.4627C24.3957 29.4239 24.2743 29.4239 24.0921 29.4239Z" fill="black"/>
<path d="M39.5728 35.3198C39.4513 35.3586 39.5121 35.5138 39.5424 35.5913C39.7549 36.018 39.4817 36.1343 39.2692 36.2507C38.8442 36.5222 38.4495 36.5222 37.9637 36.4446C37.1744 36.3283 36.385 36.4058 35.5957 36.4058C35.4135 36.4058 35.2313 36.4058 35.0492 36.2507C34.7456 35.9792 34.5331 35.6689 34.5331 35.2035C34.5027 32.7212 34.5027 30.2389 34.5331 27.7566C34.5331 27.0197 34.5027 26.2828 34.5027 25.5846C34.5331 24.8089 34.5027 24.072 34.5027 23.2963C34.5027 23.1799 34.5027 23.0248 34.4116 22.9472C34.3509 22.8696 34.3509 22.7145 34.3813 22.6757C34.6241 22.0163 34.4723 21.3182 34.5027 20.62C34.5331 20.0383 34.9885 19.3789 35.4742 19.3789C36.5672 19.3789 37.6601 19.3789 38.7834 19.3789C39.3299 19.3789 39.6639 19.7668 39.6639 20.3873C39.6639 20.7364 39.5728 20.6588 39.4513 20.5037C39.421 20.7752 39.421 20.7752 39.6031 20.8915C39.6639 20.9303 39.6639 21.0079 39.6639 21.0855C39.6639 21.7836 39.6639 22.5205 39.6639 23.2187C39.6639 23.4126 39.6335 23.4902 39.4817 23.4902C39.0567 23.4902 38.6013 23.4902 38.1762 23.4902C38.0852 23.4902 38.0852 23.4514 38.0548 23.2963C37.9941 22.792 38.0244 22.3266 37.9941 21.8224C37.9941 21.6673 37.903 21.6673 37.8119 21.6673C37.4476 21.6673 37.1136 21.6673 36.7493 21.6673C36.5065 21.6673 36.3547 22.0163 36.4761 22.249C36.5672 22.443 36.5672 22.5981 36.5672 22.792C36.5672 26.3215 36.5672 29.851 36.5672 33.3805C36.5672 33.4969 36.5975 33.652 36.5368 33.7296C36.2636 34.195 36.5368 34.1563 36.7493 34.1563C36.8708 34.1563 36.9922 34.1563 37.0833 34.1563C37.2351 34.1175 37.3262 34.195 37.2958 34.4278C37.2958 34.5441 37.2958 34.6605 37.4172 34.6605C37.5083 34.6605 37.6298 34.6993 37.6905 34.5053C37.7816 34.1563 37.8726 33.7684 38.1459 33.4969C38.328 33.303 38.2066 32.9927 37.9941 32.9151C37.7816 32.8375 37.8119 32.7212 37.8119 32.5273C37.8119 31.5188 37.8119 30.5104 37.8119 29.502C37.8119 29.1141 37.8119 28.7263 37.4476 28.5323C37.3565 28.4935 37.2958 28.3384 37.2958 28.1833C37.2958 27.679 37.2958 27.1748 37.2958 26.7094C37.2958 26.4379 37.3565 26.3215 37.569 26.3215C38.1762 26.3215 38.7834 26.3215 39.3906 26.3215C39.6639 26.3215 39.7549 26.5543 39.7549 26.8258C39.7549 28.9202 39.7549 31.0146 39.7549 33.109C39.7549 33.8072 39.7549 34.5053 39.7549 35.2035C39.7853 35.3586 39.8157 35.5913 39.5728 35.3198C39.5121 35.3198 39.4817 35.2423 39.421 35.3198L39.4513 35.3974C39.5424 35.475 39.5728 35.3974 39.5728 35.3198Z" fill="black"/>
<path d="M14.2236 31.2484C14.345 31.132 14.4057 31.4811 14.4968 31.2096C14.5272 31.0932 14.4968 30.8993 14.3754 30.8993C14.1325 30.8993 14.1932 30.6278 14.2236 30.5502C14.345 30.3563 14.2236 30.1236 14.3146 29.9297C14.4057 29.7745 14.2539 29.6582 14.1628 29.5806C13.9807 29.3867 13.92 29.1539 13.92 28.8824C13.9503 28.4946 13.92 28.1067 13.92 27.7577C13.92 27.5637 13.7985 27.2534 14.1325 27.2534C14.2236 27.2534 14.1932 27.0595 14.1932 26.9432C14.1932 26.245 14.1932 25.5081 14.1932 24.8099C14.1932 24.4997 14.1628 24.2282 14.4057 23.9954C14.4968 23.8791 14.5575 23.6076 14.3146 23.53C14.1628 23.4912 14.1932 23.3749 14.1932 23.2585C14.1932 22.1725 14.1932 21.0865 14.1932 20.0005C14.1932 19.6127 14.4664 19.5739 14.679 19.5739C15.9541 19.5351 17.2595 19.5739 18.5346 19.5739C19.3847 19.5739 19.4758 19.729 19.4758 20.815C19.4758 23.3361 19.4758 25.8184 19.4758 28.3394C19.4758 28.6885 19.3847 28.96 19.2936 29.2315C19.1722 29.5418 18.8382 29.5806 18.565 29.5806C17.9274 29.6194 17.2899 29.6194 16.6523 29.5806C16.288 29.5418 16.2577 29.7357 16.2577 30.0848C16.2577 31.9465 16.2577 33.847 16.288 35.7087C16.288 36.3293 16.0451 36.7559 15.529 36.6396C15.3165 36.6008 15.104 36.6396 14.9218 36.6396C14.3754 36.6396 14.2236 36.4457 14.2236 35.7475C14.2236 34.1961 14.2236 32.7222 14.2236 31.2484ZM16.5613 27.4086C16.6523 27.2147 16.8952 27.3698 16.9256 27.2534C16.9559 26.9044 17.1685 27.0595 17.2595 27.0595C17.4113 27.0595 17.7149 26.8656 17.7149 26.6329C17.7149 26.5165 17.7756 26.2838 17.6542 26.245C17.381 26.2062 17.4721 25.9735 17.4721 25.7796C17.4721 24.7712 17.4721 23.8015 17.4721 22.7931C17.4721 21.7847 17.4721 21.8234 16.7131 21.7459C16.4095 21.7071 16.3184 21.8234 16.3184 22.2113C16.3487 23.53 16.3184 24.8487 16.3184 26.1674C16.3184 26.4389 16.3487 26.7104 16.0148 26.5553C15.9237 26.5165 15.8933 26.6329 15.9237 26.7104C15.9844 26.8268 15.9844 27.0595 16.1969 26.9044C16.288 26.8268 16.5005 26.9432 16.5916 27.0595C16.7131 27.2147 16.4702 27.2147 16.5613 27.4086Z" fill="black"/>
</svg>
