<svg width="57" height="56" viewBox="0 0 57 56" fill="none" xmlns="http://www.w3.org/2000/svg">
<rect x="0.0390625" width="56" height="56" rx="10" fill="#345AB4"/>
<g clip-path="url(#clip0_2355_52352)">
<path d="M27.0841 25.8744C27.3201 25.1588 26.8593 24.4102 26.1117 24.2934C25.7875 24.2428 25.4623 24.2075 25.1372 24.1651C25.1079 24.1609 25.0785 24.1568 25.0354 24.1502C25.6518 23.695 26.6547 23.7143 27.2562 24.4383C27.8459 25.1484 27.7375 26.1971 27.0157 26.7749C26.2979 27.3486 25.2975 27.2142 24.7521 26.5866C24.7902 26.5894 24.8178 26.5911 24.8451 26.5948C25.1377 26.6328 25.4303 26.6708 25.7225 26.7109C25.8942 26.7342 26.0664 26.7332 26.233 26.6846C26.6523 26.5592 26.9461 26.2928 27.0841 25.8744Z" fill="white"/>
<path d="M28.9669 17.5705C27.9252 17.8506 27.3003 18.9293 27.5783 19.9668C27.8647 21.009 28.9293 21.628 29.979 21.3478C31.0656 21.0586 31.6454 19.9548 31.3731 18.9499C31.0899 17.9078 30.0151 17.2886 28.9669 17.5705ZM29.8641 20.8737C29.0759 21.0869 28.2715 20.6261 28.0554 19.846C27.8481 19.0986 28.2705 18.2619 29.0925 18.0356C29.8809 17.8193 30.6894 18.2841 30.9034 19.0718C31.116 19.8538 30.6504 20.661 29.8641 20.8737Z" fill="white"/>
<path d="M35.809 20.4552C36.9593 24.7484 34.3935 29.1662 30.0782 30.3225C26.2467 31.3492 22.3238 29.4598 20.6872 26.0174C21.2368 26.1221 23.1136 26.3689 23.9825 26.4793C24.0452 26.4876 24.0829 26.5116 24.1153 26.5682C24.7006 27.5855 25.968 27.9334 26.9769 27.4031C27.9497 26.8925 28.3098 25.8346 28.0694 24.9526C28.0564 24.9039 28.0622 24.8693 28.0949 24.8294C28.7746 24.008 29.4541 23.1856 30.1326 22.3635C30.16 22.3301 30.1904 22.3119 30.2318 22.3008C30.4518 22.2409 30.6641 22.1599 30.8652 22.0518C32.2634 21.3029 32.8223 19.5865 32.1293 18.1674C31.5511 16.9846 30.2222 16.2939 28.8514 16.588C28.4849 16.6661 28.1448 16.8124 27.8341 17.0231C26.796 17.7268 26.3145 18.9828 26.6193 20.1918C26.6314 20.2407 26.6306 20.2831 26.6132 20.3309C26.2536 21.3305 25.8958 22.3296 25.5384 23.3296C25.5216 23.3763 25.4993 23.4023 25.4483 23.415C25.0501 23.5177 24.7075 23.7188 24.4239 24.0156C24.3883 24.0522 24.3566 24.0658 24.3055 24.0594C22.8627 23.8739 21.4195 23.6906 19.9763 23.5073C19.9711 23.5067 19.9668 23.5058 19.9616 23.5052C19.497 19.5952 21.9773 15.8296 25.9114 14.7754C30.2276 13.6189 34.6586 16.162 35.809 20.4552Z" fill="white"/>
</g>
<path d="M11.6499 42.9353C11.0271 42.9353 10.4305 42.8603 9.86021 42.7102C9.28991 42.5526 8.82091 42.3463 8.45322 42.0911L9.02727 40.4815C9.37245 40.7142 9.77766 40.898 10.2429 41.0331C10.7082 41.1682 11.1772 41.2357 11.6499 41.2357C12.1452 41.2357 12.4903 41.1719 12.6854 41.0443C12.8881 40.9093 12.9894 40.7442 12.9894 40.5491C12.9894 40.3765 12.9181 40.2377 12.7755 40.1326C12.6404 40.0276 12.3965 39.9375 12.0439 39.8625L10.7269 39.5811C9.30116 39.2734 8.58829 38.5268 8.58829 37.3411C8.58829 36.8234 8.72711 36.3694 9.00476 35.9792C9.28991 35.589 9.68387 35.2888 10.1866 35.0787C10.6894 34.8611 11.2747 34.7523 11.9426 34.7523C12.4903 34.7523 13.0081 34.8311 13.4959 34.9887C13.9911 35.1387 14.3926 35.3451 14.7003 35.6077L14.1262 37.116C13.8411 36.9059 13.5109 36.7446 13.1357 36.632C12.7605 36.512 12.3553 36.4519 11.92 36.4519C11.4998 36.4519 11.1772 36.527 10.952 36.677C10.7269 36.8196 10.6144 37.0072 10.6144 37.2398C10.6144 37.4049 10.6819 37.54 10.817 37.6451C10.952 37.7501 11.1922 37.8402 11.5373 37.9152L12.843 38.1966C14.2913 38.5043 15.0154 39.2321 15.0154 40.3802C15.0154 40.898 14.8766 41.3483 14.599 41.731C14.3213 42.1137 13.9311 42.4101 13.4283 42.6202C12.9256 42.8303 12.3328 42.9353 11.6499 42.9353ZM17.7362 42.8115V36.5645H15.2149V34.8761H22.3286V36.5645H19.8073V42.8115H17.7362ZM23.1115 42.8115V34.8761H28.717V36.4744H25.0925V37.9827H28.4581V39.5811H25.0925V41.2132H28.717V42.8115H23.1115ZM28.9479 42.8115L32.6623 34.8761H34.2944L38.0089 42.8115H35.9378L35.2512 41.2019H31.7056L31.019 42.8115H28.9479ZM33.4615 37.0372L32.3809 39.6148H34.5646L33.484 37.0372H33.4615ZM38.512 42.8115V34.8761H40.2341L42.7667 39.4235L45.2993 34.8761H46.9764V42.8115H45.108V38.5005L43.2957 41.6409H42.1702L40.3805 38.5455V42.8115H38.512Z" fill="white"/>
<defs>
<clipPath id="clip0_2355_52352">
<rect width="16.0968" height="16.0968" fill="white" transform="translate(18.1816 16.8477) rotate(-15)"/>
</clipPath>
</defs>
</svg>
