<svg width="200" height="23" viewBox="0 0 200 23" fill="none" xmlns="http://www.w3.org/2000/svg">
<path d="M0 23C0 10.2975 10.2975 0 23 0H177C189.703 0 200 10.2975 200 23H0Z" fill="black"/>
<path fill-rule="evenodd" clip-rule="evenodd" d="M21.9887 18.605C25.913 18.605 29.0944 15.4237 29.0944 11.4993C29.0944 7.57489 25.913 4.39355 21.9887 4.39355C18.2988 4.39355 15.2659 7.20598 14.9165 10.8041L18.8184 12.4593C19.1429 12.2379 19.5351 12.1085 19.9576 12.1085C19.9941 12.1085 20.0304 12.1095 20.0664 12.1114L20.0646 12.1091L21.7587 9.73918C21.7582 9.71817 21.7579 9.6971 21.7579 9.67597C21.7579 8.21209 22.9446 7.02539 24.4085 7.02539C25.8724 7.02539 27.0591 8.21209 27.0591 9.67597C27.0591 11.1398 25.8724 12.3265 24.4085 12.3265C24.3894 12.3265 24.3703 12.3263 24.3512 12.3259L24.3539 12.3291L21.9795 14.0387C21.9809 14.0698 21.9816 14.1011 21.9816 14.1326C21.9816 15.2504 21.0754 16.1566 19.9576 16.1566C18.9773 16.1566 18.1597 15.4597 17.9734 14.5343L15.1236 13.3396C15.9344 16.3719 18.7007 18.605 21.9887 18.605Z" fill="white"/>
<path d="M22.5725 9.66895C22.5684 8.67809 23.3732 7.90322 24.3497 7.90234C25.3695 7.90117 26.1459 8.73612 26.1312 9.70178C26.1163 10.6821 25.3165 11.4631 24.3485 11.4552C23.3459 11.447 22.5567 10.6513 22.5725 9.66895ZM24.3502 11.013C25.07 11.0276 25.6705 10.4435 25.6957 9.71672C25.7218 8.96471 25.0958 8.35279 24.3857 8.33696C23.6396 8.32055 23.0484 8.93423 23.0103 9.60653C22.9693 10.3322 23.5874 11.0338 24.3502 11.0127V11.013Z" fill="white"/>
<path d="M18.5566 14.8646C18.8069 14.9672 19.0305 15.0463 19.2433 15.148C19.7931 15.4106 20.4074 15.2576 20.7289 14.7679C21.1104 14.1871 20.8601 13.3955 20.2136 13.1344C19.9886 13.0435 19.7638 12.9515 19.5405 12.856C19.495 12.8366 19.4575 12.7988 19.4057 12.7619C20.0571 12.5362 20.8566 12.785 21.2118 13.5265C21.6092 14.3559 21.2136 15.2829 20.3294 15.6061C19.546 15.8924 18.7252 15.3705 18.5566 14.8646Z" fill="white"/>
<path d="M71.6187 13.2292L74.1913 7.43065L75.9105 7.4248V15.5683L74.1913 15.5732V10.7351C73.5256 12.1603 72.0285 15.3058 72.0285 15.3058H71.0302C70.4395 13.8803 68.9261 10.8373 68.9261 10.8373C68.9078 10.8445 68.889 10.8512 68.8708 10.8583C68.8708 10.9721 68.8708 11.0859 68.8708 11.1997C68.8699 12.5686 68.8667 13.937 68.8716 15.3058C68.8725 15.5004 68.8708 15.5732 68.8708 15.5732H67.166L67.2245 7.42659L68.8288 7.42722C68.8288 7.42722 70.7027 11.4557 71.5118 13.2296L71.6187 13.2292Z" fill="white"/>
<path d="M63.5996 15.5845L63.0327 13.9992H59.9597L59.3982 15.5889L57.5762 15.5845C58.5938 12.871 60.6389 7.41016 60.6389 7.41016H62.3368L65.5115 15.5845H63.5996ZM61.5183 9.49986C61.4977 9.50076 61.4777 9.5021 61.4571 9.50299C61.4036 9.64358 61.346 9.78327 61.2978 9.92565C61.0175 10.7527 60.7417 11.581 60.4587 12.4072C60.377 12.6459 60.3904 12.6767 60.6426 12.6763C61.2072 12.6754 61.7722 12.6723 62.3368 12.6718C62.6064 12.6718 62.6309 12.6281 62.5408 12.3715C62.2462 11.5333 61.9592 10.6924 61.6665 9.85335C61.6245 9.73284 61.5678 9.61769 61.5183 9.49986Z" fill="white"/>
<path d="M50.6798 7.42969L56.1237 7.43234V8.87884H52.4085V10.7208H55.6447V12.1588H52.4085C52.4085 12.1588 52.4064 14.0617 52.4085 14.0579H56.166V15.5682C56.166 15.5682 52.4334 15.5682 50.6777 15.5682L50.6798 7.42969Z" fill="white"/>
<path d="M37.7866 15.7019C36.8659 15.6927 35.6863 15.5347 34.9355 14.9426L35.4451 13.5294C35.8024 13.7238 36.2939 13.934 36.752 14.0064C37.2532 14.0854 37.7705 14.1028 38.278 14.0791C38.5007 14.0689 38.7497 13.9314 38.9269 13.781C39.3183 13.4481 39.2768 12.9107 38.8314 12.6594C38.461 12.4501 38.0513 12.3073 37.6514 12.156C37.0145 11.915 36.3521 11.7284 35.8099 11.291C35.3033 10.8826 35.0784 10.3439 35.0694 9.695C35.0538 8.51226 35.821 7.73121 36.8649 7.45628C37.8973 7.18403 38.9126 7.2666 39.9066 7.62633C40.1736 7.72298 40.5908 7.95554 40.7327 8.1289L39.9709 9.32143C39.9709 9.32143 38.8043 8.64335 37.6567 8.77737C37.2631 8.82334 36.9837 9.034 36.8498 9.4156C36.761 9.66866 36.8899 10.0297 37.1649 10.185C37.4465 10.3444 37.7491 10.4676 38.0486 10.5925C38.6828 10.8568 39.342 11.0701 39.9521 11.3803C40.6742 11.7476 41.0108 12.3751 40.9885 13.2062C40.9608 14.2215 40.4636 14.9218 39.587 15.3592C39.0282 15.6381 38.4128 15.7189 37.7866 15.7019Z" fill="white"/>
<path d="M46.3546 15.5802L44.6389 15.5784L44.6532 8.91652L42.1699 8.89127V7.43163C44.3871 7.40712 46.6062 7.4287 48.8236 7.4287L48.8222 8.89127H46.3546C46.3546 8.89127 46.3502 13.4187 46.3546 15.5802Z" fill="white"/>
</svg>
