<svg width="28" height="28" viewBox="0 0 28 28" fill="none" xmlns="http://www.w3.org/2000/svg">
<g clip-path="url(#clip0_2608_43239)">
<path d="M26.6108 7.91271C27.5008 9.75327 28 11.8182 28 13.9996C28 16.1811 27.5008 18.246 26.6108 20.0866L14 21.304L1.38917 20.0866C0.499188 18.246 1.07807e-06 16.1811 1.26878e-06 13.9996C1.45949e-06 11.8182 0.499189 9.75327 1.38917 7.91271L14 6.69531L26.6108 7.91271Z" fill="#F0F0F0"/>
<path d="M26.6104 20.0869C24.3459 24.7698 19.5504 28 14 28C8.44962 28 3.65407 24.7698 1.38968 20.0869L26.6104 20.0869Z" fill="#6DA544"/>
<path d="M26.6104 7.91306L1.38968 7.91306C3.65407 3.23017 8.44962 -1.58766e-06 14 -1.10243e-06C19.5504 -6.17199e-07 24.3459 3.23017 26.6104 7.91306Z" fill="#D80027"/>
<path d="M16.4346 17.6519L11.565 17.6519L11.565 15.5823L12.5389 16.0693L13.9998 14.6084L15.4606 16.0693L16.4346 15.5823L16.4346 17.6519Z" fill="#FFDA44"/>
<path d="M19.2206 15.2168L18.9939 15.9143L18.2606 15.9143L18.8539 16.3454L18.6273 17.0429L19.2206 16.6118L19.814 17.0429L19.5873 16.3454L20.1807 15.9143L19.4473 15.9143L19.2206 15.2168Z" fill="#FFDA44"/>
<path d="M18.5175 12.7822L18.2908 13.4797L17.5575 13.4797L18.1508 13.9108L17.9242 14.6083L18.5175 14.1772L19.1109 14.6083L18.8842 13.9108L19.4775 13.4797L18.7442 13.4797L18.5175 12.7822Z" fill="#FFDA44"/>
<path d="M16.5087 10.9561L16.282 11.6535L15.5487 11.6535L16.142 12.0846L15.9154 12.7821L16.5087 12.3511L17.102 12.7821L16.8754 12.0846L17.4687 11.6535L16.7353 11.6535L16.5087 10.9561Z" fill="#FFDA44"/>
<path d="M8.77922 15.2168L9.0059 15.9143L9.73926 15.9143L9.1459 16.3454L9.37258 17.0429L8.77922 16.6118L8.18591 17.0429L8.41254 16.3454L7.81918 15.9143L8.55254 15.9143L8.77922 15.2168Z" fill="#FFDA44"/>
<path d="M9.48137 12.7822L9.70805 13.4797L10.4414 13.4797L9.84805 13.9108L10.0747 14.6083L9.48137 14.1772L8.88801 14.6083L9.11469 13.9108L8.52133 13.4797L9.25469 13.4797L9.48137 12.7822Z" fill="#FFDA44"/>
<path d="M11.4902 10.9561L11.7169 11.6535L12.4502 11.6535L11.8569 12.0846L12.0836 12.7821L11.4902 12.3511L10.8969 12.7821L11.1235 12.0846L10.5302 11.6535L11.2636 11.6535L11.4902 10.9561Z" fill="#FFDA44"/>
<path d="M13.9999 10.043L13.7732 10.7405L13.0399 10.7405L13.6332 11.1716L13.4066 11.869L13.9999 11.438L14.5933 11.869L14.3666 11.1716L14.96 10.7405L14.2266 10.7405L13.9999 10.043Z" fill="#FFDA44"/>
</g>
<defs>
<clipPath id="clip0_2608_43239">
<rect width="28" height="28" fill="white" transform="matrix(-1 -8.74228e-08 -8.74228e-08 1 28 0)"/>
</clipPath>
</defs>
</svg>
