<svg width="14" height="12" viewBox="0 0 14 12" fill="none" xmlns="http://www.w3.org/2000/svg">
<path d="M1.1443 5.18197C1.1443 5.18197 7.08849 2.65311 9.15003 1.76264C9.94032 1.40648 12.6203 0.26667 12.6203 0.26667C12.6203 0.26667 13.8573 -0.231953 13.7542 0.979038C13.7198 1.47771 13.445 3.22297 13.1701 5.11073C12.7578 7.7821 12.3111 10.7028 12.3111 10.7028C12.3111 10.7028 12.2424 11.522 11.6583 11.6645C11.0742 11.8069 10.1121 11.1658 9.94032 11.0233C9.80284 10.9165 7.36335 9.31366 6.47001 8.53006C6.22948 8.31637 5.95462 7.88897 6.50434 7.3903C7.7413 6.2149 9.21874 4.75457 10.1121 3.82851C10.5244 3.40107 10.9367 2.40377 9.21874 3.61477C6.77925 5.36007 4.37408 6.9985 4.37408 6.9985C4.37408 6.9985 3.82432 7.35466 2.79355 7.03409C1.76273 6.71357 0.560148 6.28613 0.560148 6.28613C0.560148 6.28613 -0.26443 5.75187 1.1443 5.18197Z" fill="white"/>
</svg>
