<svg width="28" height="28" viewBox="0 0 28 28" fill="none" xmlns="http://www.w3.org/2000/svg">
<g clip-path="url(#clip0_2608_43242)">
<path d="M14 28C21.732 28 28 21.732 28 14C28 6.26801 21.732 0 14 0C6.26801 0 0 6.26801 0 14C0 21.732 6.26801 28 14 28Z" fill="#D80027"/>
<path d="M13.427 11.4404L14.5757 13.0234L16.436 12.4202L15.2855 14.0017L16.434 15.5846L14.5744 14.9791L13.4239 16.5607L13.4251 14.605L11.5654 13.9995L13.4258 13.3963L13.427 11.4404Z" fill="#F0F0F0"/>
<path d="M10.2917 17.957C8.10657 17.957 6.33513 16.1855 6.33513 14.0005C6.33513 11.8154 8.10657 10.0439 10.2917 10.0439C10.973 10.0439 11.614 10.2162 12.1737 10.5195C11.2957 9.66078 10.0949 9.13086 8.76993 9.13086C6.08051 9.13086 3.90039 11.311 3.90039 14.0004C3.90039 16.6898 6.08056 18.8699 8.76993 18.8699C10.095 18.8699 11.2957 18.34 12.1737 17.4813C11.614 17.7847 10.973 17.957 10.2917 17.957Z" fill="#F0F0F0"/>
</g>
<defs>
<clipPath id="clip0_2608_43242">
<rect width="28" height="28" fill="white"/>
</clipPath>
</defs>
</svg>
