<svg width="217" height="37" viewBox="0 0 217 37" fill="none" xmlns="http://www.w3.org/2000/svg">
<g clip-path="url(#clip0_3329_31950)">
<path d="M34.12 13.0102C28.23 2.33016 15.83 2.50016 15.71 2.50016L14.15 2.54016L15.36 7.39016L1.5 5.66016L5.39 17.2802L3.27 18.5602L3.56 19.4902C4.84 23.6302 8.2 28.6102 11.39 31.0802C14.49 33.4802 18 34.7202 21.52 34.7202C23.38 34.7202 25.23 34.3802 27.03 33.6802C30.68 32.2702 33.47 29.4302 34.89 25.6702C36.42 21.6102 36.14 16.8902 34.12 13.0102ZM22.57 24.7802C21.72 24.7802 20.87 24.7802 20.02 24.7502C19.85 24.7502 19.7 24.8902 19.68 25.0602C19.58 25.9202 19.54 27.0702 19.39 27.9502C19.36 28.1102 19.2 28.2702 19.03 28.2902C18.22 28.3802 17.57 28.2302 16.61 28.1602C16.44 28.1802 16.33 28.0402 16.36 27.8502C16.52 26.8702 16.56 25.9902 16.67 25.0202C16.69 24.8302 16.57 24.6702 16.4 24.6602C15.55 24.6402 14.7 24.6002 13.85 24.5602C13.69 24.5602 13.57 24.3802 13.59 24.1702C13.67 23.1502 13.74 22.2502 13.79 21.2402C13.79 21.0302 13.93 20.8902 14.1 20.9102C15.13 21.0202 15.43 21.0802 16.65 21.2102C16.82 21.2402 16.96 21.1102 16.96 20.9202C17 19.9602 17 19.3402 16.98 18.3902C16.98 18.2102 17.12 18.1002 17.28 18.1402C18.55 18.2402 18.58 18.2802 19.73 18.4802C19.9 18.5202 20.04 18.6902 20.04 18.8602C20.05 19.7002 20.03 20.5502 19.99 21.4002C19.98 21.5702 20.11 21.7202 20.27 21.7502C21.13 21.8702 21.98 21.9802 22.83 22.0802C22.99 22.0902 23.12 22.2302 23.11 22.3702C23.06 23.0802 22.99 23.7902 22.91 24.5102C22.89 24.6602 22.74 24.7802 22.57 24.7802ZM27.23 29.9402H27.22C26.07 30.4302 24.81 30.7502 23.48 30.8402C23.14 30.8602 22.86 30.6302 22.86 30.3302C22.86 29.9702 22.86 29.6102 22.88 29.2402C22.9 28.9402 23.14 28.7402 23.41 28.7602C24.5 28.8702 25.58 28.7902 26.61 28.5502C26.86 28.4902 27.14 28.5802 27.23 28.7602C27.34 28.9802 27.45 29.2002 27.57 29.4002C27.66 29.5702 27.52 29.8102 27.23 29.9402ZM27.79 16.8202C27.38 17.0702 27.14 17.2102 26.91 17.3102C26.58 17.4502 26.21 17.5602 25.17 17.3802C24.33 17.2402 23.35 16.8502 22.16 16.3902C21.84 16.2602 21.5 16.1202 21.14 15.9802C19.65 15.4102 17.79 14.7702 16.08 14.9502C14.2 15.1402 12.61 15.8102 11.46 17.0602C10.32 18.2902 9.76 19.9202 9.59 21.7602C9.55 22.1702 9.52 22.6402 9.52 23.1702C9.52 23.9802 9.6 24.9102 9.84 25.9002C8.37 23.9902 7.05 21.7402 6.27 19.6702L8.4 18.3802L5.13 8.63016L18.67 10.3202L17.37 5.10016C20.61 5.45016 27.97 7.03016 31.92 14.1902C32.12 14.5802 32.3 14.9902 32.46 15.4002C31.22 15.1702 30.01 15.6402 29.29 15.9902C28.67 16.3102 28.18 16.5902 27.79 16.8202ZM31.89 24.6902C29.61 25.5302 30.44 22.1602 30.8 21.1402C31.48 19.2202 33.48 19.7302 33.52 21.6702C33.54 22.8702 32.97 24.2902 31.89 24.6902Z" fill="#00EE34"/>
</g>
<path fill-rule="evenodd" clip-rule="evenodd" d="M198.4 21.3799C198.778 20.3719 198.967 19.2659 198.967 18.0619H190.903V20.6029H194.557C194.319 21.1769 193.899 21.6389 193.297 21.9889C192.695 22.3249 192.009 22.4929 191.239 22.4929C190.679 22.4929 190.168 22.4019 189.706 22.2199C189.258 22.0239 188.873 21.7579 188.551 21.4219C188.229 21.0719 187.977 20.6589 187.795 20.1829C187.627 19.6929 187.543 19.1609 187.543 18.5869C187.543 17.9989 187.627 17.4669 187.795 16.9909C187.977 16.5009 188.229 16.0809 188.551 15.7309C188.887 15.3809 189.279 15.1149 189.727 14.9329C190.189 14.7369 190.693 14.6389 191.239 14.6389C191.995 14.6389 192.674 14.8209 193.276 15.1849C193.878 15.5489 194.312 16.0459 194.578 16.6759H198.82C198.666 15.8219 198.358 15.0379 197.896 14.3239C197.448 13.6099 196.888 12.9939 196.216 12.4759C195.544 11.9579 194.781 11.5589 193.927 11.2789C193.073 10.9849 192.163 10.8379 191.197 10.8379C190.063 10.8379 189.02 11.0339 188.068 11.4259C187.116 11.8039 186.29 12.3429 185.59 13.0429C184.904 13.7289 184.365 14.5479 183.973 15.4999C183.595 16.4379 183.406 17.4669 183.406 18.5869C183.406 18.7832 183.412 18.9769 183.424 19.1681C185.386 19.6046 186.854 21.3556 186.854 23.4492C186.854 23.9643 186.765 24.4586 186.602 24.9177C187.063 25.2332 187.566 25.5029 188.11 25.7269C189.062 26.1049 190.105 26.2939 191.239 26.2939C192.387 26.2939 193.437 26.0909 194.389 25.6849C195.341 25.2789 196.153 24.7119 196.825 23.9839C197.511 23.2559 198.036 22.3879 198.4 21.3799Z" fill="white"/>
<circle cx="182.625" cy="23.3301" r="2.5" fill="#00EE34"/>
<path d="M173.5 26.1718C172.604 26.1718 171.785 26.0528 171.043 25.8148C170.315 25.5908 169.692 25.2618 169.174 24.8278C168.67 24.3938 168.278 23.8618 167.998 23.2318C167.718 22.5878 167.578 21.8668 167.578 21.0688H171.757C171.757 21.6008 171.925 21.9928 172.261 22.2448C172.611 22.4968 173.017 22.6228 173.479 22.6228C173.913 22.6228 174.298 22.5178 174.634 22.3078C174.97 22.0978 175.138 21.7898 175.138 21.3838C175.138 21.1458 175.068 20.9498 174.928 20.7958C174.802 20.6418 174.62 20.5088 174.382 20.3968C174.158 20.2848 173.892 20.1868 173.584 20.1028C173.276 20.0188 172.947 19.9348 172.597 19.8508C172.065 19.7248 171.512 19.5778 170.938 19.4098C170.378 19.2278 169.86 18.9758 169.384 18.6538C168.908 18.3178 168.516 17.8908 168.208 17.3728C167.914 16.8408 167.767 16.1548 167.767 15.3148C167.767 13.8588 168.257 12.7388 169.237 11.9548C170.231 11.1568 171.603 10.7578 173.353 10.7578C175.131 10.7578 176.496 11.1848 177.448 12.0388C178.414 12.8928 178.897 14.0688 178.897 15.5668H174.844C174.844 15.1048 174.69 14.7618 174.382 14.5378C174.088 14.3138 173.731 14.2018 173.311 14.2018C172.947 14.2018 172.618 14.2858 172.324 14.4538C172.03 14.6078 171.883 14.8598 171.883 15.2098C171.883 15.4198 171.946 15.5948 172.072 15.7348C172.212 15.8748 172.394 16.0008 172.618 16.1128C172.842 16.2108 173.101 16.3088 173.395 16.4068C173.703 16.4908 174.032 16.5748 174.382 16.6588C174.928 16.7988 175.495 16.9668 176.083 17.1628C176.671 17.3448 177.21 17.6038 177.7 17.9398C178.19 18.2758 178.589 18.7098 178.897 19.2418C179.219 19.7738 179.38 20.4598 179.38 21.2998C179.38 22.0978 179.233 22.8048 178.939 23.4208C178.645 24.0228 178.232 24.5338 177.7 24.9538C177.182 25.3598 176.566 25.6608 175.852 25.8568C175.138 26.0668 174.354 26.1718 173.5 26.1718Z" fill="white"/>
<path d="M150.286 26.1111L149.131 17.6481L145.246 26.1321H144.049L140.143 17.6481L139.009 26.1111H134.914L137.14 11.4111H141.172L144.637 19.4121L148.123 11.4111H152.176L154.36 26.1111H150.286Z" fill="white"/>
<path d="M129.048 23.7376H123.84L123.021 26.1316H118.695L124.47 11.4316H128.418L134.319 26.1316H129.867L129.048 23.7376ZM126.444 16.0096L124.827 20.5666H128.061L126.444 16.0096Z" fill="white"/>
<path d="M119.647 17.9301C119.647 19.1341 119.458 20.2401 119.08 21.2481C118.716 22.2561 118.191 23.1241 117.505 23.8521C116.833 24.5801 116.021 25.1471 115.069 25.5531C114.117 25.9591 113.067 26.1621 111.919 26.1621C110.785 26.1621 109.742 25.9731 108.79 25.5951C107.838 25.2031 107.012 24.6711 106.312 23.9991C105.612 23.3131 105.066 22.5011 104.674 21.5631C104.282 20.6111 104.086 19.5751 104.086 18.4551C104.086 17.3351 104.275 16.3061 104.653 15.3681C105.045 14.4161 105.584 13.5971 106.27 12.9111C106.97 12.2111 107.796 11.6721 108.748 11.2941C109.7 10.9021 110.743 10.7061 111.877 10.7061C112.843 10.7061 113.753 10.8531 114.607 11.1471C115.461 11.4271 116.224 11.8261 116.896 12.3441C117.568 12.8621 118.128 13.4781 118.576 14.1921C119.038 14.9061 119.346 15.6901 119.5 16.5441H115.258C114.992 15.9141 114.558 15.4171 113.956 15.0531C113.354 14.6891 112.675 14.5071 111.919 14.5071C111.373 14.5071 110.869 14.6051 110.407 14.8011C109.959 14.9831 109.567 15.2491 109.231 15.5991C108.909 15.9491 108.657 16.3691 108.475 16.8591C108.307 17.3351 108.223 17.8671 108.223 18.4551C108.223 19.0291 108.307 19.5611 108.475 20.0511C108.657 20.5271 108.909 20.9401 109.231 21.2901C109.553 21.6261 109.938 21.8921 110.386 22.0881C110.848 22.2701 111.359 22.3611 111.919 22.3611C112.689 22.3611 113.375 22.1931 113.977 21.8571C114.579 21.5071 114.999 21.0451 115.237 20.4711H111.583V17.9301H119.647Z" fill="white"/>
<path d="M103.241 22.6549V26.1619H92.7578V11.4619H103.073V14.9689H96.7898V17.1319H102.527V20.4499H96.7898V22.6549H103.241Z" fill="white"/>
<path d="M166.21 22.6549V26.1619H155.727V11.4619H166.042V14.9689H159.759V17.1319H165.496V20.4499H159.759V22.6549H166.21Z" fill="white"/>
<path d="M83.3336 11.4619C84.4536 11.4619 85.4756 11.6439 86.3996 12.0079C87.3236 12.3719 88.1216 12.8759 88.7936 13.5199C89.4656 14.1639 89.9836 14.9339 90.3476 15.8299C90.7256 16.7259 90.9146 17.7129 90.9146 18.7909C90.9146 19.8689 90.7256 20.8629 90.3476 21.7729C89.9836 22.6689 89.4656 23.4459 88.7936 24.1039C88.1216 24.7479 87.3166 25.2519 86.3786 25.6159C85.4546 25.9799 84.4396 26.1619 83.3336 26.1619H77.3906V11.4619H83.3336ZM83.1446 22.4449C83.6906 22.4449 84.1876 22.3609 84.6356 22.1929C85.0836 22.0109 85.4616 21.7589 85.7696 21.4369C86.0916 21.1149 86.3366 20.7299 86.5046 20.2819C86.6866 19.8339 86.7776 19.3369 86.7776 18.7909C86.7776 17.6989 86.4416 16.8239 85.7696 16.1659C85.1116 15.5079 84.2366 15.1789 83.1446 15.1789H81.4436V22.4449H83.1446Z" fill="white"/>
<path d="M67.8521 26.1621C66.6761 26.1621 65.5911 25.9731 64.5971 25.5951C63.6031 25.2031 62.7421 24.6641 62.0141 23.9781C61.3001 23.2921 60.7401 22.4801 60.3341 21.5421C59.9421 20.5901 59.7461 19.5541 59.7461 18.4341C59.7461 17.3141 59.9421 16.2851 60.3341 15.3471C60.7401 14.3951 61.3001 13.5761 62.0141 12.8901C62.7421 12.2041 63.6031 11.6721 64.5971 11.2941C65.5911 10.9021 66.6761 10.7061 67.8521 10.7061C69.0281 10.7061 70.1061 10.9021 71.0861 11.2941C72.0801 11.6721 72.9341 12.2041 73.6481 12.8901C74.3621 13.5621 74.9151 14.3741 75.3071 15.3261C75.7131 16.2641 75.9161 17.3001 75.9161 18.4341C75.9161 19.5681 75.7131 20.6111 75.3071 21.5631C74.9151 22.5011 74.3621 23.3131 73.6481 23.9991C72.9341 24.6711 72.0801 25.2031 71.0861 25.5951C70.1061 25.9731 69.0281 26.1621 67.8521 26.1621ZM67.8521 22.3821C68.4121 22.3821 68.9231 22.2841 69.3851 22.0881C69.8611 21.8921 70.2671 21.6191 70.6031 21.2691C70.9531 20.9191 71.2191 20.5061 71.4011 20.0301C71.5971 19.5401 71.6951 19.0081 71.6951 18.4341C71.6951 17.8601 71.5971 17.3351 71.4011 16.8591C71.2191 16.3691 70.9531 15.9491 70.6031 15.5991C70.2671 15.2491 69.8611 14.9761 69.3851 14.7801C68.9231 14.5841 68.4121 14.4861 67.8521 14.4861C67.2921 14.4861 66.7741 14.5841 66.2981 14.7801C65.8221 14.9761 65.4091 15.2491 65.0591 15.5991C64.7231 15.9491 64.4571 16.3691 64.2611 16.8591C64.0651 17.3351 63.9671 17.8601 63.9671 18.4341C63.9671 19.0081 64.0651 19.5401 64.2611 20.0301C64.4571 20.5061 64.7231 20.9191 65.0591 21.2691C65.4091 21.6191 65.8221 21.8921 66.2981 22.0881C66.7741 22.2841 67.2921 22.3821 67.8521 22.3821Z" fill="white"/>
<path d="M50.8003 26.1621C49.6803 26.1621 48.6443 25.9661 47.6923 25.5741C46.7403 25.1821 45.9143 24.6431 45.2143 23.9571C44.5143 23.2711 43.9683 22.4591 43.5763 21.5211C43.1843 20.5691 42.9883 19.5471 42.9883 18.4551C42.9883 17.3491 43.1843 16.3271 43.5763 15.3891C43.9683 14.4371 44.5143 13.6181 45.2143 12.9321C45.9143 12.2321 46.7403 11.6861 47.6923 11.2941C48.6443 10.9021 49.6803 10.7061 50.8003 10.7061C51.7663 10.7061 52.6693 10.8601 53.5093 11.1681C54.3493 11.4621 55.0913 11.8891 55.7353 12.4491C56.3933 12.9951 56.9393 13.6531 57.3733 14.4231C57.8073 15.1931 58.0943 16.0471 58.2343 16.9851H54.1393C53.8873 16.2291 53.4603 15.6271 52.8583 15.1791C52.2703 14.7171 51.5913 14.4861 50.8213 14.4861C50.3033 14.4861 49.8203 14.5841 49.3723 14.7801C48.9383 14.9761 48.5603 15.2561 48.2383 15.6201C47.9163 15.9701 47.6643 16.3901 47.4823 16.8801C47.3003 17.3561 47.2093 17.8811 47.2093 18.4551C47.2093 19.0151 47.3003 19.5401 47.4823 20.0301C47.6643 20.5061 47.9163 20.9191 48.2383 21.2691C48.5603 21.6051 48.9383 21.8711 49.3723 22.0671C49.8203 22.2631 50.3033 22.3611 50.8213 22.3611C51.6333 22.3611 52.3403 22.1161 52.9423 21.6261C53.5443 21.1361 53.9433 20.4851 54.1393 19.6731H58.2763C58.1363 20.6391 57.8493 21.5211 57.4153 22.3191C56.9953 23.1171 56.4563 23.8031 55.7983 24.3771C55.1543 24.9371 54.4053 25.3781 53.5513 25.7001C52.6973 26.0081 51.7803 26.1621 50.8003 26.1621Z" fill="white"/>
<path d="M215.827 18.0619C215.827 19.2659 215.638 20.3719 215.26 21.3799C214.896 22.3879 214.371 23.2559 213.685 23.9839C213.013 24.7119 212.201 25.2789 211.249 25.6849C210.297 26.0909 209.247 26.2939 208.099 26.2939C206.965 26.2939 205.922 26.1049 204.97 25.7269C204.018 25.3349 203.192 24.8029 202.492 24.1309C201.792 23.4449 201.246 22.6329 200.854 21.6949C200.462 20.7429 200.266 19.7069 200.266 18.5869C200.266 17.4669 200.455 16.4379 200.833 15.4999C201.225 14.5479 201.764 13.7289 202.45 13.0429C203.15 12.3429 203.976 11.8039 204.928 11.4259C205.88 11.0339 206.923 10.8379 208.057 10.8379C209.023 10.8379 209.933 10.9849 210.787 11.2789C211.641 11.5589 212.404 11.9579 213.076 12.4759C213.748 12.9939 214.308 13.6099 214.756 14.3239C215.218 15.0379 215.526 15.8219 215.68 16.6759H211.438C211.172 16.0459 210.738 15.5489 210.136 15.1849C209.534 14.8209 208.855 14.6389 208.099 14.6389C207.553 14.6389 207.049 14.7369 206.587 14.9329C206.139 15.1149 205.747 15.3809 205.411 15.7309C205.089 16.0809 204.837 16.5009 204.655 16.9909C204.487 17.4669 204.403 17.9989 204.403 18.5869C204.403 19.1609 204.487 19.6929 204.655 20.1829C204.837 20.6589 205.089 21.0719 205.411 21.4219C205.733 21.7579 206.118 22.0239 206.566 22.2199C207.028 22.4019 207.539 22.4929 208.099 22.4929C208.869 22.4929 209.555 22.3249 210.157 21.9889C210.759 21.6389 211.179 21.1769 211.417 20.6029H207.763V18.0619H215.827Z" fill="white"/>
<defs>
<clipPath id="clip0_3329_31950">
<rect width="34.37" height="32.22" fill="white" transform="translate(1.5 2.5)"/>
</clipPath>
</defs>
</svg>
