<svg width="28" height="29" viewBox="0 0 28 29" fill="none" xmlns="http://www.w3.org/2000/svg">
<rect y="0.639648" width="28" height="28" rx="14" fill="#8397C3" fill-opacity="0.15"/>
<path fill-rule="evenodd" clip-rule="evenodd" d="M21.4624 15.5053C21.1258 18.4399 19.098 20.8602 16.3781 21.7672C17.2603 19.7681 17.7506 17.6437 17.849 15.5053H21.4624ZM21.4658 13.8053C21.1373 10.8343 19.0761 8.38561 16.3151 7.49214C17.2244 9.50433 17.7343 11.6469 17.8446 13.8053H21.4658ZM16.1422 13.8053C16.0117 11.5019 15.3771 9.22066 14.2384 7.13241C14.1594 7.12995 14.08 7.12871 14.0004 7.12871C13.9221 7.12871 13.844 7.12991 13.7663 7.13229C12.6449 9.22468 12.0199 11.5042 11.8913 13.8053H16.1422ZM11.8866 15.5053C12.0015 17.7919 12.6064 20.0595 13.7013 22.1455C13.8005 22.1494 13.9002 22.1513 14.0004 22.1513C14.1023 22.1513 14.2037 22.1493 14.3046 22.1453C15.4163 20.0633 16.0304 17.7941 16.147 15.5053L11.8866 15.5053ZM10.1846 15.5053C10.2818 17.6442 10.7664 19.7695 11.6385 21.7725C8.91064 20.8696 6.8756 18.4456 6.53836 15.5053H10.1846ZM10.1889 13.8053C10.298 11.6466 10.8018 9.50341 11.7004 7.48738C8.93198 8.37688 6.86399 10.829 6.53492 13.8053H10.1889ZM23.2117 14.64C23.2117 19.7273 19.0876 23.8513 14.0004 23.8513C8.9131 23.8513 4.78906 19.7273 4.78906 14.64C4.78906 9.55275 8.9131 5.42871 14.0004 5.42871C19.0876 5.42871 23.2117 9.55275 23.2117 14.64Z" fill="#8C95AD"/>
</svg>
