<svg width="200" height="23" viewBox="0 0 200 23" fill="none" xmlns="http://www.w3.org/2000/svg">
<path d="M0 23C0 10.2975 10.2975 0 23 0H177C189.703 0 200 10.2975 200 23H0Z" fill="#137E34"/>
<path d="M21.3329 18.6788C20.0537 18.658 18.8231 18.429 17.6944 17.7976C17.3385 17.5985 16.9997 17.3659 16.6681 17.1275C16.4291 16.9557 16.2439 16.7203 16.2543 16.409C16.2612 16.203 16.3068 15.9886 16.3815 15.7963C16.591 15.2577 16.9067 14.7776 17.2688 14.3291C18.2979 13.0547 19.4327 11.8844 20.7178 10.8652C20.8956 10.7241 21.0938 10.6085 21.2805 10.4785C21.353 10.4281 21.413 10.4347 21.4883 10.4803C22.069 10.832 22.5894 11.2612 23.0819 11.7243C24.0796 12.662 25.014 13.6582 25.8443 14.7489C26.0723 15.0484 26.2714 15.3674 26.4014 15.7236C26.6003 16.2684 26.4949 16.7239 26.0632 17.1115C25.5088 17.6091 24.8569 17.9438 24.1622 18.1964C23.3429 18.4946 22.4938 18.6418 21.623 18.6667C21.526 18.6695 21.4292 18.675 21.3324 18.6791L21.3329 18.6788Z" fill="white"/>
<path d="M23.6387 8.41338C23.7788 8.13342 23.9754 7.89171 24.1925 7.66749C24.7139 7.12884 25.2878 6.65633 26.0142 6.42704C26.5832 6.2474 26.528 6.25703 26.8629 6.64569C27.9129 7.86435 28.5954 9.25302 28.714 10.8809C28.8115 12.2214 28.5921 13.5031 27.9526 14.6972C27.8323 14.922 27.6823 15.131 27.546 15.3471C27.5359 15.3425 27.5257 15.3382 27.5159 15.3337C27.5085 15.168 27.51 15.0015 27.4923 14.8368C27.4221 14.1867 27.1976 13.5835 26.9101 13.0023C26.3841 11.9397 25.7137 10.9675 25.0132 10.0161C24.6861 9.572 24.3265 9.15142 23.9741 8.72628C23.8811 8.61405 23.7603 8.52461 23.6392 8.41288L23.6387 8.41338Z" fill="white"/>
<path d="M15.4038 15.5694C15.1008 15.2165 14.8738 14.8436 14.6881 14.4445C14.3062 13.6236 14.1091 12.7584 14.0529 11.8562C13.9348 9.96535 14.5801 8.33193 15.7197 6.86219C15.7352 6.84217 15.7512 6.82241 15.7686 6.80417C16.1011 6.45934 15.9992 6.45934 16.5074 6.57943C17.1373 6.72816 17.66 7.08869 18.1485 7.49913C18.4565 7.75782 18.7378 8.04234 18.96 8.38058C18.9851 8.41858 19.0058 8.45937 19.0256 8.49358C18.3448 9.13433 17.8612 9.91366 17.361 10.6786C16.7975 11.5402 16.2576 12.4171 15.8581 13.3705C15.572 14.0531 15.3714 14.7549 15.4155 15.5069C15.4162 15.5183 15.4114 15.5302 15.4038 15.5692V15.5694Z" fill="white"/>
<path d="M41.7734 11.9645L42.6946 10.7306H44.0432C44.0432 10.7306 44.044 10.6473 44.0432 10.4848C44.038 9.17565 44.0404 7.86651 44.0404 6.55737V6.27676C44.0404 6.27676 46.9762 6.26246 48.4371 6.26627C49.0604 6.26789 49.6628 6.37432 50.239 6.62793C51.9509 7.38148 52.4065 9.96549 50.8159 11.1408C50.7845 11.1638 50.7583 11.1936 50.7191 11.2295C50.7635 11.2645 50.7953 11.2968 50.8332 11.319C52.6593 12.3914 52.5214 15.3097 50.6002 16.2902C49.9329 16.6305 49.2249 16.7813 48.4843 16.7849C47.3604 16.7904 44.5833 16.7849 44.0432 16.7849L44.0067 11.9645H41.7734ZM45.4249 15.4373C45.4249 15.4373 47.9587 15.4937 48.3512 15.4891C48.9189 15.4827 49.4785 15.4117 49.9769 15.1057C50.5938 14.7271 50.7788 14.1405 50.7256 13.4607C50.6403 12.3774 49.3455 12.0065 48.6105 11.983C47.77 11.9562 45.4249 11.983 45.4249 11.983V15.4373ZM45.4562 7.6084L45.4257 10.6303C45.4257 10.6303 48.02 10.7032 48.4222 10.6916C49.443 10.6621 50.4689 10.1708 50.4063 8.99422C50.3655 8.22798 49.7128 7.65954 48.9596 7.61855C47.7699 7.55331 46.6435 7.63683 45.4562 7.6084Z" fill="white"/>
<path d="M52.6562 11.3294C52.7123 9.61228 53.3949 8.03664 54.9415 6.91175C56.9933 5.41916 59.8172 5.84211 61.434 7.86004C62.2424 8.86921 62.6593 10.0231 62.6911 11.3149C62.733 13.0301 62.1779 14.515 60.9114 15.6858C58.7959 17.6425 55.6136 17.3385 53.846 15.0359C53.0445 13.9913 52.6716 12.8023 52.6562 11.3294ZM61.1715 11.5963C61.1598 10.5114 60.903 9.59414 60.322 8.78051C58.9875 6.91054 56.5994 6.83716 55.16 8.61843C53.8085 10.2912 53.8819 12.9736 55.3225 14.5698C56.5667 15.9483 58.4702 16.0463 59.8212 14.7811C60.7635 13.8985 61.1384 12.7684 61.1711 11.5959L61.1715 11.5963Z" fill="white"/>
<path d="M33.8225 6.436H35.7214L38.3358 10.0465L41.2054 6.38379L42.8551 6.38399L39.2345 11.2739L43.0228 16.5962L41.3791 16.6539L38.3168 12.5354L35.2735 16.6539L33.3496 16.6523L37.3899 11.2739L33.8225 6.436Z" fill="white"/>
<path d="M62.4905 6.41549H64.3894L67.0038 10.026L69.8733 6.36328L71.5231 6.36348L67.9024 11.2533L71.6908 16.5757L70.047 16.6334L66.9848 12.5149L63.9415 16.6334L62.0176 16.6318L66.0579 11.2533L62.4905 6.41549Z" fill="white"/>
<path d="M24.9669 5.33062C23.7816 5.38231 22.6952 5.69546 21.6848 6.27439C21.6448 6.29745 21.5688 6.29948 21.5298 6.27667C20.4081 5.62123 19.1991 5.29262 17.9001 5.29439C17.8728 5.29439 17.8454 5.29009 17.8066 5.28705C19.7988 4.03899 22.7543 3.94297 24.9669 5.33037V5.33062Z" fill="white"/>
</svg>
