<svg width="190" height="191" viewBox="0 0 190 191" fill="none" xmlns="http://www.w3.org/2000/svg">
<g clip-path="url(#clip0_2355_60742)">
<rect y="0.5" width="190" height="190" rx="40" fill="#107B0F"/>
<path d="M110.505 79.4186C111.047 79.8165 111.509 80.1201 111.931 80.4734C113.263 81.5898 113.999 83.0201 114.141 84.7592C114.29 86.5736 113.946 88.2629 112.852 89.7412C111.889 91.0412 110.577 91.861 109.048 92.3669C107.533 92.8677 105.976 92.9706 104.4 92.9672C101.303 92.9603 98.2036 92.962 95.1063 92.9706C94.705 92.9706 94.6313 92.7579 94.6313 92.4287C94.6347 90.772 94.6313 89.117 94.6313 87.4603C94.6313 85.476 94.6313 83.4918 94.6433 81.5075C94.645 81.1696 94.5455 81.0736 94.194 81.0805C92.7671 81.1096 91.3385 81.1045 89.9116 81.0993C89.7898 81.0993 89.6063 81.0204 89.5669 80.9278C89.5223 80.8266 89.5772 80.6431 89.6492 80.5402C90.0951 79.9143 90.5376 79.2831 91.028 78.6915C91.1773 78.5114 91.4688 78.3639 91.702 78.3536C92.5287 78.3176 93.3587 78.3296 94.1854 78.3587C94.5592 78.3725 94.645 78.2267 94.6433 77.8837C94.6313 75.0865 94.633 72.2876 94.6296 69.4904C94.6296 68.9759 94.6398 68.4632 94.6244 67.9487C94.6124 67.5748 94.7496 67.3981 95.1441 67.3999C98.6272 67.4084 102.112 67.381 105.595 67.4204C107.238 67.4376 108.838 67.7583 110.265 68.6329C112.291 69.8763 113.248 71.7577 113.361 74.085C113.469 76.2733 112.55 77.9729 110.782 79.2351C110.701 79.2917 110.619 79.3449 110.502 79.4221L110.505 79.4186ZM102.237 81.1662C102.237 81.1456 102.237 81.1233 102.237 81.1028C100.91 81.1028 99.5808 81.1079 98.2534 81.101C97.7286 81.0976 97.7029 81.113 97.7011 81.6327C97.6977 84.303 97.696 86.9715 97.684 89.6418C97.684 89.9848 97.78 90.1203 98.1488 90.1186C100.462 90.1014 102.776 90.1134 105.089 90.1014C106.106 90.0963 107.103 89.9693 108.08 89.6572C109.867 89.0861 110.941 87.781 111.09 85.9185C111.221 84.279 110.804 82.8778 109.286 82.0066C108.422 81.5109 107.473 81.2091 106.477 81.1782C105.065 81.1353 103.651 81.1679 102.237 81.1679V81.1662ZM102.05 78.3433C102.052 78.3793 102.056 78.4136 102.057 78.4496C103.704 78.3347 105.362 78.3176 106.991 78.0792C108.828 77.8099 110.161 76.5957 110.31 74.5634C110.43 72.929 109.85 71.5656 108.24 70.8539C107.278 70.4286 106.268 70.2708 105.239 70.2588C102.928 70.233 100.617 70.2519 98.3048 70.2502C97.6994 70.2502 97.6926 70.2571 97.6926 70.8659C97.6943 73.2052 97.7011 75.5444 97.6891 77.8837C97.6874 78.2387 97.7938 78.357 98.1556 78.3502C99.4539 78.3313 100.752 78.3433 102.05 78.3433Z" fill="white"/>
<path d="M115.254 79.8103C115.319 77.0886 115.952 74.4183 117.526 72.0448C118.981 69.8547 120.955 68.2992 123.476 67.4571C125.455 66.7968 127.478 66.6528 129.519 66.9769C131.869 67.3491 133.951 68.3215 135.678 69.9988C137.979 72.2334 139.132 74.9928 139.528 78.1382C139.739 79.8154 139.698 81.4756 139.394 83.1237C138.676 87.0236 136.793 90.1707 133.236 92.1172C131.161 93.2525 128.904 93.671 126.537 93.4858C124.746 93.3451 123.043 92.9044 121.485 92.0057C118.965 90.5531 117.242 88.4248 116.226 85.7048C115.528 83.8337 115.252 81.8992 115.256 79.8137L115.254 79.8103ZM118.343 80.5255C118.384 80.9491 118.428 81.6488 118.526 82.3399C118.826 84.4528 119.62 86.3599 121.08 87.9326C122.634 89.6081 124.594 90.4691 126.873 90.6063C128.561 90.7075 130.174 90.4245 131.667 89.6099C133.86 88.4111 135.258 86.5486 135.947 84.1784C136.952 80.7313 136.825 77.3527 135.079 74.1388C133.941 72.0413 132.188 70.6607 129.893 70.0348C127.619 69.4156 125.393 69.6214 123.29 70.7242C121.733 71.5423 120.558 72.7668 119.727 74.312C118.729 76.1642 118.374 78.169 118.344 80.5255H118.343Z" fill="white"/>
<path d="M91.3725 92.9584C90.3572 93.2979 89.6952 92.6411 89.0349 91.7098C87.0164 88.8612 84.9172 86.0692 82.8489 83.2566C82.6208 82.9461 82.3756 82.6495 82.1663 82.327C81.9845 82.0492 81.8542 82.1058 81.6896 82.3322C80.7171 83.6682 79.7413 85.0042 78.762 86.335C77.2168 88.4359 75.663 90.5316 74.1229 92.6377C73.9497 92.8743 73.7611 92.9618 73.4781 92.9601C72.636 92.9566 71.794 92.9841 70.9519 92.9772C70.8164 92.9772 70.6586 92.8949 70.5609 92.7989C70.5231 92.7611 70.5986 92.5639 70.6655 92.4713C71.6945 91.0513 72.7252 89.633 73.7645 88.2198C74.9393 86.6231 76.1226 85.035 77.2991 83.4418C78.1721 82.2619 79.0364 81.0751 79.9145 79.8986C80.0877 79.6688 80.1049 79.4921 79.9265 79.2537C78.4516 77.278 76.9887 75.2921 75.5207 73.3112C74.1881 71.5139 72.8521 69.7183 71.5247 67.9158C71.4492 67.8146 71.4029 67.6466 71.4321 67.5334C71.4492 67.4631 71.6396 67.3996 71.7511 67.3979C72.636 67.391 73.5227 67.3807 74.4059 67.4168C74.5963 67.4236 74.8398 67.5677 74.9581 67.7237C76.6732 70.0201 78.371 72.3285 80.0706 74.6369C80.6194 75.383 81.1665 76.1307 81.705 76.8853C81.8816 77.1323 81.9948 77.1323 82.1783 76.8819C84.401 73.8446 86.6356 70.8159 88.8583 67.7786C89.0555 67.5094 89.2716 67.3825 89.6077 67.391C90.4361 67.4082 91.2644 67.391 92.0928 67.4065C92.2146 67.4082 92.4049 67.4768 92.4392 67.5608C92.4769 67.6586 92.4015 67.8318 92.3243 67.9347C91.6915 68.7973 91.0449 69.648 90.4086 70.5072C88.7399 72.7659 87.0747 75.0262 85.4077 77.2866C84.9172 77.952 84.4147 78.6106 83.9551 79.2966C83.8659 79.4287 83.8693 79.7322 83.9619 79.8591C85.5329 82.0303 87.1296 84.1827 88.7125 86.3453C90.0348 88.1512 91.3468 89.964 92.6673 91.7716C92.8354 92.0014 93.0309 92.2123 93.1938 92.4456C93.2607 92.5416 93.343 92.7217 93.3001 92.78C93.2333 92.8743 93.0703 92.9429 92.9451 92.9498C92.489 92.9686 92.031 92.9566 91.3691 92.9566L91.3725 92.9584Z" fill="white"/>
<path d="M158.078 92.9653C157.636 92.9653 157.19 92.9962 156.751 92.9516C156.554 92.931 156.312 92.8007 156.194 92.6446C154.81 90.7958 153.443 88.9333 152.074 87.0725C150.925 85.5102 149.778 83.9478 148.634 82.382C148.396 82.0561 148.337 82.0699 148.095 82.4026C147.219 83.5979 146.324 84.7796 145.444 85.9715C143.928 88.0244 142.381 90.0549 140.928 92.1524C140.482 92.7955 140.026 93.039 139.284 92.9807C138.647 92.931 138.003 92.9944 137.361 92.9927C137.248 92.9927 137.051 92.9276 137.04 92.8675C137.018 92.7338 137.047 92.5554 137.126 92.4439C137.709 91.6344 138.315 90.8387 138.905 90.0343C140.692 87.5939 142.472 85.1517 144.257 82.7113C144.914 81.8126 145.569 80.9122 146.248 80.0324C146.495 79.7134 146.516 79.5042 146.252 79.1509C144.525 76.8459 142.834 74.5118 141.127 72.1914C140.081 70.7697 139.023 69.3548 137.979 67.9296C137.895 67.8147 137.871 67.6552 137.819 67.518C137.963 67.4769 138.107 67.4048 138.251 67.4031C139.064 67.3911 139.879 67.398 140.693 67.3945C140.978 67.3945 141.196 67.4648 141.383 67.7238C142.751 69.6035 144.139 71.4677 145.518 73.3387C146.382 74.5101 147.25 75.6763 148.101 76.8579C148.315 77.1546 148.426 77.1203 148.625 76.8459C150.412 74.4072 152.21 71.977 154.004 69.5434C154.451 68.9346 154.88 68.3121 155.35 67.7221C155.472 67.5677 155.715 67.4323 155.907 67.4237C156.792 67.3894 157.677 67.3997 158.564 67.4048C158.679 67.4048 158.878 67.4614 158.89 67.5232C158.914 67.6415 158.867 67.8061 158.792 67.9073C157.377 69.8213 155.948 71.7249 154.534 73.6389C153.22 75.4156 151.918 77.2009 150.616 78.9863C150.172 79.5951 150.186 79.5951 150.592 80.149C152.246 82.4026 153.892 84.6612 155.545 86.9147C156.893 88.7532 158.25 90.5883 159.595 92.4302C159.679 92.5451 159.696 92.7063 159.744 92.847C159.601 92.8898 159.461 92.9619 159.317 92.967C158.903 92.9842 158.488 92.9721 158.075 92.9721C158.075 92.9704 158.075 92.9687 158.075 92.967L158.078 92.9653Z" fill="white"/>
<path d="M73.3543 121.909C73.5376 121.491 73.7276 121.075 73.9041 120.653C75.0801 117.829 76.2544 115.004 77.4236 112.176C78.0532 110.653 78.6641 109.12 79.3022 107.6C79.3531 107.476 79.5432 107.34 79.6738 107.333C80.2796 107.304 80.8889 107.301 81.4947 107.333C81.6203 107.34 81.773 107.522 81.846 107.659C81.9053 107.771 81.8663 107.936 81.8663 108.077C81.8663 113.305 81.8663 118.533 81.8663 123.76C81.8663 124.113 81.8731 124.466 81.8629 124.819C81.8544 125.109 81.6983 125.252 81.3997 125.245C80.9618 125.236 80.524 125.235 80.0862 125.243C79.7943 125.248 79.6806 125.107 79.6806 124.829C79.6806 124.32 79.6602 123.813 79.6619 123.304C79.667 120.224 79.6772 117.144 79.684 114.063C79.684 113.475 79.684 112.886 79.589 112.26C79.5041 112.417 79.404 112.57 79.3344 112.735C77.7461 116.582 76.1645 120.432 74.5744 124.278C74.1739 125.247 74.1654 125.243 73.1456 125.245C72.3904 125.245 72.404 125.24 72.1138 124.537C71.1618 122.243 70.1996 119.954 69.2425 117.663C68.5247 115.945 67.8086 114.226 67.0924 112.509C67.0466 112.397 66.9923 112.288 66.8939 112.073C66.8566 112.275 66.8243 112.363 66.8243 112.45C66.8328 116.533 66.8447 120.616 66.8532 124.698C66.8532 125.155 66.7378 125.262 66.2643 125.262C65.8978 125.262 65.5295 125.241 65.163 125.253C64.771 125.265 64.6386 125.072 64.6437 124.707C64.6556 124.015 64.6539 123.324 64.6539 122.632C64.6539 117.714 64.6505 112.798 64.6471 107.88C64.6471 107.377 64.7251 107.301 65.2444 107.301C65.6958 107.301 66.1489 107.311 66.6003 107.298C66.9397 107.286 67.1501 107.41 67.2842 107.735C68.0835 109.662 68.8963 111.583 69.7058 113.505C70.6357 115.716 71.5674 117.926 72.4973 120.137C72.7417 120.719 72.9809 121.303 73.2219 121.887C73.266 121.892 73.3085 121.897 73.3526 121.902L73.3543 121.909Z" fill="white"/>
<path d="M44.557 123.326C44.4281 123.411 44.3517 123.445 44.2974 123.499C42.9517 124.868 41.2734 125.51 39.4016 125.639C37.8166 125.747 36.269 125.501 34.8452 124.739C32.707 123.596 31.3919 121.802 30.747 119.489C30.0903 117.13 30.187 114.799 31.0101 112.497C31.7533 110.419 33.0617 108.786 35.0404 107.793C36.5965 107.013 38.2714 106.741 40.0244 107.014C41.2479 107.205 42.3832 107.591 43.3963 108.297C44.9864 109.407 45.9706 110.923 46.3456 112.827C46.405 113.132 46.3134 113.32 45.9519 113.305C45.543 113.288 45.1323 113.287 44.7233 113.302C44.4247 113.314 44.2584 113.208 44.1616 112.913C43.8104 111.851 43.269 110.907 42.3934 110.178C41.7502 109.643 41.0205 109.266 40.206 109.119C38.6329 108.832 37.1073 108.968 35.6988 109.801C34.7247 110.378 34.0103 111.204 33.4944 112.199C32.5679 113.982 32.3727 115.896 32.6375 117.851C32.8971 119.755 33.6081 121.464 35.2796 122.581C36.9749 123.713 38.845 123.818 40.7728 123.322C42.1863 122.959 43.2436 122.111 43.9241 120.823C44.3449 120.027 44.5316 119.156 44.6079 118.262C44.63 118.007 44.518 117.911 44.2601 117.914C42.6072 117.926 40.9543 117.914 39.3015 117.94C38.8959 117.946 38.7245 117.812 38.7432 117.41C38.7568 117.115 38.7432 116.816 38.7432 116.521C38.7432 115.93 38.7941 115.876 39.4033 115.873C40.1381 115.868 40.8729 115.873 41.6077 115.873C43.0773 115.873 44.5468 115.871 46.0164 115.871C46.5696 115.871 46.6613 115.963 46.663 116.506C46.6681 119.219 46.6732 121.931 46.6782 124.644C46.6782 125.213 46.5764 125.299 46.0045 125.272C45.7228 125.259 45.4395 125.26 45.1578 125.274C44.7827 125.293 44.6028 125.12 44.6011 124.751C44.6011 124.412 44.6079 124.072 44.6045 123.735C44.6045 123.618 44.5808 123.501 44.5604 123.328L44.557 123.326Z" fill="white"/>
<path d="M137.653 125.658C136.082 125.643 134.722 125.433 133.443 124.847C131.233 123.838 130.14 122.074 130.006 119.682C129.942 118.529 129.945 118.526 131.089 118.533C132.335 118.541 132.18 118.428 132.189 119.615C132.204 121.574 133.363 122.723 135.055 123.23C136.475 123.656 137.916 123.732 139.358 123.354C141.098 122.897 142.153 121.708 141.853 119.77C141.716 118.876 141.1 118.283 140.3 118.014C139.073 117.599 137.811 117.286 136.548 116.992C135.102 116.654 133.652 116.349 132.369 115.546C130.334 114.273 130.093 111.799 130.877 110.039C131.551 108.524 132.801 107.699 134.352 107.256C136.477 106.651 138.566 106.798 140.553 107.708C142.474 108.587 143.446 110.201 143.662 112.279C143.766 113.274 143.757 113.274 142.768 113.272C142.542 113.272 142.316 113.276 142.089 113.274C141.515 113.269 141.461 113.211 141.454 112.644C141.444 111.499 141.032 110.511 140.066 109.892C139.489 109.52 138.797 109.242 138.123 109.126C136.72 108.887 135.313 108.889 134.005 109.636C133.066 110.17 132.686 110.969 132.688 112.016C132.689 113.016 133.178 113.722 134.071 114.046C135.167 114.445 136.301 114.749 137.436 115.023C138.805 115.354 140.193 115.582 141.485 116.205C143.421 117.138 144.407 118.988 144.051 121.151C143.726 123.116 142.505 124.323 140.738 125.054C139.696 125.485 138.607 125.703 137.648 125.657L137.653 125.658Z" fill="white"/>
<path d="M153.221 125.655C151.7 125.609 150.204 125.431 148.834 124.706C147.46 123.978 146.401 122.95 146.019 121.392C145.832 120.632 145.773 119.84 145.669 119.059C145.622 118.701 145.809 118.536 146.162 118.536C146.557 118.536 146.952 118.529 147.348 118.528C147.796 118.526 147.899 118.624 147.884 119.074C147.855 119.887 147.911 120.678 148.313 121.414C148.892 122.475 149.852 123.013 150.961 123.296C152.418 123.668 153.898 123.748 155.349 123.267C156.284 122.959 157.061 122.438 157.411 121.426C157.976 119.794 157.307 118.343 155.641 117.842C154.36 117.457 153.051 117.157 151.743 116.868C150.453 116.585 149.179 116.269 148.06 115.543C146.944 114.818 146.282 113.786 146.197 112.431C146.051 110.079 147.176 108.285 149.418 107.472C151.918 106.566 154.399 106.688 156.746 107.969C158.023 108.667 158.831 109.804 159.149 111.244C159.261 111.752 159.3 112.274 159.388 112.787C159.447 113.126 159.293 113.264 158.979 113.271C158.541 113.277 158.103 113.271 157.665 113.281C157.302 113.287 157.165 113.114 157.17 112.76C157.182 111.991 156.98 111.287 156.532 110.65C155.97 109.855 155.179 109.408 154.263 109.206C152.612 108.843 150.991 108.83 149.474 109.766C148.11 110.608 147.857 113.15 149.542 113.927C150.367 114.307 151.256 114.569 152.138 114.805C153.431 115.151 154.762 115.366 156.045 115.746C157.548 116.193 158.858 116.98 159.474 118.528C160.218 120.396 159.761 122.585 158.215 123.987C157.082 125.015 154.957 125.701 153.223 125.655H153.221Z" fill="white"/>
<path d="M83.8506 116.241C83.8506 113.458 83.8506 110.673 83.8506 107.89C83.8506 107.398 83.9168 107.32 84.4106 107.318C88.2678 107.315 92.1267 107.318 95.984 107.31C96.3539 107.31 96.4982 107.464 96.4812 107.819C96.471 108.058 96.4778 108.299 96.4812 108.54C96.4914 109.219 96.432 109.28 95.7345 109.28C94.024 109.278 92.3151 109.278 90.6046 109.271C89.2063 109.266 87.8079 109.254 86.4096 109.241C86.1754 109.239 86.0736 109.339 86.0753 109.57C86.0804 111.279 86.0872 112.989 86.0804 114.698C86.0804 115.005 86.2399 115.043 86.4826 115.039C87.2598 115.033 88.037 115.033 88.8142 115.033C90.9473 115.031 93.0821 115.029 95.2152 115.029C95.7973 115.029 95.8346 115.07 95.8363 115.66C95.8363 115.901 95.8363 116.141 95.8363 116.382C95.8363 116.881 95.7447 116.984 95.2458 116.984C92.4051 116.986 89.5643 116.984 86.7253 116.984C86.0838 116.984 86.0838 116.979 86.0821 117.636C86.0787 119.416 86.0821 121.196 86.0651 122.976C86.0618 123.321 86.2603 123.331 86.503 123.332C87.606 123.332 88.7073 123.339 89.8104 123.336C91.8739 123.329 93.9357 123.319 95.9992 123.309C96.4982 123.305 96.6051 123.402 96.6102 123.889C96.6119 124.172 96.5966 124.454 96.6102 124.736C96.6271 125.111 96.4778 125.27 96.0892 125.269C93.6167 125.259 91.1442 125.264 88.67 125.264C87.2717 125.264 85.8717 125.262 84.4734 125.27C83.9286 125.274 83.8574 125.221 83.8574 124.678C83.8574 121.866 83.8574 119.054 83.8574 116.242H83.8523L83.8506 116.241Z" fill="white"/>
<path d="M103.05 116.241C103.05 113.474 103.05 110.704 103.05 107.936C103.05 107.364 103.106 107.313 103.681 107.313C106.04 107.317 108.399 107.313 110.759 107.319C112.134 107.322 113.422 107.629 114.528 108.493C115.669 109.382 116.11 110.626 116.223 112.004C116.334 113.346 116.117 114.631 115.287 115.741C114.406 116.92 113.172 117.536 111.749 117.674C110.515 117.792 109.266 117.753 108.024 117.772C107.275 117.784 106.525 117.796 105.779 117.763C105.356 117.745 105.246 117.904 105.249 118.301C105.263 120.434 105.258 122.568 105.256 124.699C105.256 125.191 105.18 125.257 104.689 125.261C104.35 125.262 104.012 125.269 103.673 125.281C103.157 125.298 103.053 125.201 103.053 124.674C103.053 121.975 103.055 119.277 103.057 116.581C103.057 116.467 103.057 116.355 103.057 116.241H103.051H103.05ZM105.263 112.589H105.251C105.251 113.507 105.259 114.426 105.246 115.344C105.241 115.654 105.344 115.773 105.665 115.758C106.159 115.734 106.652 115.751 107.146 115.746C108.502 115.734 109.861 115.788 111.211 115.685C112.492 115.586 113.525 115.026 113.895 113.563C114.228 112.248 114.048 111.021 112.979 110.074C112.334 109.503 111.508 109.389 110.678 109.382C109.011 109.369 107.345 109.377 105.678 109.365C105.361 109.363 105.256 109.489 105.258 109.794C105.268 110.726 105.261 111.658 105.261 112.591L105.263 112.589Z" fill="white"/>
<path d="M62.508 125.274C61.4406 125.267 61.4253 125.274 61.0333 124.296C60.4886 122.935 59.9592 121.568 59.4467 120.193C59.333 119.886 59.1208 119.881 58.8782 119.881C57.3526 119.881 55.827 119.884 54.2997 119.883C53.6786 119.883 53.0558 119.884 52.4348 119.869C52.1581 119.862 52.0003 119.95 51.8934 120.225C51.3097 121.737 50.6987 123.239 50.1184 124.753C49.969 125.143 49.7569 125.313 49.3293 125.274C48.9084 125.235 48.4825 125.269 48.0582 125.269C47.7155 125.269 47.5831 125.102 47.7087 124.795C48.3654 123.175 49.0306 121.559 49.6873 119.937C50.529 117.858 51.3623 115.774 52.1989 113.694C52.9998 111.705 53.8076 109.718 54.5967 107.724C54.7087 107.44 54.8733 107.335 55.1601 107.316C56.1398 107.25 56.8084 107.672 57.1659 108.584C58.3029 111.472 59.4365 114.362 60.5802 117.247C61.5 119.569 62.435 121.883 63.3616 124.203C63.4447 124.412 63.5279 124.62 63.6043 124.831C63.7044 125.106 63.6331 125.276 63.3107 125.274C63.0426 125.274 62.7744 125.274 62.5063 125.274H62.508ZM55.7642 110.524C55.637 110.736 55.5521 110.843 55.5046 110.963C54.6544 113.125 53.8127 115.29 52.9557 117.451C52.8403 117.744 52.9048 117.836 53.2052 117.836C54.8546 117.833 56.5058 117.834 58.1553 117.839C58.4319 117.839 58.5116 117.744 58.4064 117.478C57.9347 116.271 57.468 115.063 57.0064 113.853C56.6025 112.791 56.2088 111.723 55.7608 110.524H55.7642Z" fill="white"/>
<path d="M121.826 119.881C120.752 119.881 119.68 119.888 118.606 119.876C118.31 119.873 118.166 119.961 118.052 120.258C117.458 121.813 116.829 123.355 116.218 124.904C116.108 125.184 115.919 125.29 115.631 125.285C115.166 125.274 114.699 125.279 114.234 125.281C113.878 125.283 113.766 125.154 113.902 124.811C114.35 123.669 114.821 122.534 115.278 121.393C116.126 119.27 116.963 117.142 117.815 115.023C118.592 113.088 119.388 111.159 120.172 109.228C120.379 108.717 120.588 108.208 120.771 107.689C120.868 107.419 121.031 107.3 121.309 107.32C121.322 107.32 121.338 107.32 121.351 107.32C122.795 107.281 122.802 107.278 123.332 108.608C124.28 110.994 125.219 113.384 126.166 115.771C126.914 117.66 127.669 119.545 128.419 121.432C128.867 122.559 129.312 123.686 129.753 124.814C129.877 125.132 129.75 125.293 129.402 125.286C128.966 125.276 128.524 125.235 128.092 125.274C127.706 125.31 127.522 125.162 127.393 124.826C126.878 123.482 126.349 122.143 125.828 120.801C125.591 120.192 125.148 119.887 124.497 119.885C123.608 119.885 122.717 119.885 121.828 119.885L121.826 119.881ZM121.945 110.601C121.901 110.611 121.857 110.621 121.815 110.631C121.633 111.105 121.455 111.578 121.27 112.05C120.571 113.821 119.868 115.593 119.171 117.365C119.008 117.779 119.05 117.826 119.481 117.825C121.092 117.821 122.7 117.82 124.311 117.837C124.623 117.84 124.655 117.713 124.57 117.48C124.455 117.163 124.321 116.851 124.202 116.535C123.586 114.899 122.975 113.261 122.359 111.627C122.229 111.283 122.086 110.943 121.949 110.602L121.945 110.601Z" fill="white"/>
<path d="M47.2606 97.4964C45.1624 97.4745 43.1383 97.1012 41.1733 96.3369C39.3537 95.6288 37.729 94.6161 36.236 93.3811C35.6939 92.9323 35.5512 92.297 35.6308 91.6095C35.7584 90.4952 36.2346 89.51 36.7807 88.5535C37.8662 86.6502 39.2261 84.9514 40.6779 83.3198C42.6087 81.1503 44.6835 79.1317 46.9559 77.3203C47.2825 77.0596 47.3978 77.061 47.723 77.3258C50.3783 79.4871 52.8154 81.8721 55 84.5081C56.2529 86.0203 57.4632 87.5737 58.2948 89.3672C58.6213 90.0726 58.8491 90.841 59.0056 91.604C59.162 92.367 58.8752 93.0064 58.2385 93.5279C56.165 95.2295 53.8418 96.4137 51.2346 97.0422C49.9296 97.3564 48.604 97.5005 47.2606 97.4964Z" fill="white"/>
<path d="M30.319 80.5479C30.3684 77.9146 30.8432 75.6943 31.7915 73.5865C32.6409 71.6969 33.8059 70.0104 35.2605 68.5367C35.4444 68.3514 35.8259 68.2636 36.103 68.2855C36.9525 68.3514 37.6866 68.7631 38.3988 69.2049C39.9522 70.1682 41.2544 71.4335 42.5842 72.6685C42.768 72.8386 42.7927 72.9663 42.6308 73.1844C41.3299 74.9299 40.0057 76.6603 38.7625 78.447C37.9885 79.5585 37.3285 80.7524 36.6396 81.9215C35.7641 83.4076 35.03 84.9638 34.4701 86.5967C34.1023 87.6698 33.8471 88.7704 33.9143 89.9203C33.9253 90.1001 33.9953 90.2757 34.0131 90.4555C34.0241 90.5639 33.9871 90.6764 33.972 90.7876C33.869 90.7354 33.7263 90.7121 33.6701 90.6284C33.2996 90.0809 32.9359 89.5278 32.5942 88.9625C31.6789 87.4544 31.0806 85.8159 30.7005 84.1047C30.4179 82.8327 30.2875 81.5359 30.3204 80.5479H30.319Z" fill="white"/>
<path d="M64.3482 80.6839C64.3112 82.9769 63.8679 85.1889 62.9019 87.2638C62.3845 88.3767 61.7053 89.4141 61.0974 90.4844C61.0644 90.5434 61.0233 90.6093 60.9684 90.6422C60.8696 90.7026 60.7584 90.7397 60.6514 90.7877C60.6473 90.6752 60.6144 90.5544 60.6418 90.4515C60.8545 89.6528 60.7488 88.8624 60.5883 88.0761C60.1903 86.1317 59.356 84.3519 58.4105 82.6297C57.6256 81.1998 56.8091 79.7796 55.8966 78.4293C54.7672 76.7565 53.5418 75.1482 52.3233 73.5386C51.8389 72.8991 51.784 72.9184 52.3864 72.3832C53.3758 71.5063 54.3501 70.6089 55.393 69.7979C56.2726 69.1145 57.2167 68.5066 58.3556 68.2912C58.8593 68.1965 59.2325 68.3296 59.5783 68.7001C61.1536 70.3879 62.3818 72.2967 63.2202 74.447C63.8336 76.021 64.1808 77.6594 64.2796 79.3487C64.3057 79.7933 64.3249 80.2379 64.3482 80.6825V80.6839Z" fill="white"/>
<path d="M38.4018 66.1445C38.4896 66.0498 38.5623 65.9235 38.6693 65.8632C40.6701 64.7503 42.7641 63.9256 45.0626 63.6484C47.6438 63.3369 50.1797 63.4892 52.6319 64.3606C53.7764 64.7667 54.8632 65.339 55.9692 65.8522C56.0611 65.8947 56.0968 66.0594 56.1586 66.1664C56.057 66.1925 55.9445 66.2611 55.8553 66.2378C54.9977 66.0141 54.1496 66.1527 53.3098 66.3174C51.261 66.7167 49.3701 67.5304 47.5601 68.5528C47.4462 68.6173 47.2335 68.6241 47.121 68.561C45.5813 67.6979 43.9731 66.9966 42.2756 66.5164C41.2629 66.2296 40.2241 66.0608 39.1634 66.15C38.9273 66.1692 38.6954 66.235 38.4621 66.279C38.4416 66.2337 38.421 66.1884 38.4004 66.1431L38.4018 66.1445Z" fill="white"/>
<path d="M126.315 -1L180.315 -1C188.047 -1 194.315 5.26801 194.315 13V49L140.315 49C132.583 49 126.315 42.732 126.315 35V-1Z" fill="#E31E25"/>
<path d="M127.516 0.200395L180.315 0.200395C187.384 0.200395 193.115 5.93097 193.115 13V47.7996L140.315 47.7996C133.246 47.7996 127.516 42.069 127.516 35V0.200395Z" stroke="black" stroke-opacity="0.2" stroke-width="2.40079"/>
<path fill-rule="evenodd" clip-rule="evenodd" d="M163.748 16.4432C162.281 15.4413 160.507 14.8555 158.597 14.8555C153.546 14.8555 149.452 18.9498 149.452 24.0004C149.452 29.051 153.546 33.1454 158.597 33.1454C160.506 33.1454 162.278 32.5606 163.744 31.5603C161.65 33.9338 158.585 35.4307 155.17 35.4307C148.857 35.4307 143.739 30.3128 143.739 23.9996C143.739 17.6863 148.857 12.5684 155.17 12.5684C158.587 12.5684 161.653 14.0672 163.748 16.4432Z" fill="#FEFEFE"/>
<path d="M165.711 17.3995L168.801 21.2732L173.44 19.5315L170.711 23.6673L173.801 27.541L169.024 26.2234L166.295 30.3593L166.072 25.4091L161.295 24.0915L165.934 22.3497L165.711 17.3995Z" fill="#FEFEFE"/>
</g>
<defs>
<clipPath id="clip0_2355_60742">
<rect y="0.5" width="190" height="190" rx="40" fill="white"/>
</clipPath>
</defs>
</svg>
